G04 EAGLE Gerber RS-274X export*
G75*
%MOMM*%
%FSLAX34Y34*%
%LPD*%
%INTop Silkscreen*%
%IPPOS*%
%AMOC8*
5,1,8,0,0,1.08239X$1,22.5*%
G01*
%ADD10C,0.203200*%
%ADD11C,0.127000*%
%ADD12C,0.120000*%
%ADD13C,0.101600*%
%ADD14C,0.152400*%
%ADD15C,0.762000*%
%ADD16R,0.762000X0.508000*%
%ADD17R,0.762000X1.016000*%
%ADD18C,0.500000*%
%ADD19C,0.254000*%
%ADD20C,0.200000*%


D10*
X24287Y228346D02*
X24287Y239014D01*
X27250Y239014D01*
X27357Y239012D01*
X27464Y239006D01*
X27570Y238997D01*
X27676Y238983D01*
X27782Y238966D01*
X27887Y238945D01*
X27991Y238920D01*
X28094Y238891D01*
X28196Y238859D01*
X28297Y238823D01*
X28396Y238783D01*
X28494Y238740D01*
X28590Y238693D01*
X28685Y238643D01*
X28778Y238590D01*
X28868Y238533D01*
X28957Y238473D01*
X29043Y238410D01*
X29127Y238344D01*
X29209Y238274D01*
X29288Y238202D01*
X29364Y238127D01*
X29438Y238049D01*
X29508Y237969D01*
X29576Y237886D01*
X29641Y237801D01*
X29702Y237714D01*
X29761Y237624D01*
X29816Y237532D01*
X29868Y237439D01*
X29916Y237343D01*
X29961Y237246D01*
X30003Y237148D01*
X30040Y237048D01*
X30075Y236946D01*
X30105Y236844D01*
X30132Y236740D01*
X30155Y236636D01*
X30174Y236530D01*
X30189Y236424D01*
X30201Y236318D01*
X30209Y236211D01*
X30213Y236104D01*
X30213Y235998D01*
X30209Y235891D01*
X30201Y235784D01*
X30189Y235678D01*
X30174Y235572D01*
X30155Y235466D01*
X30132Y235362D01*
X30105Y235258D01*
X30075Y235156D01*
X30040Y235054D01*
X30003Y234954D01*
X29961Y234856D01*
X29916Y234759D01*
X29868Y234663D01*
X29816Y234570D01*
X29761Y234478D01*
X29702Y234388D01*
X29641Y234301D01*
X29576Y234216D01*
X29508Y234133D01*
X29438Y234053D01*
X29364Y233975D01*
X29288Y233900D01*
X29209Y233828D01*
X29127Y233758D01*
X29043Y233692D01*
X28957Y233629D01*
X28868Y233569D01*
X28778Y233512D01*
X28685Y233459D01*
X28590Y233409D01*
X28494Y233362D01*
X28396Y233319D01*
X28297Y233279D01*
X28196Y233243D01*
X28094Y233211D01*
X27991Y233182D01*
X27887Y233157D01*
X27782Y233136D01*
X27676Y233119D01*
X27570Y233105D01*
X27464Y233096D01*
X27357Y233090D01*
X27250Y233088D01*
X27250Y233087D02*
X24287Y233087D01*
X35082Y231309D02*
X35082Y236051D01*
X35084Y236158D01*
X35090Y236265D01*
X35099Y236371D01*
X35113Y236477D01*
X35130Y236583D01*
X35151Y236688D01*
X35176Y236792D01*
X35205Y236895D01*
X35237Y236997D01*
X35273Y237098D01*
X35313Y237197D01*
X35356Y237295D01*
X35403Y237391D01*
X35453Y237486D01*
X35506Y237579D01*
X35563Y237669D01*
X35623Y237758D01*
X35686Y237844D01*
X35752Y237928D01*
X35822Y238010D01*
X35894Y238089D01*
X35969Y238165D01*
X36047Y238239D01*
X36127Y238309D01*
X36210Y238377D01*
X36295Y238442D01*
X36382Y238503D01*
X36472Y238562D01*
X36563Y238617D01*
X36657Y238669D01*
X36753Y238717D01*
X36850Y238762D01*
X36948Y238804D01*
X37048Y238841D01*
X37150Y238876D01*
X37252Y238906D01*
X37356Y238933D01*
X37460Y238956D01*
X37566Y238975D01*
X37672Y238990D01*
X37778Y239002D01*
X37885Y239010D01*
X37992Y239014D01*
X38098Y239014D01*
X38205Y239010D01*
X38312Y239002D01*
X38418Y238990D01*
X38524Y238975D01*
X38630Y238956D01*
X38734Y238933D01*
X38838Y238906D01*
X38940Y238876D01*
X39042Y238841D01*
X39142Y238804D01*
X39240Y238762D01*
X39337Y238717D01*
X39433Y238669D01*
X39527Y238617D01*
X39618Y238562D01*
X39708Y238503D01*
X39795Y238442D01*
X39880Y238377D01*
X39963Y238309D01*
X40043Y238239D01*
X40121Y238165D01*
X40196Y238089D01*
X40268Y238010D01*
X40338Y237928D01*
X40404Y237844D01*
X40467Y237758D01*
X40527Y237669D01*
X40584Y237579D01*
X40637Y237486D01*
X40687Y237391D01*
X40734Y237295D01*
X40777Y237197D01*
X40817Y237098D01*
X40853Y236997D01*
X40885Y236895D01*
X40914Y236792D01*
X40939Y236688D01*
X40960Y236583D01*
X40977Y236477D01*
X40991Y236371D01*
X41000Y236265D01*
X41006Y236158D01*
X41008Y236051D01*
X41008Y231309D01*
X41006Y231202D01*
X41000Y231095D01*
X40991Y230989D01*
X40977Y230883D01*
X40960Y230777D01*
X40939Y230672D01*
X40914Y230568D01*
X40885Y230465D01*
X40853Y230363D01*
X40817Y230262D01*
X40777Y230163D01*
X40734Y230065D01*
X40687Y229969D01*
X40637Y229874D01*
X40584Y229781D01*
X40527Y229691D01*
X40467Y229602D01*
X40404Y229516D01*
X40338Y229432D01*
X40268Y229350D01*
X40196Y229271D01*
X40121Y229195D01*
X40043Y229121D01*
X39963Y229051D01*
X39880Y228983D01*
X39795Y228918D01*
X39708Y228857D01*
X39618Y228798D01*
X39526Y228743D01*
X39433Y228691D01*
X39337Y228643D01*
X39240Y228598D01*
X39142Y228556D01*
X39042Y228519D01*
X38940Y228484D01*
X38838Y228454D01*
X38734Y228427D01*
X38630Y228404D01*
X38524Y228385D01*
X38418Y228370D01*
X38312Y228358D01*
X38205Y228350D01*
X38098Y228346D01*
X37992Y228346D01*
X37885Y228350D01*
X37778Y228358D01*
X37672Y228370D01*
X37566Y228385D01*
X37460Y228404D01*
X37356Y228427D01*
X37252Y228454D01*
X37150Y228484D01*
X37048Y228519D01*
X36948Y228556D01*
X36850Y228598D01*
X36753Y228643D01*
X36657Y228691D01*
X36563Y228743D01*
X36472Y228798D01*
X36382Y228857D01*
X36295Y228918D01*
X36210Y228983D01*
X36127Y229051D01*
X36047Y229121D01*
X35969Y229195D01*
X35894Y229271D01*
X35822Y229350D01*
X35752Y229432D01*
X35686Y229516D01*
X35623Y229602D01*
X35563Y229691D01*
X35506Y229781D01*
X35453Y229874D01*
X35403Y229969D01*
X35356Y230065D01*
X35313Y230163D01*
X35273Y230262D01*
X35237Y230363D01*
X35205Y230465D01*
X35176Y230568D01*
X35151Y230672D01*
X35130Y230777D01*
X35113Y230883D01*
X35099Y230989D01*
X35090Y231095D01*
X35084Y231202D01*
X35082Y231309D01*
X46257Y239014D02*
X48628Y228346D01*
X50999Y235458D01*
X53369Y228346D01*
X55740Y239014D01*
X61404Y228346D02*
X66146Y228346D01*
X61404Y228346D02*
X61404Y239014D01*
X66146Y239014D01*
X64960Y234273D02*
X61404Y234273D01*
X71387Y239014D02*
X71387Y228346D01*
X71387Y239014D02*
X74350Y239014D01*
X74457Y239012D01*
X74564Y239006D01*
X74670Y238997D01*
X74776Y238983D01*
X74882Y238966D01*
X74987Y238945D01*
X75091Y238920D01*
X75194Y238891D01*
X75296Y238859D01*
X75397Y238823D01*
X75496Y238783D01*
X75594Y238740D01*
X75690Y238693D01*
X75785Y238643D01*
X75878Y238590D01*
X75968Y238533D01*
X76057Y238473D01*
X76143Y238410D01*
X76227Y238344D01*
X76309Y238274D01*
X76388Y238202D01*
X76464Y238127D01*
X76538Y238049D01*
X76608Y237969D01*
X76676Y237886D01*
X76741Y237801D01*
X76802Y237714D01*
X76861Y237624D01*
X76916Y237532D01*
X76968Y237439D01*
X77016Y237343D01*
X77061Y237246D01*
X77103Y237148D01*
X77140Y237048D01*
X77175Y236946D01*
X77205Y236844D01*
X77232Y236740D01*
X77255Y236636D01*
X77274Y236530D01*
X77289Y236424D01*
X77301Y236318D01*
X77309Y236211D01*
X77313Y236104D01*
X77313Y235998D01*
X77309Y235891D01*
X77301Y235784D01*
X77289Y235678D01*
X77274Y235572D01*
X77255Y235466D01*
X77232Y235362D01*
X77205Y235258D01*
X77175Y235156D01*
X77140Y235054D01*
X77103Y234954D01*
X77061Y234856D01*
X77016Y234759D01*
X76968Y234663D01*
X76916Y234570D01*
X76861Y234478D01*
X76802Y234388D01*
X76741Y234301D01*
X76676Y234216D01*
X76608Y234133D01*
X76538Y234053D01*
X76464Y233975D01*
X76388Y233900D01*
X76309Y233828D01*
X76227Y233758D01*
X76143Y233692D01*
X76057Y233629D01*
X75968Y233569D01*
X75878Y233512D01*
X75785Y233459D01*
X75690Y233409D01*
X75594Y233362D01*
X75496Y233319D01*
X75397Y233279D01*
X75296Y233243D01*
X75194Y233211D01*
X75091Y233182D01*
X74987Y233157D01*
X74882Y233136D01*
X74776Y233119D01*
X74670Y233105D01*
X74564Y233096D01*
X74457Y233090D01*
X74350Y233088D01*
X74350Y233087D02*
X71387Y233087D01*
X74943Y233087D02*
X77314Y228346D01*
X24342Y307086D02*
X24438Y307088D01*
X24533Y307094D01*
X24628Y307103D01*
X24722Y307117D01*
X24816Y307134D01*
X24909Y307155D01*
X25002Y307180D01*
X25093Y307208D01*
X25183Y307240D01*
X25271Y307276D01*
X25358Y307315D01*
X25444Y307358D01*
X25528Y307404D01*
X25609Y307453D01*
X25689Y307506D01*
X25766Y307562D01*
X25842Y307620D01*
X25914Y307682D01*
X25984Y307747D01*
X26052Y307815D01*
X26117Y307885D01*
X26179Y307957D01*
X26237Y308033D01*
X26293Y308110D01*
X26346Y308190D01*
X26395Y308272D01*
X26441Y308355D01*
X26484Y308441D01*
X26523Y308528D01*
X26559Y308616D01*
X26591Y308706D01*
X26619Y308797D01*
X26644Y308890D01*
X26665Y308983D01*
X26682Y309077D01*
X26696Y309171D01*
X26705Y309266D01*
X26711Y309362D01*
X26713Y309457D01*
X24342Y307086D02*
X24206Y307088D01*
X24069Y307093D01*
X23933Y307103D01*
X23798Y307116D01*
X23662Y307132D01*
X23528Y307153D01*
X23393Y307177D01*
X23260Y307204D01*
X23127Y307236D01*
X22995Y307270D01*
X22864Y307309D01*
X22735Y307351D01*
X22606Y307396D01*
X22479Y307445D01*
X22353Y307498D01*
X22229Y307554D01*
X22106Y307613D01*
X21985Y307675D01*
X21865Y307741D01*
X21748Y307810D01*
X21632Y307883D01*
X21518Y307958D01*
X21407Y308036D01*
X21297Y308118D01*
X21190Y308202D01*
X21086Y308289D01*
X20983Y308379D01*
X20883Y308472D01*
X20786Y308568D01*
X21082Y315383D02*
X21084Y315478D01*
X21090Y315574D01*
X21099Y315669D01*
X21113Y315763D01*
X21130Y315857D01*
X21151Y315950D01*
X21176Y316043D01*
X21204Y316134D01*
X21236Y316224D01*
X21272Y316312D01*
X21311Y316399D01*
X21354Y316485D01*
X21400Y316569D01*
X21449Y316650D01*
X21502Y316730D01*
X21558Y316807D01*
X21616Y316883D01*
X21678Y316955D01*
X21743Y317025D01*
X21811Y317093D01*
X21881Y317158D01*
X21953Y317220D01*
X22029Y317278D01*
X22106Y317334D01*
X22186Y317387D01*
X22268Y317436D01*
X22351Y317482D01*
X22437Y317525D01*
X22524Y317564D01*
X22612Y317600D01*
X22702Y317632D01*
X22793Y317660D01*
X22886Y317685D01*
X22979Y317706D01*
X23073Y317723D01*
X23167Y317737D01*
X23262Y317746D01*
X23358Y317752D01*
X23453Y317754D01*
X23583Y317752D01*
X23713Y317746D01*
X23843Y317737D01*
X23972Y317724D01*
X24101Y317707D01*
X24229Y317686D01*
X24357Y317661D01*
X24484Y317633D01*
X24610Y317601D01*
X24735Y317565D01*
X24859Y317526D01*
X24981Y317483D01*
X25103Y317437D01*
X25223Y317386D01*
X25341Y317333D01*
X25458Y317276D01*
X25573Y317216D01*
X25687Y317152D01*
X25798Y317085D01*
X25908Y317015D01*
X26015Y316941D01*
X26120Y316865D01*
X22268Y313308D02*
X22186Y313359D01*
X22106Y313413D01*
X22028Y313469D01*
X21953Y313529D01*
X21880Y313592D01*
X21810Y313658D01*
X21743Y313726D01*
X21678Y313797D01*
X21616Y313871D01*
X21557Y313947D01*
X21501Y314025D01*
X21449Y314106D01*
X21399Y314188D01*
X21353Y314273D01*
X21311Y314359D01*
X21271Y314447D01*
X21236Y314536D01*
X21204Y314627D01*
X21175Y314719D01*
X21151Y314812D01*
X21130Y314905D01*
X21113Y315000D01*
X21099Y315095D01*
X21090Y315191D01*
X21084Y315287D01*
X21082Y315383D01*
X25528Y311532D02*
X25609Y311481D01*
X25689Y311427D01*
X25767Y311371D01*
X25842Y311311D01*
X25915Y311248D01*
X25985Y311182D01*
X26052Y311114D01*
X26117Y311043D01*
X26179Y310969D01*
X26238Y310893D01*
X26294Y310815D01*
X26346Y310734D01*
X26396Y310652D01*
X26442Y310567D01*
X26484Y310481D01*
X26524Y310393D01*
X26559Y310304D01*
X26591Y310213D01*
X26620Y310121D01*
X26644Y310028D01*
X26665Y309935D01*
X26682Y309840D01*
X26696Y309745D01*
X26705Y309649D01*
X26711Y309553D01*
X26713Y309457D01*
X25527Y311531D02*
X22267Y313309D01*
X34036Y317754D02*
X34036Y307086D01*
X31073Y317754D02*
X36999Y317754D01*
X44704Y317754D02*
X41148Y307086D01*
X48260Y307086D02*
X44704Y317754D01*
X47371Y309753D02*
X42037Y309753D01*
X55372Y307086D02*
X55372Y317754D01*
X52409Y317754D02*
X58335Y317754D01*
X63458Y317754D02*
X63458Y310049D01*
X63460Y309942D01*
X63466Y309835D01*
X63475Y309729D01*
X63489Y309623D01*
X63506Y309517D01*
X63527Y309412D01*
X63552Y309308D01*
X63581Y309205D01*
X63613Y309103D01*
X63649Y309002D01*
X63689Y308903D01*
X63732Y308805D01*
X63779Y308709D01*
X63829Y308614D01*
X63882Y308521D01*
X63939Y308431D01*
X63999Y308342D01*
X64062Y308256D01*
X64128Y308172D01*
X64198Y308090D01*
X64270Y308011D01*
X64345Y307935D01*
X64423Y307861D01*
X64503Y307791D01*
X64586Y307723D01*
X64671Y307658D01*
X64758Y307597D01*
X64848Y307538D01*
X64939Y307483D01*
X65033Y307431D01*
X65129Y307383D01*
X65226Y307338D01*
X65324Y307296D01*
X65424Y307259D01*
X65526Y307224D01*
X65628Y307194D01*
X65732Y307167D01*
X65836Y307144D01*
X65942Y307125D01*
X66048Y307110D01*
X66154Y307098D01*
X66261Y307090D01*
X66368Y307086D01*
X66474Y307086D01*
X66581Y307090D01*
X66688Y307098D01*
X66794Y307110D01*
X66900Y307125D01*
X67006Y307144D01*
X67110Y307167D01*
X67214Y307194D01*
X67316Y307224D01*
X67418Y307259D01*
X67518Y307296D01*
X67616Y307338D01*
X67713Y307383D01*
X67809Y307431D01*
X67902Y307483D01*
X67994Y307538D01*
X68084Y307597D01*
X68171Y307658D01*
X68256Y307723D01*
X68339Y307791D01*
X68419Y307861D01*
X68497Y307935D01*
X68572Y308011D01*
X68644Y308090D01*
X68714Y308172D01*
X68780Y308256D01*
X68843Y308342D01*
X68903Y308431D01*
X68960Y308521D01*
X69013Y308614D01*
X69063Y308709D01*
X69110Y308805D01*
X69153Y308903D01*
X69193Y309002D01*
X69229Y309103D01*
X69261Y309205D01*
X69290Y309308D01*
X69315Y309412D01*
X69336Y309517D01*
X69353Y309623D01*
X69367Y309729D01*
X69376Y309835D01*
X69382Y309942D01*
X69384Y310049D01*
X69384Y317754D01*
X78444Y307086D02*
X78540Y307088D01*
X78635Y307094D01*
X78730Y307103D01*
X78824Y307117D01*
X78918Y307134D01*
X79011Y307155D01*
X79104Y307180D01*
X79195Y307208D01*
X79285Y307240D01*
X79373Y307276D01*
X79460Y307315D01*
X79546Y307358D01*
X79630Y307404D01*
X79711Y307453D01*
X79791Y307506D01*
X79868Y307562D01*
X79944Y307620D01*
X80016Y307682D01*
X80086Y307747D01*
X80154Y307815D01*
X80219Y307885D01*
X80281Y307957D01*
X80339Y308033D01*
X80395Y308110D01*
X80448Y308190D01*
X80497Y308272D01*
X80543Y308355D01*
X80586Y308441D01*
X80625Y308528D01*
X80661Y308616D01*
X80693Y308706D01*
X80721Y308797D01*
X80746Y308890D01*
X80767Y308983D01*
X80784Y309077D01*
X80798Y309171D01*
X80807Y309266D01*
X80813Y309362D01*
X80815Y309457D01*
X78444Y307086D02*
X78308Y307088D01*
X78171Y307093D01*
X78035Y307103D01*
X77900Y307116D01*
X77764Y307132D01*
X77630Y307153D01*
X77495Y307177D01*
X77362Y307204D01*
X77229Y307236D01*
X77097Y307270D01*
X76966Y307309D01*
X76837Y307351D01*
X76708Y307396D01*
X76581Y307445D01*
X76455Y307498D01*
X76331Y307554D01*
X76208Y307613D01*
X76087Y307675D01*
X75967Y307741D01*
X75850Y307810D01*
X75734Y307883D01*
X75620Y307958D01*
X75509Y308036D01*
X75399Y308118D01*
X75292Y308202D01*
X75188Y308289D01*
X75085Y308379D01*
X74985Y308472D01*
X74888Y308568D01*
X75184Y315383D02*
X75186Y315478D01*
X75192Y315574D01*
X75201Y315669D01*
X75215Y315763D01*
X75232Y315857D01*
X75253Y315950D01*
X75278Y316043D01*
X75306Y316134D01*
X75338Y316224D01*
X75374Y316312D01*
X75413Y316399D01*
X75456Y316485D01*
X75502Y316569D01*
X75551Y316650D01*
X75604Y316730D01*
X75660Y316807D01*
X75718Y316883D01*
X75780Y316955D01*
X75845Y317025D01*
X75913Y317093D01*
X75983Y317158D01*
X76055Y317220D01*
X76131Y317278D01*
X76208Y317334D01*
X76288Y317387D01*
X76370Y317436D01*
X76453Y317482D01*
X76539Y317525D01*
X76626Y317564D01*
X76714Y317600D01*
X76804Y317632D01*
X76895Y317660D01*
X76988Y317685D01*
X77081Y317706D01*
X77175Y317723D01*
X77269Y317737D01*
X77364Y317746D01*
X77460Y317752D01*
X77555Y317754D01*
X77685Y317752D01*
X77815Y317746D01*
X77945Y317737D01*
X78074Y317724D01*
X78203Y317707D01*
X78331Y317686D01*
X78459Y317661D01*
X78586Y317633D01*
X78712Y317601D01*
X78837Y317565D01*
X78961Y317526D01*
X79083Y317483D01*
X79205Y317437D01*
X79325Y317386D01*
X79443Y317333D01*
X79560Y317276D01*
X79675Y317216D01*
X79789Y317152D01*
X79900Y317085D01*
X80010Y317015D01*
X80117Y316941D01*
X80222Y316865D01*
X76370Y313308D02*
X76288Y313359D01*
X76208Y313413D01*
X76130Y313469D01*
X76055Y313529D01*
X75982Y313592D01*
X75912Y313658D01*
X75845Y313726D01*
X75780Y313797D01*
X75718Y313871D01*
X75659Y313947D01*
X75603Y314025D01*
X75551Y314106D01*
X75501Y314188D01*
X75455Y314273D01*
X75413Y314359D01*
X75373Y314447D01*
X75338Y314536D01*
X75306Y314627D01*
X75277Y314719D01*
X75253Y314812D01*
X75232Y314905D01*
X75215Y315000D01*
X75201Y315095D01*
X75192Y315191D01*
X75186Y315287D01*
X75184Y315383D01*
X79630Y311532D02*
X79711Y311481D01*
X79791Y311427D01*
X79869Y311371D01*
X79944Y311311D01*
X80017Y311248D01*
X80087Y311182D01*
X80154Y311114D01*
X80219Y311043D01*
X80281Y310969D01*
X80340Y310893D01*
X80396Y310815D01*
X80448Y310734D01*
X80498Y310652D01*
X80544Y310567D01*
X80586Y310481D01*
X80626Y310393D01*
X80661Y310304D01*
X80693Y310213D01*
X80722Y310121D01*
X80746Y310028D01*
X80767Y309935D01*
X80784Y309840D01*
X80798Y309745D01*
X80807Y309649D01*
X80813Y309553D01*
X80815Y309457D01*
X79629Y311531D02*
X76369Y313309D01*
D11*
X93768Y-35772D02*
X93766Y-35853D01*
X93760Y-35933D01*
X93751Y-36013D01*
X93737Y-36092D01*
X93720Y-36171D01*
X93699Y-36249D01*
X93675Y-36326D01*
X93647Y-36401D01*
X93615Y-36475D01*
X93580Y-36548D01*
X93541Y-36618D01*
X93499Y-36687D01*
X93454Y-36754D01*
X93406Y-36819D01*
X93354Y-36881D01*
X93300Y-36940D01*
X93243Y-36997D01*
X93184Y-37051D01*
X93122Y-37103D01*
X93057Y-37151D01*
X92990Y-37196D01*
X92922Y-37238D01*
X92851Y-37277D01*
X92778Y-37312D01*
X92704Y-37344D01*
X92629Y-37372D01*
X92552Y-37396D01*
X92474Y-37417D01*
X92395Y-37434D01*
X92316Y-37448D01*
X92236Y-37457D01*
X92156Y-37463D01*
X92075Y-37465D01*
X91957Y-37463D01*
X91840Y-37457D01*
X91723Y-37448D01*
X91606Y-37434D01*
X91489Y-37417D01*
X91374Y-37396D01*
X91259Y-37371D01*
X91144Y-37342D01*
X91031Y-37309D01*
X90919Y-37273D01*
X90809Y-37233D01*
X90699Y-37190D01*
X90591Y-37143D01*
X90485Y-37092D01*
X90381Y-37038D01*
X90278Y-36981D01*
X90177Y-36920D01*
X90078Y-36856D01*
X89982Y-36789D01*
X89888Y-36718D01*
X89796Y-36645D01*
X89706Y-36568D01*
X89619Y-36489D01*
X89535Y-36407D01*
X89747Y-31538D02*
X89749Y-31457D01*
X89755Y-31377D01*
X89764Y-31297D01*
X89778Y-31218D01*
X89795Y-31139D01*
X89816Y-31061D01*
X89840Y-30984D01*
X89868Y-30909D01*
X89900Y-30835D01*
X89935Y-30762D01*
X89974Y-30691D01*
X90016Y-30623D01*
X90061Y-30556D01*
X90109Y-30491D01*
X90161Y-30429D01*
X90215Y-30370D01*
X90272Y-30313D01*
X90331Y-30259D01*
X90393Y-30207D01*
X90458Y-30159D01*
X90525Y-30114D01*
X90594Y-30072D01*
X90664Y-30033D01*
X90737Y-29998D01*
X90811Y-29966D01*
X90886Y-29938D01*
X90963Y-29914D01*
X91041Y-29893D01*
X91120Y-29876D01*
X91199Y-29862D01*
X91279Y-29853D01*
X91359Y-29847D01*
X91440Y-29845D01*
X91548Y-29847D01*
X91655Y-29852D01*
X91762Y-29861D01*
X91869Y-29874D01*
X91975Y-29890D01*
X92081Y-29910D01*
X92186Y-29934D01*
X92290Y-29961D01*
X92393Y-29991D01*
X92495Y-30025D01*
X92596Y-30063D01*
X92695Y-30104D01*
X92793Y-30148D01*
X92890Y-30195D01*
X92984Y-30246D01*
X93078Y-30300D01*
X93169Y-30357D01*
X93258Y-30417D01*
X93345Y-30480D01*
X90593Y-33020D02*
X90524Y-32977D01*
X90457Y-32931D01*
X90392Y-32882D01*
X90330Y-32830D01*
X90271Y-32775D01*
X90214Y-32717D01*
X90159Y-32656D01*
X90108Y-32594D01*
X90060Y-32528D01*
X90015Y-32461D01*
X89973Y-32391D01*
X89934Y-32320D01*
X89899Y-32247D01*
X89867Y-32172D01*
X89839Y-32096D01*
X89815Y-32019D01*
X89794Y-31940D01*
X89777Y-31861D01*
X89763Y-31781D01*
X89754Y-31700D01*
X89748Y-31619D01*
X89746Y-31538D01*
X92921Y-34290D02*
X92990Y-34333D01*
X93057Y-34379D01*
X93122Y-34428D01*
X93184Y-34480D01*
X93243Y-34535D01*
X93301Y-34593D01*
X93355Y-34654D01*
X93406Y-34716D01*
X93454Y-34782D01*
X93499Y-34849D01*
X93541Y-34919D01*
X93580Y-34990D01*
X93615Y-35063D01*
X93647Y-35138D01*
X93675Y-35214D01*
X93700Y-35291D01*
X93720Y-35370D01*
X93737Y-35449D01*
X93751Y-35529D01*
X93760Y-35610D01*
X93766Y-35691D01*
X93768Y-35772D01*
X92922Y-34290D02*
X90593Y-33020D01*
X98429Y-37465D02*
X100546Y-37465D01*
X98429Y-37465D02*
X98360Y-37463D01*
X98292Y-37458D01*
X98224Y-37448D01*
X98156Y-37435D01*
X98089Y-37419D01*
X98023Y-37399D01*
X97959Y-37375D01*
X97896Y-37348D01*
X97834Y-37317D01*
X97774Y-37283D01*
X97716Y-37246D01*
X97660Y-37206D01*
X97607Y-37163D01*
X97556Y-37117D01*
X97507Y-37068D01*
X97461Y-37017D01*
X97418Y-36964D01*
X97378Y-36908D01*
X97341Y-36850D01*
X97307Y-36790D01*
X97276Y-36728D01*
X97249Y-36665D01*
X97225Y-36601D01*
X97205Y-36535D01*
X97189Y-36468D01*
X97176Y-36400D01*
X97166Y-36332D01*
X97161Y-36264D01*
X97159Y-36195D01*
X97159Y-34078D01*
X97160Y-34078D02*
X97162Y-33997D01*
X97168Y-33917D01*
X97177Y-33837D01*
X97191Y-33758D01*
X97208Y-33679D01*
X97229Y-33601D01*
X97253Y-33524D01*
X97281Y-33449D01*
X97313Y-33375D01*
X97348Y-33302D01*
X97387Y-33232D01*
X97429Y-33163D01*
X97474Y-33096D01*
X97522Y-33031D01*
X97574Y-32969D01*
X97628Y-32910D01*
X97685Y-32853D01*
X97744Y-32799D01*
X97806Y-32747D01*
X97871Y-32699D01*
X97938Y-32654D01*
X98007Y-32612D01*
X98077Y-32573D01*
X98150Y-32538D01*
X98224Y-32506D01*
X98299Y-32478D01*
X98376Y-32454D01*
X98454Y-32433D01*
X98533Y-32416D01*
X98612Y-32402D01*
X98692Y-32393D01*
X98772Y-32387D01*
X98853Y-32385D01*
X98934Y-32387D01*
X99014Y-32393D01*
X99094Y-32402D01*
X99173Y-32416D01*
X99252Y-32433D01*
X99330Y-32454D01*
X99407Y-32478D01*
X99482Y-32506D01*
X99556Y-32538D01*
X99629Y-32573D01*
X99700Y-32612D01*
X99768Y-32654D01*
X99835Y-32699D01*
X99900Y-32747D01*
X99962Y-32799D01*
X100021Y-32853D01*
X100078Y-32910D01*
X100132Y-32969D01*
X100184Y-33031D01*
X100232Y-33096D01*
X100277Y-33163D01*
X100319Y-33232D01*
X100358Y-33302D01*
X100393Y-33375D01*
X100425Y-33449D01*
X100453Y-33524D01*
X100477Y-33601D01*
X100498Y-33679D01*
X100515Y-33758D01*
X100529Y-33837D01*
X100538Y-33917D01*
X100544Y-33997D01*
X100546Y-34078D01*
X100546Y-34925D01*
X97159Y-34925D01*
X104425Y-37465D02*
X104425Y-32385D01*
X106965Y-32385D01*
X106965Y-33232D01*
X109427Y-32385D02*
X111121Y-37465D01*
X112814Y-32385D01*
X116095Y-34078D02*
X116095Y-35772D01*
X116095Y-34078D02*
X116097Y-33997D01*
X116103Y-33917D01*
X116112Y-33837D01*
X116126Y-33758D01*
X116143Y-33679D01*
X116164Y-33601D01*
X116188Y-33524D01*
X116216Y-33449D01*
X116248Y-33375D01*
X116283Y-33302D01*
X116322Y-33232D01*
X116364Y-33163D01*
X116409Y-33096D01*
X116457Y-33031D01*
X116509Y-32969D01*
X116563Y-32910D01*
X116620Y-32853D01*
X116679Y-32799D01*
X116741Y-32747D01*
X116806Y-32699D01*
X116873Y-32654D01*
X116942Y-32612D01*
X117012Y-32573D01*
X117085Y-32538D01*
X117159Y-32506D01*
X117234Y-32478D01*
X117311Y-32454D01*
X117389Y-32433D01*
X117468Y-32416D01*
X117547Y-32402D01*
X117627Y-32393D01*
X117707Y-32387D01*
X117788Y-32385D01*
X117869Y-32387D01*
X117949Y-32393D01*
X118029Y-32402D01*
X118108Y-32416D01*
X118187Y-32433D01*
X118265Y-32454D01*
X118342Y-32478D01*
X118417Y-32506D01*
X118491Y-32538D01*
X118564Y-32573D01*
X118635Y-32612D01*
X118703Y-32654D01*
X118770Y-32699D01*
X118835Y-32747D01*
X118897Y-32799D01*
X118956Y-32853D01*
X119013Y-32910D01*
X119067Y-32969D01*
X119119Y-33031D01*
X119167Y-33096D01*
X119212Y-33163D01*
X119254Y-33232D01*
X119293Y-33302D01*
X119328Y-33375D01*
X119360Y-33449D01*
X119388Y-33524D01*
X119412Y-33601D01*
X119433Y-33679D01*
X119450Y-33758D01*
X119464Y-33837D01*
X119473Y-33917D01*
X119479Y-33997D01*
X119481Y-34078D01*
X119481Y-35772D01*
X119479Y-35853D01*
X119473Y-35933D01*
X119464Y-36013D01*
X119450Y-36092D01*
X119433Y-36171D01*
X119412Y-36249D01*
X119388Y-36326D01*
X119360Y-36401D01*
X119328Y-36475D01*
X119293Y-36548D01*
X119254Y-36618D01*
X119212Y-36687D01*
X119167Y-36754D01*
X119119Y-36819D01*
X119067Y-36881D01*
X119013Y-36940D01*
X118956Y-36997D01*
X118897Y-37051D01*
X118835Y-37103D01*
X118770Y-37151D01*
X118703Y-37196D01*
X118635Y-37238D01*
X118564Y-37277D01*
X118491Y-37312D01*
X118417Y-37344D01*
X118342Y-37372D01*
X118265Y-37396D01*
X118187Y-37417D01*
X118108Y-37434D01*
X118029Y-37448D01*
X117949Y-37457D01*
X117869Y-37463D01*
X117788Y-37465D01*
X117707Y-37463D01*
X117627Y-37457D01*
X117547Y-37448D01*
X117468Y-37434D01*
X117389Y-37417D01*
X117311Y-37396D01*
X117234Y-37372D01*
X117159Y-37344D01*
X117085Y-37312D01*
X117012Y-37277D01*
X116942Y-37238D01*
X116873Y-37196D01*
X116806Y-37151D01*
X116741Y-37103D01*
X116679Y-37051D01*
X116620Y-36997D01*
X116563Y-36940D01*
X116509Y-36881D01*
X116457Y-36819D01*
X116409Y-36754D01*
X116364Y-36687D01*
X116322Y-36619D01*
X116283Y-36548D01*
X116248Y-36475D01*
X116216Y-36401D01*
X116188Y-36326D01*
X116164Y-36249D01*
X116143Y-36171D01*
X116126Y-36092D01*
X116112Y-36013D01*
X116103Y-35933D01*
X116097Y-35853D01*
X116095Y-35772D01*
X129067Y-37465D02*
X130760Y-37465D01*
X129067Y-37465D02*
X128986Y-37463D01*
X128906Y-37457D01*
X128826Y-37448D01*
X128747Y-37434D01*
X128668Y-37417D01*
X128590Y-37396D01*
X128513Y-37372D01*
X128438Y-37344D01*
X128364Y-37312D01*
X128291Y-37277D01*
X128221Y-37238D01*
X128152Y-37196D01*
X128085Y-37151D01*
X128020Y-37103D01*
X127958Y-37051D01*
X127899Y-36997D01*
X127842Y-36940D01*
X127788Y-36881D01*
X127736Y-36819D01*
X127688Y-36754D01*
X127643Y-36687D01*
X127601Y-36619D01*
X127562Y-36548D01*
X127527Y-36475D01*
X127495Y-36401D01*
X127467Y-36326D01*
X127443Y-36249D01*
X127422Y-36171D01*
X127405Y-36092D01*
X127391Y-36013D01*
X127382Y-35933D01*
X127376Y-35853D01*
X127374Y-35772D01*
X127374Y-31538D01*
X127376Y-31457D01*
X127382Y-31377D01*
X127391Y-31297D01*
X127405Y-31218D01*
X127422Y-31139D01*
X127443Y-31061D01*
X127467Y-30984D01*
X127495Y-30909D01*
X127527Y-30835D01*
X127562Y-30762D01*
X127601Y-30692D01*
X127643Y-30623D01*
X127688Y-30556D01*
X127736Y-30491D01*
X127787Y-30429D01*
X127842Y-30370D01*
X127899Y-30313D01*
X127958Y-30259D01*
X128020Y-30207D01*
X128085Y-30159D01*
X128152Y-30114D01*
X128220Y-30072D01*
X128291Y-30033D01*
X128364Y-29998D01*
X128438Y-29966D01*
X128513Y-29938D01*
X128590Y-29914D01*
X128668Y-29893D01*
X128747Y-29876D01*
X128826Y-29862D01*
X128906Y-29853D01*
X128986Y-29847D01*
X129067Y-29845D01*
X130760Y-29845D01*
X133964Y-34078D02*
X133964Y-35772D01*
X133964Y-34078D02*
X133966Y-33997D01*
X133972Y-33917D01*
X133981Y-33837D01*
X133995Y-33758D01*
X134012Y-33679D01*
X134033Y-33601D01*
X134057Y-33524D01*
X134085Y-33449D01*
X134117Y-33375D01*
X134152Y-33302D01*
X134191Y-33232D01*
X134233Y-33163D01*
X134278Y-33096D01*
X134326Y-33031D01*
X134378Y-32969D01*
X134432Y-32910D01*
X134489Y-32853D01*
X134548Y-32799D01*
X134610Y-32747D01*
X134675Y-32699D01*
X134742Y-32654D01*
X134811Y-32612D01*
X134881Y-32573D01*
X134954Y-32538D01*
X135028Y-32506D01*
X135103Y-32478D01*
X135180Y-32454D01*
X135258Y-32433D01*
X135337Y-32416D01*
X135416Y-32402D01*
X135496Y-32393D01*
X135576Y-32387D01*
X135657Y-32385D01*
X135738Y-32387D01*
X135818Y-32393D01*
X135898Y-32402D01*
X135977Y-32416D01*
X136056Y-32433D01*
X136134Y-32454D01*
X136211Y-32478D01*
X136286Y-32506D01*
X136360Y-32538D01*
X136433Y-32573D01*
X136504Y-32612D01*
X136572Y-32654D01*
X136639Y-32699D01*
X136704Y-32747D01*
X136766Y-32799D01*
X136825Y-32853D01*
X136882Y-32910D01*
X136936Y-32969D01*
X136988Y-33031D01*
X137036Y-33096D01*
X137081Y-33163D01*
X137123Y-33232D01*
X137162Y-33302D01*
X137197Y-33375D01*
X137229Y-33449D01*
X137257Y-33524D01*
X137281Y-33601D01*
X137302Y-33679D01*
X137319Y-33758D01*
X137333Y-33837D01*
X137342Y-33917D01*
X137348Y-33997D01*
X137350Y-34078D01*
X137350Y-35772D01*
X137348Y-35853D01*
X137342Y-35933D01*
X137333Y-36013D01*
X137319Y-36092D01*
X137302Y-36171D01*
X137281Y-36249D01*
X137257Y-36326D01*
X137229Y-36401D01*
X137197Y-36475D01*
X137162Y-36548D01*
X137123Y-36618D01*
X137081Y-36687D01*
X137036Y-36754D01*
X136988Y-36819D01*
X136936Y-36881D01*
X136882Y-36940D01*
X136825Y-36997D01*
X136766Y-37051D01*
X136704Y-37103D01*
X136639Y-37151D01*
X136572Y-37196D01*
X136504Y-37238D01*
X136433Y-37277D01*
X136360Y-37312D01*
X136286Y-37344D01*
X136211Y-37372D01*
X136134Y-37396D01*
X136056Y-37417D01*
X135977Y-37434D01*
X135898Y-37448D01*
X135818Y-37457D01*
X135738Y-37463D01*
X135657Y-37465D01*
X135576Y-37463D01*
X135496Y-37457D01*
X135416Y-37448D01*
X135337Y-37434D01*
X135258Y-37417D01*
X135180Y-37396D01*
X135103Y-37372D01*
X135028Y-37344D01*
X134954Y-37312D01*
X134881Y-37277D01*
X134811Y-37238D01*
X134742Y-37196D01*
X134675Y-37151D01*
X134610Y-37103D01*
X134548Y-37051D01*
X134489Y-36997D01*
X134432Y-36940D01*
X134378Y-36881D01*
X134326Y-36819D01*
X134278Y-36754D01*
X134233Y-36687D01*
X134191Y-36619D01*
X134152Y-36548D01*
X134117Y-36475D01*
X134085Y-36401D01*
X134057Y-36326D01*
X134033Y-36249D01*
X134012Y-36171D01*
X133995Y-36092D01*
X133981Y-36013D01*
X133972Y-35933D01*
X133966Y-35853D01*
X133964Y-35772D01*
X141164Y-37465D02*
X141164Y-32385D01*
X143281Y-32385D01*
X143350Y-32387D01*
X143418Y-32392D01*
X143486Y-32402D01*
X143554Y-32415D01*
X143621Y-32431D01*
X143687Y-32451D01*
X143751Y-32475D01*
X143814Y-32502D01*
X143876Y-32533D01*
X143936Y-32567D01*
X143994Y-32604D01*
X144050Y-32644D01*
X144103Y-32687D01*
X144154Y-32733D01*
X144203Y-32782D01*
X144249Y-32833D01*
X144292Y-32886D01*
X144332Y-32942D01*
X144369Y-33000D01*
X144403Y-33060D01*
X144434Y-33122D01*
X144461Y-33185D01*
X144485Y-33249D01*
X144505Y-33315D01*
X144521Y-33382D01*
X144534Y-33450D01*
X144544Y-33518D01*
X144549Y-33586D01*
X144551Y-33655D01*
X144551Y-37465D01*
X147632Y-32385D02*
X150172Y-32385D01*
X148478Y-29845D02*
X148478Y-36195D01*
X148480Y-36264D01*
X148485Y-36332D01*
X148495Y-36400D01*
X148508Y-36468D01*
X148524Y-36535D01*
X148544Y-36601D01*
X148568Y-36665D01*
X148595Y-36728D01*
X148626Y-36790D01*
X148660Y-36850D01*
X148697Y-36908D01*
X148737Y-36964D01*
X148780Y-37017D01*
X148826Y-37068D01*
X148875Y-37117D01*
X148926Y-37163D01*
X148979Y-37206D01*
X149035Y-37246D01*
X149093Y-37283D01*
X149153Y-37317D01*
X149215Y-37348D01*
X149278Y-37375D01*
X149342Y-37399D01*
X149408Y-37419D01*
X149475Y-37435D01*
X149543Y-37448D01*
X149611Y-37458D01*
X149679Y-37463D01*
X149748Y-37465D01*
X150172Y-37465D01*
X153764Y-37465D02*
X153764Y-32385D01*
X156304Y-32385D01*
X156304Y-33232D01*
X159033Y-34078D02*
X159033Y-35772D01*
X159033Y-34078D02*
X159035Y-33997D01*
X159041Y-33917D01*
X159050Y-33837D01*
X159064Y-33758D01*
X159081Y-33679D01*
X159102Y-33601D01*
X159126Y-33524D01*
X159154Y-33449D01*
X159186Y-33375D01*
X159221Y-33302D01*
X159260Y-33232D01*
X159302Y-33163D01*
X159347Y-33096D01*
X159395Y-33031D01*
X159447Y-32969D01*
X159501Y-32910D01*
X159558Y-32853D01*
X159617Y-32799D01*
X159679Y-32747D01*
X159744Y-32699D01*
X159811Y-32654D01*
X159880Y-32612D01*
X159950Y-32573D01*
X160023Y-32538D01*
X160097Y-32506D01*
X160172Y-32478D01*
X160249Y-32454D01*
X160327Y-32433D01*
X160406Y-32416D01*
X160485Y-32402D01*
X160565Y-32393D01*
X160645Y-32387D01*
X160726Y-32385D01*
X160807Y-32387D01*
X160887Y-32393D01*
X160967Y-32402D01*
X161046Y-32416D01*
X161125Y-32433D01*
X161203Y-32454D01*
X161280Y-32478D01*
X161355Y-32506D01*
X161429Y-32538D01*
X161502Y-32573D01*
X161573Y-32612D01*
X161641Y-32654D01*
X161708Y-32699D01*
X161773Y-32747D01*
X161835Y-32799D01*
X161894Y-32853D01*
X161951Y-32910D01*
X162005Y-32969D01*
X162057Y-33031D01*
X162105Y-33096D01*
X162150Y-33163D01*
X162192Y-33232D01*
X162231Y-33302D01*
X162266Y-33375D01*
X162298Y-33449D01*
X162326Y-33524D01*
X162350Y-33601D01*
X162371Y-33679D01*
X162388Y-33758D01*
X162402Y-33837D01*
X162411Y-33917D01*
X162417Y-33997D01*
X162419Y-34078D01*
X162420Y-34078D02*
X162420Y-35772D01*
X162419Y-35772D02*
X162417Y-35853D01*
X162411Y-35933D01*
X162402Y-36013D01*
X162388Y-36092D01*
X162371Y-36171D01*
X162350Y-36249D01*
X162326Y-36326D01*
X162298Y-36401D01*
X162266Y-36475D01*
X162231Y-36548D01*
X162192Y-36618D01*
X162150Y-36687D01*
X162105Y-36754D01*
X162057Y-36819D01*
X162005Y-36881D01*
X161951Y-36940D01*
X161894Y-36997D01*
X161835Y-37051D01*
X161773Y-37103D01*
X161708Y-37151D01*
X161641Y-37196D01*
X161573Y-37238D01*
X161502Y-37277D01*
X161429Y-37312D01*
X161355Y-37344D01*
X161280Y-37372D01*
X161203Y-37396D01*
X161125Y-37417D01*
X161046Y-37434D01*
X160967Y-37448D01*
X160887Y-37457D01*
X160807Y-37463D01*
X160726Y-37465D01*
X160645Y-37463D01*
X160565Y-37457D01*
X160485Y-37448D01*
X160406Y-37434D01*
X160327Y-37417D01*
X160249Y-37396D01*
X160172Y-37372D01*
X160097Y-37344D01*
X160023Y-37312D01*
X159950Y-37277D01*
X159880Y-37238D01*
X159811Y-37196D01*
X159744Y-37151D01*
X159679Y-37103D01*
X159617Y-37051D01*
X159558Y-36997D01*
X159501Y-36940D01*
X159447Y-36881D01*
X159395Y-36819D01*
X159347Y-36754D01*
X159302Y-36687D01*
X159260Y-36619D01*
X159221Y-36548D01*
X159186Y-36475D01*
X159154Y-36401D01*
X159126Y-36326D01*
X159102Y-36249D01*
X159081Y-36171D01*
X159064Y-36092D01*
X159050Y-36013D01*
X159041Y-35933D01*
X159035Y-35853D01*
X159033Y-35772D01*
X166008Y-36195D02*
X166008Y-29845D01*
X166008Y-36195D02*
X166010Y-36264D01*
X166015Y-36332D01*
X166025Y-36400D01*
X166038Y-36468D01*
X166054Y-36535D01*
X166074Y-36601D01*
X166098Y-36665D01*
X166125Y-36728D01*
X166156Y-36790D01*
X166190Y-36850D01*
X166227Y-36908D01*
X166267Y-36964D01*
X166310Y-37017D01*
X166356Y-37068D01*
X166405Y-37117D01*
X166456Y-37163D01*
X166509Y-37206D01*
X166565Y-37246D01*
X166623Y-37283D01*
X166683Y-37317D01*
X166745Y-37348D01*
X166808Y-37375D01*
X166872Y-37399D01*
X166938Y-37419D01*
X167005Y-37435D01*
X167073Y-37448D01*
X167141Y-37458D01*
X167209Y-37463D01*
X167278Y-37465D01*
X170276Y-36195D02*
X170276Y-29845D01*
X170276Y-36195D02*
X170278Y-36264D01*
X170283Y-36332D01*
X170293Y-36400D01*
X170306Y-36468D01*
X170322Y-36535D01*
X170342Y-36601D01*
X170366Y-36665D01*
X170393Y-36728D01*
X170424Y-36790D01*
X170458Y-36850D01*
X170495Y-36908D01*
X170535Y-36964D01*
X170578Y-37017D01*
X170624Y-37068D01*
X170673Y-37117D01*
X170724Y-37163D01*
X170777Y-37206D01*
X170833Y-37246D01*
X170891Y-37283D01*
X170951Y-37317D01*
X171013Y-37348D01*
X171076Y-37375D01*
X171140Y-37399D01*
X171206Y-37419D01*
X171273Y-37435D01*
X171341Y-37448D01*
X171409Y-37458D01*
X171477Y-37463D01*
X171546Y-37465D01*
X175772Y-37465D02*
X177888Y-37465D01*
X175772Y-37465D02*
X175703Y-37463D01*
X175635Y-37458D01*
X175567Y-37448D01*
X175499Y-37435D01*
X175432Y-37419D01*
X175366Y-37399D01*
X175302Y-37375D01*
X175239Y-37348D01*
X175177Y-37317D01*
X175117Y-37283D01*
X175059Y-37246D01*
X175003Y-37206D01*
X174950Y-37163D01*
X174899Y-37117D01*
X174850Y-37068D01*
X174804Y-37017D01*
X174761Y-36964D01*
X174721Y-36908D01*
X174684Y-36850D01*
X174650Y-36790D01*
X174619Y-36728D01*
X174592Y-36665D01*
X174568Y-36601D01*
X174548Y-36535D01*
X174532Y-36468D01*
X174519Y-36400D01*
X174509Y-36332D01*
X174504Y-36264D01*
X174502Y-36195D01*
X174502Y-34078D01*
X174504Y-33997D01*
X174510Y-33917D01*
X174519Y-33837D01*
X174533Y-33758D01*
X174550Y-33679D01*
X174571Y-33601D01*
X174595Y-33524D01*
X174623Y-33449D01*
X174655Y-33375D01*
X174690Y-33302D01*
X174729Y-33232D01*
X174771Y-33163D01*
X174816Y-33096D01*
X174864Y-33031D01*
X174916Y-32969D01*
X174970Y-32910D01*
X175027Y-32853D01*
X175086Y-32799D01*
X175148Y-32747D01*
X175213Y-32699D01*
X175280Y-32654D01*
X175349Y-32612D01*
X175419Y-32573D01*
X175492Y-32538D01*
X175566Y-32506D01*
X175641Y-32478D01*
X175718Y-32454D01*
X175796Y-32433D01*
X175875Y-32416D01*
X175954Y-32402D01*
X176034Y-32393D01*
X176114Y-32387D01*
X176195Y-32385D01*
X176276Y-32387D01*
X176356Y-32393D01*
X176436Y-32402D01*
X176515Y-32416D01*
X176594Y-32433D01*
X176672Y-32454D01*
X176749Y-32478D01*
X176824Y-32506D01*
X176898Y-32538D01*
X176971Y-32573D01*
X177042Y-32612D01*
X177110Y-32654D01*
X177177Y-32699D01*
X177242Y-32747D01*
X177304Y-32799D01*
X177363Y-32853D01*
X177420Y-32910D01*
X177474Y-32969D01*
X177526Y-33031D01*
X177574Y-33096D01*
X177619Y-33163D01*
X177661Y-33232D01*
X177700Y-33302D01*
X177735Y-33375D01*
X177767Y-33449D01*
X177795Y-33524D01*
X177819Y-33601D01*
X177840Y-33679D01*
X177857Y-33758D01*
X177871Y-33837D01*
X177880Y-33917D01*
X177886Y-33997D01*
X177888Y-34078D01*
X177888Y-34925D01*
X174502Y-34925D01*
X181767Y-37465D02*
X181767Y-32385D01*
X184307Y-32385D01*
X184307Y-33232D01*
X193742Y-29845D02*
X193827Y-29847D01*
X193913Y-29853D01*
X193998Y-29862D01*
X194082Y-29876D01*
X194166Y-29893D01*
X194249Y-29914D01*
X194331Y-29938D01*
X194411Y-29966D01*
X194491Y-29998D01*
X194569Y-30034D01*
X194645Y-30072D01*
X194719Y-30115D01*
X194791Y-30160D01*
X194862Y-30209D01*
X194930Y-30261D01*
X194995Y-30315D01*
X195058Y-30373D01*
X195119Y-30434D01*
X195177Y-30497D01*
X195231Y-30562D01*
X195283Y-30630D01*
X195332Y-30701D01*
X195377Y-30773D01*
X195420Y-30847D01*
X195458Y-30923D01*
X195494Y-31001D01*
X195526Y-31081D01*
X195554Y-31161D01*
X195578Y-31243D01*
X195599Y-31326D01*
X195616Y-31410D01*
X195630Y-31494D01*
X195639Y-31579D01*
X195645Y-31665D01*
X195647Y-31750D01*
X193742Y-29845D02*
X193646Y-29847D01*
X193550Y-29853D01*
X193454Y-29862D01*
X193359Y-29875D01*
X193264Y-29892D01*
X193170Y-29913D01*
X193077Y-29937D01*
X192985Y-29965D01*
X192894Y-29996D01*
X192805Y-30032D01*
X192717Y-30070D01*
X192630Y-30112D01*
X192545Y-30157D01*
X192463Y-30206D01*
X192382Y-30258D01*
X192303Y-30313D01*
X192226Y-30371D01*
X192152Y-30432D01*
X192080Y-30496D01*
X192011Y-30563D01*
X191944Y-30632D01*
X191880Y-30704D01*
X191819Y-30778D01*
X191761Y-30855D01*
X191706Y-30934D01*
X191655Y-31015D01*
X191606Y-31098D01*
X191561Y-31183D01*
X191519Y-31270D01*
X191480Y-31358D01*
X191445Y-31447D01*
X191414Y-31538D01*
X195012Y-33232D02*
X195074Y-33170D01*
X195133Y-33106D01*
X195189Y-33040D01*
X195243Y-32971D01*
X195293Y-32900D01*
X195341Y-32826D01*
X195385Y-32751D01*
X195426Y-32674D01*
X195464Y-32596D01*
X195498Y-32516D01*
X195529Y-32434D01*
X195557Y-32351D01*
X195580Y-32268D01*
X195601Y-32183D01*
X195617Y-32097D01*
X195630Y-32011D01*
X195640Y-31924D01*
X195645Y-31837D01*
X195647Y-31750D01*
X195012Y-33232D02*
X191414Y-37465D01*
X195647Y-37465D01*
X199415Y-33655D02*
X199417Y-33497D01*
X199423Y-33339D01*
X199433Y-33181D01*
X199447Y-33023D01*
X199465Y-32866D01*
X199487Y-32709D01*
X199512Y-32553D01*
X199542Y-32398D01*
X199576Y-32243D01*
X199613Y-32089D01*
X199655Y-31937D01*
X199700Y-31785D01*
X199749Y-31635D01*
X199802Y-31485D01*
X199858Y-31338D01*
X199919Y-31191D01*
X199982Y-31047D01*
X200050Y-30904D01*
X200050Y-30903D02*
X200077Y-30830D01*
X200107Y-30759D01*
X200141Y-30689D01*
X200179Y-30621D01*
X200220Y-30555D01*
X200264Y-30491D01*
X200311Y-30429D01*
X200361Y-30370D01*
X200414Y-30313D01*
X200470Y-30259D01*
X200529Y-30208D01*
X200589Y-30160D01*
X200653Y-30115D01*
X200718Y-30073D01*
X200785Y-30034D01*
X200855Y-29999D01*
X200926Y-29967D01*
X200998Y-29939D01*
X201072Y-29914D01*
X201146Y-29893D01*
X201222Y-29876D01*
X201299Y-29862D01*
X201376Y-29853D01*
X201453Y-29847D01*
X201531Y-29845D01*
X201609Y-29847D01*
X201686Y-29853D01*
X201763Y-29862D01*
X201840Y-29876D01*
X201916Y-29893D01*
X201990Y-29914D01*
X202064Y-29939D01*
X202136Y-29967D01*
X202207Y-29999D01*
X202277Y-30034D01*
X202344Y-30073D01*
X202409Y-30115D01*
X202473Y-30160D01*
X202533Y-30208D01*
X202592Y-30259D01*
X202648Y-30313D01*
X202701Y-30370D01*
X202751Y-30429D01*
X202798Y-30491D01*
X202842Y-30555D01*
X202883Y-30621D01*
X202921Y-30689D01*
X202955Y-30759D01*
X202985Y-30830D01*
X203012Y-30903D01*
X203013Y-30904D02*
X203081Y-31047D01*
X203144Y-31191D01*
X203205Y-31338D01*
X203261Y-31485D01*
X203314Y-31635D01*
X203363Y-31785D01*
X203408Y-31937D01*
X203450Y-32089D01*
X203487Y-32243D01*
X203521Y-32398D01*
X203551Y-32553D01*
X203576Y-32709D01*
X203598Y-32866D01*
X203616Y-33023D01*
X203630Y-33181D01*
X203640Y-33339D01*
X203646Y-33497D01*
X203648Y-33655D01*
X199414Y-33655D02*
X199416Y-33813D01*
X199422Y-33971D01*
X199432Y-34129D01*
X199446Y-34287D01*
X199464Y-34444D01*
X199486Y-34601D01*
X199511Y-34757D01*
X199541Y-34912D01*
X199575Y-35067D01*
X199612Y-35221D01*
X199654Y-35374D01*
X199699Y-35525D01*
X199748Y-35676D01*
X199801Y-35825D01*
X199857Y-35973D01*
X199918Y-36119D01*
X199982Y-36264D01*
X200049Y-36407D01*
X200050Y-36407D02*
X200077Y-36480D01*
X200107Y-36551D01*
X200141Y-36621D01*
X200179Y-36689D01*
X200220Y-36755D01*
X200264Y-36819D01*
X200311Y-36881D01*
X200361Y-36940D01*
X200414Y-36997D01*
X200470Y-37051D01*
X200529Y-37102D01*
X200589Y-37150D01*
X200653Y-37196D01*
X200718Y-37237D01*
X200785Y-37276D01*
X200855Y-37311D01*
X200926Y-37343D01*
X200998Y-37371D01*
X201072Y-37396D01*
X201146Y-37417D01*
X201222Y-37434D01*
X201299Y-37448D01*
X201376Y-37457D01*
X201453Y-37463D01*
X201531Y-37465D01*
X203013Y-36407D02*
X203080Y-36264D01*
X203144Y-36119D01*
X203205Y-35973D01*
X203261Y-35825D01*
X203314Y-35676D01*
X203363Y-35525D01*
X203408Y-35374D01*
X203450Y-35221D01*
X203487Y-35067D01*
X203521Y-34912D01*
X203551Y-34757D01*
X203576Y-34601D01*
X203598Y-34444D01*
X203616Y-34287D01*
X203630Y-34129D01*
X203640Y-33971D01*
X203646Y-33813D01*
X203648Y-33655D01*
X203012Y-36407D02*
X202985Y-36480D01*
X202955Y-36551D01*
X202921Y-36621D01*
X202883Y-36689D01*
X202842Y-36755D01*
X202798Y-36819D01*
X202751Y-36881D01*
X202701Y-36940D01*
X202648Y-36997D01*
X202592Y-37051D01*
X202533Y-37102D01*
X202473Y-37150D01*
X202409Y-37195D01*
X202344Y-37237D01*
X202277Y-37276D01*
X202207Y-37311D01*
X202136Y-37343D01*
X202064Y-37371D01*
X201990Y-37396D01*
X201916Y-37417D01*
X201840Y-37434D01*
X201763Y-37448D01*
X201686Y-37457D01*
X201609Y-37463D01*
X201531Y-37465D01*
X199838Y-35772D02*
X203225Y-31538D01*
X207416Y-31538D02*
X209532Y-29845D01*
X209532Y-37465D01*
X207416Y-37465D02*
X211649Y-37465D01*
X217110Y-34078D02*
X219650Y-34078D01*
X217110Y-34078D02*
X217029Y-34076D01*
X216949Y-34070D01*
X216869Y-34061D01*
X216790Y-34047D01*
X216711Y-34030D01*
X216633Y-34009D01*
X216556Y-33985D01*
X216481Y-33957D01*
X216407Y-33925D01*
X216334Y-33890D01*
X216264Y-33851D01*
X216195Y-33809D01*
X216128Y-33764D01*
X216063Y-33716D01*
X216001Y-33664D01*
X215942Y-33610D01*
X215885Y-33553D01*
X215831Y-33494D01*
X215779Y-33432D01*
X215731Y-33367D01*
X215686Y-33300D01*
X215644Y-33232D01*
X215605Y-33161D01*
X215570Y-33088D01*
X215538Y-33014D01*
X215510Y-32939D01*
X215486Y-32862D01*
X215465Y-32784D01*
X215448Y-32705D01*
X215434Y-32626D01*
X215425Y-32546D01*
X215419Y-32466D01*
X215417Y-32385D01*
X215417Y-31962D01*
X215416Y-31962D02*
X215418Y-31871D01*
X215424Y-31780D01*
X215434Y-31689D01*
X215447Y-31599D01*
X215465Y-31510D01*
X215486Y-31421D01*
X215511Y-31334D01*
X215540Y-31247D01*
X215573Y-31162D01*
X215609Y-31079D01*
X215649Y-30997D01*
X215692Y-30917D01*
X215739Y-30838D01*
X215789Y-30762D01*
X215842Y-30688D01*
X215898Y-30617D01*
X215958Y-30548D01*
X216020Y-30481D01*
X216085Y-30418D01*
X216153Y-30357D01*
X216223Y-30299D01*
X216296Y-30244D01*
X216371Y-30192D01*
X216448Y-30144D01*
X216528Y-30099D01*
X216609Y-30057D01*
X216691Y-30019D01*
X216776Y-29985D01*
X216862Y-29954D01*
X216949Y-29927D01*
X217037Y-29904D01*
X217126Y-29885D01*
X217215Y-29869D01*
X217306Y-29857D01*
X217396Y-29849D01*
X217487Y-29845D01*
X217579Y-29845D01*
X217670Y-29849D01*
X217760Y-29857D01*
X217851Y-29869D01*
X217940Y-29885D01*
X218029Y-29904D01*
X218117Y-29927D01*
X218204Y-29954D01*
X218290Y-29985D01*
X218375Y-30019D01*
X218457Y-30057D01*
X218538Y-30099D01*
X218618Y-30144D01*
X218695Y-30192D01*
X218770Y-30244D01*
X218843Y-30299D01*
X218913Y-30357D01*
X218981Y-30418D01*
X219046Y-30481D01*
X219108Y-30548D01*
X219168Y-30617D01*
X219224Y-30688D01*
X219277Y-30762D01*
X219327Y-30838D01*
X219374Y-30917D01*
X219417Y-30997D01*
X219457Y-31079D01*
X219493Y-31162D01*
X219526Y-31247D01*
X219555Y-31334D01*
X219580Y-31421D01*
X219601Y-31510D01*
X219619Y-31599D01*
X219632Y-31689D01*
X219642Y-31780D01*
X219648Y-31871D01*
X219650Y-31962D01*
X219650Y-34078D01*
X219648Y-34194D01*
X219642Y-34309D01*
X219632Y-34424D01*
X219618Y-34539D01*
X219601Y-34653D01*
X219579Y-34767D01*
X219554Y-34880D01*
X219524Y-34992D01*
X219491Y-35103D01*
X219454Y-35212D01*
X219414Y-35321D01*
X219370Y-35427D01*
X219322Y-35533D01*
X219270Y-35636D01*
X219215Y-35738D01*
X219157Y-35838D01*
X219095Y-35936D01*
X219030Y-36031D01*
X218962Y-36125D01*
X218890Y-36215D01*
X218816Y-36304D01*
X218738Y-36390D01*
X218658Y-36473D01*
X218575Y-36553D01*
X218489Y-36631D01*
X218400Y-36705D01*
X218310Y-36777D01*
X218216Y-36845D01*
X218121Y-36910D01*
X218023Y-36972D01*
X217923Y-37030D01*
X217821Y-37085D01*
X217718Y-37137D01*
X217612Y-37185D01*
X217506Y-37229D01*
X217397Y-37269D01*
X217288Y-37306D01*
X217177Y-37339D01*
X217065Y-37369D01*
X216952Y-37394D01*
X216838Y-37416D01*
X216724Y-37433D01*
X216609Y-37447D01*
X216494Y-37457D01*
X216379Y-37463D01*
X216263Y-37465D01*
X222922Y-37465D02*
X222922Y-37042D01*
X223346Y-37042D01*
X223346Y-37465D01*
X222922Y-37465D01*
X226619Y-33655D02*
X226621Y-33497D01*
X226627Y-33339D01*
X226637Y-33181D01*
X226651Y-33023D01*
X226669Y-32866D01*
X226691Y-32709D01*
X226716Y-32553D01*
X226746Y-32398D01*
X226780Y-32243D01*
X226817Y-32089D01*
X226859Y-31937D01*
X226904Y-31785D01*
X226953Y-31635D01*
X227006Y-31485D01*
X227062Y-31338D01*
X227123Y-31191D01*
X227186Y-31047D01*
X227254Y-30904D01*
X227254Y-30903D02*
X227281Y-30830D01*
X227311Y-30759D01*
X227345Y-30689D01*
X227383Y-30621D01*
X227424Y-30555D01*
X227468Y-30491D01*
X227515Y-30429D01*
X227565Y-30370D01*
X227618Y-30313D01*
X227674Y-30259D01*
X227733Y-30208D01*
X227793Y-30160D01*
X227857Y-30115D01*
X227922Y-30073D01*
X227989Y-30034D01*
X228059Y-29999D01*
X228130Y-29967D01*
X228202Y-29939D01*
X228276Y-29914D01*
X228350Y-29893D01*
X228426Y-29876D01*
X228503Y-29862D01*
X228580Y-29853D01*
X228657Y-29847D01*
X228735Y-29845D01*
X228813Y-29847D01*
X228890Y-29853D01*
X228967Y-29862D01*
X229044Y-29876D01*
X229120Y-29893D01*
X229194Y-29914D01*
X229268Y-29939D01*
X229340Y-29967D01*
X229411Y-29999D01*
X229481Y-30034D01*
X229548Y-30073D01*
X229613Y-30115D01*
X229677Y-30160D01*
X229737Y-30208D01*
X229796Y-30259D01*
X229852Y-30313D01*
X229905Y-30370D01*
X229955Y-30429D01*
X230002Y-30491D01*
X230046Y-30555D01*
X230087Y-30621D01*
X230125Y-30689D01*
X230159Y-30759D01*
X230189Y-30830D01*
X230216Y-30903D01*
X230216Y-30904D02*
X230284Y-31047D01*
X230347Y-31191D01*
X230408Y-31338D01*
X230464Y-31485D01*
X230517Y-31635D01*
X230566Y-31785D01*
X230611Y-31937D01*
X230653Y-32089D01*
X230690Y-32243D01*
X230724Y-32398D01*
X230754Y-32553D01*
X230779Y-32709D01*
X230801Y-32866D01*
X230819Y-33023D01*
X230833Y-33181D01*
X230843Y-33339D01*
X230849Y-33497D01*
X230851Y-33655D01*
X226618Y-33655D02*
X226620Y-33813D01*
X226626Y-33971D01*
X226636Y-34129D01*
X226650Y-34287D01*
X226668Y-34444D01*
X226690Y-34601D01*
X226715Y-34757D01*
X226745Y-34912D01*
X226779Y-35067D01*
X226816Y-35221D01*
X226858Y-35374D01*
X226903Y-35525D01*
X226952Y-35676D01*
X227005Y-35825D01*
X227061Y-35973D01*
X227122Y-36119D01*
X227186Y-36264D01*
X227253Y-36407D01*
X227254Y-36407D02*
X227281Y-36480D01*
X227311Y-36551D01*
X227345Y-36621D01*
X227383Y-36689D01*
X227424Y-36755D01*
X227468Y-36819D01*
X227515Y-36881D01*
X227565Y-36940D01*
X227618Y-36997D01*
X227674Y-37051D01*
X227733Y-37102D01*
X227793Y-37150D01*
X227857Y-37196D01*
X227922Y-37237D01*
X227989Y-37276D01*
X228059Y-37311D01*
X228130Y-37343D01*
X228202Y-37371D01*
X228276Y-37396D01*
X228350Y-37417D01*
X228426Y-37434D01*
X228503Y-37448D01*
X228580Y-37457D01*
X228657Y-37463D01*
X228735Y-37465D01*
X230217Y-36407D02*
X230284Y-36264D01*
X230348Y-36119D01*
X230409Y-35973D01*
X230465Y-35825D01*
X230518Y-35676D01*
X230567Y-35525D01*
X230612Y-35374D01*
X230654Y-35221D01*
X230691Y-35067D01*
X230725Y-34912D01*
X230755Y-34757D01*
X230780Y-34601D01*
X230802Y-34444D01*
X230820Y-34287D01*
X230834Y-34129D01*
X230844Y-33971D01*
X230850Y-33813D01*
X230852Y-33655D01*
X230216Y-36407D02*
X230189Y-36480D01*
X230159Y-36551D01*
X230125Y-36621D01*
X230087Y-36689D01*
X230046Y-36755D01*
X230002Y-36819D01*
X229955Y-36881D01*
X229905Y-36940D01*
X229852Y-36997D01*
X229796Y-37051D01*
X229737Y-37102D01*
X229677Y-37150D01*
X229613Y-37195D01*
X229548Y-37237D01*
X229481Y-37276D01*
X229411Y-37311D01*
X229340Y-37343D01*
X229268Y-37371D01*
X229194Y-37396D01*
X229120Y-37417D01*
X229044Y-37434D01*
X228967Y-37448D01*
X228890Y-37457D01*
X228813Y-37463D01*
X228735Y-37465D01*
X227041Y-35772D02*
X230428Y-31538D01*
X236947Y-29845D02*
X237032Y-29847D01*
X237118Y-29853D01*
X237203Y-29862D01*
X237287Y-29876D01*
X237371Y-29893D01*
X237454Y-29914D01*
X237536Y-29938D01*
X237616Y-29966D01*
X237696Y-29998D01*
X237774Y-30034D01*
X237850Y-30072D01*
X237924Y-30115D01*
X237996Y-30160D01*
X238067Y-30209D01*
X238135Y-30261D01*
X238200Y-30315D01*
X238263Y-30373D01*
X238324Y-30434D01*
X238382Y-30497D01*
X238436Y-30562D01*
X238488Y-30630D01*
X238537Y-30701D01*
X238582Y-30773D01*
X238625Y-30847D01*
X238663Y-30923D01*
X238699Y-31001D01*
X238731Y-31081D01*
X238759Y-31161D01*
X238783Y-31243D01*
X238804Y-31326D01*
X238821Y-31410D01*
X238835Y-31494D01*
X238844Y-31579D01*
X238850Y-31665D01*
X238852Y-31750D01*
X236947Y-29845D02*
X236851Y-29847D01*
X236755Y-29853D01*
X236659Y-29862D01*
X236564Y-29875D01*
X236469Y-29892D01*
X236375Y-29913D01*
X236282Y-29937D01*
X236190Y-29965D01*
X236099Y-29996D01*
X236010Y-30032D01*
X235922Y-30070D01*
X235835Y-30112D01*
X235750Y-30157D01*
X235668Y-30206D01*
X235587Y-30258D01*
X235508Y-30313D01*
X235431Y-30371D01*
X235357Y-30432D01*
X235285Y-30496D01*
X235216Y-30563D01*
X235149Y-30632D01*
X235085Y-30704D01*
X235024Y-30778D01*
X234966Y-30855D01*
X234911Y-30934D01*
X234860Y-31015D01*
X234811Y-31098D01*
X234766Y-31183D01*
X234724Y-31270D01*
X234685Y-31358D01*
X234650Y-31447D01*
X234619Y-31538D01*
X238217Y-33232D02*
X238279Y-33170D01*
X238338Y-33106D01*
X238394Y-33040D01*
X238448Y-32971D01*
X238498Y-32900D01*
X238546Y-32826D01*
X238590Y-32751D01*
X238631Y-32674D01*
X238669Y-32596D01*
X238703Y-32516D01*
X238734Y-32434D01*
X238762Y-32351D01*
X238785Y-32268D01*
X238806Y-32183D01*
X238822Y-32097D01*
X238835Y-32011D01*
X238845Y-31924D01*
X238850Y-31837D01*
X238852Y-31750D01*
X238217Y-33232D02*
X234619Y-37465D01*
X238852Y-37465D01*
D12*
X115991Y321450D02*
X115991Y338950D01*
X99909Y338950D02*
X99909Y321450D01*
D13*
X104165Y344329D02*
X105914Y344329D01*
X104165Y344328D02*
X104084Y344330D01*
X104004Y344335D01*
X103923Y344345D01*
X103843Y344358D01*
X103764Y344374D01*
X103686Y344395D01*
X103609Y344419D01*
X103533Y344446D01*
X103458Y344477D01*
X103385Y344511D01*
X103313Y344549D01*
X103244Y344590D01*
X103176Y344634D01*
X103110Y344681D01*
X103047Y344732D01*
X102986Y344785D01*
X102928Y344841D01*
X102872Y344899D01*
X102819Y344960D01*
X102768Y345023D01*
X102721Y345089D01*
X102677Y345157D01*
X102636Y345226D01*
X102598Y345298D01*
X102564Y345371D01*
X102533Y345446D01*
X102506Y345522D01*
X102482Y345599D01*
X102461Y345677D01*
X102445Y345756D01*
X102432Y345836D01*
X102422Y345917D01*
X102417Y345997D01*
X102415Y346078D01*
X102415Y350453D01*
X102417Y350536D01*
X102423Y350619D01*
X102433Y350702D01*
X102447Y350784D01*
X102464Y350866D01*
X102486Y350946D01*
X102511Y351025D01*
X102540Y351103D01*
X102573Y351180D01*
X102610Y351255D01*
X102649Y351328D01*
X102693Y351399D01*
X102739Y351468D01*
X102789Y351535D01*
X102842Y351599D01*
X102898Y351661D01*
X102957Y351720D01*
X103019Y351776D01*
X103083Y351829D01*
X103150Y351878D01*
X103219Y351925D01*
X103290Y351969D01*
X103363Y352008D01*
X103438Y352045D01*
X103515Y352078D01*
X103593Y352107D01*
X103672Y352132D01*
X103752Y352154D01*
X103834Y352171D01*
X103916Y352185D01*
X103999Y352195D01*
X104082Y352201D01*
X104165Y352203D01*
X105914Y352203D01*
X109111Y350453D02*
X111298Y352203D01*
X111298Y344329D01*
X109111Y344329D02*
X113485Y344329D01*
D12*
X218100Y155064D02*
X239100Y155064D01*
X239100Y175136D02*
X218100Y175136D01*
D13*
X224815Y177514D02*
X226564Y177514D01*
X224815Y177514D02*
X224734Y177516D01*
X224654Y177521D01*
X224573Y177531D01*
X224493Y177544D01*
X224414Y177560D01*
X224336Y177581D01*
X224259Y177605D01*
X224183Y177632D01*
X224108Y177663D01*
X224035Y177697D01*
X223963Y177735D01*
X223894Y177776D01*
X223826Y177820D01*
X223760Y177867D01*
X223697Y177918D01*
X223636Y177971D01*
X223578Y178027D01*
X223522Y178085D01*
X223469Y178146D01*
X223418Y178209D01*
X223371Y178275D01*
X223327Y178343D01*
X223286Y178412D01*
X223248Y178484D01*
X223214Y178557D01*
X223183Y178632D01*
X223156Y178708D01*
X223132Y178785D01*
X223111Y178863D01*
X223095Y178942D01*
X223082Y179022D01*
X223072Y179103D01*
X223067Y179183D01*
X223065Y179264D01*
X223065Y183638D01*
X223067Y183721D01*
X223073Y183804D01*
X223083Y183887D01*
X223097Y183969D01*
X223114Y184051D01*
X223136Y184131D01*
X223161Y184210D01*
X223190Y184288D01*
X223223Y184365D01*
X223260Y184440D01*
X223299Y184513D01*
X223343Y184584D01*
X223389Y184653D01*
X223439Y184720D01*
X223492Y184784D01*
X223548Y184846D01*
X223607Y184905D01*
X223669Y184961D01*
X223733Y185014D01*
X223800Y185063D01*
X223869Y185110D01*
X223940Y185154D01*
X224013Y185193D01*
X224088Y185230D01*
X224165Y185263D01*
X224243Y185292D01*
X224322Y185317D01*
X224402Y185339D01*
X224484Y185356D01*
X224566Y185370D01*
X224649Y185380D01*
X224732Y185386D01*
X224815Y185388D01*
X226564Y185388D01*
X232167Y185389D02*
X232253Y185387D01*
X232339Y185382D01*
X232424Y185372D01*
X232509Y185359D01*
X232593Y185342D01*
X232677Y185322D01*
X232759Y185298D01*
X232840Y185270D01*
X232921Y185239D01*
X232999Y185205D01*
X233076Y185167D01*
X233152Y185125D01*
X233225Y185081D01*
X233296Y185033D01*
X233366Y184982D01*
X233433Y184928D01*
X233497Y184872D01*
X233559Y184812D01*
X233619Y184750D01*
X233675Y184686D01*
X233729Y184619D01*
X233780Y184549D01*
X233828Y184478D01*
X233872Y184405D01*
X233914Y184329D01*
X233952Y184252D01*
X233986Y184174D01*
X234017Y184093D01*
X234045Y184012D01*
X234069Y183930D01*
X234089Y183846D01*
X234106Y183762D01*
X234119Y183677D01*
X234129Y183592D01*
X234134Y183506D01*
X234136Y183420D01*
X232167Y185388D02*
X232068Y185386D01*
X231968Y185380D01*
X231870Y185370D01*
X231771Y185357D01*
X231673Y185339D01*
X231576Y185318D01*
X231480Y185293D01*
X231385Y185264D01*
X231291Y185231D01*
X231198Y185195D01*
X231107Y185155D01*
X231018Y185112D01*
X230930Y185065D01*
X230845Y185015D01*
X230761Y184961D01*
X230680Y184904D01*
X230600Y184844D01*
X230524Y184781D01*
X230449Y184715D01*
X230378Y184646D01*
X230309Y184575D01*
X230243Y184500D01*
X230180Y184423D01*
X230120Y184344D01*
X230063Y184262D01*
X230010Y184179D01*
X229959Y184093D01*
X229913Y184005D01*
X229869Y183916D01*
X229830Y183825D01*
X229794Y183732D01*
X229761Y183638D01*
X233479Y181889D02*
X233543Y181953D01*
X233604Y182019D01*
X233662Y182088D01*
X233717Y182159D01*
X233770Y182232D01*
X233819Y182308D01*
X233864Y182385D01*
X233907Y182465D01*
X233946Y182546D01*
X233981Y182629D01*
X234013Y182713D01*
X234042Y182799D01*
X234066Y182885D01*
X234087Y182973D01*
X234104Y183061D01*
X234118Y183150D01*
X234127Y183240D01*
X234133Y183330D01*
X234135Y183420D01*
X233479Y181888D02*
X229761Y177514D01*
X234135Y177514D01*
D12*
X239100Y231264D02*
X218100Y231264D01*
X218100Y251336D02*
X239100Y251336D01*
D13*
X226564Y253714D02*
X224815Y253714D01*
X224734Y253716D01*
X224654Y253721D01*
X224573Y253731D01*
X224493Y253744D01*
X224414Y253760D01*
X224336Y253781D01*
X224259Y253805D01*
X224183Y253832D01*
X224108Y253863D01*
X224035Y253897D01*
X223963Y253935D01*
X223894Y253976D01*
X223826Y254020D01*
X223760Y254067D01*
X223697Y254118D01*
X223636Y254171D01*
X223578Y254227D01*
X223522Y254285D01*
X223469Y254346D01*
X223418Y254409D01*
X223371Y254475D01*
X223327Y254543D01*
X223286Y254612D01*
X223248Y254684D01*
X223214Y254757D01*
X223183Y254832D01*
X223156Y254908D01*
X223132Y254985D01*
X223111Y255063D01*
X223095Y255142D01*
X223082Y255222D01*
X223072Y255303D01*
X223067Y255383D01*
X223065Y255464D01*
X223065Y259838D01*
X223067Y259921D01*
X223073Y260004D01*
X223083Y260087D01*
X223097Y260169D01*
X223114Y260251D01*
X223136Y260331D01*
X223161Y260410D01*
X223190Y260488D01*
X223223Y260565D01*
X223260Y260640D01*
X223299Y260713D01*
X223343Y260784D01*
X223389Y260853D01*
X223439Y260920D01*
X223492Y260984D01*
X223548Y261046D01*
X223607Y261105D01*
X223669Y261161D01*
X223733Y261214D01*
X223800Y261263D01*
X223869Y261310D01*
X223940Y261354D01*
X224013Y261393D01*
X224088Y261430D01*
X224165Y261463D01*
X224243Y261492D01*
X224322Y261517D01*
X224402Y261539D01*
X224484Y261556D01*
X224566Y261570D01*
X224649Y261580D01*
X224732Y261586D01*
X224815Y261588D01*
X226564Y261588D01*
X229761Y253714D02*
X231948Y253714D01*
X232041Y253716D01*
X232133Y253722D01*
X232226Y253732D01*
X232318Y253745D01*
X232409Y253763D01*
X232499Y253785D01*
X232588Y253810D01*
X232677Y253839D01*
X232763Y253872D01*
X232849Y253908D01*
X232933Y253948D01*
X233015Y253992D01*
X233095Y254039D01*
X233173Y254089D01*
X233248Y254143D01*
X233322Y254199D01*
X233393Y254259D01*
X233461Y254322D01*
X233527Y254388D01*
X233590Y254456D01*
X233650Y254527D01*
X233706Y254601D01*
X233760Y254676D01*
X233810Y254754D01*
X233857Y254834D01*
X233901Y254916D01*
X233941Y255000D01*
X233977Y255086D01*
X234010Y255172D01*
X234039Y255261D01*
X234064Y255350D01*
X234086Y255440D01*
X234104Y255531D01*
X234117Y255623D01*
X234127Y255716D01*
X234133Y255808D01*
X234135Y255901D01*
X234133Y255994D01*
X234127Y256086D01*
X234117Y256179D01*
X234104Y256271D01*
X234086Y256362D01*
X234064Y256452D01*
X234039Y256541D01*
X234010Y256630D01*
X233977Y256716D01*
X233941Y256802D01*
X233901Y256886D01*
X233857Y256968D01*
X233810Y257048D01*
X233760Y257126D01*
X233706Y257201D01*
X233650Y257275D01*
X233590Y257346D01*
X233527Y257414D01*
X233461Y257480D01*
X233393Y257543D01*
X233322Y257603D01*
X233248Y257659D01*
X233173Y257713D01*
X233095Y257763D01*
X233015Y257810D01*
X232933Y257854D01*
X232849Y257894D01*
X232763Y257930D01*
X232677Y257963D01*
X232588Y257992D01*
X232499Y258017D01*
X232409Y258039D01*
X232318Y258057D01*
X232226Y258070D01*
X232133Y258080D01*
X232041Y258086D01*
X231948Y258088D01*
X232385Y261588D02*
X229761Y261588D01*
X232385Y261588D02*
X232467Y261586D01*
X232549Y261580D01*
X232630Y261571D01*
X232711Y261557D01*
X232792Y261540D01*
X232871Y261519D01*
X232949Y261495D01*
X233026Y261466D01*
X233102Y261434D01*
X233176Y261399D01*
X233248Y261360D01*
X233319Y261318D01*
X233387Y261273D01*
X233453Y261224D01*
X233517Y261173D01*
X233578Y261118D01*
X233637Y261061D01*
X233693Y261001D01*
X233746Y260938D01*
X233796Y260873D01*
X233843Y260806D01*
X233887Y260737D01*
X233927Y260665D01*
X233964Y260592D01*
X233998Y260517D01*
X234028Y260441D01*
X234054Y260363D01*
X234077Y260284D01*
X234096Y260205D01*
X234111Y260124D01*
X234123Y260043D01*
X234131Y259961D01*
X234135Y259879D01*
X234135Y259797D01*
X234131Y259715D01*
X234123Y259633D01*
X234111Y259552D01*
X234096Y259471D01*
X234077Y259392D01*
X234054Y259313D01*
X234028Y259235D01*
X233998Y259159D01*
X233964Y259084D01*
X233927Y259011D01*
X233887Y258939D01*
X233843Y258870D01*
X233796Y258803D01*
X233746Y258738D01*
X233693Y258675D01*
X233637Y258615D01*
X233578Y258558D01*
X233517Y258503D01*
X233453Y258452D01*
X233387Y258403D01*
X233319Y258358D01*
X233248Y258316D01*
X233176Y258277D01*
X233102Y258242D01*
X233026Y258210D01*
X232949Y258181D01*
X232871Y258157D01*
X232792Y258136D01*
X232711Y258119D01*
X232630Y258105D01*
X232549Y258096D01*
X232467Y258090D01*
X232385Y258088D01*
X230636Y258088D01*
D12*
X268900Y155064D02*
X289900Y155064D01*
X289900Y175136D02*
X268900Y175136D01*
D13*
X275615Y177514D02*
X277364Y177514D01*
X275615Y177514D02*
X275534Y177516D01*
X275454Y177521D01*
X275373Y177531D01*
X275293Y177544D01*
X275214Y177560D01*
X275136Y177581D01*
X275059Y177605D01*
X274983Y177632D01*
X274908Y177663D01*
X274835Y177697D01*
X274763Y177735D01*
X274694Y177776D01*
X274626Y177820D01*
X274560Y177867D01*
X274497Y177918D01*
X274436Y177971D01*
X274378Y178027D01*
X274322Y178085D01*
X274269Y178146D01*
X274218Y178209D01*
X274171Y178275D01*
X274127Y178343D01*
X274086Y178412D01*
X274048Y178484D01*
X274014Y178557D01*
X273983Y178632D01*
X273956Y178708D01*
X273932Y178785D01*
X273911Y178863D01*
X273895Y178942D01*
X273882Y179022D01*
X273872Y179103D01*
X273867Y179183D01*
X273865Y179264D01*
X273865Y183638D01*
X273867Y183721D01*
X273873Y183804D01*
X273883Y183887D01*
X273897Y183969D01*
X273914Y184051D01*
X273936Y184131D01*
X273961Y184210D01*
X273990Y184288D01*
X274023Y184365D01*
X274060Y184440D01*
X274099Y184513D01*
X274143Y184584D01*
X274189Y184653D01*
X274239Y184720D01*
X274292Y184784D01*
X274348Y184846D01*
X274407Y184905D01*
X274469Y184961D01*
X274533Y185014D01*
X274600Y185063D01*
X274669Y185110D01*
X274740Y185154D01*
X274813Y185193D01*
X274888Y185230D01*
X274965Y185263D01*
X275043Y185292D01*
X275122Y185317D01*
X275202Y185339D01*
X275284Y185356D01*
X275366Y185370D01*
X275449Y185380D01*
X275532Y185386D01*
X275615Y185388D01*
X277364Y185388D01*
X282310Y185388D02*
X280561Y179264D01*
X284935Y179264D01*
X283623Y181014D02*
X283623Y177514D01*
D12*
X289900Y231264D02*
X268900Y231264D01*
X268900Y251336D02*
X289900Y251336D01*
D13*
X303198Y239264D02*
X303198Y237515D01*
X303196Y237434D01*
X303191Y237354D01*
X303181Y237273D01*
X303168Y237193D01*
X303152Y237114D01*
X303131Y237036D01*
X303107Y236959D01*
X303080Y236883D01*
X303049Y236808D01*
X303015Y236735D01*
X302977Y236663D01*
X302936Y236594D01*
X302892Y236526D01*
X302845Y236460D01*
X302794Y236397D01*
X302741Y236336D01*
X302685Y236278D01*
X302627Y236222D01*
X302566Y236169D01*
X302503Y236118D01*
X302437Y236071D01*
X302369Y236027D01*
X302300Y235986D01*
X302228Y235948D01*
X302155Y235914D01*
X302080Y235883D01*
X302004Y235856D01*
X301927Y235832D01*
X301849Y235811D01*
X301770Y235795D01*
X301690Y235782D01*
X301609Y235772D01*
X301529Y235767D01*
X301448Y235765D01*
X297073Y235765D01*
X296990Y235767D01*
X296907Y235773D01*
X296824Y235783D01*
X296742Y235797D01*
X296660Y235814D01*
X296580Y235836D01*
X296501Y235861D01*
X296423Y235890D01*
X296346Y235923D01*
X296271Y235960D01*
X296198Y235999D01*
X296127Y236043D01*
X296058Y236089D01*
X295991Y236139D01*
X295927Y236192D01*
X295865Y236248D01*
X295806Y236307D01*
X295750Y236369D01*
X295697Y236433D01*
X295648Y236500D01*
X295601Y236569D01*
X295557Y236640D01*
X295518Y236713D01*
X295481Y236788D01*
X295448Y236865D01*
X295419Y236943D01*
X295394Y237022D01*
X295372Y237102D01*
X295355Y237184D01*
X295341Y237266D01*
X295331Y237349D01*
X295325Y237432D01*
X295323Y237515D01*
X295324Y237515D02*
X295324Y239264D01*
X303198Y242461D02*
X303198Y245085D01*
X303196Y245166D01*
X303191Y245246D01*
X303181Y245327D01*
X303168Y245407D01*
X303152Y245486D01*
X303131Y245564D01*
X303107Y245641D01*
X303080Y245717D01*
X303049Y245792D01*
X303015Y245865D01*
X302977Y245937D01*
X302936Y246006D01*
X302892Y246074D01*
X302845Y246140D01*
X302794Y246203D01*
X302741Y246264D01*
X302685Y246322D01*
X302627Y246378D01*
X302566Y246431D01*
X302503Y246482D01*
X302437Y246529D01*
X302369Y246573D01*
X302300Y246614D01*
X302228Y246652D01*
X302155Y246686D01*
X302080Y246717D01*
X302004Y246744D01*
X301927Y246768D01*
X301849Y246789D01*
X301770Y246805D01*
X301690Y246818D01*
X301609Y246828D01*
X301529Y246833D01*
X301448Y246835D01*
X300573Y246835D01*
X300490Y246833D01*
X300407Y246827D01*
X300324Y246817D01*
X300242Y246803D01*
X300160Y246786D01*
X300080Y246764D01*
X300001Y246739D01*
X299923Y246710D01*
X299846Y246677D01*
X299771Y246640D01*
X299698Y246601D01*
X299627Y246557D01*
X299558Y246511D01*
X299491Y246461D01*
X299427Y246408D01*
X299365Y246352D01*
X299306Y246293D01*
X299250Y246231D01*
X299197Y246167D01*
X299148Y246100D01*
X299101Y246031D01*
X299057Y245960D01*
X299018Y245887D01*
X298981Y245812D01*
X298948Y245735D01*
X298919Y245657D01*
X298894Y245578D01*
X298872Y245498D01*
X298855Y245416D01*
X298841Y245334D01*
X298831Y245251D01*
X298825Y245168D01*
X298823Y245085D01*
X298823Y242461D01*
X295324Y242461D01*
X295324Y246835D01*
D12*
X127483Y194800D02*
X127483Y160800D01*
X151917Y160800D02*
X151917Y194800D01*
D13*
X137664Y173228D02*
X135915Y173228D01*
X135834Y173230D01*
X135754Y173235D01*
X135673Y173245D01*
X135593Y173258D01*
X135514Y173274D01*
X135436Y173295D01*
X135359Y173319D01*
X135283Y173346D01*
X135208Y173377D01*
X135135Y173411D01*
X135063Y173449D01*
X134994Y173490D01*
X134926Y173534D01*
X134860Y173581D01*
X134797Y173632D01*
X134736Y173685D01*
X134678Y173741D01*
X134622Y173799D01*
X134569Y173860D01*
X134518Y173923D01*
X134471Y173989D01*
X134427Y174057D01*
X134386Y174126D01*
X134348Y174198D01*
X134314Y174271D01*
X134283Y174346D01*
X134256Y174422D01*
X134232Y174499D01*
X134211Y174577D01*
X134195Y174656D01*
X134182Y174736D01*
X134172Y174817D01*
X134167Y174897D01*
X134165Y174978D01*
X134165Y179352D01*
X134167Y179435D01*
X134173Y179518D01*
X134183Y179601D01*
X134197Y179683D01*
X134214Y179765D01*
X134236Y179845D01*
X134261Y179924D01*
X134290Y180002D01*
X134323Y180079D01*
X134360Y180154D01*
X134399Y180227D01*
X134443Y180298D01*
X134489Y180367D01*
X134539Y180434D01*
X134592Y180498D01*
X134648Y180560D01*
X134707Y180619D01*
X134769Y180675D01*
X134833Y180728D01*
X134900Y180777D01*
X134969Y180824D01*
X135040Y180868D01*
X135113Y180907D01*
X135188Y180944D01*
X135265Y180977D01*
X135343Y181006D01*
X135422Y181031D01*
X135502Y181053D01*
X135584Y181070D01*
X135666Y181084D01*
X135749Y181094D01*
X135832Y181100D01*
X135915Y181102D01*
X137664Y181102D01*
X140861Y177602D02*
X143485Y177602D01*
X143485Y177603D02*
X143566Y177601D01*
X143646Y177596D01*
X143727Y177586D01*
X143807Y177573D01*
X143886Y177557D01*
X143964Y177536D01*
X144041Y177512D01*
X144117Y177485D01*
X144192Y177454D01*
X144265Y177420D01*
X144337Y177382D01*
X144406Y177341D01*
X144474Y177297D01*
X144540Y177250D01*
X144603Y177199D01*
X144664Y177146D01*
X144722Y177090D01*
X144778Y177032D01*
X144831Y176971D01*
X144882Y176908D01*
X144929Y176842D01*
X144973Y176774D01*
X145014Y176705D01*
X145052Y176633D01*
X145086Y176560D01*
X145117Y176485D01*
X145144Y176409D01*
X145168Y176332D01*
X145189Y176254D01*
X145205Y176175D01*
X145218Y176095D01*
X145228Y176014D01*
X145233Y175934D01*
X145235Y175853D01*
X145235Y175415D01*
X145233Y175322D01*
X145227Y175230D01*
X145217Y175137D01*
X145204Y175045D01*
X145186Y174954D01*
X145164Y174864D01*
X145139Y174775D01*
X145110Y174686D01*
X145077Y174600D01*
X145041Y174514D01*
X145001Y174430D01*
X144957Y174348D01*
X144910Y174268D01*
X144860Y174190D01*
X144806Y174115D01*
X144750Y174041D01*
X144690Y173970D01*
X144627Y173902D01*
X144561Y173836D01*
X144493Y173773D01*
X144422Y173713D01*
X144348Y173657D01*
X144273Y173603D01*
X144195Y173553D01*
X144115Y173506D01*
X144033Y173462D01*
X143949Y173422D01*
X143863Y173386D01*
X143777Y173353D01*
X143688Y173324D01*
X143599Y173299D01*
X143509Y173277D01*
X143418Y173259D01*
X143326Y173246D01*
X143233Y173236D01*
X143141Y173230D01*
X143048Y173228D01*
X142955Y173230D01*
X142863Y173236D01*
X142770Y173246D01*
X142678Y173259D01*
X142587Y173277D01*
X142497Y173299D01*
X142408Y173324D01*
X142319Y173353D01*
X142233Y173386D01*
X142147Y173422D01*
X142063Y173462D01*
X141981Y173506D01*
X141901Y173553D01*
X141823Y173603D01*
X141748Y173657D01*
X141674Y173713D01*
X141603Y173773D01*
X141535Y173836D01*
X141469Y173902D01*
X141406Y173970D01*
X141346Y174041D01*
X141290Y174115D01*
X141236Y174190D01*
X141186Y174268D01*
X141139Y174348D01*
X141095Y174430D01*
X141055Y174514D01*
X141019Y174600D01*
X140986Y174686D01*
X140957Y174775D01*
X140932Y174864D01*
X140910Y174954D01*
X140892Y175045D01*
X140879Y175137D01*
X140869Y175230D01*
X140863Y175322D01*
X140861Y175415D01*
X140861Y177602D01*
X140860Y177602D02*
X140862Y177719D01*
X140868Y177836D01*
X140878Y177952D01*
X140891Y178069D01*
X140909Y178184D01*
X140930Y178299D01*
X140955Y178413D01*
X140984Y178527D01*
X141017Y178639D01*
X141054Y178750D01*
X141094Y178860D01*
X141138Y178968D01*
X141185Y179075D01*
X141236Y179181D01*
X141291Y179284D01*
X141349Y179386D01*
X141410Y179485D01*
X141474Y179583D01*
X141542Y179678D01*
X141613Y179771D01*
X141687Y179862D01*
X141764Y179950D01*
X141844Y180035D01*
X141927Y180118D01*
X142012Y180198D01*
X142100Y180275D01*
X142191Y180349D01*
X142284Y180420D01*
X142379Y180488D01*
X142477Y180552D01*
X142576Y180613D01*
X142678Y180671D01*
X142781Y180726D01*
X142887Y180777D01*
X142994Y180824D01*
X143102Y180868D01*
X143212Y180908D01*
X143323Y180945D01*
X143435Y180978D01*
X143549Y181007D01*
X143663Y181032D01*
X143778Y181053D01*
X143893Y181071D01*
X144010Y181084D01*
X144126Y181094D01*
X144243Y181100D01*
X144360Y181102D01*
D12*
X167300Y175136D02*
X188300Y175136D01*
X188300Y155064D02*
X167300Y155064D01*
D13*
X174015Y177514D02*
X175764Y177514D01*
X174015Y177514D02*
X173934Y177516D01*
X173854Y177521D01*
X173773Y177531D01*
X173693Y177544D01*
X173614Y177560D01*
X173536Y177581D01*
X173459Y177605D01*
X173383Y177632D01*
X173308Y177663D01*
X173235Y177697D01*
X173163Y177735D01*
X173094Y177776D01*
X173026Y177820D01*
X172960Y177867D01*
X172897Y177918D01*
X172836Y177971D01*
X172778Y178027D01*
X172722Y178085D01*
X172669Y178146D01*
X172618Y178209D01*
X172571Y178275D01*
X172527Y178343D01*
X172486Y178412D01*
X172448Y178484D01*
X172414Y178557D01*
X172383Y178632D01*
X172356Y178708D01*
X172332Y178785D01*
X172311Y178863D01*
X172295Y178942D01*
X172282Y179022D01*
X172272Y179103D01*
X172267Y179183D01*
X172265Y179264D01*
X172265Y183638D01*
X172267Y183721D01*
X172273Y183804D01*
X172283Y183887D01*
X172297Y183969D01*
X172314Y184051D01*
X172336Y184131D01*
X172361Y184210D01*
X172390Y184288D01*
X172423Y184365D01*
X172460Y184440D01*
X172499Y184513D01*
X172543Y184584D01*
X172589Y184653D01*
X172639Y184720D01*
X172692Y184784D01*
X172748Y184846D01*
X172807Y184905D01*
X172869Y184961D01*
X172933Y185014D01*
X173000Y185063D01*
X173069Y185110D01*
X173140Y185154D01*
X173213Y185193D01*
X173288Y185230D01*
X173365Y185263D01*
X173443Y185292D01*
X173522Y185317D01*
X173602Y185339D01*
X173684Y185356D01*
X173766Y185370D01*
X173849Y185380D01*
X173932Y185386D01*
X174015Y185388D01*
X175764Y185388D01*
X178961Y185388D02*
X178961Y184513D01*
X178961Y185388D02*
X183335Y185388D01*
X181148Y177514D01*
D12*
X148450Y207859D02*
X130950Y207859D01*
X130950Y223941D02*
X148450Y223941D01*
D13*
X125572Y213865D02*
X125572Y212115D01*
X125570Y212034D01*
X125565Y211954D01*
X125555Y211873D01*
X125542Y211793D01*
X125526Y211714D01*
X125505Y211636D01*
X125481Y211559D01*
X125454Y211483D01*
X125423Y211408D01*
X125389Y211335D01*
X125351Y211263D01*
X125310Y211194D01*
X125266Y211126D01*
X125219Y211060D01*
X125168Y210997D01*
X125115Y210936D01*
X125059Y210878D01*
X125001Y210822D01*
X124940Y210769D01*
X124877Y210718D01*
X124811Y210671D01*
X124743Y210627D01*
X124674Y210586D01*
X124602Y210548D01*
X124529Y210514D01*
X124454Y210483D01*
X124378Y210456D01*
X124301Y210432D01*
X124223Y210411D01*
X124144Y210395D01*
X124064Y210382D01*
X123983Y210372D01*
X123903Y210367D01*
X123822Y210365D01*
X119447Y210365D01*
X119364Y210367D01*
X119281Y210373D01*
X119198Y210383D01*
X119116Y210397D01*
X119034Y210414D01*
X118954Y210436D01*
X118875Y210461D01*
X118797Y210490D01*
X118720Y210523D01*
X118645Y210560D01*
X118572Y210599D01*
X118501Y210643D01*
X118432Y210689D01*
X118365Y210739D01*
X118301Y210792D01*
X118239Y210848D01*
X118180Y210907D01*
X118124Y210969D01*
X118071Y211033D01*
X118022Y211100D01*
X117975Y211169D01*
X117931Y211240D01*
X117892Y211313D01*
X117855Y211388D01*
X117822Y211465D01*
X117793Y211543D01*
X117768Y211622D01*
X117746Y211702D01*
X117729Y211784D01*
X117715Y211866D01*
X117705Y211949D01*
X117699Y212032D01*
X117697Y212115D01*
X117698Y212115D02*
X117698Y213865D01*
X123384Y217061D02*
X123291Y217063D01*
X123199Y217069D01*
X123106Y217079D01*
X123014Y217092D01*
X122923Y217110D01*
X122833Y217132D01*
X122744Y217157D01*
X122655Y217186D01*
X122569Y217219D01*
X122483Y217255D01*
X122399Y217295D01*
X122317Y217339D01*
X122237Y217386D01*
X122159Y217436D01*
X122084Y217490D01*
X122010Y217546D01*
X121939Y217606D01*
X121871Y217669D01*
X121805Y217735D01*
X121742Y217803D01*
X121682Y217874D01*
X121626Y217948D01*
X121572Y218023D01*
X121522Y218101D01*
X121475Y218181D01*
X121431Y218263D01*
X121391Y218347D01*
X121355Y218433D01*
X121322Y218519D01*
X121293Y218608D01*
X121268Y218697D01*
X121246Y218787D01*
X121228Y218878D01*
X121215Y218970D01*
X121205Y219063D01*
X121199Y219155D01*
X121197Y219248D01*
X121199Y219341D01*
X121205Y219433D01*
X121215Y219526D01*
X121228Y219618D01*
X121246Y219709D01*
X121268Y219799D01*
X121293Y219888D01*
X121322Y219977D01*
X121355Y220063D01*
X121391Y220149D01*
X121431Y220233D01*
X121475Y220315D01*
X121522Y220395D01*
X121572Y220473D01*
X121626Y220548D01*
X121682Y220622D01*
X121742Y220693D01*
X121805Y220761D01*
X121871Y220827D01*
X121939Y220890D01*
X122010Y220950D01*
X122084Y221006D01*
X122159Y221060D01*
X122237Y221110D01*
X122317Y221157D01*
X122399Y221201D01*
X122483Y221241D01*
X122569Y221277D01*
X122655Y221310D01*
X122744Y221339D01*
X122833Y221364D01*
X122923Y221386D01*
X123014Y221404D01*
X123106Y221417D01*
X123199Y221427D01*
X123291Y221433D01*
X123384Y221435D01*
X123477Y221433D01*
X123569Y221427D01*
X123662Y221417D01*
X123754Y221404D01*
X123845Y221386D01*
X123935Y221364D01*
X124024Y221339D01*
X124113Y221310D01*
X124199Y221277D01*
X124285Y221241D01*
X124369Y221201D01*
X124451Y221157D01*
X124531Y221110D01*
X124609Y221060D01*
X124684Y221006D01*
X124758Y220950D01*
X124829Y220890D01*
X124897Y220827D01*
X124963Y220761D01*
X125026Y220693D01*
X125086Y220622D01*
X125142Y220548D01*
X125196Y220473D01*
X125246Y220395D01*
X125293Y220315D01*
X125337Y220233D01*
X125377Y220149D01*
X125413Y220063D01*
X125446Y219977D01*
X125475Y219888D01*
X125500Y219799D01*
X125522Y219709D01*
X125540Y219618D01*
X125553Y219526D01*
X125563Y219433D01*
X125569Y219341D01*
X125571Y219248D01*
X125569Y219155D01*
X125563Y219063D01*
X125553Y218970D01*
X125540Y218878D01*
X125522Y218787D01*
X125500Y218697D01*
X125475Y218608D01*
X125446Y218519D01*
X125413Y218433D01*
X125377Y218347D01*
X125337Y218263D01*
X125293Y218181D01*
X125246Y218101D01*
X125196Y218023D01*
X125142Y217948D01*
X125086Y217874D01*
X125026Y217803D01*
X124963Y217735D01*
X124897Y217669D01*
X124829Y217606D01*
X124758Y217546D01*
X124684Y217490D01*
X124609Y217436D01*
X124531Y217386D01*
X124451Y217339D01*
X124369Y217295D01*
X124285Y217255D01*
X124199Y217219D01*
X124113Y217186D01*
X124024Y217157D01*
X123935Y217132D01*
X123845Y217110D01*
X123754Y217092D01*
X123662Y217079D01*
X123569Y217069D01*
X123477Y217063D01*
X123384Y217061D01*
X119447Y217498D02*
X119365Y217500D01*
X119283Y217506D01*
X119202Y217515D01*
X119121Y217529D01*
X119040Y217546D01*
X118961Y217567D01*
X118883Y217591D01*
X118806Y217620D01*
X118730Y217652D01*
X118656Y217687D01*
X118584Y217726D01*
X118513Y217768D01*
X118445Y217813D01*
X118379Y217862D01*
X118315Y217913D01*
X118254Y217968D01*
X118195Y218025D01*
X118139Y218085D01*
X118086Y218148D01*
X118036Y218213D01*
X117989Y218280D01*
X117945Y218349D01*
X117905Y218421D01*
X117868Y218494D01*
X117834Y218569D01*
X117804Y218645D01*
X117778Y218723D01*
X117755Y218802D01*
X117736Y218881D01*
X117721Y218962D01*
X117709Y219043D01*
X117701Y219125D01*
X117697Y219207D01*
X117697Y219289D01*
X117701Y219371D01*
X117709Y219453D01*
X117721Y219534D01*
X117736Y219615D01*
X117755Y219694D01*
X117778Y219773D01*
X117804Y219851D01*
X117834Y219927D01*
X117868Y220002D01*
X117905Y220075D01*
X117945Y220147D01*
X117989Y220216D01*
X118036Y220283D01*
X118086Y220348D01*
X118139Y220411D01*
X118195Y220471D01*
X118254Y220528D01*
X118315Y220583D01*
X118379Y220634D01*
X118445Y220683D01*
X118513Y220728D01*
X118584Y220770D01*
X118656Y220809D01*
X118730Y220844D01*
X118806Y220876D01*
X118883Y220905D01*
X118961Y220929D01*
X119040Y220950D01*
X119121Y220967D01*
X119202Y220981D01*
X119283Y220990D01*
X119365Y220996D01*
X119447Y220998D01*
X119529Y220996D01*
X119611Y220990D01*
X119692Y220981D01*
X119773Y220967D01*
X119854Y220950D01*
X119933Y220929D01*
X120011Y220905D01*
X120088Y220876D01*
X120164Y220844D01*
X120238Y220809D01*
X120310Y220770D01*
X120381Y220728D01*
X120449Y220683D01*
X120515Y220634D01*
X120579Y220583D01*
X120640Y220528D01*
X120699Y220471D01*
X120755Y220411D01*
X120808Y220348D01*
X120858Y220283D01*
X120905Y220216D01*
X120949Y220147D01*
X120989Y220075D01*
X121026Y220002D01*
X121060Y219927D01*
X121090Y219851D01*
X121116Y219773D01*
X121139Y219694D01*
X121158Y219615D01*
X121173Y219534D01*
X121185Y219453D01*
X121193Y219371D01*
X121197Y219289D01*
X121197Y219207D01*
X121193Y219125D01*
X121185Y219043D01*
X121173Y218962D01*
X121158Y218881D01*
X121139Y218802D01*
X121116Y218723D01*
X121090Y218645D01*
X121060Y218569D01*
X121026Y218494D01*
X120989Y218421D01*
X120949Y218349D01*
X120905Y218280D01*
X120858Y218213D01*
X120808Y218148D01*
X120755Y218085D01*
X120699Y218025D01*
X120640Y217968D01*
X120579Y217913D01*
X120515Y217862D01*
X120449Y217813D01*
X120381Y217768D01*
X120310Y217726D01*
X120238Y217687D01*
X120164Y217652D01*
X120088Y217620D01*
X120011Y217591D01*
X119933Y217567D01*
X119854Y217546D01*
X119773Y217529D01*
X119692Y217515D01*
X119611Y217506D01*
X119529Y217500D01*
X119447Y217498D01*
D12*
X60800Y302799D02*
X29014Y302799D01*
X29014Y281401D01*
X60800Y281401D01*
X60800Y264699D02*
X29014Y264699D01*
X29014Y243301D01*
X60800Y243301D01*
D14*
X215900Y438150D02*
X241300Y438150D01*
X241300Y463550D01*
X215900Y463550D01*
X215900Y438150D01*
D15*
X228600Y469900D02*
X228600Y527050D01*
D14*
X241300Y438150D02*
X266700Y438150D01*
X266700Y463550D01*
X241300Y463550D01*
D15*
X254000Y469900D02*
X254000Y527050D01*
D14*
X266700Y438150D02*
X292100Y438150D01*
X292100Y463550D01*
X266700Y463550D01*
D15*
X279400Y469900D02*
X279400Y527050D01*
D16*
X228600Y466090D03*
X254000Y466090D03*
X279400Y466090D03*
D17*
X228600Y433070D03*
X254000Y433070D03*
X279400Y433070D03*
D13*
X280389Y400812D02*
X280389Y392938D01*
X280389Y400812D02*
X282576Y400812D01*
X282669Y400810D01*
X282761Y400804D01*
X282854Y400794D01*
X282946Y400781D01*
X283037Y400763D01*
X283127Y400741D01*
X283216Y400716D01*
X283305Y400687D01*
X283391Y400654D01*
X283477Y400618D01*
X283561Y400578D01*
X283643Y400534D01*
X283723Y400487D01*
X283801Y400437D01*
X283876Y400383D01*
X283950Y400327D01*
X284021Y400267D01*
X284089Y400204D01*
X284155Y400138D01*
X284218Y400070D01*
X284278Y399999D01*
X284334Y399925D01*
X284388Y399850D01*
X284438Y399772D01*
X284485Y399692D01*
X284529Y399610D01*
X284569Y399526D01*
X284605Y399440D01*
X284638Y399354D01*
X284667Y399265D01*
X284692Y399176D01*
X284714Y399086D01*
X284732Y398995D01*
X284745Y398903D01*
X284755Y398810D01*
X284761Y398718D01*
X284763Y398625D01*
X284761Y398532D01*
X284755Y398440D01*
X284745Y398347D01*
X284732Y398255D01*
X284714Y398164D01*
X284692Y398074D01*
X284667Y397985D01*
X284638Y397896D01*
X284605Y397810D01*
X284569Y397724D01*
X284529Y397640D01*
X284485Y397558D01*
X284438Y397478D01*
X284388Y397400D01*
X284334Y397325D01*
X284278Y397251D01*
X284218Y397180D01*
X284155Y397112D01*
X284089Y397046D01*
X284021Y396983D01*
X283950Y396923D01*
X283876Y396867D01*
X283801Y396813D01*
X283723Y396763D01*
X283643Y396716D01*
X283561Y396672D01*
X283477Y396632D01*
X283391Y396596D01*
X283305Y396563D01*
X283216Y396534D01*
X283127Y396509D01*
X283037Y396487D01*
X282946Y396469D01*
X282854Y396456D01*
X282761Y396446D01*
X282669Y396440D01*
X282576Y396438D01*
X280389Y396438D01*
X290386Y400813D02*
X290472Y400811D01*
X290558Y400806D01*
X290643Y400796D01*
X290728Y400783D01*
X290812Y400766D01*
X290896Y400746D01*
X290978Y400722D01*
X291059Y400694D01*
X291140Y400663D01*
X291218Y400629D01*
X291295Y400591D01*
X291371Y400549D01*
X291444Y400505D01*
X291515Y400457D01*
X291585Y400406D01*
X291652Y400352D01*
X291716Y400296D01*
X291778Y400236D01*
X291838Y400174D01*
X291894Y400110D01*
X291948Y400043D01*
X291999Y399973D01*
X292047Y399902D01*
X292091Y399829D01*
X292133Y399753D01*
X292171Y399676D01*
X292205Y399598D01*
X292236Y399517D01*
X292264Y399436D01*
X292288Y399354D01*
X292308Y399270D01*
X292325Y399186D01*
X292338Y399101D01*
X292348Y399016D01*
X292353Y398930D01*
X292355Y398844D01*
X290386Y400812D02*
X290287Y400810D01*
X290187Y400804D01*
X290089Y400794D01*
X289990Y400781D01*
X289892Y400763D01*
X289795Y400742D01*
X289699Y400717D01*
X289604Y400688D01*
X289510Y400655D01*
X289417Y400619D01*
X289326Y400579D01*
X289237Y400536D01*
X289149Y400489D01*
X289064Y400439D01*
X288980Y400385D01*
X288899Y400328D01*
X288819Y400268D01*
X288743Y400205D01*
X288668Y400139D01*
X288597Y400070D01*
X288528Y399999D01*
X288462Y399924D01*
X288399Y399847D01*
X288339Y399768D01*
X288282Y399686D01*
X288229Y399603D01*
X288178Y399517D01*
X288132Y399429D01*
X288088Y399340D01*
X288049Y399249D01*
X288013Y399156D01*
X287980Y399062D01*
X291698Y397313D02*
X291762Y397377D01*
X291823Y397443D01*
X291881Y397512D01*
X291936Y397583D01*
X291989Y397656D01*
X292038Y397732D01*
X292083Y397809D01*
X292126Y397889D01*
X292165Y397970D01*
X292200Y398053D01*
X292232Y398137D01*
X292261Y398223D01*
X292285Y398309D01*
X292306Y398397D01*
X292323Y398485D01*
X292337Y398574D01*
X292346Y398664D01*
X292352Y398754D01*
X292354Y398844D01*
X291698Y397312D02*
X287980Y392938D01*
X292354Y392938D01*
D14*
X120650Y431800D02*
X107950Y431800D01*
X120650Y431800D02*
X127000Y425450D01*
X127000Y412750D01*
X120650Y406400D01*
X127000Y425450D02*
X133350Y431800D01*
X146050Y431800D01*
X152400Y425450D01*
X152400Y412750D01*
X146050Y406400D01*
X133350Y406400D01*
X127000Y412750D01*
X82550Y431800D02*
X76200Y425450D01*
X82550Y431800D02*
X95250Y431800D01*
X101600Y425450D01*
X101600Y412750D01*
X95250Y406400D01*
X82550Y406400D01*
X76200Y412750D01*
X101600Y425450D02*
X107950Y431800D01*
X101600Y412750D02*
X107950Y406400D01*
X120650Y406400D01*
X44450Y431800D02*
X31750Y431800D01*
X44450Y431800D02*
X50800Y425450D01*
X50800Y412750D01*
X44450Y406400D01*
X50800Y425450D02*
X57150Y431800D01*
X69850Y431800D01*
X76200Y425450D01*
X76200Y412750D01*
X69850Y406400D01*
X57150Y406400D01*
X50800Y412750D01*
X25400Y412750D02*
X25400Y425450D01*
X31750Y431800D01*
X25400Y412750D02*
X31750Y406400D01*
X44450Y406400D01*
X158750Y431800D02*
X171450Y431800D01*
X177800Y425450D01*
X177800Y412750D01*
X171450Y406400D01*
X152400Y425450D02*
X158750Y431800D01*
X152400Y412750D02*
X158750Y406400D01*
X171450Y406400D01*
D13*
X166089Y400812D02*
X166089Y392938D01*
X166089Y400812D02*
X168276Y400812D01*
X168369Y400810D01*
X168461Y400804D01*
X168554Y400794D01*
X168646Y400781D01*
X168737Y400763D01*
X168827Y400741D01*
X168916Y400716D01*
X169005Y400687D01*
X169091Y400654D01*
X169177Y400618D01*
X169261Y400578D01*
X169343Y400534D01*
X169423Y400487D01*
X169501Y400437D01*
X169576Y400383D01*
X169650Y400327D01*
X169721Y400267D01*
X169789Y400204D01*
X169855Y400138D01*
X169918Y400070D01*
X169978Y399999D01*
X170034Y399925D01*
X170088Y399850D01*
X170138Y399772D01*
X170185Y399692D01*
X170229Y399610D01*
X170269Y399526D01*
X170305Y399440D01*
X170338Y399354D01*
X170367Y399265D01*
X170392Y399176D01*
X170414Y399086D01*
X170432Y398995D01*
X170445Y398903D01*
X170455Y398810D01*
X170461Y398718D01*
X170463Y398625D01*
X170461Y398532D01*
X170455Y398440D01*
X170445Y398347D01*
X170432Y398255D01*
X170414Y398164D01*
X170392Y398074D01*
X170367Y397985D01*
X170338Y397896D01*
X170305Y397810D01*
X170269Y397724D01*
X170229Y397640D01*
X170185Y397558D01*
X170138Y397478D01*
X170088Y397400D01*
X170034Y397325D01*
X169978Y397251D01*
X169918Y397180D01*
X169855Y397112D01*
X169789Y397046D01*
X169721Y396983D01*
X169650Y396923D01*
X169576Y396867D01*
X169501Y396813D01*
X169423Y396763D01*
X169343Y396716D01*
X169261Y396672D01*
X169177Y396632D01*
X169091Y396596D01*
X169005Y396563D01*
X168916Y396534D01*
X168827Y396509D01*
X168737Y396487D01*
X168646Y396469D01*
X168554Y396456D01*
X168461Y396446D01*
X168369Y396440D01*
X168276Y396438D01*
X166089Y396438D01*
X173680Y392938D02*
X175867Y392938D01*
X175960Y392940D01*
X176052Y392946D01*
X176145Y392956D01*
X176237Y392969D01*
X176328Y392987D01*
X176418Y393009D01*
X176507Y393034D01*
X176596Y393063D01*
X176682Y393096D01*
X176768Y393132D01*
X176852Y393172D01*
X176934Y393216D01*
X177014Y393263D01*
X177092Y393313D01*
X177167Y393367D01*
X177241Y393423D01*
X177312Y393483D01*
X177380Y393546D01*
X177446Y393612D01*
X177509Y393680D01*
X177569Y393751D01*
X177625Y393825D01*
X177679Y393900D01*
X177729Y393978D01*
X177776Y394058D01*
X177820Y394140D01*
X177860Y394224D01*
X177896Y394310D01*
X177929Y394396D01*
X177958Y394485D01*
X177983Y394574D01*
X178005Y394664D01*
X178023Y394755D01*
X178036Y394847D01*
X178046Y394940D01*
X178052Y395032D01*
X178054Y395125D01*
X178052Y395218D01*
X178046Y395310D01*
X178036Y395403D01*
X178023Y395495D01*
X178005Y395586D01*
X177983Y395676D01*
X177958Y395765D01*
X177929Y395854D01*
X177896Y395940D01*
X177860Y396026D01*
X177820Y396110D01*
X177776Y396192D01*
X177729Y396272D01*
X177679Y396350D01*
X177625Y396425D01*
X177569Y396499D01*
X177509Y396570D01*
X177446Y396638D01*
X177380Y396704D01*
X177312Y396767D01*
X177241Y396827D01*
X177167Y396883D01*
X177092Y396937D01*
X177014Y396987D01*
X176934Y397034D01*
X176852Y397078D01*
X176768Y397118D01*
X176682Y397154D01*
X176596Y397187D01*
X176507Y397216D01*
X176418Y397241D01*
X176328Y397263D01*
X176237Y397281D01*
X176145Y397294D01*
X176052Y397304D01*
X175960Y397310D01*
X175867Y397312D01*
X176304Y400812D02*
X173680Y400812D01*
X176304Y400812D02*
X176386Y400810D01*
X176468Y400804D01*
X176549Y400795D01*
X176630Y400781D01*
X176711Y400764D01*
X176790Y400743D01*
X176868Y400719D01*
X176945Y400690D01*
X177021Y400658D01*
X177095Y400623D01*
X177167Y400584D01*
X177238Y400542D01*
X177306Y400497D01*
X177372Y400448D01*
X177436Y400397D01*
X177497Y400342D01*
X177556Y400285D01*
X177612Y400225D01*
X177665Y400162D01*
X177715Y400097D01*
X177762Y400030D01*
X177806Y399961D01*
X177846Y399889D01*
X177883Y399816D01*
X177917Y399741D01*
X177947Y399665D01*
X177973Y399587D01*
X177996Y399508D01*
X178015Y399429D01*
X178030Y399348D01*
X178042Y399267D01*
X178050Y399185D01*
X178054Y399103D01*
X178054Y399021D01*
X178050Y398939D01*
X178042Y398857D01*
X178030Y398776D01*
X178015Y398695D01*
X177996Y398616D01*
X177973Y398537D01*
X177947Y398459D01*
X177917Y398383D01*
X177883Y398308D01*
X177846Y398235D01*
X177806Y398163D01*
X177762Y398094D01*
X177715Y398027D01*
X177665Y397962D01*
X177612Y397899D01*
X177556Y397839D01*
X177497Y397782D01*
X177436Y397727D01*
X177372Y397676D01*
X177306Y397627D01*
X177238Y397582D01*
X177167Y397540D01*
X177095Y397501D01*
X177021Y397466D01*
X176945Y397434D01*
X176868Y397405D01*
X176790Y397381D01*
X176711Y397360D01*
X176630Y397343D01*
X176549Y397329D01*
X176468Y397320D01*
X176386Y397314D01*
X176304Y397312D01*
X174554Y397312D01*
D18*
X61975Y363465D03*
D12*
X60075Y358790D02*
X60075Y344790D01*
X49975Y344790D01*
X28825Y344790D02*
X28825Y358790D01*
X28825Y344790D02*
X38925Y344790D01*
D13*
X40312Y372106D02*
X40312Y375605D01*
X40313Y375605D02*
X40315Y375698D01*
X40321Y375790D01*
X40331Y375883D01*
X40344Y375975D01*
X40362Y376066D01*
X40384Y376156D01*
X40409Y376245D01*
X40438Y376334D01*
X40471Y376420D01*
X40507Y376506D01*
X40547Y376590D01*
X40591Y376672D01*
X40638Y376752D01*
X40688Y376830D01*
X40742Y376905D01*
X40798Y376979D01*
X40858Y377050D01*
X40921Y377118D01*
X40987Y377184D01*
X41055Y377247D01*
X41126Y377307D01*
X41200Y377363D01*
X41275Y377417D01*
X41353Y377467D01*
X41433Y377514D01*
X41515Y377558D01*
X41599Y377598D01*
X41685Y377634D01*
X41771Y377667D01*
X41860Y377696D01*
X41949Y377721D01*
X42039Y377743D01*
X42130Y377761D01*
X42222Y377774D01*
X42315Y377784D01*
X42407Y377790D01*
X42500Y377792D01*
X42593Y377790D01*
X42685Y377784D01*
X42778Y377774D01*
X42870Y377761D01*
X42961Y377743D01*
X43051Y377721D01*
X43140Y377696D01*
X43229Y377667D01*
X43315Y377634D01*
X43401Y377598D01*
X43485Y377558D01*
X43567Y377514D01*
X43647Y377467D01*
X43725Y377417D01*
X43800Y377363D01*
X43874Y377307D01*
X43945Y377247D01*
X44013Y377184D01*
X44079Y377118D01*
X44142Y377050D01*
X44202Y376979D01*
X44258Y376905D01*
X44312Y376830D01*
X44362Y376752D01*
X44409Y376672D01*
X44453Y376590D01*
X44493Y376506D01*
X44529Y376420D01*
X44562Y376334D01*
X44591Y376245D01*
X44616Y376156D01*
X44638Y376066D01*
X44656Y375975D01*
X44669Y375883D01*
X44679Y375790D01*
X44685Y375698D01*
X44687Y375605D01*
X44687Y372106D01*
X44685Y372013D01*
X44679Y371921D01*
X44669Y371828D01*
X44656Y371736D01*
X44638Y371645D01*
X44616Y371555D01*
X44591Y371466D01*
X44562Y371377D01*
X44529Y371291D01*
X44493Y371205D01*
X44453Y371121D01*
X44409Y371039D01*
X44362Y370959D01*
X44312Y370881D01*
X44258Y370806D01*
X44202Y370732D01*
X44142Y370661D01*
X44079Y370593D01*
X44013Y370527D01*
X43945Y370464D01*
X43874Y370404D01*
X43800Y370348D01*
X43725Y370294D01*
X43647Y370244D01*
X43567Y370197D01*
X43485Y370153D01*
X43401Y370113D01*
X43315Y370077D01*
X43229Y370044D01*
X43140Y370015D01*
X43051Y369990D01*
X42961Y369968D01*
X42870Y369950D01*
X42778Y369937D01*
X42685Y369927D01*
X42593Y369921D01*
X42500Y369919D01*
X42407Y369921D01*
X42315Y369927D01*
X42222Y369937D01*
X42130Y369950D01*
X42039Y369968D01*
X41949Y369990D01*
X41860Y370015D01*
X41771Y370044D01*
X41685Y370077D01*
X41599Y370113D01*
X41515Y370153D01*
X41433Y370197D01*
X41353Y370244D01*
X41275Y370294D01*
X41200Y370348D01*
X41126Y370404D01*
X41055Y370464D01*
X40987Y370527D01*
X40921Y370593D01*
X40858Y370661D01*
X40798Y370732D01*
X40742Y370806D01*
X40688Y370881D01*
X40638Y370959D01*
X40591Y371039D01*
X40547Y371121D01*
X40507Y371205D01*
X40471Y371291D01*
X40438Y371377D01*
X40409Y371466D01*
X40384Y371555D01*
X40362Y371645D01*
X40344Y371736D01*
X40331Y371828D01*
X40321Y371921D01*
X40315Y372013D01*
X40313Y372106D01*
X43812Y371668D02*
X45562Y369919D01*
X48013Y376043D02*
X50200Y377793D01*
X50200Y369919D01*
X48013Y369919D02*
X52388Y369919D01*
D19*
X244200Y380600D02*
X289200Y380600D01*
X289200Y330600D02*
X244200Y330600D01*
X244200Y368100D02*
X244200Y380600D01*
X244200Y343100D02*
X244200Y330600D01*
X289200Y353100D02*
X289200Y358100D01*
X289200Y353100D01*
X289200Y375600D02*
X289200Y380600D01*
X289200Y335600D02*
X289200Y330600D01*
D13*
X260544Y351028D02*
X260544Y358902D01*
X262731Y358902D01*
X262824Y358900D01*
X262916Y358894D01*
X263009Y358884D01*
X263101Y358871D01*
X263192Y358853D01*
X263282Y358831D01*
X263371Y358806D01*
X263460Y358777D01*
X263546Y358744D01*
X263632Y358708D01*
X263716Y358668D01*
X263798Y358624D01*
X263878Y358577D01*
X263956Y358527D01*
X264031Y358473D01*
X264105Y358417D01*
X264176Y358357D01*
X264244Y358294D01*
X264310Y358228D01*
X264373Y358160D01*
X264433Y358089D01*
X264489Y358015D01*
X264543Y357940D01*
X264593Y357862D01*
X264640Y357782D01*
X264684Y357700D01*
X264724Y357616D01*
X264760Y357530D01*
X264793Y357444D01*
X264822Y357355D01*
X264847Y357266D01*
X264869Y357176D01*
X264887Y357085D01*
X264900Y356993D01*
X264910Y356900D01*
X264916Y356808D01*
X264918Y356715D01*
X264916Y356622D01*
X264910Y356530D01*
X264900Y356437D01*
X264887Y356345D01*
X264869Y356254D01*
X264847Y356164D01*
X264822Y356075D01*
X264793Y355986D01*
X264760Y355900D01*
X264724Y355814D01*
X264684Y355730D01*
X264640Y355648D01*
X264593Y355568D01*
X264543Y355490D01*
X264489Y355415D01*
X264433Y355341D01*
X264373Y355270D01*
X264310Y355202D01*
X264244Y355136D01*
X264176Y355073D01*
X264105Y355013D01*
X264031Y354957D01*
X263956Y354903D01*
X263878Y354853D01*
X263798Y354806D01*
X263716Y354762D01*
X263632Y354722D01*
X263546Y354686D01*
X263460Y354653D01*
X263371Y354624D01*
X263282Y354599D01*
X263192Y354577D01*
X263101Y354559D01*
X263009Y354546D01*
X262916Y354536D01*
X262824Y354530D01*
X262731Y354528D01*
X260544Y354528D01*
X263168Y354528D02*
X264918Y351028D01*
X268482Y357152D02*
X270669Y358902D01*
X270669Y351028D01*
X268482Y351028D02*
X272856Y351028D01*
D12*
X186550Y249336D02*
X169050Y249336D01*
X169050Y233264D02*
X186550Y233264D01*
D13*
X167643Y251714D02*
X167643Y259588D01*
X169830Y259588D01*
X169923Y259586D01*
X170015Y259580D01*
X170108Y259570D01*
X170200Y259557D01*
X170291Y259539D01*
X170381Y259517D01*
X170470Y259492D01*
X170559Y259463D01*
X170645Y259430D01*
X170731Y259394D01*
X170815Y259354D01*
X170897Y259310D01*
X170977Y259263D01*
X171055Y259213D01*
X171130Y259159D01*
X171204Y259103D01*
X171275Y259043D01*
X171343Y258980D01*
X171409Y258914D01*
X171472Y258846D01*
X171532Y258775D01*
X171588Y258701D01*
X171642Y258626D01*
X171692Y258548D01*
X171739Y258468D01*
X171783Y258386D01*
X171823Y258302D01*
X171859Y258216D01*
X171892Y258130D01*
X171921Y258041D01*
X171946Y257952D01*
X171968Y257862D01*
X171986Y257771D01*
X171999Y257679D01*
X172009Y257586D01*
X172015Y257494D01*
X172017Y257401D01*
X172015Y257308D01*
X172009Y257216D01*
X171999Y257123D01*
X171986Y257031D01*
X171968Y256940D01*
X171946Y256850D01*
X171921Y256761D01*
X171892Y256672D01*
X171859Y256586D01*
X171823Y256500D01*
X171783Y256416D01*
X171739Y256334D01*
X171692Y256254D01*
X171642Y256176D01*
X171588Y256101D01*
X171532Y256027D01*
X171472Y255956D01*
X171409Y255888D01*
X171343Y255822D01*
X171275Y255759D01*
X171204Y255699D01*
X171130Y255643D01*
X171055Y255589D01*
X170977Y255539D01*
X170897Y255492D01*
X170815Y255448D01*
X170731Y255408D01*
X170645Y255372D01*
X170559Y255339D01*
X170470Y255310D01*
X170381Y255285D01*
X170291Y255263D01*
X170200Y255245D01*
X170108Y255232D01*
X170015Y255222D01*
X169923Y255216D01*
X169830Y255214D01*
X167643Y255214D01*
X170268Y255214D02*
X172018Y251714D01*
X175582Y257838D02*
X177769Y259588D01*
X177769Y251714D01*
X175582Y251714D02*
X179956Y251714D01*
X183583Y257838D02*
X185770Y259588D01*
X185770Y251714D01*
X183583Y251714D02*
X187957Y251714D01*
D12*
X148450Y249336D02*
X130950Y249336D01*
X130950Y233264D02*
X148450Y233264D01*
D13*
X129543Y251714D02*
X129543Y259588D01*
X131730Y259588D01*
X131823Y259586D01*
X131915Y259580D01*
X132008Y259570D01*
X132100Y259557D01*
X132191Y259539D01*
X132281Y259517D01*
X132370Y259492D01*
X132459Y259463D01*
X132545Y259430D01*
X132631Y259394D01*
X132715Y259354D01*
X132797Y259310D01*
X132877Y259263D01*
X132955Y259213D01*
X133030Y259159D01*
X133104Y259103D01*
X133175Y259043D01*
X133243Y258980D01*
X133309Y258914D01*
X133372Y258846D01*
X133432Y258775D01*
X133488Y258701D01*
X133542Y258626D01*
X133592Y258548D01*
X133639Y258468D01*
X133683Y258386D01*
X133723Y258302D01*
X133759Y258216D01*
X133792Y258130D01*
X133821Y258041D01*
X133846Y257952D01*
X133868Y257862D01*
X133886Y257771D01*
X133899Y257679D01*
X133909Y257586D01*
X133915Y257494D01*
X133917Y257401D01*
X133915Y257308D01*
X133909Y257216D01*
X133899Y257123D01*
X133886Y257031D01*
X133868Y256940D01*
X133846Y256850D01*
X133821Y256761D01*
X133792Y256672D01*
X133759Y256586D01*
X133723Y256500D01*
X133683Y256416D01*
X133639Y256334D01*
X133592Y256254D01*
X133542Y256176D01*
X133488Y256101D01*
X133432Y256027D01*
X133372Y255956D01*
X133309Y255888D01*
X133243Y255822D01*
X133175Y255759D01*
X133104Y255699D01*
X133030Y255643D01*
X132955Y255589D01*
X132877Y255539D01*
X132797Y255492D01*
X132715Y255448D01*
X132631Y255408D01*
X132545Y255372D01*
X132459Y255339D01*
X132370Y255310D01*
X132281Y255285D01*
X132191Y255263D01*
X132100Y255245D01*
X132008Y255232D01*
X131915Y255222D01*
X131823Y255216D01*
X131730Y255214D01*
X129543Y255214D01*
X132168Y255214D02*
X133918Y251714D01*
X137482Y257838D02*
X139669Y259588D01*
X139669Y251714D01*
X137482Y251714D02*
X141856Y251714D01*
X147888Y259589D02*
X147974Y259587D01*
X148060Y259582D01*
X148145Y259572D01*
X148230Y259559D01*
X148314Y259542D01*
X148398Y259522D01*
X148480Y259498D01*
X148561Y259470D01*
X148642Y259439D01*
X148720Y259405D01*
X148797Y259367D01*
X148873Y259325D01*
X148946Y259281D01*
X149017Y259233D01*
X149087Y259182D01*
X149154Y259128D01*
X149218Y259072D01*
X149280Y259012D01*
X149340Y258950D01*
X149396Y258886D01*
X149450Y258819D01*
X149501Y258749D01*
X149549Y258678D01*
X149593Y258605D01*
X149635Y258529D01*
X149673Y258452D01*
X149707Y258374D01*
X149738Y258293D01*
X149766Y258212D01*
X149790Y258130D01*
X149810Y258046D01*
X149827Y257962D01*
X149840Y257877D01*
X149850Y257792D01*
X149855Y257706D01*
X149857Y257620D01*
X147888Y259588D02*
X147789Y259586D01*
X147689Y259580D01*
X147591Y259570D01*
X147492Y259557D01*
X147394Y259539D01*
X147297Y259518D01*
X147201Y259493D01*
X147106Y259464D01*
X147012Y259431D01*
X146919Y259395D01*
X146828Y259355D01*
X146739Y259312D01*
X146651Y259265D01*
X146566Y259215D01*
X146482Y259161D01*
X146401Y259104D01*
X146321Y259044D01*
X146245Y258981D01*
X146170Y258915D01*
X146099Y258846D01*
X146030Y258775D01*
X145964Y258700D01*
X145901Y258623D01*
X145841Y258544D01*
X145784Y258462D01*
X145731Y258379D01*
X145680Y258293D01*
X145634Y258205D01*
X145590Y258116D01*
X145551Y258025D01*
X145515Y257932D01*
X145482Y257838D01*
X149201Y256089D02*
X149265Y256153D01*
X149326Y256219D01*
X149384Y256288D01*
X149439Y256359D01*
X149492Y256432D01*
X149541Y256508D01*
X149586Y256585D01*
X149629Y256665D01*
X149668Y256746D01*
X149703Y256829D01*
X149735Y256913D01*
X149764Y256999D01*
X149788Y257085D01*
X149809Y257173D01*
X149826Y257261D01*
X149840Y257350D01*
X149849Y257440D01*
X149855Y257530D01*
X149857Y257620D01*
X149201Y256088D02*
X145483Y251714D01*
X149857Y251714D01*
D19*
X244200Y317100D02*
X289200Y317100D01*
X289200Y267100D02*
X244200Y267100D01*
X244200Y304600D02*
X244200Y317100D01*
X244200Y279600D02*
X244200Y267100D01*
X289200Y289600D02*
X289200Y294600D01*
X289200Y289600D01*
X289200Y312100D02*
X289200Y317100D01*
X289200Y272100D02*
X289200Y267100D01*
D13*
X260544Y287528D02*
X260544Y295402D01*
X262731Y295402D01*
X262824Y295400D01*
X262916Y295394D01*
X263009Y295384D01*
X263101Y295371D01*
X263192Y295353D01*
X263282Y295331D01*
X263371Y295306D01*
X263460Y295277D01*
X263546Y295244D01*
X263632Y295208D01*
X263716Y295168D01*
X263798Y295124D01*
X263878Y295077D01*
X263956Y295027D01*
X264031Y294973D01*
X264105Y294917D01*
X264176Y294857D01*
X264244Y294794D01*
X264310Y294728D01*
X264373Y294660D01*
X264433Y294589D01*
X264489Y294515D01*
X264543Y294440D01*
X264593Y294362D01*
X264640Y294282D01*
X264684Y294200D01*
X264724Y294116D01*
X264760Y294030D01*
X264793Y293944D01*
X264822Y293855D01*
X264847Y293766D01*
X264869Y293676D01*
X264887Y293585D01*
X264900Y293493D01*
X264910Y293400D01*
X264916Y293308D01*
X264918Y293215D01*
X264916Y293122D01*
X264910Y293030D01*
X264900Y292937D01*
X264887Y292845D01*
X264869Y292754D01*
X264847Y292664D01*
X264822Y292575D01*
X264793Y292486D01*
X264760Y292400D01*
X264724Y292314D01*
X264684Y292230D01*
X264640Y292148D01*
X264593Y292068D01*
X264543Y291990D01*
X264489Y291915D01*
X264433Y291841D01*
X264373Y291770D01*
X264310Y291702D01*
X264244Y291636D01*
X264176Y291573D01*
X264105Y291513D01*
X264031Y291457D01*
X263956Y291403D01*
X263878Y291353D01*
X263798Y291306D01*
X263716Y291262D01*
X263632Y291222D01*
X263546Y291186D01*
X263460Y291153D01*
X263371Y291124D01*
X263282Y291099D01*
X263192Y291077D01*
X263101Y291059D01*
X263009Y291046D01*
X262916Y291036D01*
X262824Y291030D01*
X262731Y291028D01*
X260544Y291028D01*
X263168Y291028D02*
X264918Y287528D01*
X270888Y295403D02*
X270974Y295401D01*
X271060Y295396D01*
X271145Y295386D01*
X271230Y295373D01*
X271314Y295356D01*
X271398Y295336D01*
X271480Y295312D01*
X271561Y295284D01*
X271642Y295253D01*
X271720Y295219D01*
X271797Y295181D01*
X271873Y295139D01*
X271946Y295095D01*
X272017Y295047D01*
X272087Y294996D01*
X272154Y294942D01*
X272218Y294886D01*
X272280Y294826D01*
X272340Y294764D01*
X272396Y294700D01*
X272450Y294633D01*
X272501Y294563D01*
X272549Y294492D01*
X272593Y294419D01*
X272635Y294343D01*
X272673Y294266D01*
X272707Y294188D01*
X272738Y294107D01*
X272766Y294026D01*
X272790Y293944D01*
X272810Y293860D01*
X272827Y293776D01*
X272840Y293691D01*
X272850Y293606D01*
X272855Y293520D01*
X272857Y293434D01*
X270888Y295402D02*
X270789Y295400D01*
X270689Y295394D01*
X270591Y295384D01*
X270492Y295371D01*
X270394Y295353D01*
X270297Y295332D01*
X270201Y295307D01*
X270106Y295278D01*
X270012Y295245D01*
X269919Y295209D01*
X269828Y295169D01*
X269739Y295126D01*
X269651Y295079D01*
X269566Y295029D01*
X269482Y294975D01*
X269401Y294918D01*
X269321Y294858D01*
X269245Y294795D01*
X269170Y294729D01*
X269099Y294660D01*
X269030Y294589D01*
X268964Y294514D01*
X268901Y294437D01*
X268841Y294358D01*
X268784Y294276D01*
X268731Y294193D01*
X268680Y294107D01*
X268634Y294019D01*
X268590Y293930D01*
X268551Y293839D01*
X268515Y293746D01*
X268482Y293652D01*
X272200Y291903D02*
X272264Y291967D01*
X272325Y292033D01*
X272383Y292102D01*
X272438Y292173D01*
X272491Y292246D01*
X272540Y292322D01*
X272585Y292399D01*
X272628Y292479D01*
X272667Y292560D01*
X272702Y292643D01*
X272734Y292727D01*
X272763Y292813D01*
X272787Y292899D01*
X272808Y292987D01*
X272825Y293075D01*
X272839Y293164D01*
X272848Y293254D01*
X272854Y293344D01*
X272856Y293434D01*
X272200Y291902D02*
X268482Y287528D01*
X272856Y287528D01*
D12*
X218300Y379314D02*
X200800Y379314D01*
X200800Y395386D02*
X218300Y395386D01*
D13*
X203394Y376936D02*
X203394Y369062D01*
X203394Y376936D02*
X205581Y376936D01*
X205674Y376934D01*
X205766Y376928D01*
X205859Y376918D01*
X205951Y376905D01*
X206042Y376887D01*
X206132Y376865D01*
X206221Y376840D01*
X206310Y376811D01*
X206396Y376778D01*
X206482Y376742D01*
X206566Y376702D01*
X206648Y376658D01*
X206728Y376611D01*
X206806Y376561D01*
X206881Y376507D01*
X206955Y376451D01*
X207026Y376391D01*
X207094Y376328D01*
X207160Y376262D01*
X207223Y376194D01*
X207283Y376123D01*
X207339Y376049D01*
X207393Y375974D01*
X207443Y375896D01*
X207490Y375816D01*
X207534Y375734D01*
X207574Y375650D01*
X207610Y375564D01*
X207643Y375478D01*
X207672Y375389D01*
X207697Y375300D01*
X207719Y375210D01*
X207737Y375119D01*
X207750Y375027D01*
X207760Y374934D01*
X207766Y374842D01*
X207768Y374749D01*
X207766Y374656D01*
X207760Y374564D01*
X207750Y374471D01*
X207737Y374379D01*
X207719Y374288D01*
X207697Y374198D01*
X207672Y374109D01*
X207643Y374020D01*
X207610Y373934D01*
X207574Y373848D01*
X207534Y373764D01*
X207490Y373682D01*
X207443Y373602D01*
X207393Y373524D01*
X207339Y373449D01*
X207283Y373375D01*
X207223Y373304D01*
X207160Y373236D01*
X207094Y373170D01*
X207026Y373107D01*
X206955Y373047D01*
X206881Y372991D01*
X206806Y372937D01*
X206728Y372887D01*
X206648Y372840D01*
X206566Y372796D01*
X206482Y372756D01*
X206396Y372720D01*
X206310Y372687D01*
X206221Y372658D01*
X206132Y372633D01*
X206042Y372611D01*
X205951Y372593D01*
X205859Y372580D01*
X205766Y372570D01*
X205674Y372564D01*
X205581Y372562D01*
X203394Y372562D01*
X206018Y372562D02*
X207768Y369062D01*
X211332Y370812D02*
X213082Y376936D01*
X211332Y370812D02*
X215706Y370812D01*
X214394Y372562D02*
X214394Y369062D01*
D12*
X84950Y372964D02*
X67450Y372964D01*
X67450Y389036D02*
X84950Y389036D01*
D13*
X70044Y391414D02*
X70044Y399288D01*
X72231Y399288D01*
X72324Y399286D01*
X72416Y399280D01*
X72509Y399270D01*
X72601Y399257D01*
X72692Y399239D01*
X72782Y399217D01*
X72871Y399192D01*
X72960Y399163D01*
X73046Y399130D01*
X73132Y399094D01*
X73216Y399054D01*
X73298Y399010D01*
X73378Y398963D01*
X73456Y398913D01*
X73531Y398859D01*
X73605Y398803D01*
X73676Y398743D01*
X73744Y398680D01*
X73810Y398614D01*
X73873Y398546D01*
X73933Y398475D01*
X73989Y398401D01*
X74043Y398326D01*
X74093Y398248D01*
X74140Y398168D01*
X74184Y398086D01*
X74224Y398002D01*
X74260Y397916D01*
X74293Y397830D01*
X74322Y397741D01*
X74347Y397652D01*
X74369Y397562D01*
X74387Y397471D01*
X74400Y397379D01*
X74410Y397286D01*
X74416Y397194D01*
X74418Y397101D01*
X74416Y397008D01*
X74410Y396916D01*
X74400Y396823D01*
X74387Y396731D01*
X74369Y396640D01*
X74347Y396550D01*
X74322Y396461D01*
X74293Y396372D01*
X74260Y396286D01*
X74224Y396200D01*
X74184Y396116D01*
X74140Y396034D01*
X74093Y395954D01*
X74043Y395876D01*
X73989Y395801D01*
X73933Y395727D01*
X73873Y395656D01*
X73810Y395588D01*
X73744Y395522D01*
X73676Y395459D01*
X73605Y395399D01*
X73531Y395343D01*
X73456Y395289D01*
X73378Y395239D01*
X73298Y395192D01*
X73216Y395148D01*
X73132Y395108D01*
X73046Y395072D01*
X72960Y395039D01*
X72871Y395010D01*
X72782Y394985D01*
X72692Y394963D01*
X72601Y394945D01*
X72509Y394932D01*
X72416Y394922D01*
X72324Y394916D01*
X72231Y394914D01*
X70044Y394914D01*
X72668Y394914D02*
X74418Y391414D01*
X77982Y391414D02*
X80607Y391414D01*
X80688Y391416D01*
X80768Y391421D01*
X80849Y391431D01*
X80929Y391444D01*
X81008Y391460D01*
X81086Y391481D01*
X81163Y391505D01*
X81239Y391532D01*
X81314Y391563D01*
X81387Y391597D01*
X81459Y391635D01*
X81528Y391676D01*
X81596Y391720D01*
X81662Y391767D01*
X81725Y391818D01*
X81786Y391871D01*
X81844Y391927D01*
X81900Y391985D01*
X81953Y392046D01*
X82004Y392109D01*
X82051Y392175D01*
X82095Y392243D01*
X82136Y392312D01*
X82174Y392384D01*
X82208Y392457D01*
X82239Y392532D01*
X82266Y392608D01*
X82290Y392685D01*
X82311Y392763D01*
X82327Y392842D01*
X82340Y392922D01*
X82350Y393003D01*
X82355Y393083D01*
X82357Y393164D01*
X82356Y393164D02*
X82356Y394039D01*
X82357Y394039D02*
X82355Y394120D01*
X82350Y394200D01*
X82340Y394281D01*
X82327Y394361D01*
X82311Y394440D01*
X82290Y394518D01*
X82266Y394595D01*
X82239Y394671D01*
X82208Y394746D01*
X82174Y394819D01*
X82136Y394891D01*
X82095Y394960D01*
X82051Y395028D01*
X82004Y395094D01*
X81953Y395157D01*
X81900Y395218D01*
X81844Y395276D01*
X81786Y395332D01*
X81725Y395385D01*
X81662Y395436D01*
X81596Y395483D01*
X81528Y395527D01*
X81459Y395568D01*
X81387Y395606D01*
X81314Y395640D01*
X81239Y395671D01*
X81163Y395698D01*
X81086Y395722D01*
X81008Y395743D01*
X80929Y395759D01*
X80849Y395772D01*
X80768Y395782D01*
X80688Y395787D01*
X80607Y395789D01*
X80607Y395788D02*
X77982Y395788D01*
X77982Y399288D01*
X82356Y399288D01*
D12*
X99200Y300136D02*
X116700Y300136D01*
X116700Y284064D02*
X99200Y284064D01*
D13*
X101794Y302514D02*
X101794Y310388D01*
X103981Y310388D01*
X104074Y310386D01*
X104166Y310380D01*
X104259Y310370D01*
X104351Y310357D01*
X104442Y310339D01*
X104532Y310317D01*
X104621Y310292D01*
X104710Y310263D01*
X104796Y310230D01*
X104882Y310194D01*
X104966Y310154D01*
X105048Y310110D01*
X105128Y310063D01*
X105206Y310013D01*
X105281Y309959D01*
X105355Y309903D01*
X105426Y309843D01*
X105494Y309780D01*
X105560Y309714D01*
X105623Y309646D01*
X105683Y309575D01*
X105739Y309501D01*
X105793Y309426D01*
X105843Y309348D01*
X105890Y309268D01*
X105934Y309186D01*
X105974Y309102D01*
X106010Y309016D01*
X106043Y308930D01*
X106072Y308841D01*
X106097Y308752D01*
X106119Y308662D01*
X106137Y308571D01*
X106150Y308479D01*
X106160Y308386D01*
X106166Y308294D01*
X106168Y308201D01*
X106166Y308108D01*
X106160Y308016D01*
X106150Y307923D01*
X106137Y307831D01*
X106119Y307740D01*
X106097Y307650D01*
X106072Y307561D01*
X106043Y307472D01*
X106010Y307386D01*
X105974Y307300D01*
X105934Y307216D01*
X105890Y307134D01*
X105843Y307054D01*
X105793Y306976D01*
X105739Y306901D01*
X105683Y306827D01*
X105623Y306756D01*
X105560Y306688D01*
X105494Y306622D01*
X105426Y306559D01*
X105355Y306499D01*
X105281Y306443D01*
X105206Y306389D01*
X105128Y306339D01*
X105048Y306292D01*
X104966Y306248D01*
X104882Y306208D01*
X104796Y306172D01*
X104710Y306139D01*
X104621Y306110D01*
X104532Y306085D01*
X104442Y306063D01*
X104351Y306045D01*
X104259Y306032D01*
X104166Y306022D01*
X104074Y306016D01*
X103981Y306014D01*
X101794Y306014D01*
X104418Y306014D02*
X106168Y302514D01*
X109732Y306888D02*
X112357Y306888D01*
X112357Y306889D02*
X112438Y306887D01*
X112518Y306882D01*
X112599Y306872D01*
X112679Y306859D01*
X112758Y306843D01*
X112836Y306822D01*
X112913Y306798D01*
X112989Y306771D01*
X113064Y306740D01*
X113137Y306706D01*
X113209Y306668D01*
X113278Y306627D01*
X113346Y306583D01*
X113412Y306536D01*
X113475Y306485D01*
X113536Y306432D01*
X113594Y306376D01*
X113650Y306318D01*
X113703Y306257D01*
X113754Y306194D01*
X113801Y306128D01*
X113845Y306060D01*
X113886Y305991D01*
X113924Y305919D01*
X113958Y305846D01*
X113989Y305771D01*
X114016Y305695D01*
X114040Y305618D01*
X114061Y305540D01*
X114077Y305461D01*
X114090Y305381D01*
X114100Y305300D01*
X114105Y305220D01*
X114107Y305139D01*
X114106Y305139D02*
X114106Y304701D01*
X114104Y304608D01*
X114098Y304516D01*
X114088Y304423D01*
X114075Y304331D01*
X114057Y304240D01*
X114035Y304150D01*
X114010Y304061D01*
X113981Y303972D01*
X113948Y303886D01*
X113912Y303800D01*
X113872Y303716D01*
X113828Y303634D01*
X113781Y303554D01*
X113731Y303476D01*
X113677Y303401D01*
X113621Y303327D01*
X113561Y303256D01*
X113498Y303188D01*
X113432Y303122D01*
X113364Y303059D01*
X113293Y302999D01*
X113219Y302943D01*
X113144Y302889D01*
X113066Y302839D01*
X112986Y302792D01*
X112904Y302748D01*
X112820Y302708D01*
X112734Y302672D01*
X112648Y302639D01*
X112559Y302610D01*
X112470Y302585D01*
X112380Y302563D01*
X112289Y302545D01*
X112197Y302532D01*
X112104Y302522D01*
X112012Y302516D01*
X111919Y302514D01*
X111826Y302516D01*
X111734Y302522D01*
X111641Y302532D01*
X111549Y302545D01*
X111458Y302563D01*
X111368Y302585D01*
X111279Y302610D01*
X111190Y302639D01*
X111104Y302672D01*
X111018Y302708D01*
X110934Y302748D01*
X110852Y302792D01*
X110772Y302839D01*
X110694Y302889D01*
X110619Y302943D01*
X110545Y302999D01*
X110474Y303059D01*
X110406Y303122D01*
X110340Y303188D01*
X110277Y303256D01*
X110217Y303327D01*
X110161Y303401D01*
X110107Y303476D01*
X110057Y303554D01*
X110010Y303634D01*
X109966Y303716D01*
X109926Y303800D01*
X109890Y303886D01*
X109857Y303972D01*
X109828Y304061D01*
X109803Y304150D01*
X109781Y304240D01*
X109763Y304331D01*
X109750Y304423D01*
X109740Y304516D01*
X109734Y304608D01*
X109732Y304701D01*
X109732Y306888D01*
X109734Y307005D01*
X109740Y307122D01*
X109750Y307238D01*
X109763Y307355D01*
X109781Y307470D01*
X109802Y307585D01*
X109827Y307699D01*
X109856Y307813D01*
X109889Y307925D01*
X109926Y308036D01*
X109966Y308146D01*
X110010Y308254D01*
X110057Y308361D01*
X110108Y308467D01*
X110163Y308570D01*
X110221Y308672D01*
X110282Y308771D01*
X110346Y308869D01*
X110414Y308964D01*
X110485Y309057D01*
X110559Y309148D01*
X110636Y309236D01*
X110716Y309321D01*
X110799Y309404D01*
X110884Y309484D01*
X110972Y309561D01*
X111063Y309635D01*
X111156Y309706D01*
X111251Y309774D01*
X111349Y309838D01*
X111448Y309899D01*
X111550Y309957D01*
X111653Y310012D01*
X111759Y310063D01*
X111866Y310110D01*
X111974Y310154D01*
X112084Y310194D01*
X112195Y310231D01*
X112307Y310264D01*
X112421Y310293D01*
X112535Y310318D01*
X112650Y310339D01*
X112765Y310357D01*
X112882Y310370D01*
X112998Y310380D01*
X113115Y310386D01*
X113232Y310388D01*
D12*
X116700Y268386D02*
X99200Y268386D01*
X99200Y252314D02*
X116700Y252314D01*
D13*
X101794Y270764D02*
X101794Y278638D01*
X103981Y278638D01*
X104074Y278636D01*
X104166Y278630D01*
X104259Y278620D01*
X104351Y278607D01*
X104442Y278589D01*
X104532Y278567D01*
X104621Y278542D01*
X104710Y278513D01*
X104796Y278480D01*
X104882Y278444D01*
X104966Y278404D01*
X105048Y278360D01*
X105128Y278313D01*
X105206Y278263D01*
X105281Y278209D01*
X105355Y278153D01*
X105426Y278093D01*
X105494Y278030D01*
X105560Y277964D01*
X105623Y277896D01*
X105683Y277825D01*
X105739Y277751D01*
X105793Y277676D01*
X105843Y277598D01*
X105890Y277518D01*
X105934Y277436D01*
X105974Y277352D01*
X106010Y277266D01*
X106043Y277180D01*
X106072Y277091D01*
X106097Y277002D01*
X106119Y276912D01*
X106137Y276821D01*
X106150Y276729D01*
X106160Y276636D01*
X106166Y276544D01*
X106168Y276451D01*
X106166Y276358D01*
X106160Y276266D01*
X106150Y276173D01*
X106137Y276081D01*
X106119Y275990D01*
X106097Y275900D01*
X106072Y275811D01*
X106043Y275722D01*
X106010Y275636D01*
X105974Y275550D01*
X105934Y275466D01*
X105890Y275384D01*
X105843Y275304D01*
X105793Y275226D01*
X105739Y275151D01*
X105683Y275077D01*
X105623Y275006D01*
X105560Y274938D01*
X105494Y274872D01*
X105426Y274809D01*
X105355Y274749D01*
X105281Y274693D01*
X105206Y274639D01*
X105128Y274589D01*
X105048Y274542D01*
X104966Y274498D01*
X104882Y274458D01*
X104796Y274422D01*
X104710Y274389D01*
X104621Y274360D01*
X104532Y274335D01*
X104442Y274313D01*
X104351Y274295D01*
X104259Y274282D01*
X104166Y274272D01*
X104074Y274266D01*
X103981Y274264D01*
X101794Y274264D01*
X104418Y274264D02*
X106168Y270764D01*
X109732Y277763D02*
X109732Y278638D01*
X114106Y278638D01*
X111919Y270764D01*
D18*
X125314Y290238D03*
D12*
X127150Y297550D02*
X127814Y297550D01*
X127150Y297550D02*
X127150Y337450D01*
X127814Y337450D01*
X176986Y297550D02*
X177650Y297550D01*
X177650Y337450D01*
X176986Y337450D01*
D20*
X162800Y217200D02*
X162800Y189200D01*
X192800Y189200D02*
X192800Y217200D01*
X167670Y186480D02*
X167672Y186513D01*
X167678Y186545D01*
X167688Y186576D01*
X167701Y186605D01*
X167718Y186633D01*
X167738Y186659D01*
X167761Y186682D01*
X167787Y186702D01*
X167815Y186719D01*
X167844Y186732D01*
X167875Y186742D01*
X167907Y186748D01*
X167940Y186750D01*
X167973Y186748D01*
X168005Y186742D01*
X168036Y186732D01*
X168065Y186719D01*
X168093Y186702D01*
X168119Y186682D01*
X168142Y186659D01*
X168162Y186633D01*
X168179Y186605D01*
X168192Y186576D01*
X168202Y186545D01*
X168208Y186513D01*
X168210Y186480D01*
X168208Y186447D01*
X168202Y186415D01*
X168192Y186384D01*
X168179Y186355D01*
X168162Y186327D01*
X168142Y186301D01*
X168119Y186278D01*
X168093Y186258D01*
X168065Y186241D01*
X168036Y186228D01*
X168005Y186218D01*
X167973Y186212D01*
X167940Y186210D01*
X167907Y186212D01*
X167875Y186218D01*
X167844Y186228D01*
X167815Y186241D01*
X167787Y186258D01*
X167761Y186278D01*
X167738Y186301D01*
X167718Y186327D01*
X167701Y186355D01*
X167688Y186384D01*
X167678Y186415D01*
X167672Y186447D01*
X167670Y186480D01*
X227600Y188700D02*
X229600Y188700D01*
X227600Y188700D02*
X227600Y217700D01*
X229600Y217700D01*
X229600Y188700D01*
X233100Y188200D02*
X247100Y188200D01*
X278400Y188700D02*
X280400Y188700D01*
X278400Y188700D02*
X278400Y217700D01*
X280400Y217700D01*
X280400Y188700D01*
X283900Y188200D02*
X297900Y188200D01*
D19*
X319150Y138950D02*
X11050Y138950D01*
X319150Y138950D02*
X319150Y13450D01*
X11050Y13450D01*
X11050Y138950D01*
D13*
X14098Y143268D02*
X14098Y151142D01*
X16285Y151142D01*
X16378Y151140D01*
X16470Y151134D01*
X16563Y151124D01*
X16655Y151111D01*
X16746Y151093D01*
X16836Y151071D01*
X16925Y151046D01*
X17014Y151017D01*
X17100Y150984D01*
X17186Y150948D01*
X17270Y150908D01*
X17352Y150864D01*
X17432Y150817D01*
X17510Y150767D01*
X17585Y150713D01*
X17659Y150657D01*
X17730Y150597D01*
X17798Y150534D01*
X17864Y150468D01*
X17927Y150400D01*
X17987Y150329D01*
X18043Y150255D01*
X18097Y150180D01*
X18147Y150102D01*
X18194Y150022D01*
X18238Y149940D01*
X18278Y149856D01*
X18314Y149770D01*
X18347Y149684D01*
X18376Y149595D01*
X18401Y149506D01*
X18423Y149416D01*
X18441Y149325D01*
X18454Y149233D01*
X18464Y149140D01*
X18470Y149048D01*
X18472Y148955D01*
X18470Y148862D01*
X18464Y148770D01*
X18454Y148677D01*
X18441Y148585D01*
X18423Y148494D01*
X18401Y148404D01*
X18376Y148315D01*
X18347Y148226D01*
X18314Y148140D01*
X18278Y148054D01*
X18238Y147970D01*
X18194Y147888D01*
X18147Y147808D01*
X18097Y147730D01*
X18043Y147655D01*
X17987Y147581D01*
X17927Y147510D01*
X17864Y147442D01*
X17798Y147376D01*
X17730Y147313D01*
X17659Y147253D01*
X17585Y147197D01*
X17510Y147143D01*
X17432Y147093D01*
X17352Y147046D01*
X17270Y147002D01*
X17186Y146962D01*
X17100Y146926D01*
X17014Y146893D01*
X16925Y146864D01*
X16836Y146839D01*
X16746Y146817D01*
X16655Y146799D01*
X16563Y146786D01*
X16470Y146776D01*
X16378Y146770D01*
X16285Y146768D01*
X14098Y146768D01*
X21688Y149392D02*
X23876Y151142D01*
X23876Y143268D01*
X26063Y143268D02*
X21688Y143268D01*
D18*
X75175Y185675D03*
D12*
X70500Y187575D02*
X56500Y187575D01*
X56500Y197675D01*
X56500Y218825D02*
X70500Y218825D01*
X56500Y218825D02*
X56500Y208725D01*
D13*
X43184Y195262D02*
X39685Y195262D01*
X39685Y195263D02*
X39592Y195265D01*
X39500Y195271D01*
X39407Y195281D01*
X39315Y195294D01*
X39224Y195312D01*
X39134Y195334D01*
X39045Y195359D01*
X38956Y195388D01*
X38870Y195421D01*
X38784Y195457D01*
X38700Y195497D01*
X38618Y195541D01*
X38538Y195588D01*
X38460Y195638D01*
X38385Y195692D01*
X38311Y195748D01*
X38240Y195808D01*
X38172Y195871D01*
X38106Y195937D01*
X38043Y196005D01*
X37983Y196076D01*
X37927Y196150D01*
X37873Y196225D01*
X37823Y196303D01*
X37776Y196383D01*
X37732Y196465D01*
X37692Y196549D01*
X37656Y196635D01*
X37623Y196721D01*
X37594Y196810D01*
X37569Y196899D01*
X37547Y196989D01*
X37529Y197080D01*
X37516Y197172D01*
X37506Y197265D01*
X37500Y197357D01*
X37498Y197450D01*
X37500Y197543D01*
X37506Y197635D01*
X37516Y197728D01*
X37529Y197820D01*
X37547Y197911D01*
X37569Y198001D01*
X37594Y198090D01*
X37623Y198179D01*
X37656Y198265D01*
X37692Y198351D01*
X37732Y198435D01*
X37776Y198517D01*
X37823Y198597D01*
X37873Y198675D01*
X37927Y198750D01*
X37983Y198824D01*
X38043Y198895D01*
X38106Y198963D01*
X38172Y199029D01*
X38240Y199092D01*
X38311Y199152D01*
X38385Y199208D01*
X38460Y199262D01*
X38538Y199312D01*
X38618Y199359D01*
X38700Y199403D01*
X38784Y199443D01*
X38870Y199479D01*
X38956Y199512D01*
X39045Y199541D01*
X39134Y199566D01*
X39224Y199588D01*
X39315Y199606D01*
X39407Y199619D01*
X39500Y199629D01*
X39592Y199635D01*
X39685Y199637D01*
X43184Y199637D01*
X43277Y199635D01*
X43369Y199629D01*
X43462Y199619D01*
X43554Y199606D01*
X43645Y199588D01*
X43735Y199566D01*
X43824Y199541D01*
X43913Y199512D01*
X43999Y199479D01*
X44085Y199443D01*
X44169Y199403D01*
X44251Y199359D01*
X44331Y199312D01*
X44409Y199262D01*
X44484Y199208D01*
X44558Y199152D01*
X44629Y199092D01*
X44697Y199029D01*
X44763Y198963D01*
X44826Y198895D01*
X44886Y198824D01*
X44942Y198750D01*
X44996Y198675D01*
X45046Y198597D01*
X45093Y198517D01*
X45137Y198435D01*
X45177Y198351D01*
X45213Y198265D01*
X45246Y198179D01*
X45275Y198090D01*
X45300Y198001D01*
X45322Y197911D01*
X45340Y197820D01*
X45353Y197728D01*
X45363Y197635D01*
X45369Y197543D01*
X45371Y197450D01*
X45369Y197357D01*
X45363Y197265D01*
X45353Y197172D01*
X45340Y197080D01*
X45322Y196989D01*
X45300Y196899D01*
X45275Y196810D01*
X45246Y196721D01*
X45213Y196635D01*
X45177Y196549D01*
X45137Y196465D01*
X45093Y196383D01*
X45046Y196303D01*
X44996Y196225D01*
X44942Y196150D01*
X44886Y196076D01*
X44826Y196005D01*
X44763Y195937D01*
X44697Y195871D01*
X44629Y195808D01*
X44558Y195748D01*
X44484Y195692D01*
X44409Y195638D01*
X44331Y195588D01*
X44251Y195541D01*
X44169Y195497D01*
X44085Y195457D01*
X43999Y195421D01*
X43913Y195388D01*
X43824Y195359D01*
X43735Y195334D01*
X43645Y195312D01*
X43554Y195294D01*
X43462Y195281D01*
X43369Y195271D01*
X43277Y195265D01*
X43184Y195263D01*
X43622Y198762D02*
X45372Y200512D01*
X39466Y207338D02*
X39380Y207336D01*
X39294Y207331D01*
X39209Y207321D01*
X39124Y207308D01*
X39040Y207291D01*
X38956Y207271D01*
X38874Y207247D01*
X38793Y207219D01*
X38712Y207188D01*
X38634Y207154D01*
X38557Y207116D01*
X38482Y207074D01*
X38408Y207030D01*
X38337Y206982D01*
X38267Y206931D01*
X38200Y206877D01*
X38136Y206821D01*
X38074Y206761D01*
X38014Y206699D01*
X37958Y206635D01*
X37904Y206568D01*
X37853Y206498D01*
X37805Y206427D01*
X37761Y206354D01*
X37719Y206278D01*
X37681Y206201D01*
X37647Y206123D01*
X37616Y206042D01*
X37588Y205961D01*
X37564Y205879D01*
X37544Y205795D01*
X37527Y205711D01*
X37514Y205626D01*
X37504Y205541D01*
X37499Y205455D01*
X37497Y205369D01*
X37499Y205270D01*
X37505Y205170D01*
X37515Y205072D01*
X37528Y204973D01*
X37546Y204875D01*
X37567Y204778D01*
X37592Y204682D01*
X37621Y204587D01*
X37654Y204493D01*
X37690Y204400D01*
X37730Y204309D01*
X37773Y204220D01*
X37820Y204132D01*
X37870Y204047D01*
X37924Y203963D01*
X37981Y203881D01*
X38041Y203802D01*
X38104Y203725D01*
X38170Y203651D01*
X38239Y203580D01*
X38310Y203511D01*
X38385Y203445D01*
X38462Y203382D01*
X38541Y203322D01*
X38623Y203265D01*
X38706Y203212D01*
X38792Y203161D01*
X38880Y203115D01*
X38969Y203071D01*
X39060Y203032D01*
X39153Y202995D01*
X39247Y202963D01*
X40997Y206681D02*
X40933Y206745D01*
X40867Y206806D01*
X40798Y206864D01*
X40727Y206919D01*
X40654Y206972D01*
X40578Y207021D01*
X40501Y207066D01*
X40421Y207109D01*
X40340Y207148D01*
X40257Y207183D01*
X40173Y207215D01*
X40087Y207244D01*
X40001Y207268D01*
X39913Y207289D01*
X39825Y207306D01*
X39736Y207320D01*
X39646Y207329D01*
X39556Y207335D01*
X39466Y207337D01*
X40997Y206681D02*
X45372Y202963D01*
X45372Y207338D01*
D12*
X111546Y214217D02*
X111546Y176500D01*
X111546Y214217D02*
X91654Y214217D01*
X91654Y176500D01*
D13*
X95279Y168145D02*
X95279Y160271D01*
X95279Y168145D02*
X97466Y168145D01*
X97559Y168143D01*
X97651Y168137D01*
X97744Y168127D01*
X97836Y168114D01*
X97927Y168096D01*
X98017Y168074D01*
X98106Y168049D01*
X98195Y168020D01*
X98281Y167987D01*
X98367Y167951D01*
X98451Y167911D01*
X98533Y167867D01*
X98613Y167820D01*
X98691Y167770D01*
X98766Y167716D01*
X98840Y167660D01*
X98911Y167600D01*
X98979Y167537D01*
X99045Y167471D01*
X99108Y167403D01*
X99168Y167332D01*
X99224Y167258D01*
X99278Y167183D01*
X99328Y167105D01*
X99375Y167025D01*
X99419Y166943D01*
X99459Y166859D01*
X99495Y166773D01*
X99528Y166687D01*
X99557Y166598D01*
X99582Y166509D01*
X99604Y166419D01*
X99622Y166328D01*
X99635Y166236D01*
X99645Y166143D01*
X99651Y166051D01*
X99653Y165958D01*
X99653Y162458D01*
X99651Y162365D01*
X99645Y162273D01*
X99635Y162180D01*
X99622Y162088D01*
X99604Y161997D01*
X99582Y161907D01*
X99557Y161818D01*
X99528Y161729D01*
X99495Y161643D01*
X99459Y161557D01*
X99419Y161473D01*
X99375Y161391D01*
X99328Y161311D01*
X99278Y161233D01*
X99224Y161158D01*
X99168Y161084D01*
X99108Y161013D01*
X99045Y160945D01*
X98979Y160879D01*
X98911Y160816D01*
X98840Y160756D01*
X98766Y160700D01*
X98691Y160646D01*
X98613Y160596D01*
X98533Y160549D01*
X98451Y160505D01*
X98367Y160465D01*
X98281Y160429D01*
X98195Y160396D01*
X98106Y160367D01*
X98017Y160342D01*
X97927Y160320D01*
X97836Y160302D01*
X97744Y160289D01*
X97652Y160279D01*
X97559Y160273D01*
X97466Y160271D01*
X95279Y160271D01*
X103547Y160271D02*
X105734Y160271D01*
X105827Y160273D01*
X105919Y160279D01*
X106012Y160289D01*
X106104Y160302D01*
X106195Y160320D01*
X106285Y160342D01*
X106374Y160367D01*
X106463Y160396D01*
X106549Y160429D01*
X106635Y160465D01*
X106719Y160505D01*
X106801Y160549D01*
X106881Y160596D01*
X106959Y160646D01*
X107034Y160700D01*
X107108Y160756D01*
X107179Y160816D01*
X107247Y160879D01*
X107313Y160945D01*
X107376Y161013D01*
X107436Y161084D01*
X107492Y161158D01*
X107546Y161233D01*
X107596Y161311D01*
X107643Y161391D01*
X107687Y161473D01*
X107727Y161557D01*
X107763Y161643D01*
X107796Y161729D01*
X107825Y161818D01*
X107850Y161907D01*
X107872Y161997D01*
X107890Y162088D01*
X107903Y162180D01*
X107913Y162273D01*
X107919Y162365D01*
X107921Y162458D01*
X107919Y162551D01*
X107913Y162643D01*
X107903Y162736D01*
X107890Y162828D01*
X107872Y162919D01*
X107850Y163009D01*
X107825Y163098D01*
X107796Y163187D01*
X107763Y163273D01*
X107727Y163359D01*
X107687Y163443D01*
X107643Y163525D01*
X107596Y163605D01*
X107546Y163683D01*
X107492Y163758D01*
X107436Y163832D01*
X107376Y163903D01*
X107313Y163971D01*
X107247Y164037D01*
X107179Y164100D01*
X107108Y164160D01*
X107034Y164216D01*
X106959Y164270D01*
X106881Y164320D01*
X106801Y164367D01*
X106719Y164411D01*
X106635Y164451D01*
X106549Y164487D01*
X106463Y164520D01*
X106374Y164549D01*
X106285Y164574D01*
X106195Y164596D01*
X106104Y164614D01*
X106012Y164627D01*
X105919Y164637D01*
X105827Y164643D01*
X105734Y164645D01*
X106171Y168145D02*
X103547Y168145D01*
X106171Y168145D02*
X106253Y168143D01*
X106335Y168137D01*
X106416Y168128D01*
X106497Y168114D01*
X106578Y168097D01*
X106657Y168076D01*
X106735Y168052D01*
X106812Y168023D01*
X106888Y167991D01*
X106962Y167956D01*
X107034Y167917D01*
X107105Y167875D01*
X107173Y167830D01*
X107239Y167781D01*
X107303Y167730D01*
X107364Y167675D01*
X107423Y167618D01*
X107479Y167558D01*
X107532Y167495D01*
X107582Y167430D01*
X107629Y167363D01*
X107673Y167294D01*
X107713Y167222D01*
X107750Y167149D01*
X107784Y167074D01*
X107814Y166998D01*
X107840Y166920D01*
X107863Y166841D01*
X107882Y166762D01*
X107897Y166681D01*
X107909Y166600D01*
X107917Y166518D01*
X107921Y166436D01*
X107921Y166354D01*
X107917Y166272D01*
X107909Y166190D01*
X107897Y166109D01*
X107882Y166028D01*
X107863Y165949D01*
X107840Y165870D01*
X107814Y165792D01*
X107784Y165716D01*
X107750Y165641D01*
X107713Y165568D01*
X107673Y165496D01*
X107629Y165427D01*
X107582Y165360D01*
X107532Y165295D01*
X107479Y165232D01*
X107423Y165172D01*
X107364Y165115D01*
X107303Y165060D01*
X107239Y165009D01*
X107173Y164960D01*
X107105Y164915D01*
X107034Y164873D01*
X106962Y164834D01*
X106888Y164799D01*
X106812Y164767D01*
X106735Y164738D01*
X106657Y164714D01*
X106578Y164693D01*
X106497Y164676D01*
X106416Y164662D01*
X106335Y164653D01*
X106253Y164647D01*
X106171Y164645D01*
X104422Y164645D01*
D12*
X72250Y157064D02*
X54750Y157064D01*
X54750Y173136D02*
X72250Y173136D01*
D13*
X49372Y154943D02*
X41498Y154943D01*
X41498Y157130D01*
X41500Y157223D01*
X41506Y157315D01*
X41516Y157408D01*
X41529Y157500D01*
X41547Y157591D01*
X41569Y157681D01*
X41594Y157770D01*
X41623Y157859D01*
X41656Y157945D01*
X41692Y158031D01*
X41732Y158115D01*
X41776Y158197D01*
X41823Y158277D01*
X41873Y158355D01*
X41927Y158430D01*
X41983Y158504D01*
X42043Y158575D01*
X42106Y158643D01*
X42172Y158709D01*
X42240Y158772D01*
X42311Y158832D01*
X42385Y158888D01*
X42460Y158942D01*
X42538Y158992D01*
X42618Y159039D01*
X42700Y159083D01*
X42784Y159123D01*
X42870Y159159D01*
X42956Y159192D01*
X43045Y159221D01*
X43134Y159246D01*
X43224Y159268D01*
X43315Y159286D01*
X43407Y159299D01*
X43500Y159309D01*
X43592Y159315D01*
X43685Y159317D01*
X43778Y159315D01*
X43870Y159309D01*
X43963Y159299D01*
X44055Y159286D01*
X44146Y159268D01*
X44236Y159246D01*
X44325Y159221D01*
X44414Y159192D01*
X44500Y159159D01*
X44586Y159123D01*
X44670Y159083D01*
X44752Y159039D01*
X44832Y158992D01*
X44910Y158942D01*
X44985Y158888D01*
X45059Y158832D01*
X45130Y158772D01*
X45198Y158709D01*
X45264Y158643D01*
X45327Y158575D01*
X45387Y158504D01*
X45443Y158430D01*
X45497Y158355D01*
X45547Y158277D01*
X45594Y158197D01*
X45638Y158115D01*
X45678Y158031D01*
X45714Y157945D01*
X45747Y157859D01*
X45776Y157770D01*
X45801Y157681D01*
X45823Y157591D01*
X45841Y157500D01*
X45854Y157408D01*
X45864Y157315D01*
X45870Y157223D01*
X45872Y157130D01*
X45872Y154943D01*
X45872Y157568D02*
X49372Y159318D01*
X43247Y162882D02*
X41498Y165069D01*
X49372Y165069D01*
X49372Y162882D02*
X49372Y167256D01*
X49372Y170883D02*
X49372Y173507D01*
X49370Y173588D01*
X49365Y173668D01*
X49355Y173749D01*
X49342Y173829D01*
X49326Y173908D01*
X49305Y173986D01*
X49281Y174063D01*
X49254Y174139D01*
X49223Y174214D01*
X49189Y174287D01*
X49151Y174359D01*
X49110Y174428D01*
X49066Y174496D01*
X49019Y174562D01*
X48968Y174625D01*
X48915Y174686D01*
X48859Y174744D01*
X48801Y174800D01*
X48740Y174853D01*
X48677Y174904D01*
X48611Y174951D01*
X48543Y174995D01*
X48474Y175036D01*
X48402Y175074D01*
X48329Y175108D01*
X48254Y175139D01*
X48178Y175166D01*
X48101Y175190D01*
X48023Y175211D01*
X47944Y175227D01*
X47864Y175240D01*
X47783Y175250D01*
X47703Y175255D01*
X47622Y175257D01*
X46747Y175257D01*
X46664Y175255D01*
X46581Y175249D01*
X46498Y175239D01*
X46416Y175225D01*
X46334Y175208D01*
X46254Y175186D01*
X46175Y175161D01*
X46097Y175132D01*
X46020Y175099D01*
X45945Y175062D01*
X45872Y175023D01*
X45801Y174979D01*
X45732Y174933D01*
X45665Y174883D01*
X45601Y174830D01*
X45539Y174774D01*
X45480Y174715D01*
X45424Y174653D01*
X45371Y174589D01*
X45322Y174522D01*
X45275Y174453D01*
X45231Y174382D01*
X45192Y174309D01*
X45155Y174234D01*
X45122Y174157D01*
X45093Y174079D01*
X45068Y174000D01*
X45046Y173920D01*
X45029Y173838D01*
X45015Y173756D01*
X45005Y173673D01*
X44999Y173590D01*
X44997Y173507D01*
X44997Y170883D01*
X41498Y170883D01*
X41498Y175257D01*
D12*
X211236Y296050D02*
X211236Y313550D01*
X195164Y313550D02*
X195164Y296050D01*
D13*
X218094Y294643D02*
X225968Y294643D01*
X218094Y294643D02*
X218094Y296830D01*
X218096Y296923D01*
X218102Y297015D01*
X218112Y297108D01*
X218125Y297200D01*
X218143Y297291D01*
X218165Y297381D01*
X218190Y297470D01*
X218219Y297559D01*
X218252Y297645D01*
X218288Y297731D01*
X218328Y297815D01*
X218372Y297897D01*
X218419Y297977D01*
X218469Y298055D01*
X218523Y298130D01*
X218579Y298204D01*
X218639Y298275D01*
X218702Y298343D01*
X218768Y298409D01*
X218836Y298472D01*
X218907Y298532D01*
X218981Y298588D01*
X219056Y298642D01*
X219134Y298692D01*
X219214Y298739D01*
X219296Y298783D01*
X219380Y298823D01*
X219466Y298859D01*
X219552Y298892D01*
X219641Y298921D01*
X219730Y298946D01*
X219820Y298968D01*
X219911Y298986D01*
X220003Y298999D01*
X220096Y299009D01*
X220188Y299015D01*
X220281Y299017D01*
X220374Y299015D01*
X220466Y299009D01*
X220559Y298999D01*
X220651Y298986D01*
X220742Y298968D01*
X220832Y298946D01*
X220921Y298921D01*
X221010Y298892D01*
X221096Y298859D01*
X221182Y298823D01*
X221266Y298783D01*
X221348Y298739D01*
X221428Y298692D01*
X221506Y298642D01*
X221581Y298588D01*
X221655Y298532D01*
X221726Y298472D01*
X221794Y298409D01*
X221860Y298343D01*
X221923Y298275D01*
X221983Y298204D01*
X222039Y298130D01*
X222093Y298055D01*
X222143Y297977D01*
X222190Y297897D01*
X222234Y297815D01*
X222274Y297731D01*
X222310Y297645D01*
X222343Y297559D01*
X222372Y297470D01*
X222397Y297381D01*
X222419Y297291D01*
X222437Y297200D01*
X222450Y297108D01*
X222460Y297015D01*
X222466Y296923D01*
X222468Y296830D01*
X222468Y294643D01*
X222468Y297268D02*
X225968Y299018D01*
X219844Y302581D02*
X218094Y304769D01*
X225968Y304769D01*
X225968Y306956D02*
X225968Y302581D01*
X224218Y310582D02*
X218094Y312332D01*
X224218Y310582D02*
X224218Y314957D01*
X222468Y313645D02*
X225968Y313645D01*
M02*
