G04 EAGLE Gerber RS-274X export*
G75*
%MOMM*%
%FSLAX34Y34*%
%LPD*%
%INTop Copper*%
%IPPOS*%
%AMOC8*
5,1,8,0,0,1.08239X$1,22.5*%
G01*
%ADD10R,0.980200X0.920900*%
%ADD11R,1.136100X1.379100*%
%ADD12R,1.815300X1.195500*%
%ADD13R,0.920900X0.980200*%
%ADD14R,0.960000X1.511800*%
%ADD15C,1.524000*%
%ADD16R,0.597100X1.148500*%
%ADD17R,1.300000X2.000000*%
%ADD18R,1.300000X1.300000*%
%ADD19R,0.870900X0.979100*%
%ADD20R,0.599100X1.971600*%
%ADD21R,0.400000X0.500000*%
%ADD22R,1.900000X1.100000*%
%ADD23R,1.400000X0.600000*%
%ADD24C,1.778000*%
%ADD25P,4.455117X8X22.500000*%
%ADD26R,1.148500X0.597100*%
%ADD27R,1.361200X1.114600*%
%ADD28R,0.979100X0.870900*%
%ADD29C,0.584200*%
%ADD30C,0.304800*%
%ADD31C,0.381000*%
%ADD32C,0.508000*%
%ADD33C,0.711200*%
%ADD34C,0.635000*%
%ADD35C,6.604000*%

G36*
X316348Y-63484D02*
X316348Y-63484D01*
X316467Y-63477D01*
X316505Y-63464D01*
X316546Y-63459D01*
X316656Y-63416D01*
X316769Y-63379D01*
X316804Y-63357D01*
X316841Y-63342D01*
X316937Y-63273D01*
X317038Y-63209D01*
X317066Y-63179D01*
X317099Y-63156D01*
X317175Y-63064D01*
X317256Y-62977D01*
X317276Y-62942D01*
X317301Y-62911D01*
X317352Y-62803D01*
X317410Y-62699D01*
X317420Y-62659D01*
X317437Y-62623D01*
X317459Y-62506D01*
X317489Y-62391D01*
X317493Y-62331D01*
X317497Y-62311D01*
X317495Y-62290D01*
X317499Y-62230D01*
X317499Y519430D01*
X317484Y519548D01*
X317477Y519667D01*
X317464Y519705D01*
X317459Y519746D01*
X317416Y519856D01*
X317379Y519969D01*
X317357Y520004D01*
X317342Y520041D01*
X317273Y520137D01*
X317209Y520238D01*
X317179Y520266D01*
X317156Y520299D01*
X317064Y520375D01*
X316977Y520456D01*
X316942Y520476D01*
X316911Y520501D01*
X316803Y520552D01*
X316699Y520610D01*
X316659Y520620D01*
X316623Y520637D01*
X316506Y520659D01*
X316391Y520689D01*
X316331Y520693D01*
X316311Y520697D01*
X316290Y520695D01*
X316230Y520699D01*
X13970Y520699D01*
X13852Y520684D01*
X13733Y520677D01*
X13695Y520664D01*
X13654Y520659D01*
X13544Y520616D01*
X13431Y520579D01*
X13396Y520557D01*
X13359Y520542D01*
X13263Y520473D01*
X13162Y520409D01*
X13134Y520379D01*
X13101Y520356D01*
X13025Y520264D01*
X12944Y520177D01*
X12924Y520142D01*
X12899Y520111D01*
X12848Y520003D01*
X12790Y519899D01*
X12780Y519859D01*
X12763Y519823D01*
X12741Y519706D01*
X12711Y519591D01*
X12707Y519531D01*
X12703Y519511D01*
X12705Y519490D01*
X12701Y519430D01*
X12701Y-62230D01*
X12716Y-62348D01*
X12723Y-62467D01*
X12736Y-62505D01*
X12741Y-62546D01*
X12784Y-62656D01*
X12821Y-62769D01*
X12843Y-62804D01*
X12858Y-62841D01*
X12927Y-62937D01*
X12991Y-63038D01*
X13021Y-63066D01*
X13044Y-63099D01*
X13136Y-63175D01*
X13223Y-63256D01*
X13258Y-63276D01*
X13289Y-63301D01*
X13397Y-63352D01*
X13501Y-63410D01*
X13541Y-63420D01*
X13577Y-63437D01*
X13694Y-63459D01*
X13809Y-63489D01*
X13869Y-63493D01*
X13889Y-63497D01*
X13910Y-63495D01*
X13970Y-63499D01*
X316230Y-63499D01*
X316348Y-63484D01*
G37*
%LPC*%
G36*
X171874Y155664D02*
X171874Y155664D01*
X171874Y163830D01*
X171859Y163948D01*
X171852Y164067D01*
X171839Y164105D01*
X171834Y164145D01*
X171790Y164256D01*
X171754Y164369D01*
X171732Y164404D01*
X171717Y164441D01*
X171647Y164537D01*
X171584Y164638D01*
X171554Y164666D01*
X171530Y164698D01*
X171439Y164774D01*
X171352Y164856D01*
X171317Y164875D01*
X171285Y164901D01*
X171178Y164952D01*
X171074Y165009D01*
X171034Y165020D01*
X170998Y165037D01*
X170881Y165059D01*
X170766Y165089D01*
X170705Y165093D01*
X170685Y165097D01*
X170665Y165095D01*
X170605Y165099D01*
X169334Y165099D01*
X169334Y165101D01*
X170605Y165101D01*
X170723Y165116D01*
X170842Y165123D01*
X170880Y165136D01*
X170920Y165141D01*
X171031Y165185D01*
X171144Y165221D01*
X171179Y165243D01*
X171216Y165258D01*
X171312Y165328D01*
X171413Y165391D01*
X171441Y165421D01*
X171473Y165445D01*
X171549Y165536D01*
X171631Y165623D01*
X171650Y165658D01*
X171676Y165690D01*
X171727Y165797D01*
X171784Y165901D01*
X171795Y165941D01*
X171812Y165977D01*
X171834Y166094D01*
X171864Y166209D01*
X171868Y166270D01*
X171872Y166290D01*
X171870Y166310D01*
X171874Y166370D01*
X171874Y174536D01*
X175350Y174536D01*
X175996Y174363D01*
X176575Y174029D01*
X176902Y173702D01*
X176997Y173629D01*
X177086Y173550D01*
X177122Y173531D01*
X177154Y173507D01*
X177263Y173459D01*
X177369Y173405D01*
X177409Y173396D01*
X177446Y173380D01*
X177563Y173362D01*
X177679Y173336D01*
X177720Y173337D01*
X177760Y173330D01*
X177878Y173342D01*
X177997Y173345D01*
X178036Y173357D01*
X178076Y173360D01*
X178188Y173401D01*
X178303Y173434D01*
X178337Y173454D01*
X178376Y173468D01*
X178474Y173535D01*
X178577Y173595D01*
X178622Y173635D01*
X178639Y173646D01*
X178652Y173662D01*
X178697Y173702D01*
X179532Y174536D01*
X187092Y174536D01*
X187190Y174549D01*
X187289Y174552D01*
X187348Y174568D01*
X187408Y174576D01*
X187500Y174613D01*
X187595Y174640D01*
X187647Y174671D01*
X187703Y174693D01*
X187784Y174751D01*
X187869Y174802D01*
X187944Y174868D01*
X187961Y174880D01*
X187969Y174889D01*
X187990Y174908D01*
X194573Y181491D01*
X194633Y181569D01*
X194701Y181641D01*
X194730Y181694D01*
X194767Y181742D01*
X194807Y181833D01*
X194855Y181920D01*
X194870Y181978D01*
X194894Y182034D01*
X194909Y182132D01*
X194934Y182228D01*
X194940Y182328D01*
X194944Y182348D01*
X194942Y182360D01*
X194944Y182388D01*
X194944Y186985D01*
X194929Y187103D01*
X194922Y187222D01*
X194909Y187260D01*
X194904Y187301D01*
X194861Y187411D01*
X194824Y187524D01*
X194802Y187559D01*
X194787Y187596D01*
X194718Y187692D01*
X194654Y187793D01*
X194624Y187821D01*
X194601Y187854D01*
X194509Y187930D01*
X194422Y188011D01*
X194387Y188031D01*
X194356Y188056D01*
X194248Y188107D01*
X194144Y188165D01*
X194104Y188175D01*
X194068Y188192D01*
X193951Y188214D01*
X193836Y188244D01*
X193776Y188248D01*
X193756Y188252D01*
X193735Y188250D01*
X193675Y188254D01*
X191723Y188254D01*
X191625Y188242D01*
X191526Y188239D01*
X191468Y188222D01*
X191408Y188214D01*
X191316Y188178D01*
X191220Y188150D01*
X191168Y188120D01*
X191112Y188097D01*
X191032Y188039D01*
X190947Y187989D01*
X190871Y187923D01*
X190855Y187911D01*
X190847Y187901D01*
X190826Y187883D01*
X190602Y187659D01*
X184347Y187659D01*
X184339Y187663D01*
X184287Y187676D01*
X184237Y187698D01*
X184133Y187714D01*
X184030Y187740D01*
X183976Y187739D01*
X183923Y187747D01*
X183818Y187738D01*
X183712Y187737D01*
X183628Y187720D01*
X183607Y187718D01*
X183592Y187712D01*
X183554Y187705D01*
X183384Y187659D01*
X182319Y187659D01*
X182319Y192700D01*
X182304Y192818D01*
X182297Y192937D01*
X182285Y192975D01*
X182280Y193015D01*
X182236Y193126D01*
X182199Y193239D01*
X182177Y193273D01*
X182163Y193311D01*
X182093Y193407D01*
X182029Y193508D01*
X181999Y193536D01*
X181976Y193568D01*
X181884Y193644D01*
X181797Y193726D01*
X181762Y193745D01*
X181731Y193771D01*
X181623Y193822D01*
X181519Y193879D01*
X181480Y193889D01*
X181443Y193907D01*
X181326Y193929D01*
X181211Y193959D01*
X181151Y193963D01*
X181131Y193966D01*
X181130Y193966D01*
X181110Y193965D01*
X181050Y193969D01*
X180932Y193954D01*
X180813Y193947D01*
X180774Y193934D01*
X180734Y193929D01*
X180624Y193885D01*
X180510Y193849D01*
X180476Y193827D01*
X180439Y193812D01*
X180342Y193742D01*
X180242Y193678D01*
X180214Y193649D01*
X180181Y193625D01*
X180105Y193533D01*
X180024Y193447D01*
X180004Y193411D01*
X179978Y193380D01*
X179928Y193273D01*
X179870Y193168D01*
X179860Y193129D01*
X179843Y193093D01*
X179821Y192976D01*
X179791Y192860D01*
X179787Y192800D01*
X179783Y192780D01*
X179784Y192760D01*
X179781Y192700D01*
X179781Y187659D01*
X178716Y187659D01*
X178546Y187705D01*
X178441Y187719D01*
X178338Y187742D01*
X178284Y187741D01*
X178230Y187748D01*
X178125Y187736D01*
X178020Y187733D01*
X177968Y187718D01*
X177915Y187712D01*
X177816Y187674D01*
X177766Y187659D01*
X164998Y187659D01*
X164774Y187883D01*
X164696Y187943D01*
X164624Y188011D01*
X164571Y188040D01*
X164523Y188077D01*
X164432Y188117D01*
X164345Y188165D01*
X164287Y188180D01*
X164231Y188204D01*
X164133Y188219D01*
X164038Y188244D01*
X163937Y188250D01*
X163917Y188254D01*
X163905Y188252D01*
X163877Y188254D01*
X152586Y188254D01*
X152468Y188239D01*
X152350Y188232D01*
X152311Y188219D01*
X152271Y188214D01*
X152160Y188171D01*
X152047Y188134D01*
X152013Y188112D01*
X151975Y188097D01*
X151879Y188028D01*
X151778Y187964D01*
X151751Y187934D01*
X151718Y187911D01*
X151642Y187819D01*
X151560Y187732D01*
X151541Y187697D01*
X151515Y187666D01*
X151464Y187558D01*
X151407Y187454D01*
X151397Y187414D01*
X151380Y187378D01*
X151357Y187261D01*
X151327Y187146D01*
X151324Y187086D01*
X151320Y187066D01*
X151321Y187045D01*
X151317Y186985D01*
X151317Y185369D01*
X149829Y183881D01*
X129571Y183881D01*
X128083Y185369D01*
X128083Y186350D01*
X128068Y186468D01*
X128060Y186587D01*
X128048Y186625D01*
X128043Y186666D01*
X127999Y186776D01*
X127962Y186889D01*
X127941Y186924D01*
X127926Y186961D01*
X127856Y187057D01*
X127792Y187158D01*
X127763Y187186D01*
X127739Y187219D01*
X127647Y187295D01*
X127561Y187376D01*
X127525Y187396D01*
X127494Y187421D01*
X127386Y187472D01*
X127282Y187530D01*
X127243Y187540D01*
X127206Y187557D01*
X127090Y187579D01*
X126974Y187609D01*
X126914Y187613D01*
X126894Y187617D01*
X126874Y187615D01*
X126814Y187619D01*
X113393Y187619D01*
X111526Y188393D01*
X102900Y197019D01*
X102822Y197079D01*
X102750Y197147D01*
X102697Y197176D01*
X102649Y197213D01*
X102558Y197253D01*
X102471Y197301D01*
X102413Y197316D01*
X102357Y197340D01*
X102259Y197355D01*
X102163Y197380D01*
X102063Y197386D01*
X102043Y197390D01*
X102031Y197388D01*
X102003Y197390D01*
X93742Y197390D01*
X92253Y198879D01*
X92253Y206350D01*
X92238Y206468D01*
X92231Y206587D01*
X92218Y206625D01*
X92213Y206666D01*
X92170Y206776D01*
X92133Y206889D01*
X92111Y206924D01*
X92096Y206961D01*
X92027Y207057D01*
X91963Y207158D01*
X91933Y207186D01*
X91910Y207219D01*
X91818Y207295D01*
X91731Y207376D01*
X91696Y207396D01*
X91665Y207421D01*
X91557Y207472D01*
X91453Y207530D01*
X91413Y207540D01*
X91377Y207557D01*
X91260Y207579D01*
X91145Y207609D01*
X91085Y207613D01*
X91065Y207617D01*
X91044Y207615D01*
X90984Y207619D01*
X81874Y207619D01*
X81776Y207607D01*
X81677Y207604D01*
X81619Y207587D01*
X81559Y207579D01*
X81467Y207543D01*
X81371Y207515D01*
X81319Y207485D01*
X81263Y207462D01*
X81183Y207404D01*
X81098Y207354D01*
X81022Y207288D01*
X81006Y207276D01*
X80998Y207266D01*
X80977Y207248D01*
X80903Y207174D01*
X67313Y207174D01*
X65825Y208662D01*
X65825Y216738D01*
X67313Y218226D01*
X80903Y218226D01*
X80977Y218152D01*
X81055Y218092D01*
X81127Y218024D01*
X81180Y217995D01*
X81228Y217958D01*
X81319Y217918D01*
X81406Y217870D01*
X81464Y217855D01*
X81520Y217831D01*
X81618Y217816D01*
X81713Y217791D01*
X81814Y217785D01*
X81834Y217781D01*
X81846Y217783D01*
X81874Y217781D01*
X95415Y217781D01*
X97282Y217007D01*
X100300Y213989D01*
X100378Y213929D01*
X100450Y213861D01*
X100503Y213832D01*
X100551Y213795D01*
X100642Y213755D01*
X100729Y213707D01*
X100787Y213692D01*
X100843Y213668D01*
X100941Y213653D01*
X101037Y213628D01*
X101137Y213622D01*
X101157Y213618D01*
X101169Y213620D01*
X101197Y213618D01*
X109458Y213618D01*
X110947Y212129D01*
X110947Y203868D01*
X110959Y203770D01*
X110962Y203671D01*
X110979Y203613D01*
X110987Y203553D01*
X111023Y203461D01*
X111051Y203366D01*
X111081Y203313D01*
X111104Y203257D01*
X111162Y203177D01*
X111212Y203092D01*
X111278Y203016D01*
X111290Y203000D01*
X111300Y202992D01*
X111318Y202971D01*
X116137Y198152D01*
X116215Y198092D01*
X116287Y198024D01*
X116340Y197995D01*
X116388Y197958D01*
X116479Y197918D01*
X116566Y197870D01*
X116624Y197855D01*
X116680Y197831D01*
X116778Y197816D01*
X116874Y197791D01*
X116974Y197785D01*
X116994Y197781D01*
X117006Y197783D01*
X117034Y197781D01*
X126814Y197781D01*
X126932Y197796D01*
X127050Y197803D01*
X127089Y197816D01*
X127129Y197821D01*
X127240Y197864D01*
X127353Y197901D01*
X127387Y197923D01*
X127425Y197938D01*
X127521Y198007D01*
X127622Y198071D01*
X127649Y198101D01*
X127682Y198124D01*
X127758Y198216D01*
X127840Y198303D01*
X127859Y198338D01*
X127885Y198369D01*
X127936Y198477D01*
X127993Y198581D01*
X128003Y198621D01*
X128020Y198657D01*
X128043Y198774D01*
X128073Y198889D01*
X128076Y198949D01*
X128080Y198969D01*
X128079Y198990D01*
X128083Y199050D01*
X128083Y199429D01*
X129571Y200917D01*
X149829Y200917D01*
X151317Y199429D01*
X151317Y198415D01*
X151332Y198297D01*
X151340Y198178D01*
X151352Y198140D01*
X151357Y198099D01*
X151401Y197989D01*
X151438Y197876D01*
X151459Y197841D01*
X151474Y197804D01*
X151544Y197708D01*
X151608Y197607D01*
X151637Y197579D01*
X151661Y197546D01*
X151753Y197470D01*
X151839Y197389D01*
X151875Y197369D01*
X151906Y197344D01*
X152014Y197293D01*
X152118Y197235D01*
X152157Y197225D01*
X152194Y197208D01*
X152310Y197186D01*
X152426Y197156D01*
X152486Y197152D01*
X152506Y197148D01*
X152526Y197150D01*
X152586Y197146D01*
X163877Y197146D01*
X163975Y197158D01*
X164074Y197161D01*
X164132Y197178D01*
X164192Y197186D01*
X164284Y197222D01*
X164380Y197250D01*
X164432Y197280D01*
X164488Y197303D01*
X164568Y197361D01*
X164653Y197411D01*
X164729Y197477D01*
X164745Y197489D01*
X164753Y197499D01*
X164774Y197517D01*
X165271Y198014D01*
X165298Y198031D01*
X165326Y198061D01*
X165359Y198084D01*
X165435Y198176D01*
X165516Y198263D01*
X165536Y198298D01*
X165561Y198329D01*
X165612Y198437D01*
X165670Y198541D01*
X165680Y198581D01*
X165697Y198617D01*
X165719Y198734D01*
X165749Y198849D01*
X165753Y198909D01*
X165757Y198929D01*
X165755Y198950D01*
X165759Y199010D01*
X165759Y200661D01*
X176530Y200661D01*
X176648Y200676D01*
X176767Y200683D01*
X176805Y200696D01*
X176845Y200701D01*
X176956Y200744D01*
X177069Y200781D01*
X177104Y200803D01*
X177141Y200818D01*
X177237Y200888D01*
X177338Y200951D01*
X177366Y200981D01*
X177398Y201005D01*
X177474Y201096D01*
X177556Y201183D01*
X177575Y201218D01*
X177601Y201249D01*
X177652Y201357D01*
X177709Y201461D01*
X177720Y201501D01*
X177737Y201537D01*
X177759Y201654D01*
X177789Y201769D01*
X177793Y201830D01*
X177797Y201850D01*
X177795Y201870D01*
X177799Y201930D01*
X177799Y204470D01*
X177784Y204588D01*
X177777Y204707D01*
X177764Y204745D01*
X177759Y204785D01*
X177715Y204896D01*
X177679Y205009D01*
X177657Y205044D01*
X177642Y205081D01*
X177572Y205177D01*
X177509Y205278D01*
X177479Y205306D01*
X177455Y205338D01*
X177364Y205414D01*
X177277Y205496D01*
X177242Y205515D01*
X177210Y205541D01*
X177103Y205592D01*
X176999Y205649D01*
X176959Y205660D01*
X176923Y205677D01*
X176806Y205699D01*
X176691Y205729D01*
X176630Y205733D01*
X176610Y205737D01*
X176590Y205735D01*
X176530Y205739D01*
X165759Y205739D01*
X165759Y207390D01*
X165744Y207508D01*
X165737Y207627D01*
X165724Y207665D01*
X165719Y207706D01*
X165676Y207816D01*
X165639Y207929D01*
X165617Y207964D01*
X165602Y208001D01*
X165533Y208097D01*
X165469Y208198D01*
X165439Y208226D01*
X165416Y208259D01*
X165324Y208335D01*
X165298Y208358D01*
X164774Y208883D01*
X164696Y208943D01*
X164624Y209011D01*
X164571Y209040D01*
X164523Y209077D01*
X164432Y209117D01*
X164345Y209165D01*
X164287Y209180D01*
X164231Y209204D01*
X164133Y209219D01*
X164038Y209244D01*
X163937Y209250D01*
X163917Y209254D01*
X163905Y209252D01*
X163877Y209254D01*
X154425Y209254D01*
X154326Y209242D01*
X154227Y209239D01*
X154169Y209222D01*
X154109Y209214D01*
X154017Y209178D01*
X153922Y209150D01*
X153870Y209120D01*
X153813Y209097D01*
X153733Y209039D01*
X153648Y208989D01*
X153573Y208923D01*
X153556Y208911D01*
X153548Y208901D01*
X153527Y208883D01*
X153103Y208458D01*
X141789Y208458D01*
X140573Y209675D01*
X140473Y209752D01*
X140378Y209834D01*
X140348Y209849D01*
X140321Y209870D01*
X140206Y209920D01*
X140093Y209976D01*
X140060Y209983D01*
X140030Y209996D01*
X139905Y210016D01*
X139782Y210042D01*
X139749Y210041D01*
X139715Y210046D01*
X139590Y210034D01*
X139465Y210029D01*
X139432Y210019D01*
X139399Y210016D01*
X139280Y209974D01*
X139160Y209937D01*
X139131Y209920D01*
X139100Y209908D01*
X138995Y209838D01*
X138888Y209773D01*
X138864Y209749D01*
X138836Y209730D01*
X138753Y209635D01*
X138665Y209546D01*
X138638Y209505D01*
X138626Y209491D01*
X138616Y209472D01*
X138599Y209446D01*
X138118Y208966D01*
X137539Y208631D01*
X136893Y208458D01*
X134256Y208458D01*
X134256Y214868D01*
X134241Y214986D01*
X134233Y215104D01*
X134221Y215143D01*
X134216Y215183D01*
X134172Y215294D01*
X134135Y215407D01*
X134114Y215441D01*
X134099Y215479D01*
X134029Y215575D01*
X133965Y215676D01*
X133936Y215703D01*
X133912Y215736D01*
X133820Y215812D01*
X133733Y215894D01*
X133715Y215904D01*
X133794Y215954D01*
X133822Y215983D01*
X133855Y216007D01*
X133931Y216099D01*
X134012Y216185D01*
X134032Y216221D01*
X134058Y216252D01*
X134108Y216360D01*
X134166Y216464D01*
X134176Y216503D01*
X134193Y216540D01*
X134216Y216656D01*
X134245Y216772D01*
X134249Y216832D01*
X134253Y216852D01*
X134252Y216872D01*
X134256Y216932D01*
X134256Y223342D01*
X136893Y223342D01*
X137539Y223169D01*
X138118Y222834D01*
X138612Y222341D01*
X138652Y222288D01*
X138723Y222184D01*
X138748Y222162D01*
X138768Y222135D01*
X138867Y222057D01*
X138961Y221974D01*
X138991Y221958D01*
X139017Y221937D01*
X139132Y221886D01*
X139244Y221829D01*
X139277Y221822D01*
X139308Y221808D01*
X139432Y221787D01*
X139555Y221759D01*
X139588Y221760D01*
X139621Y221755D01*
X139747Y221765D01*
X139872Y221769D01*
X139905Y221778D01*
X139938Y221781D01*
X140057Y221822D01*
X140178Y221857D01*
X140207Y221874D01*
X140239Y221886D01*
X140344Y221955D01*
X140452Y222019D01*
X140488Y222051D01*
X140504Y222061D01*
X140518Y222077D01*
X140573Y222125D01*
X141789Y223342D01*
X153103Y223342D01*
X154591Y221853D01*
X154591Y219415D01*
X154606Y219297D01*
X154614Y219178D01*
X154626Y219140D01*
X154631Y219099D01*
X154675Y218989D01*
X154712Y218876D01*
X154733Y218841D01*
X154748Y218804D01*
X154818Y218708D01*
X154882Y218607D01*
X154911Y218579D01*
X154935Y218546D01*
X155027Y218470D01*
X155113Y218389D01*
X155149Y218369D01*
X155180Y218344D01*
X155288Y218293D01*
X155392Y218235D01*
X155431Y218225D01*
X155468Y218208D01*
X155584Y218186D01*
X155700Y218156D01*
X155760Y218152D01*
X155780Y218148D01*
X155800Y218150D01*
X155860Y218146D01*
X163877Y218146D01*
X163975Y218158D01*
X164074Y218161D01*
X164132Y218178D01*
X164192Y218186D01*
X164284Y218222D01*
X164380Y218250D01*
X164432Y218280D01*
X164488Y218303D01*
X164568Y218361D01*
X164653Y218411D01*
X164729Y218477D01*
X164745Y218489D01*
X164753Y218499D01*
X164774Y218517D01*
X164998Y218741D01*
X174661Y218741D01*
X174798Y218758D01*
X174937Y218771D01*
X174956Y218778D01*
X174976Y218781D01*
X175105Y218832D01*
X175236Y218879D01*
X175253Y218890D01*
X175272Y218898D01*
X175384Y218979D01*
X175499Y219057D01*
X175513Y219073D01*
X175529Y219084D01*
X175618Y219192D01*
X175710Y219296D01*
X175719Y219314D01*
X175732Y219329D01*
X175791Y219455D01*
X175854Y219579D01*
X175859Y219599D01*
X175868Y219617D01*
X175894Y219753D01*
X175924Y219889D01*
X175924Y219910D01*
X175927Y219929D01*
X175919Y220068D01*
X175914Y220207D01*
X175909Y220227D01*
X175908Y220247D01*
X175865Y220379D01*
X175826Y220513D01*
X175816Y220530D01*
X175810Y220549D01*
X175735Y220667D01*
X175665Y220787D01*
X175646Y220808D01*
X175639Y220818D01*
X175624Y220832D01*
X175558Y220907D01*
X168492Y227974D01*
X165739Y230726D01*
X165739Y232595D01*
X165724Y232713D01*
X165717Y232831D01*
X165704Y232870D01*
X165699Y232910D01*
X165656Y233021D01*
X165619Y233134D01*
X165597Y233168D01*
X165582Y233206D01*
X165513Y233302D01*
X165449Y233403D01*
X165419Y233430D01*
X165396Y233463D01*
X165304Y233539D01*
X165217Y233621D01*
X165182Y233640D01*
X165151Y233666D01*
X165043Y233717D01*
X164939Y233774D01*
X164899Y233784D01*
X164863Y233801D01*
X164746Y233824D01*
X164631Y233854D01*
X164571Y233857D01*
X164551Y233861D01*
X164530Y233860D01*
X164470Y233864D01*
X164397Y233864D01*
X162909Y235352D01*
X162909Y235966D01*
X162894Y236084D01*
X162886Y236203D01*
X162874Y236241D01*
X162869Y236282D01*
X162825Y236392D01*
X162788Y236505D01*
X162767Y236540D01*
X162752Y236577D01*
X162682Y236673D01*
X162618Y236774D01*
X162589Y236802D01*
X162565Y236835D01*
X162473Y236911D01*
X162387Y236992D01*
X162351Y237012D01*
X162320Y237037D01*
X162212Y237088D01*
X162108Y237146D01*
X162069Y237156D01*
X162032Y237173D01*
X161916Y237195D01*
X161800Y237225D01*
X161740Y237229D01*
X161720Y237233D01*
X161700Y237231D01*
X161640Y237235D01*
X155860Y237235D01*
X155742Y237220D01*
X155624Y237213D01*
X155585Y237200D01*
X155545Y237195D01*
X155434Y237152D01*
X155321Y237115D01*
X155287Y237093D01*
X155249Y237078D01*
X155153Y237009D01*
X155052Y236945D01*
X155025Y236915D01*
X154992Y236892D01*
X154916Y236800D01*
X154834Y236713D01*
X154815Y236678D01*
X154789Y236647D01*
X154738Y236539D01*
X154681Y236435D01*
X154671Y236395D01*
X154654Y236359D01*
X154631Y236242D01*
X154601Y236127D01*
X154598Y236067D01*
X154594Y236047D01*
X154595Y236026D01*
X154591Y235966D01*
X154591Y235352D01*
X153103Y233864D01*
X142289Y233864D01*
X140439Y235714D01*
X140345Y235787D01*
X140330Y235801D01*
X140325Y235804D01*
X140244Y235873D01*
X140214Y235888D01*
X140187Y235909D01*
X140072Y235959D01*
X139959Y236015D01*
X139926Y236022D01*
X139896Y236035D01*
X139771Y236055D01*
X139648Y236081D01*
X139615Y236080D01*
X139581Y236085D01*
X139456Y236074D01*
X139331Y236068D01*
X139298Y236059D01*
X139265Y236056D01*
X139146Y236013D01*
X139026Y235977D01*
X138997Y235959D01*
X138966Y235948D01*
X138861Y235877D01*
X138754Y235812D01*
X138730Y235788D01*
X138702Y235769D01*
X138619Y235675D01*
X138531Y235585D01*
X138504Y235545D01*
X138492Y235531D01*
X138482Y235512D01*
X138442Y235451D01*
X138092Y234844D01*
X137618Y234371D01*
X137039Y234037D01*
X136393Y233864D01*
X133881Y233864D01*
X133881Y240393D01*
X133866Y240511D01*
X133858Y240629D01*
X133846Y240668D01*
X133841Y240708D01*
X133797Y240819D01*
X133760Y240932D01*
X133739Y240966D01*
X133724Y241004D01*
X133654Y241100D01*
X133590Y241201D01*
X133561Y241228D01*
X133537Y241261D01*
X133445Y241337D01*
X133358Y241419D01*
X133323Y241438D01*
X133292Y241464D01*
X133184Y241515D01*
X133080Y241572D01*
X133041Y241582D01*
X133004Y241599D01*
X132887Y241622D01*
X132772Y241652D01*
X132712Y241655D01*
X132692Y241659D01*
X132671Y241658D01*
X132611Y241662D01*
X132066Y241662D01*
X132066Y242207D01*
X132051Y242325D01*
X132043Y242444D01*
X132031Y242483D01*
X132026Y242523D01*
X131982Y242634D01*
X131945Y242747D01*
X131924Y242781D01*
X131909Y242818D01*
X131839Y242915D01*
X131775Y243015D01*
X131746Y243043D01*
X131722Y243076D01*
X131630Y243152D01*
X131544Y243233D01*
X131508Y243253D01*
X131477Y243279D01*
X131369Y243329D01*
X131265Y243387D01*
X131226Y243397D01*
X131189Y243414D01*
X131073Y243437D01*
X130957Y243466D01*
X130897Y243470D01*
X130877Y243474D01*
X130857Y243473D01*
X130797Y243477D01*
X124809Y243477D01*
X124809Y246126D01*
X124794Y246244D01*
X124786Y246363D01*
X124774Y246401D01*
X124769Y246442D01*
X124725Y246552D01*
X124688Y246665D01*
X124667Y246700D01*
X124652Y246737D01*
X124582Y246833D01*
X124518Y246934D01*
X124489Y246962D01*
X124465Y246995D01*
X124373Y247071D01*
X124287Y247152D01*
X124251Y247172D01*
X124220Y247197D01*
X124112Y247248D01*
X124008Y247306D01*
X123969Y247316D01*
X123932Y247333D01*
X123816Y247355D01*
X123700Y247385D01*
X123640Y247389D01*
X123620Y247393D01*
X123600Y247391D01*
X123540Y247395D01*
X123152Y247395D01*
X118006Y252542D01*
X117927Y252603D01*
X117855Y252671D01*
X117802Y252700D01*
X117754Y252737D01*
X117663Y252776D01*
X117577Y252824D01*
X117518Y252839D01*
X117462Y252863D01*
X117364Y252879D01*
X117269Y252904D01*
X117169Y252910D01*
X117148Y252913D01*
X117136Y252912D01*
X117108Y252914D01*
X110539Y252914D01*
X108847Y254605D01*
X108753Y254678D01*
X108664Y254757D01*
X108628Y254775D01*
X108596Y254800D01*
X108487Y254848D01*
X108381Y254902D01*
X108342Y254911D01*
X108304Y254927D01*
X108187Y254945D01*
X108071Y254971D01*
X108030Y254970D01*
X107990Y254976D01*
X107872Y254965D01*
X107753Y254962D01*
X107714Y254950D01*
X107674Y254947D01*
X107562Y254906D01*
X107447Y254873D01*
X107412Y254853D01*
X107374Y254839D01*
X107276Y254772D01*
X107173Y254712D01*
X107128Y254672D01*
X107111Y254660D01*
X107098Y254645D01*
X107052Y254605D01*
X105361Y252914D01*
X94547Y252914D01*
X93059Y254402D01*
X93059Y255016D01*
X93044Y255134D01*
X93036Y255253D01*
X93024Y255291D01*
X93019Y255332D01*
X92975Y255442D01*
X92938Y255555D01*
X92917Y255590D01*
X92902Y255627D01*
X92832Y255723D01*
X92768Y255824D01*
X92739Y255852D01*
X92715Y255885D01*
X92623Y255961D01*
X92537Y256042D01*
X92501Y256062D01*
X92470Y256087D01*
X92362Y256138D01*
X92258Y256196D01*
X92219Y256206D01*
X92182Y256223D01*
X92066Y256245D01*
X91950Y256275D01*
X91890Y256279D01*
X91870Y256283D01*
X91850Y256281D01*
X91790Y256285D01*
X85905Y256285D01*
X85807Y256273D01*
X85708Y256270D01*
X85650Y256253D01*
X85590Y256245D01*
X85498Y256209D01*
X85403Y256181D01*
X85351Y256151D01*
X85294Y256128D01*
X85214Y256070D01*
X85129Y256020D01*
X85053Y255954D01*
X85037Y255942D01*
X85029Y255932D01*
X85008Y255914D01*
X79030Y249935D01*
X73256Y249935D01*
X73138Y249920D01*
X73019Y249913D01*
X72981Y249900D01*
X72940Y249895D01*
X72830Y249852D01*
X72717Y249815D01*
X72682Y249793D01*
X72645Y249778D01*
X72549Y249709D01*
X72448Y249645D01*
X72420Y249615D01*
X72387Y249592D01*
X72311Y249500D01*
X72230Y249413D01*
X72210Y249378D01*
X72185Y249347D01*
X72134Y249239D01*
X72076Y249135D01*
X72066Y249095D01*
X72049Y249059D01*
X72027Y248942D01*
X71997Y248827D01*
X71993Y248767D01*
X71989Y248747D01*
X71991Y248726D01*
X71987Y248666D01*
X71987Y245389D01*
X70498Y243900D01*
X58794Y243900D01*
X57305Y245389D01*
X57305Y262611D01*
X58794Y264100D01*
X70498Y264100D01*
X71987Y262611D01*
X71987Y259334D01*
X72002Y259216D01*
X72009Y259097D01*
X72022Y259059D01*
X72027Y259018D01*
X72070Y258908D01*
X72107Y258795D01*
X72129Y258760D01*
X72144Y258723D01*
X72213Y258627D01*
X72277Y258526D01*
X72307Y258498D01*
X72330Y258465D01*
X72422Y258389D01*
X72509Y258308D01*
X72544Y258288D01*
X72575Y258263D01*
X72683Y258212D01*
X72787Y258154D01*
X72827Y258144D01*
X72863Y258127D01*
X72980Y258105D01*
X73095Y258075D01*
X73155Y258071D01*
X73175Y258067D01*
X73196Y258069D01*
X73256Y258065D01*
X75137Y258065D01*
X75235Y258077D01*
X75334Y258080D01*
X75392Y258097D01*
X75452Y258105D01*
X75544Y258141D01*
X75639Y258169D01*
X75691Y258199D01*
X75748Y258222D01*
X75828Y258280D01*
X75913Y258330D01*
X75989Y258396D01*
X76005Y258408D01*
X76013Y258418D01*
X76034Y258436D01*
X82012Y264415D01*
X91790Y264415D01*
X91908Y264430D01*
X92026Y264437D01*
X92065Y264450D01*
X92105Y264455D01*
X92216Y264498D01*
X92329Y264535D01*
X92363Y264557D01*
X92401Y264572D01*
X92497Y264641D01*
X92598Y264705D01*
X92625Y264735D01*
X92658Y264758D01*
X92734Y264850D01*
X92816Y264937D01*
X92835Y264972D01*
X92861Y265003D01*
X92912Y265111D01*
X92969Y265215D01*
X92979Y265255D01*
X92996Y265291D01*
X93019Y265408D01*
X93049Y265523D01*
X93052Y265583D01*
X93056Y265603D01*
X93055Y265624D01*
X93059Y265684D01*
X93059Y266298D01*
X94547Y267786D01*
X105361Y267786D01*
X107052Y266095D01*
X107147Y266022D01*
X107236Y265943D01*
X107272Y265925D01*
X107304Y265900D01*
X107413Y265852D01*
X107519Y265798D01*
X107558Y265789D01*
X107596Y265773D01*
X107713Y265755D01*
X107829Y265729D01*
X107870Y265730D01*
X107910Y265724D01*
X108028Y265735D01*
X108147Y265738D01*
X108186Y265750D01*
X108226Y265753D01*
X108339Y265794D01*
X108453Y265827D01*
X108487Y265847D01*
X108526Y265861D01*
X108624Y265928D01*
X108727Y265988D01*
X108772Y266028D01*
X108789Y266040D01*
X108802Y266055D01*
X108847Y266095D01*
X110539Y267786D01*
X110612Y267786D01*
X110730Y267801D01*
X110849Y267809D01*
X110887Y267821D01*
X110928Y267826D01*
X111038Y267870D01*
X111151Y267907D01*
X111186Y267928D01*
X111223Y267943D01*
X111319Y268013D01*
X111420Y268077D01*
X111448Y268106D01*
X111481Y268130D01*
X111557Y268222D01*
X111638Y268308D01*
X111658Y268344D01*
X111683Y268375D01*
X111734Y268483D01*
X111792Y268587D01*
X111802Y268626D01*
X111819Y268663D01*
X111841Y268779D01*
X111871Y268895D01*
X111875Y268955D01*
X111879Y268975D01*
X111877Y268995D01*
X111881Y269055D01*
X111881Y283395D01*
X111866Y283513D01*
X111859Y283631D01*
X111846Y283670D01*
X111841Y283710D01*
X111798Y283821D01*
X111761Y283934D01*
X111739Y283968D01*
X111724Y284006D01*
X111655Y284102D01*
X111591Y284203D01*
X111561Y284230D01*
X111538Y284263D01*
X111446Y284339D01*
X111359Y284421D01*
X111324Y284440D01*
X111293Y284466D01*
X111185Y284517D01*
X111081Y284574D01*
X111041Y284584D01*
X111005Y284601D01*
X110888Y284624D01*
X110773Y284654D01*
X110713Y284657D01*
X110693Y284661D01*
X110672Y284660D01*
X110612Y284664D01*
X110539Y284664D01*
X108847Y286355D01*
X108753Y286428D01*
X108664Y286507D01*
X108628Y286525D01*
X108596Y286550D01*
X108487Y286598D01*
X108381Y286652D01*
X108342Y286661D01*
X108304Y286677D01*
X108187Y286695D01*
X108071Y286721D01*
X108030Y286720D01*
X107990Y286726D01*
X107872Y286715D01*
X107753Y286712D01*
X107714Y286700D01*
X107674Y286697D01*
X107562Y286656D01*
X107447Y286623D01*
X107412Y286603D01*
X107374Y286589D01*
X107276Y286522D01*
X107173Y286462D01*
X107128Y286422D01*
X107111Y286410D01*
X107098Y286395D01*
X107052Y286355D01*
X105361Y284664D01*
X94547Y284664D01*
X93059Y286152D01*
X93059Y286766D01*
X93044Y286884D01*
X93036Y287003D01*
X93024Y287041D01*
X93019Y287082D01*
X92975Y287192D01*
X92938Y287305D01*
X92917Y287340D01*
X92902Y287377D01*
X92832Y287473D01*
X92768Y287574D01*
X92739Y287602D01*
X92715Y287635D01*
X92623Y287711D01*
X92537Y287792D01*
X92501Y287812D01*
X92470Y287837D01*
X92362Y287888D01*
X92258Y287946D01*
X92219Y287956D01*
X92182Y287973D01*
X92066Y287995D01*
X91950Y288025D01*
X91890Y288029D01*
X91870Y288033D01*
X91850Y288031D01*
X91790Y288035D01*
X73256Y288035D01*
X73138Y288020D01*
X73019Y288013D01*
X72981Y288000D01*
X72940Y287995D01*
X72830Y287952D01*
X72717Y287915D01*
X72682Y287893D01*
X72645Y287878D01*
X72549Y287809D01*
X72448Y287745D01*
X72420Y287715D01*
X72387Y287692D01*
X72311Y287600D01*
X72230Y287513D01*
X72210Y287478D01*
X72185Y287447D01*
X72134Y287339D01*
X72076Y287235D01*
X72066Y287195D01*
X72049Y287159D01*
X72027Y287042D01*
X71997Y286927D01*
X71993Y286867D01*
X71989Y286847D01*
X71991Y286826D01*
X71987Y286766D01*
X71987Y283489D01*
X70498Y282000D01*
X58794Y282000D01*
X57305Y283489D01*
X57305Y300711D01*
X58794Y302200D01*
X70498Y302200D01*
X71987Y300711D01*
X71987Y297434D01*
X72002Y297316D01*
X72009Y297197D01*
X72022Y297159D01*
X72027Y297118D01*
X72070Y297008D01*
X72107Y296895D01*
X72129Y296860D01*
X72144Y296823D01*
X72213Y296727D01*
X72277Y296626D01*
X72307Y296598D01*
X72330Y296565D01*
X72422Y296489D01*
X72509Y296408D01*
X72544Y296388D01*
X72575Y296363D01*
X72683Y296312D01*
X72787Y296254D01*
X72827Y296244D01*
X72863Y296227D01*
X72980Y296205D01*
X73095Y296175D01*
X73155Y296171D01*
X73175Y296167D01*
X73196Y296169D01*
X73256Y296165D01*
X91790Y296165D01*
X91908Y296180D01*
X92026Y296187D01*
X92065Y296200D01*
X92105Y296205D01*
X92216Y296248D01*
X92329Y296285D01*
X92363Y296307D01*
X92401Y296322D01*
X92497Y296391D01*
X92598Y296455D01*
X92625Y296485D01*
X92658Y296508D01*
X92734Y296600D01*
X92816Y296687D01*
X92835Y296722D01*
X92861Y296753D01*
X92912Y296861D01*
X92969Y296965D01*
X92979Y297005D01*
X92996Y297041D01*
X93019Y297158D01*
X93049Y297273D01*
X93052Y297333D01*
X93056Y297353D01*
X93055Y297374D01*
X93059Y297434D01*
X93059Y298048D01*
X94547Y299536D01*
X105361Y299536D01*
X107052Y297845D01*
X107147Y297772D01*
X107236Y297693D01*
X107272Y297675D01*
X107304Y297650D01*
X107413Y297602D01*
X107519Y297548D01*
X107558Y297539D01*
X107596Y297523D01*
X107713Y297505D01*
X107829Y297479D01*
X107870Y297480D01*
X107910Y297474D01*
X108028Y297485D01*
X108147Y297488D01*
X108186Y297500D01*
X108226Y297503D01*
X108339Y297544D01*
X108453Y297577D01*
X108487Y297597D01*
X108526Y297611D01*
X108624Y297678D01*
X108727Y297738D01*
X108772Y297778D01*
X108789Y297790D01*
X108802Y297805D01*
X108847Y297845D01*
X110539Y299536D01*
X121353Y299536D01*
X122841Y298048D01*
X122841Y286152D01*
X121353Y284664D01*
X121280Y284664D01*
X121162Y284649D01*
X121043Y284641D01*
X121005Y284629D01*
X120964Y284624D01*
X120854Y284580D01*
X120741Y284543D01*
X120706Y284522D01*
X120669Y284507D01*
X120573Y284437D01*
X120472Y284373D01*
X120444Y284344D01*
X120411Y284320D01*
X120335Y284228D01*
X120254Y284142D01*
X120234Y284106D01*
X120209Y284075D01*
X120158Y283967D01*
X120100Y283863D01*
X120090Y283824D01*
X120073Y283787D01*
X120051Y283671D01*
X120021Y283555D01*
X120017Y283495D01*
X120013Y283475D01*
X120015Y283455D01*
X120011Y283395D01*
X120011Y269055D01*
X120026Y268937D01*
X120033Y268819D01*
X120046Y268780D01*
X120051Y268740D01*
X120094Y268629D01*
X120131Y268516D01*
X120153Y268482D01*
X120168Y268444D01*
X120237Y268348D01*
X120301Y268247D01*
X120331Y268220D01*
X120354Y268187D01*
X120446Y268111D01*
X120533Y268029D01*
X120568Y268010D01*
X120599Y267984D01*
X120707Y267933D01*
X120811Y267876D01*
X120851Y267866D01*
X120887Y267849D01*
X121004Y267826D01*
X121119Y267796D01*
X121179Y267793D01*
X121199Y267789D01*
X121220Y267790D01*
X121280Y267786D01*
X121353Y267786D01*
X122841Y266298D01*
X122841Y259729D01*
X122854Y259631D01*
X122857Y259532D01*
X122873Y259473D01*
X122881Y259413D01*
X122918Y259321D01*
X122945Y259226D01*
X122976Y259174D01*
X122998Y259118D01*
X123056Y259038D01*
X123107Y258952D01*
X123173Y258877D01*
X123185Y258860D01*
X123194Y258853D01*
X123213Y258831D01*
X126148Y255896D01*
X126226Y255836D01*
X126298Y255768D01*
X126351Y255739D01*
X126399Y255702D01*
X126490Y255662D01*
X126577Y255614D01*
X126635Y255599D01*
X126691Y255575D01*
X126789Y255560D01*
X126885Y255535D01*
X126985Y255529D01*
X127005Y255525D01*
X127017Y255527D01*
X127045Y255525D01*
X178214Y255525D01*
X184630Y249108D01*
X184709Y249047D01*
X184781Y248979D01*
X184834Y248950D01*
X184882Y248913D01*
X184973Y248874D01*
X185059Y248826D01*
X185118Y248811D01*
X185174Y248787D01*
X185272Y248771D01*
X185367Y248746D01*
X185467Y248740D01*
X185488Y248737D01*
X185500Y248738D01*
X185528Y248736D01*
X191203Y248736D01*
X192691Y247248D01*
X192691Y243014D01*
X192704Y242916D01*
X192707Y242817D01*
X192723Y242758D01*
X192731Y242698D01*
X192768Y242606D01*
X192795Y242511D01*
X192826Y242459D01*
X192848Y242403D01*
X192906Y242322D01*
X192957Y242237D01*
X193023Y242162D01*
X193035Y242145D01*
X193044Y242137D01*
X193063Y242116D01*
X203719Y231460D01*
X205506Y229674D01*
X206376Y227573D01*
X206376Y218285D01*
X206377Y218276D01*
X206376Y218267D01*
X206397Y218118D01*
X206398Y218107D01*
X206403Y218037D01*
X206410Y218015D01*
X206416Y217969D01*
X206419Y217961D01*
X206420Y217952D01*
X206472Y217799D01*
X206757Y217113D01*
X206757Y214687D01*
X206472Y214001D01*
X206470Y213992D01*
X206465Y213984D01*
X206428Y213839D01*
X206388Y213694D01*
X206388Y213685D01*
X206386Y213676D01*
X206376Y213515D01*
X206376Y209133D01*
X206393Y208995D01*
X206406Y208857D01*
X206413Y208838D01*
X206416Y208818D01*
X206467Y208688D01*
X206514Y208557D01*
X206525Y208541D01*
X206533Y208522D01*
X206614Y208410D01*
X206692Y208294D01*
X206708Y208281D01*
X206719Y208265D01*
X206827Y208176D01*
X206931Y208084D01*
X206949Y208075D01*
X206964Y208062D01*
X207090Y208002D01*
X207214Y207939D01*
X207234Y207935D01*
X207252Y207926D01*
X207389Y207900D01*
X207524Y207870D01*
X207545Y207870D01*
X207564Y207866D01*
X207703Y207875D01*
X207842Y207879D01*
X207862Y207885D01*
X207882Y207886D01*
X208014Y207929D01*
X208148Y207968D01*
X208165Y207978D01*
X208184Y207984D01*
X208302Y208059D01*
X208422Y208129D01*
X208443Y208148D01*
X208453Y208154D01*
X208467Y208169D01*
X208542Y208236D01*
X209048Y208741D01*
X225152Y208741D01*
X226257Y207636D01*
X226335Y207576D01*
X226407Y207508D01*
X226460Y207479D01*
X226508Y207442D01*
X226599Y207402D01*
X226686Y207354D01*
X226744Y207339D01*
X226800Y207315D01*
X226898Y207300D01*
X226993Y207275D01*
X227094Y207269D01*
X227114Y207265D01*
X227126Y207267D01*
X227154Y207265D01*
X229290Y207265D01*
X229408Y207280D01*
X229527Y207287D01*
X229565Y207300D01*
X229606Y207305D01*
X229716Y207348D01*
X229829Y207385D01*
X229864Y207407D01*
X229901Y207422D01*
X229997Y207491D01*
X230098Y207555D01*
X230126Y207585D01*
X230159Y207608D01*
X230235Y207700D01*
X230316Y207787D01*
X230336Y207822D01*
X230361Y207853D01*
X230412Y207961D01*
X230470Y208065D01*
X230480Y208105D01*
X230497Y208141D01*
X230519Y208258D01*
X230549Y208373D01*
X230553Y208433D01*
X230557Y208453D01*
X230555Y208474D01*
X230559Y208534D01*
X230559Y211477D01*
X230547Y211575D01*
X230544Y211674D01*
X230527Y211732D01*
X230519Y211792D01*
X230483Y211884D01*
X230455Y211979D01*
X230425Y212031D01*
X230402Y212088D01*
X230344Y212168D01*
X230294Y212253D01*
X230228Y212329D01*
X230216Y212345D01*
X230206Y212353D01*
X230188Y212374D01*
X216070Y226491D01*
X216070Y230595D01*
X216055Y230713D01*
X216048Y230831D01*
X216035Y230870D01*
X216030Y230910D01*
X215987Y231021D01*
X215950Y231134D01*
X215928Y231168D01*
X215913Y231206D01*
X215844Y231302D01*
X215780Y231403D01*
X215750Y231430D01*
X215727Y231463D01*
X215635Y231539D01*
X215548Y231621D01*
X215513Y231640D01*
X215482Y231666D01*
X215374Y231717D01*
X215270Y231774D01*
X215230Y231784D01*
X215194Y231801D01*
X215077Y231824D01*
X214962Y231854D01*
X214902Y231857D01*
X214882Y231861D01*
X214861Y231860D01*
X214801Y231864D01*
X213402Y231864D01*
X211914Y233352D01*
X211914Y243247D01*
X211901Y243345D01*
X211898Y243444D01*
X211882Y243503D01*
X211874Y243563D01*
X211837Y243655D01*
X211810Y243750D01*
X211779Y243802D01*
X211757Y243858D01*
X211699Y243938D01*
X211648Y244024D01*
X211582Y244099D01*
X211570Y244116D01*
X211561Y244123D01*
X211542Y244145D01*
X193423Y262264D01*
X193345Y262324D01*
X193273Y262392D01*
X193220Y262421D01*
X193172Y262458D01*
X193081Y262498D01*
X192994Y262546D01*
X192936Y262561D01*
X192880Y262585D01*
X192782Y262600D01*
X192686Y262625D01*
X192586Y262631D01*
X192566Y262635D01*
X192554Y262633D01*
X192526Y262635D01*
X144366Y262635D01*
X129285Y277716D01*
X129285Y279875D01*
X129273Y279974D01*
X129270Y280073D01*
X129253Y280131D01*
X129245Y280191D01*
X129209Y280283D01*
X129181Y280378D01*
X129151Y280430D01*
X129128Y280487D01*
X129070Y280567D01*
X129020Y280652D01*
X128954Y280727D01*
X128942Y280744D01*
X128932Y280752D01*
X128914Y280773D01*
X127814Y281873D01*
X127814Y303693D01*
X128914Y304793D01*
X128974Y304871D01*
X129042Y304944D01*
X129071Y304997D01*
X129108Y305044D01*
X129148Y305135D01*
X129196Y305222D01*
X129211Y305281D01*
X129235Y305336D01*
X129250Y305434D01*
X129275Y305530D01*
X129281Y305630D01*
X129285Y305650D01*
X129283Y305663D01*
X129285Y305691D01*
X129285Y308941D01*
X129273Y309039D01*
X129270Y309138D01*
X129253Y309196D01*
X129245Y309256D01*
X129209Y309348D01*
X129181Y309443D01*
X129151Y309495D01*
X129128Y309552D01*
X129070Y309632D01*
X129020Y309717D01*
X128954Y309793D01*
X128942Y309809D01*
X128932Y309817D01*
X128914Y309838D01*
X122131Y316621D01*
X122053Y316681D01*
X121981Y316749D01*
X121928Y316778D01*
X121880Y316815D01*
X121789Y316855D01*
X121702Y316903D01*
X121644Y316918D01*
X121588Y316942D01*
X121490Y316957D01*
X121394Y316982D01*
X121294Y316988D01*
X121274Y316992D01*
X121262Y316990D01*
X121234Y316992D01*
X120960Y316992D01*
X118952Y317824D01*
X118758Y318018D01*
X118680Y318078D01*
X118608Y318146D01*
X118555Y318175D01*
X118507Y318212D01*
X118416Y318252D01*
X118330Y318300D01*
X118271Y318315D01*
X118215Y318339D01*
X118117Y318354D01*
X118022Y318379D01*
X117922Y318385D01*
X117901Y318389D01*
X117889Y318387D01*
X117861Y318389D01*
X116661Y318389D01*
X116543Y318374D01*
X116424Y318367D01*
X116386Y318354D01*
X116345Y318349D01*
X116235Y318306D01*
X116122Y318269D01*
X116087Y318247D01*
X116050Y318232D01*
X115954Y318163D01*
X115853Y318099D01*
X115825Y318069D01*
X115792Y318046D01*
X115716Y317954D01*
X115635Y317867D01*
X115615Y317832D01*
X115590Y317801D01*
X115539Y317693D01*
X115481Y317589D01*
X115471Y317549D01*
X115454Y317513D01*
X115432Y317396D01*
X115402Y317281D01*
X115398Y317221D01*
X115394Y317201D01*
X115396Y317180D01*
X115392Y317120D01*
X115392Y316797D01*
X113903Y315309D01*
X101997Y315309D01*
X100508Y316797D01*
X100508Y328111D01*
X101725Y329327D01*
X101802Y329427D01*
X101884Y329522D01*
X101899Y329552D01*
X101920Y329579D01*
X101970Y329694D01*
X102026Y329807D01*
X102033Y329840D01*
X102046Y329870D01*
X102066Y329995D01*
X102092Y330118D01*
X102091Y330151D01*
X102096Y330185D01*
X102084Y330310D01*
X102079Y330435D01*
X102069Y330468D01*
X102066Y330501D01*
X102024Y330620D01*
X101987Y330740D01*
X101970Y330769D01*
X101958Y330800D01*
X101888Y330905D01*
X101823Y331012D01*
X101799Y331036D01*
X101780Y331064D01*
X101685Y331147D01*
X101596Y331235D01*
X101555Y331262D01*
X101541Y331274D01*
X101522Y331284D01*
X101496Y331301D01*
X101016Y331782D01*
X100681Y332361D01*
X100508Y333007D01*
X100508Y335644D01*
X106918Y335644D01*
X107036Y335659D01*
X107154Y335667D01*
X107193Y335679D01*
X107233Y335684D01*
X107344Y335728D01*
X107457Y335765D01*
X107491Y335786D01*
X107529Y335801D01*
X107625Y335871D01*
X107726Y335935D01*
X107753Y335964D01*
X107786Y335988D01*
X107862Y336080D01*
X107944Y336167D01*
X107954Y336185D01*
X108004Y336106D01*
X108033Y336078D01*
X108057Y336045D01*
X108149Y335969D01*
X108235Y335888D01*
X108271Y335868D01*
X108302Y335842D01*
X108410Y335792D01*
X108514Y335734D01*
X108553Y335724D01*
X108590Y335707D01*
X108706Y335684D01*
X108822Y335655D01*
X108882Y335651D01*
X108902Y335647D01*
X108922Y335648D01*
X108982Y335644D01*
X115392Y335644D01*
X115392Y333007D01*
X115219Y332361D01*
X114884Y331782D01*
X114391Y331288D01*
X114338Y331248D01*
X114234Y331177D01*
X114212Y331152D01*
X114185Y331132D01*
X114107Y331033D01*
X114024Y330939D01*
X114008Y330909D01*
X113987Y330883D01*
X113936Y330768D01*
X113879Y330656D01*
X113872Y330623D01*
X113858Y330592D01*
X113837Y330468D01*
X113809Y330345D01*
X113810Y330312D01*
X113805Y330279D01*
X113815Y330153D01*
X113819Y330028D01*
X113828Y329995D01*
X113831Y329962D01*
X113872Y329843D01*
X113907Y329722D01*
X113924Y329693D01*
X113936Y329661D01*
X114005Y329556D01*
X114069Y329448D01*
X114101Y329412D01*
X114111Y329396D01*
X114127Y329382D01*
X114175Y329327D01*
X115392Y328111D01*
X115392Y327788D01*
X115407Y327670D01*
X115414Y327551D01*
X115427Y327513D01*
X115432Y327472D01*
X115475Y327362D01*
X115512Y327249D01*
X115534Y327214D01*
X115549Y327177D01*
X115618Y327081D01*
X115682Y326980D01*
X115712Y326952D01*
X115735Y326919D01*
X115827Y326843D01*
X115914Y326762D01*
X115949Y326742D01*
X115980Y326717D01*
X116088Y326666D01*
X116192Y326608D01*
X116232Y326598D01*
X116268Y326581D01*
X116385Y326559D01*
X116500Y326529D01*
X116560Y326525D01*
X116580Y326521D01*
X116601Y326523D01*
X116661Y326519D01*
X117861Y326519D01*
X117959Y326531D01*
X118058Y326534D01*
X118116Y326551D01*
X118176Y326559D01*
X118269Y326595D01*
X118364Y326623D01*
X118416Y326653D01*
X118472Y326676D01*
X118552Y326734D01*
X118638Y326784D01*
X118713Y326850D01*
X118729Y326862D01*
X118737Y326872D01*
X118758Y326890D01*
X118952Y327084D01*
X120960Y327916D01*
X123132Y327916D01*
X125140Y327084D01*
X126676Y325548D01*
X127508Y323540D01*
X127508Y323266D01*
X127520Y323168D01*
X127523Y323069D01*
X127540Y323011D01*
X127548Y322951D01*
X127584Y322859D01*
X127612Y322764D01*
X127642Y322712D01*
X127665Y322655D01*
X127723Y322575D01*
X127773Y322490D01*
X127839Y322414D01*
X127851Y322398D01*
X127861Y322390D01*
X127879Y322369D01*
X132140Y318108D01*
X132180Y318077D01*
X132213Y318041D01*
X132305Y317980D01*
X132392Y317913D01*
X132437Y317893D01*
X132479Y317866D01*
X132583Y317830D01*
X132684Y317787D01*
X132733Y317779D01*
X132780Y317763D01*
X132889Y317754D01*
X132998Y317737D01*
X133047Y317741D01*
X133097Y317737D01*
X133205Y317756D01*
X133314Y317767D01*
X133361Y317783D01*
X133410Y317792D01*
X133510Y317837D01*
X133614Y317874D01*
X133655Y317902D01*
X133700Y317922D01*
X133786Y317991D01*
X133877Y318053D01*
X133910Y318090D01*
X133948Y318121D01*
X134014Y318209D01*
X134087Y318291D01*
X134110Y318335D01*
X134140Y318375D01*
X134211Y318520D01*
X135070Y320594D01*
X136606Y322130D01*
X138614Y322962D01*
X138888Y322962D01*
X138986Y322974D01*
X139085Y322977D01*
X139143Y322994D01*
X139203Y323002D01*
X139295Y323038D01*
X139390Y323066D01*
X139442Y323096D01*
X139499Y323119D01*
X139579Y323177D01*
X139664Y323227D01*
X139740Y323293D01*
X139756Y323305D01*
X139764Y323315D01*
X139785Y323333D01*
X141614Y325162D01*
X141674Y325240D01*
X141742Y325312D01*
X141771Y325365D01*
X141808Y325413D01*
X141848Y325504D01*
X141896Y325591D01*
X141911Y325649D01*
X141935Y325705D01*
X141950Y325803D01*
X141975Y325899D01*
X141981Y325999D01*
X141985Y326019D01*
X141983Y326031D01*
X141985Y326059D01*
X141985Y329309D01*
X141973Y329408D01*
X141970Y329507D01*
X141953Y329565D01*
X141945Y329625D01*
X141909Y329717D01*
X141881Y329812D01*
X141851Y329864D01*
X141828Y329921D01*
X141770Y330001D01*
X141720Y330086D01*
X141654Y330161D01*
X141642Y330178D01*
X141632Y330186D01*
X141614Y330207D01*
X140516Y331305D01*
X140417Y331382D01*
X140321Y331464D01*
X140291Y331479D01*
X140264Y331500D01*
X140149Y331550D01*
X140036Y331606D01*
X140003Y331613D01*
X139972Y331626D01*
X139848Y331646D01*
X139725Y331672D01*
X139692Y331671D01*
X139658Y331676D01*
X139533Y331664D01*
X139407Y331659D01*
X139375Y331649D01*
X139342Y331646D01*
X139223Y331604D01*
X139103Y331567D01*
X139074Y331550D01*
X139042Y331539D01*
X138938Y331468D01*
X138831Y331403D01*
X138807Y331379D01*
X138779Y331360D01*
X138696Y331266D01*
X138608Y331176D01*
X138581Y331135D01*
X138569Y331122D01*
X138559Y331102D01*
X138519Y331042D01*
X138379Y330799D01*
X137905Y330326D01*
X137326Y329991D01*
X136680Y329818D01*
X134847Y329818D01*
X134847Y341989D01*
X134832Y342107D01*
X134825Y342226D01*
X134823Y342231D01*
X134837Y342284D01*
X134841Y342344D01*
X134844Y342364D01*
X134843Y342385D01*
X134847Y342445D01*
X134847Y354616D01*
X136680Y354616D01*
X137326Y354443D01*
X137905Y354108D01*
X138379Y353635D01*
X138519Y353392D01*
X138595Y353292D01*
X138665Y353188D01*
X138691Y353166D01*
X138711Y353139D01*
X138810Y353061D01*
X138904Y352978D01*
X138934Y352962D01*
X138960Y352941D01*
X139075Y352890D01*
X139187Y352833D01*
X139220Y352825D01*
X139251Y352812D01*
X139375Y352791D01*
X139497Y352763D01*
X139531Y352764D01*
X139564Y352759D01*
X139690Y352769D01*
X139815Y352773D01*
X139848Y352782D01*
X139881Y352785D01*
X140000Y352826D01*
X140121Y352861D01*
X140150Y352878D01*
X140182Y352889D01*
X140286Y352959D01*
X140395Y353023D01*
X140431Y353055D01*
X140447Y353065D01*
X140461Y353081D01*
X140515Y353129D01*
X140746Y353360D01*
X140819Y353454D01*
X140898Y353543D01*
X140917Y353579D01*
X140941Y353611D01*
X140989Y353720D01*
X141043Y353827D01*
X141052Y353866D01*
X141068Y353903D01*
X141086Y354021D01*
X141112Y354137D01*
X141111Y354177D01*
X141118Y354217D01*
X141106Y354336D01*
X141103Y354455D01*
X141092Y354494D01*
X141088Y354534D01*
X141048Y354646D01*
X141014Y354760D01*
X140994Y354795D01*
X140980Y354833D01*
X140913Y354932D01*
X140853Y355034D01*
X140813Y355080D01*
X140802Y355096D01*
X140786Y355110D01*
X140746Y355155D01*
X138388Y357514D01*
X138310Y357574D01*
X138238Y357642D01*
X138185Y357671D01*
X138137Y357708D01*
X138046Y357748D01*
X137959Y357796D01*
X137901Y357811D01*
X137845Y357835D01*
X137747Y357850D01*
X137651Y357875D01*
X137551Y357881D01*
X137531Y357885D01*
X137519Y357883D01*
X137491Y357885D01*
X60745Y357885D01*
X60627Y357870D01*
X60509Y357863D01*
X60470Y357850D01*
X60430Y357845D01*
X60319Y357802D01*
X60206Y357765D01*
X60172Y357743D01*
X60134Y357728D01*
X60038Y357659D01*
X59937Y357595D01*
X59910Y357565D01*
X59877Y357542D01*
X59801Y357450D01*
X59719Y357363D01*
X59700Y357328D01*
X59674Y357297D01*
X59623Y357189D01*
X59566Y357085D01*
X59556Y357045D01*
X59539Y357009D01*
X59516Y356892D01*
X59486Y356777D01*
X59483Y356717D01*
X59479Y356697D01*
X59480Y356676D01*
X59476Y356616D01*
X59476Y355603D01*
X57988Y354115D01*
X49912Y354115D01*
X48424Y355603D01*
X48424Y369193D01*
X49912Y370681D01*
X57988Y370681D01*
X59476Y369193D01*
X59476Y367284D01*
X59491Y367166D01*
X59499Y367047D01*
X59511Y367009D01*
X59516Y366968D01*
X59560Y366858D01*
X59597Y366745D01*
X59618Y366710D01*
X59633Y366673D01*
X59703Y366577D01*
X59767Y366476D01*
X59796Y366448D01*
X59820Y366415D01*
X59912Y366339D01*
X59998Y366258D01*
X60034Y366238D01*
X60065Y366213D01*
X60173Y366162D01*
X60277Y366104D01*
X60316Y366094D01*
X60353Y366077D01*
X60469Y366055D01*
X60585Y366025D01*
X60645Y366021D01*
X60665Y366017D01*
X60685Y366019D01*
X60745Y366015D01*
X65863Y366015D01*
X66000Y366032D01*
X66139Y366045D01*
X66158Y366052D01*
X66178Y366055D01*
X66307Y366106D01*
X66438Y366153D01*
X66455Y366164D01*
X66474Y366172D01*
X66586Y366253D01*
X66701Y366331D01*
X66715Y366347D01*
X66731Y366358D01*
X66820Y366466D01*
X66912Y366570D01*
X66921Y366588D01*
X66934Y366603D01*
X66993Y366729D01*
X67056Y366853D01*
X67061Y366873D01*
X67070Y366891D01*
X67096Y367027D01*
X67126Y367163D01*
X67126Y367184D01*
X67129Y367203D01*
X67121Y367342D01*
X67116Y367481D01*
X67111Y367501D01*
X67110Y367521D01*
X67067Y367653D01*
X67028Y367787D01*
X67018Y367804D01*
X67012Y367823D01*
X66937Y367941D01*
X66867Y368061D01*
X66848Y368082D01*
X66841Y368092D01*
X66826Y368106D01*
X66760Y368181D01*
X64139Y370802D01*
X64139Y372295D01*
X64124Y372413D01*
X64117Y372531D01*
X64104Y372570D01*
X64099Y372610D01*
X64056Y372721D01*
X64019Y372834D01*
X63997Y372868D01*
X63982Y372906D01*
X63913Y373002D01*
X63849Y373103D01*
X63819Y373130D01*
X63796Y373163D01*
X63704Y373239D01*
X63617Y373321D01*
X63582Y373340D01*
X63551Y373366D01*
X63443Y373417D01*
X63339Y373474D01*
X63299Y373484D01*
X63263Y373501D01*
X63146Y373524D01*
X63031Y373554D01*
X62971Y373557D01*
X62951Y373561D01*
X62930Y373560D01*
X62870Y373564D01*
X62797Y373564D01*
X61309Y375052D01*
X61309Y381621D01*
X61296Y381719D01*
X61293Y381818D01*
X61277Y381877D01*
X61269Y381937D01*
X61232Y382029D01*
X61205Y382124D01*
X61174Y382176D01*
X61152Y382232D01*
X61094Y382312D01*
X61043Y382398D01*
X60977Y382473D01*
X60965Y382490D01*
X60956Y382497D01*
X60937Y382519D01*
X59435Y384020D01*
X59435Y401318D01*
X59432Y401347D01*
X59434Y401376D01*
X59412Y401504D01*
X59395Y401633D01*
X59385Y401661D01*
X59380Y401690D01*
X59326Y401808D01*
X59278Y401929D01*
X59261Y401953D01*
X59249Y401980D01*
X59168Y402081D01*
X59092Y402186D01*
X59069Y402205D01*
X59050Y402228D01*
X58947Y402306D01*
X58847Y402389D01*
X58820Y402402D01*
X58796Y402419D01*
X58652Y402490D01*
X57744Y402866D01*
X54886Y405724D01*
X53339Y409459D01*
X53339Y428741D01*
X54886Y432476D01*
X57744Y435334D01*
X61479Y436881D01*
X65521Y436881D01*
X69256Y435334D01*
X72114Y432476D01*
X73661Y428741D01*
X73661Y409459D01*
X72114Y405724D01*
X69256Y402866D01*
X68348Y402490D01*
X68323Y402476D01*
X68295Y402467D01*
X68185Y402397D01*
X68072Y402333D01*
X68051Y402312D01*
X68026Y402296D01*
X67937Y402202D01*
X67844Y402111D01*
X67828Y402086D01*
X67808Y402065D01*
X67745Y401951D01*
X67677Y401840D01*
X67669Y401812D01*
X67654Y401786D01*
X67622Y401661D01*
X67584Y401536D01*
X67582Y401507D01*
X67575Y401478D01*
X67565Y401318D01*
X67565Y389705D01*
X67580Y389587D01*
X67587Y389469D01*
X67600Y389430D01*
X67605Y389390D01*
X67648Y389279D01*
X67685Y389166D01*
X67707Y389132D01*
X67722Y389094D01*
X67791Y388998D01*
X67855Y388897D01*
X67885Y388870D01*
X67908Y388837D01*
X68000Y388761D01*
X68087Y388679D01*
X68122Y388660D01*
X68153Y388634D01*
X68261Y388583D01*
X68365Y388526D01*
X68405Y388516D01*
X68441Y388499D01*
X68558Y388476D01*
X68673Y388446D01*
X68733Y388443D01*
X68753Y388439D01*
X68774Y388440D01*
X68834Y388436D01*
X73611Y388436D01*
X75302Y386745D01*
X75397Y386672D01*
X75486Y386593D01*
X75522Y386575D01*
X75554Y386550D01*
X75663Y386502D01*
X75769Y386448D01*
X75808Y386439D01*
X75846Y386423D01*
X75963Y386405D01*
X76079Y386379D01*
X76120Y386380D01*
X76160Y386374D01*
X76278Y386385D01*
X76397Y386388D01*
X76436Y386400D01*
X76476Y386403D01*
X76589Y386444D01*
X76703Y386477D01*
X76737Y386497D01*
X76776Y386511D01*
X76874Y386578D01*
X76977Y386638D01*
X77022Y386678D01*
X77039Y386690D01*
X77052Y386705D01*
X77097Y386745D01*
X78789Y388436D01*
X83566Y388436D01*
X83684Y388451D01*
X83803Y388459D01*
X83841Y388471D01*
X83882Y388476D01*
X83992Y388520D01*
X84105Y388557D01*
X84140Y388578D01*
X84177Y388593D01*
X84273Y388663D01*
X84374Y388727D01*
X84402Y388756D01*
X84435Y388780D01*
X84511Y388872D01*
X84592Y388958D01*
X84612Y388994D01*
X84637Y389025D01*
X84688Y389133D01*
X84746Y389237D01*
X84756Y389276D01*
X84773Y389313D01*
X84795Y389429D01*
X84825Y389545D01*
X84829Y389605D01*
X84833Y389625D01*
X84831Y389645D01*
X84835Y389705D01*
X84835Y401318D01*
X84832Y401347D01*
X84834Y401376D01*
X84812Y401504D01*
X84795Y401633D01*
X84785Y401661D01*
X84780Y401690D01*
X84726Y401808D01*
X84678Y401929D01*
X84661Y401953D01*
X84649Y401980D01*
X84568Y402081D01*
X84492Y402186D01*
X84469Y402205D01*
X84450Y402228D01*
X84347Y402306D01*
X84247Y402389D01*
X84220Y402402D01*
X84196Y402419D01*
X84052Y402490D01*
X83144Y402866D01*
X80286Y405724D01*
X78739Y409459D01*
X78739Y428741D01*
X80286Y432476D01*
X83144Y435334D01*
X86879Y436881D01*
X90921Y436881D01*
X94656Y435334D01*
X97514Y432476D01*
X99061Y428741D01*
X99061Y409459D01*
X97514Y405724D01*
X94656Y402866D01*
X93748Y402490D01*
X93723Y402476D01*
X93695Y402467D01*
X93585Y402397D01*
X93472Y402333D01*
X93451Y402312D01*
X93426Y402296D01*
X93337Y402202D01*
X93244Y402111D01*
X93228Y402086D01*
X93208Y402065D01*
X93145Y401951D01*
X93077Y401840D01*
X93069Y401812D01*
X93054Y401786D01*
X93022Y401661D01*
X92984Y401536D01*
X92982Y401507D01*
X92975Y401478D01*
X92965Y401318D01*
X92965Y384020D01*
X91463Y382519D01*
X91402Y382440D01*
X91334Y382368D01*
X91305Y382315D01*
X91268Y382267D01*
X91229Y382176D01*
X91181Y382090D01*
X91166Y382031D01*
X91142Y381975D01*
X91126Y381878D01*
X91101Y381782D01*
X91095Y381682D01*
X91092Y381661D01*
X91093Y381649D01*
X91091Y381621D01*
X91091Y375052D01*
X90571Y374531D01*
X90486Y374422D01*
X90397Y374315D01*
X90388Y374296D01*
X90376Y374280D01*
X90320Y374152D01*
X90261Y374027D01*
X90257Y374007D01*
X90249Y373988D01*
X90227Y373850D01*
X90201Y373714D01*
X90203Y373694D01*
X90199Y373674D01*
X90213Y373535D01*
X90221Y373397D01*
X90227Y373378D01*
X90229Y373358D01*
X90276Y373227D01*
X90319Y373095D01*
X90330Y373077D01*
X90337Y373058D01*
X90415Y372944D01*
X90489Y372826D01*
X90504Y372812D01*
X90515Y372795D01*
X90620Y372703D01*
X90721Y372608D01*
X90739Y372598D01*
X90754Y372585D01*
X90878Y372522D01*
X90999Y372454D01*
X91019Y372449D01*
X91037Y372440D01*
X91173Y372410D01*
X91307Y372375D01*
X91335Y372373D01*
X91347Y372370D01*
X91368Y372371D01*
X91468Y372365D01*
X147734Y372365D01*
X162815Y357284D01*
X162815Y355125D01*
X162827Y355026D01*
X162830Y354927D01*
X162847Y354869D01*
X162855Y354809D01*
X162891Y354717D01*
X162919Y354622D01*
X162949Y354570D01*
X162972Y354513D01*
X163030Y354433D01*
X163080Y354348D01*
X163146Y354273D01*
X163158Y354256D01*
X163168Y354248D01*
X163186Y354227D01*
X164203Y353211D01*
X164297Y353138D01*
X164386Y353059D01*
X164422Y353041D01*
X164454Y353016D01*
X164563Y352969D01*
X164669Y352915D01*
X164708Y352906D01*
X164746Y352890D01*
X164863Y352871D01*
X164979Y352845D01*
X165020Y352846D01*
X165060Y352840D01*
X165178Y352851D01*
X165297Y352855D01*
X165336Y352866D01*
X165376Y352870D01*
X165489Y352910D01*
X165603Y352943D01*
X165638Y352964D01*
X165676Y352977D01*
X165774Y353044D01*
X165877Y353105D01*
X165922Y353145D01*
X165939Y353156D01*
X165952Y353171D01*
X165998Y353211D01*
X167014Y354227D01*
X167074Y354305D01*
X167142Y354378D01*
X167171Y354431D01*
X167208Y354478D01*
X167248Y354569D01*
X167296Y354656D01*
X167311Y354715D01*
X167335Y354770D01*
X167350Y354868D01*
X167375Y354964D01*
X167381Y355064D01*
X167385Y355084D01*
X167383Y355097D01*
X167385Y355125D01*
X167385Y358930D01*
X194287Y385831D01*
X194348Y385910D01*
X194416Y385982D01*
X194445Y386035D01*
X194482Y386083D01*
X194521Y386174D01*
X194569Y386260D01*
X194584Y386319D01*
X194608Y386375D01*
X194624Y386473D01*
X194649Y386568D01*
X194655Y386668D01*
X194658Y386689D01*
X194657Y386701D01*
X194659Y386729D01*
X194659Y393298D01*
X196147Y394786D01*
X206961Y394786D01*
X208653Y393095D01*
X208747Y393022D01*
X208836Y392943D01*
X208872Y392925D01*
X208904Y392900D01*
X209013Y392852D01*
X209119Y392798D01*
X209158Y392789D01*
X209196Y392773D01*
X209313Y392755D01*
X209429Y392729D01*
X209470Y392730D01*
X209510Y392724D01*
X209628Y392735D01*
X209747Y392738D01*
X209786Y392750D01*
X209826Y392753D01*
X209938Y392794D01*
X210053Y392827D01*
X210088Y392847D01*
X210126Y392861D01*
X210224Y392928D01*
X210327Y392988D01*
X210372Y393028D01*
X210389Y393040D01*
X210402Y393055D01*
X210448Y393095D01*
X212139Y394786D01*
X222953Y394786D01*
X224441Y393298D01*
X224441Y392684D01*
X224456Y392566D01*
X224464Y392447D01*
X224476Y392409D01*
X224481Y392368D01*
X224525Y392258D01*
X224562Y392145D01*
X224583Y392110D01*
X224598Y392073D01*
X224668Y391977D01*
X224732Y391876D01*
X224761Y391848D01*
X224785Y391815D01*
X224877Y391739D01*
X224963Y391658D01*
X224999Y391638D01*
X225030Y391613D01*
X225138Y391562D01*
X225242Y391504D01*
X225281Y391494D01*
X225318Y391477D01*
X225434Y391455D01*
X225550Y391425D01*
X225610Y391421D01*
X225630Y391417D01*
X225650Y391419D01*
X225710Y391415D01*
X254331Y391415D01*
X254429Y391427D01*
X254528Y391430D01*
X254586Y391447D01*
X254646Y391455D01*
X254738Y391491D01*
X254833Y391519D01*
X254885Y391549D01*
X254942Y391572D01*
X255022Y391630D01*
X255107Y391680D01*
X255183Y391746D01*
X255199Y391758D01*
X255207Y391768D01*
X255228Y391786D01*
X269712Y406270D01*
X269730Y406294D01*
X269752Y406313D01*
X269827Y406419D01*
X269907Y406522D01*
X269919Y406549D01*
X269936Y406573D01*
X269982Y406694D01*
X270033Y406813D01*
X270038Y406843D01*
X270048Y406870D01*
X270063Y406999D01*
X270083Y407128D01*
X270080Y407157D01*
X270084Y407186D01*
X270065Y407315D01*
X270053Y407444D01*
X270043Y407472D01*
X270039Y407501D01*
X269987Y407654D01*
X269239Y409459D01*
X269239Y428741D01*
X270786Y432476D01*
X273644Y435334D01*
X277379Y436881D01*
X281421Y436881D01*
X285156Y435334D01*
X288014Y432476D01*
X289561Y428741D01*
X289561Y409459D01*
X288014Y405724D01*
X285156Y402866D01*
X281421Y401319D01*
X277379Y401319D01*
X277370Y401323D01*
X277341Y401331D01*
X277315Y401344D01*
X277188Y401373D01*
X277063Y401407D01*
X277033Y401408D01*
X277005Y401414D01*
X276875Y401410D01*
X276745Y401412D01*
X276716Y401405D01*
X276687Y401404D01*
X276562Y401368D01*
X276436Y401338D01*
X276410Y401324D01*
X276381Y401316D01*
X276269Y401250D01*
X276155Y401189D01*
X276133Y401169D01*
X276107Y401154D01*
X275986Y401048D01*
X258224Y383285D01*
X225710Y383285D01*
X225592Y383270D01*
X225474Y383263D01*
X225435Y383250D01*
X225395Y383245D01*
X225284Y383202D01*
X225171Y383165D01*
X225137Y383143D01*
X225099Y383128D01*
X225003Y383059D01*
X224902Y382995D01*
X224875Y382965D01*
X224842Y382942D01*
X224766Y382850D01*
X224684Y382763D01*
X224665Y382728D01*
X224639Y382697D01*
X224588Y382589D01*
X224531Y382485D01*
X224521Y382445D01*
X224504Y382409D01*
X224481Y382292D01*
X224451Y382177D01*
X224448Y382117D01*
X224444Y382097D01*
X224444Y382090D01*
X224444Y382088D01*
X224445Y382072D01*
X224441Y382016D01*
X224441Y381402D01*
X222953Y379914D01*
X212139Y379914D01*
X210448Y381605D01*
X210353Y381678D01*
X210264Y381757D01*
X210228Y381775D01*
X210196Y381800D01*
X210087Y381848D01*
X209981Y381902D01*
X209942Y381911D01*
X209904Y381927D01*
X209787Y381945D01*
X209671Y381971D01*
X209630Y381970D01*
X209590Y381976D01*
X209472Y381965D01*
X209353Y381962D01*
X209314Y381950D01*
X209274Y381947D01*
X209161Y381906D01*
X209047Y381873D01*
X209013Y381853D01*
X208974Y381839D01*
X208876Y381772D01*
X208773Y381712D01*
X208728Y381672D01*
X208711Y381660D01*
X208698Y381645D01*
X208653Y381605D01*
X206961Y379914D01*
X200392Y379914D01*
X200294Y379901D01*
X200195Y379898D01*
X200136Y379882D01*
X200076Y379874D01*
X199984Y379837D01*
X199889Y379810D01*
X199837Y379779D01*
X199781Y379757D01*
X199701Y379699D01*
X199615Y379648D01*
X199540Y379582D01*
X199523Y379570D01*
X199516Y379561D01*
X199494Y379542D01*
X175931Y355978D01*
X175857Y355884D01*
X175779Y355795D01*
X175760Y355759D01*
X175736Y355727D01*
X175688Y355617D01*
X175634Y355512D01*
X175625Y355472D01*
X175609Y355435D01*
X175591Y355317D01*
X175565Y355201D01*
X175566Y355161D01*
X175559Y355121D01*
X175571Y355002D01*
X175574Y354883D01*
X175585Y354845D01*
X175589Y354804D01*
X175629Y354692D01*
X175663Y354578D01*
X175683Y354543D01*
X175697Y354505D01*
X175764Y354406D01*
X175824Y354304D01*
X175864Y354259D01*
X175875Y354242D01*
X175891Y354228D01*
X175931Y354183D01*
X176986Y353127D01*
X176986Y331849D01*
X177004Y331711D01*
X177017Y331572D01*
X177024Y331553D01*
X177026Y331533D01*
X177077Y331404D01*
X177124Y331273D01*
X177136Y331256D01*
X177143Y331238D01*
X177225Y331125D01*
X177303Y331010D01*
X177318Y330997D01*
X177330Y330980D01*
X177437Y330891D01*
X177541Y330800D01*
X177559Y330790D01*
X177575Y330777D01*
X177701Y330718D01*
X177825Y330655D01*
X177844Y330651D01*
X177863Y330642D01*
X177999Y330616D01*
X178135Y330585D01*
X178155Y330586D01*
X178175Y330582D01*
X178314Y330591D01*
X178453Y330595D01*
X178472Y330601D01*
X178492Y330602D01*
X178625Y330645D01*
X178758Y330683D01*
X178776Y330694D01*
X178795Y330700D01*
X178912Y330774D01*
X179032Y330845D01*
X179053Y330864D01*
X179064Y330870D01*
X179078Y330885D01*
X179153Y330951D01*
X179714Y331512D01*
X182466Y334265D01*
X226391Y334265D01*
X226489Y334277D01*
X226588Y334280D01*
X226646Y334297D01*
X226706Y334305D01*
X226798Y334341D01*
X226893Y334369D01*
X226945Y334399D01*
X227002Y334422D01*
X227082Y334480D01*
X227167Y334530D01*
X227243Y334596D01*
X227259Y334608D01*
X227267Y334618D01*
X227288Y334636D01*
X233544Y340893D01*
X233629Y341002D01*
X233718Y341109D01*
X233727Y341128D01*
X233739Y341144D01*
X233795Y341272D01*
X233854Y341397D01*
X233857Y341417D01*
X233865Y341436D01*
X233887Y341574D01*
X233913Y341710D01*
X233912Y341730D01*
X233915Y341750D01*
X233902Y341889D01*
X233894Y342027D01*
X233887Y342046D01*
X233885Y342066D01*
X233838Y342198D01*
X233796Y342329D01*
X233785Y342347D01*
X233778Y342366D01*
X233700Y342481D01*
X233625Y342598D01*
X233611Y342612D01*
X233599Y342629D01*
X233495Y342721D01*
X233394Y342816D01*
X233376Y342826D01*
X233361Y342839D01*
X233237Y342903D01*
X233115Y342970D01*
X233096Y342975D01*
X233078Y342984D01*
X232942Y343014D01*
X232807Y343049D01*
X232779Y343051D01*
X232767Y343054D01*
X232747Y343053D01*
X232647Y343059D01*
X231648Y343059D01*
X230159Y344548D01*
X230159Y366652D01*
X231648Y368141D01*
X246752Y368141D01*
X248241Y366652D01*
X248241Y344548D01*
X246752Y343059D01*
X244534Y343059D01*
X244416Y343044D01*
X244297Y343037D01*
X244259Y343024D01*
X244218Y343019D01*
X244108Y342976D01*
X243995Y342939D01*
X243960Y342917D01*
X243923Y342902D01*
X243827Y342833D01*
X243726Y342769D01*
X243698Y342739D01*
X243665Y342716D01*
X243589Y342624D01*
X243508Y342537D01*
X243488Y342502D01*
X243463Y342471D01*
X243412Y342363D01*
X243354Y342259D01*
X243344Y342219D01*
X243327Y342183D01*
X243305Y342066D01*
X243275Y341951D01*
X243271Y341891D01*
X243267Y341871D01*
X243269Y341850D01*
X243265Y341790D01*
X243265Y339116D01*
X232071Y327922D01*
X231998Y327828D01*
X231919Y327739D01*
X231901Y327703D01*
X231876Y327671D01*
X231829Y327562D01*
X231775Y327456D01*
X231766Y327417D01*
X231750Y327379D01*
X231731Y327262D01*
X231705Y327146D01*
X231706Y327105D01*
X231700Y327065D01*
X231711Y326947D01*
X231715Y326828D01*
X231726Y326789D01*
X231730Y326749D01*
X231770Y326636D01*
X231803Y326522D01*
X231823Y326487D01*
X231837Y326449D01*
X231904Y326351D01*
X231965Y326248D01*
X232004Y326203D01*
X232016Y326186D01*
X232031Y326173D01*
X232071Y326127D01*
X243265Y314934D01*
X243265Y305910D01*
X243280Y305792D01*
X243287Y305673D01*
X243300Y305635D01*
X243305Y305594D01*
X243348Y305484D01*
X243385Y305371D01*
X243407Y305336D01*
X243422Y305299D01*
X243491Y305203D01*
X243555Y305102D01*
X243585Y305074D01*
X243608Y305041D01*
X243700Y304965D01*
X243787Y304884D01*
X243822Y304864D01*
X243853Y304839D01*
X243961Y304788D01*
X244065Y304730D01*
X244105Y304720D01*
X244141Y304703D01*
X244258Y304681D01*
X244373Y304651D01*
X244433Y304647D01*
X244453Y304643D01*
X244474Y304645D01*
X244534Y304641D01*
X246752Y304641D01*
X248241Y303152D01*
X248241Y281048D01*
X246752Y279559D01*
X231648Y279559D01*
X230159Y281048D01*
X230159Y303152D01*
X231648Y304641D01*
X233866Y304641D01*
X233984Y304656D01*
X234103Y304663D01*
X234141Y304676D01*
X234182Y304681D01*
X234292Y304724D01*
X234405Y304761D01*
X234440Y304783D01*
X234477Y304798D01*
X234573Y304867D01*
X234674Y304931D01*
X234702Y304961D01*
X234735Y304984D01*
X234811Y305076D01*
X234892Y305163D01*
X234912Y305198D01*
X234937Y305229D01*
X234988Y305337D01*
X235046Y305441D01*
X235056Y305481D01*
X235073Y305517D01*
X235095Y305634D01*
X235125Y305749D01*
X235129Y305809D01*
X235133Y305829D01*
X235131Y305850D01*
X235135Y305910D01*
X235135Y311041D01*
X235123Y311139D01*
X235120Y311238D01*
X235103Y311296D01*
X235095Y311356D01*
X235059Y311448D01*
X235031Y311543D01*
X235001Y311595D01*
X234978Y311652D01*
X234920Y311732D01*
X234870Y311817D01*
X234804Y311893D01*
X234792Y311909D01*
X234782Y311917D01*
X234764Y311938D01*
X227288Y319414D01*
X227210Y319474D01*
X227138Y319542D01*
X227085Y319571D01*
X227037Y319608D01*
X226946Y319648D01*
X226859Y319696D01*
X226801Y319711D01*
X226745Y319735D01*
X226647Y319750D01*
X226551Y319775D01*
X226451Y319781D01*
X226431Y319785D01*
X226419Y319783D01*
X226391Y319785D01*
X211674Y319785D01*
X211549Y319769D01*
X211424Y319760D01*
X211392Y319750D01*
X211358Y319745D01*
X211242Y319699D01*
X211122Y319659D01*
X211094Y319641D01*
X211063Y319628D01*
X210961Y319555D01*
X210855Y319486D01*
X210833Y319461D01*
X210805Y319442D01*
X210725Y319345D01*
X210640Y319252D01*
X210624Y319223D01*
X210603Y319197D01*
X210549Y319083D01*
X210489Y318972D01*
X210481Y318939D01*
X210467Y318909D01*
X210444Y318786D01*
X210413Y318663D01*
X210414Y318630D01*
X210407Y318597D01*
X210415Y318471D01*
X210416Y318345D01*
X210426Y318297D01*
X210427Y318279D01*
X210434Y318259D01*
X210448Y318187D01*
X210636Y317485D01*
X210636Y314973D01*
X204107Y314973D01*
X203989Y314958D01*
X203871Y314950D01*
X203832Y314938D01*
X203792Y314933D01*
X203681Y314889D01*
X203568Y314852D01*
X203534Y314831D01*
X203496Y314816D01*
X203400Y314746D01*
X203299Y314682D01*
X203272Y314653D01*
X203239Y314629D01*
X203202Y314585D01*
X203126Y314648D01*
X203040Y314729D01*
X203004Y314749D01*
X202973Y314775D01*
X202865Y314825D01*
X202761Y314883D01*
X202722Y314893D01*
X202685Y314910D01*
X202569Y314933D01*
X202453Y314962D01*
X202393Y314966D01*
X202373Y314970D01*
X202353Y314969D01*
X202293Y314973D01*
X195764Y314973D01*
X195764Y317485D01*
X195952Y318187D01*
X195969Y318312D01*
X195993Y318436D01*
X195991Y318469D01*
X195995Y318503D01*
X195981Y318628D01*
X195973Y318753D01*
X195963Y318785D01*
X195959Y318818D01*
X195914Y318936D01*
X195875Y319055D01*
X195857Y319084D01*
X195845Y319115D01*
X195772Y319218D01*
X195705Y319324D01*
X195680Y319347D01*
X195661Y319375D01*
X195565Y319456D01*
X195473Y319542D01*
X195444Y319558D01*
X195418Y319580D01*
X195305Y319635D01*
X195195Y319696D01*
X195162Y319704D01*
X195132Y319719D01*
X195008Y319744D01*
X194887Y319775D01*
X194838Y319778D01*
X194820Y319782D01*
X194798Y319781D01*
X194726Y319785D01*
X190169Y319785D01*
X190071Y319773D01*
X189972Y319770D01*
X189914Y319753D01*
X189854Y319745D01*
X189762Y319709D01*
X189667Y319681D01*
X189615Y319651D01*
X189558Y319628D01*
X189478Y319570D01*
X189393Y319520D01*
X189317Y319454D01*
X189301Y319442D01*
X189293Y319432D01*
X189272Y319414D01*
X183294Y313435D01*
X167309Y313435D01*
X167211Y313423D01*
X167112Y313420D01*
X167054Y313403D01*
X166994Y313395D01*
X166902Y313359D01*
X166807Y313331D01*
X166755Y313301D01*
X166698Y313278D01*
X166618Y313220D01*
X166533Y313170D01*
X166457Y313104D01*
X166441Y313092D01*
X166433Y313082D01*
X166412Y313064D01*
X163186Y309838D01*
X163126Y309760D01*
X163058Y309688D01*
X163029Y309635D01*
X162992Y309587D01*
X162952Y309496D01*
X162904Y309409D01*
X162889Y309351D01*
X162865Y309295D01*
X162850Y309197D01*
X162825Y309101D01*
X162819Y309001D01*
X162815Y308981D01*
X162817Y308969D01*
X162815Y308941D01*
X162815Y305691D01*
X162827Y305592D01*
X162830Y305493D01*
X162847Y305435D01*
X162855Y305375D01*
X162891Y305283D01*
X162919Y305188D01*
X162949Y305136D01*
X162972Y305079D01*
X163030Y304999D01*
X163080Y304914D01*
X163146Y304839D01*
X163158Y304822D01*
X163168Y304814D01*
X163186Y304793D01*
X164202Y303777D01*
X164297Y303704D01*
X164386Y303625D01*
X164422Y303607D01*
X164454Y303582D01*
X164563Y303535D01*
X164669Y303481D01*
X164708Y303472D01*
X164746Y303456D01*
X164863Y303437D01*
X164979Y303411D01*
X165020Y303412D01*
X165060Y303406D01*
X165178Y303417D01*
X165297Y303421D01*
X165336Y303432D01*
X165376Y303436D01*
X165489Y303476D01*
X165603Y303509D01*
X165637Y303530D01*
X165676Y303543D01*
X165774Y303610D01*
X165877Y303671D01*
X165922Y303711D01*
X165939Y303722D01*
X165952Y303737D01*
X165997Y303777D01*
X167402Y305182D01*
X175498Y305182D01*
X176986Y303693D01*
X176986Y298117D01*
X177001Y297999D01*
X177009Y297880D01*
X177021Y297842D01*
X177026Y297801D01*
X177070Y297691D01*
X177107Y297578D01*
X177128Y297543D01*
X177143Y297506D01*
X177213Y297410D01*
X177277Y297309D01*
X177306Y297281D01*
X177330Y297248D01*
X177422Y297172D01*
X177508Y297091D01*
X177544Y297071D01*
X177575Y297046D01*
X177683Y296995D01*
X177787Y296937D01*
X177826Y296927D01*
X177863Y296910D01*
X177979Y296888D01*
X178095Y296858D01*
X178155Y296854D01*
X178175Y296850D01*
X178195Y296852D01*
X178255Y296848D01*
X194495Y296848D01*
X194613Y296863D01*
X194731Y296870D01*
X194770Y296883D01*
X194810Y296888D01*
X194921Y296931D01*
X195034Y296968D01*
X195068Y296990D01*
X195106Y297005D01*
X195202Y297074D01*
X195303Y297138D01*
X195330Y297168D01*
X195363Y297191D01*
X195439Y297283D01*
X195521Y297370D01*
X195540Y297405D01*
X195566Y297436D01*
X195617Y297544D01*
X195674Y297648D01*
X195684Y297688D01*
X195701Y297724D01*
X195724Y297841D01*
X195754Y297956D01*
X195757Y298016D01*
X195761Y298036D01*
X195760Y298057D01*
X195764Y298117D01*
X195764Y302211D01*
X197614Y304061D01*
X197691Y304161D01*
X197773Y304256D01*
X197788Y304286D01*
X197809Y304313D01*
X197859Y304428D01*
X197915Y304541D01*
X197922Y304574D01*
X197935Y304604D01*
X197955Y304729D01*
X197981Y304852D01*
X197980Y304885D01*
X197985Y304919D01*
X197974Y305044D01*
X197968Y305169D01*
X197959Y305202D01*
X197956Y305235D01*
X197913Y305354D01*
X197877Y305474D01*
X197859Y305503D01*
X197848Y305534D01*
X197777Y305639D01*
X197712Y305746D01*
X197688Y305770D01*
X197669Y305798D01*
X197575Y305881D01*
X197485Y305969D01*
X197445Y305996D01*
X197431Y306008D01*
X197412Y306018D01*
X197351Y306058D01*
X196744Y306408D01*
X196271Y306882D01*
X195937Y307461D01*
X195764Y308107D01*
X195764Y310619D01*
X202293Y310619D01*
X202411Y310634D01*
X202529Y310642D01*
X202568Y310654D01*
X202608Y310659D01*
X202719Y310703D01*
X202832Y310740D01*
X202866Y310761D01*
X202904Y310776D01*
X203000Y310846D01*
X203101Y310910D01*
X203128Y310939D01*
X203161Y310963D01*
X203198Y311007D01*
X203274Y310944D01*
X203360Y310863D01*
X203396Y310843D01*
X203427Y310817D01*
X203535Y310767D01*
X203639Y310709D01*
X203678Y310699D01*
X203715Y310682D01*
X203831Y310659D01*
X203947Y310630D01*
X204007Y310626D01*
X204027Y310622D01*
X204047Y310623D01*
X204107Y310619D01*
X210636Y310619D01*
X210636Y308107D01*
X210463Y307461D01*
X210129Y306882D01*
X209656Y306408D01*
X209049Y306058D01*
X208949Y305982D01*
X208845Y305911D01*
X208822Y305886D01*
X208795Y305866D01*
X208717Y305767D01*
X208634Y305673D01*
X208619Y305643D01*
X208598Y305617D01*
X208547Y305502D01*
X208489Y305390D01*
X208482Y305357D01*
X208468Y305326D01*
X208447Y305202D01*
X208420Y305080D01*
X208421Y305046D01*
X208415Y305013D01*
X208426Y304887D01*
X208429Y304762D01*
X208439Y304729D01*
X208442Y304696D01*
X208483Y304577D01*
X208518Y304456D01*
X208535Y304427D01*
X208546Y304395D01*
X208615Y304291D01*
X208679Y304182D01*
X208712Y304145D01*
X208722Y304130D01*
X208738Y304116D01*
X208786Y304061D01*
X210636Y302211D01*
X210636Y291397D01*
X209148Y289909D01*
X202579Y289909D01*
X202481Y289896D01*
X202382Y289893D01*
X202323Y289877D01*
X202263Y289869D01*
X202171Y289832D01*
X202076Y289805D01*
X202024Y289774D01*
X201968Y289752D01*
X201888Y289694D01*
X201802Y289643D01*
X201727Y289577D01*
X201710Y289565D01*
X201703Y289556D01*
X201681Y289537D01*
X200863Y288718D01*
X178255Y288718D01*
X178137Y288703D01*
X178019Y288696D01*
X177980Y288683D01*
X177940Y288678D01*
X177829Y288635D01*
X177716Y288598D01*
X177682Y288576D01*
X177644Y288561D01*
X177548Y288492D01*
X177447Y288428D01*
X177420Y288398D01*
X177387Y288375D01*
X177311Y288283D01*
X177229Y288196D01*
X177210Y288161D01*
X177184Y288130D01*
X177133Y288022D01*
X177076Y287918D01*
X177066Y287878D01*
X177049Y287842D01*
X177026Y287725D01*
X176996Y287610D01*
X176993Y287550D01*
X176989Y287530D01*
X176990Y287509D01*
X176986Y287449D01*
X176986Y286488D01*
X176999Y286390D01*
X177002Y286291D01*
X177018Y286232D01*
X177026Y286172D01*
X177063Y286080D01*
X177090Y285985D01*
X177121Y285933D01*
X177143Y285877D01*
X177201Y285797D01*
X177252Y285711D01*
X177318Y285636D01*
X177330Y285619D01*
X177339Y285612D01*
X177358Y285590D01*
X177715Y285233D01*
X177793Y285173D01*
X177865Y285105D01*
X177918Y285076D01*
X177966Y285039D01*
X178057Y284999D01*
X178144Y284951D01*
X178202Y284936D01*
X178258Y284912D01*
X178356Y284897D01*
X178452Y284872D01*
X178552Y284866D01*
X178572Y284862D01*
X178584Y284864D01*
X178612Y284862D01*
X178886Y284862D01*
X180894Y284030D01*
X182430Y282494D01*
X183262Y280486D01*
X183262Y278314D01*
X182430Y276306D01*
X180894Y274770D01*
X178886Y273938D01*
X176714Y273938D01*
X174706Y274770D01*
X173170Y276306D01*
X172338Y278314D01*
X172338Y278588D01*
X172326Y278686D01*
X172323Y278785D01*
X172306Y278843D01*
X172298Y278903D01*
X172262Y278995D01*
X172234Y279090D01*
X172204Y279142D01*
X172181Y279199D01*
X172123Y279279D01*
X172073Y279364D01*
X172007Y279440D01*
X171995Y279456D01*
X171985Y279464D01*
X171967Y279485D01*
X171439Y280013D01*
X171361Y280073D01*
X171289Y280141D01*
X171236Y280170D01*
X171188Y280207D01*
X171097Y280247D01*
X171010Y280295D01*
X170952Y280310D01*
X170896Y280334D01*
X170798Y280349D01*
X170702Y280374D01*
X170602Y280380D01*
X170582Y280384D01*
X170570Y280382D01*
X170542Y280384D01*
X167402Y280384D01*
X165997Y281789D01*
X165903Y281862D01*
X165814Y281941D01*
X165778Y281959D01*
X165746Y281984D01*
X165637Y282031D01*
X165531Y282085D01*
X165492Y282094D01*
X165454Y282110D01*
X165337Y282129D01*
X165221Y282155D01*
X165180Y282154D01*
X165140Y282160D01*
X165022Y282149D01*
X164903Y282145D01*
X164864Y282134D01*
X164824Y282130D01*
X164712Y282090D01*
X164597Y282057D01*
X164562Y282036D01*
X164524Y282023D01*
X164426Y281956D01*
X164323Y281895D01*
X164278Y281855D01*
X164261Y281844D01*
X164248Y281829D01*
X164202Y281789D01*
X162798Y280384D01*
X154702Y280384D01*
X153297Y281789D01*
X153203Y281862D01*
X153114Y281941D01*
X153078Y281959D01*
X153046Y281984D01*
X152937Y282031D01*
X152831Y282085D01*
X152792Y282094D01*
X152754Y282110D01*
X152637Y282129D01*
X152521Y282155D01*
X152480Y282154D01*
X152440Y282160D01*
X152322Y282149D01*
X152203Y282145D01*
X152164Y282134D01*
X152124Y282130D01*
X152012Y282090D01*
X151897Y282057D01*
X151862Y282036D01*
X151824Y282023D01*
X151726Y281956D01*
X151623Y281895D01*
X151578Y281855D01*
X151561Y281844D01*
X151548Y281829D01*
X151502Y281789D01*
X150098Y280384D01*
X142002Y280384D01*
X140597Y281789D01*
X140503Y281862D01*
X140414Y281941D01*
X140378Y281959D01*
X140346Y281984D01*
X140237Y282031D01*
X140131Y282085D01*
X140092Y282094D01*
X140054Y282110D01*
X139937Y282129D01*
X139821Y282155D01*
X139780Y282154D01*
X139740Y282160D01*
X139622Y282149D01*
X139503Y282145D01*
X139464Y282134D01*
X139424Y282130D01*
X139311Y282090D01*
X139197Y282057D01*
X139162Y282036D01*
X139124Y282023D01*
X139026Y281956D01*
X138923Y281895D01*
X138878Y281855D01*
X138861Y281844D01*
X138848Y281829D01*
X138802Y281789D01*
X138654Y281640D01*
X138580Y281546D01*
X138502Y281457D01*
X138483Y281421D01*
X138459Y281389D01*
X138411Y281279D01*
X138357Y281173D01*
X138348Y281134D01*
X138332Y281097D01*
X138314Y280979D01*
X138288Y280863D01*
X138289Y280823D01*
X138282Y280783D01*
X138294Y280664D01*
X138297Y280545D01*
X138308Y280506D01*
X138312Y280466D01*
X138353Y280354D01*
X138386Y280240D01*
X138406Y280205D01*
X138420Y280167D01*
X138487Y280068D01*
X138547Y279966D01*
X138587Y279920D01*
X138598Y279904D01*
X138614Y279890D01*
X138654Y279845D01*
X147362Y271136D01*
X147440Y271076D01*
X147512Y271008D01*
X147565Y270979D01*
X147613Y270942D01*
X147704Y270902D01*
X147791Y270854D01*
X147849Y270839D01*
X147905Y270815D01*
X148003Y270800D01*
X148099Y270775D01*
X148199Y270769D01*
X148219Y270765D01*
X148231Y270767D01*
X148259Y270765D01*
X196419Y270765D01*
X216075Y251108D01*
X216154Y251047D01*
X216226Y250979D01*
X216279Y250950D01*
X216327Y250913D01*
X216418Y250874D01*
X216504Y250826D01*
X216563Y250811D01*
X216619Y250787D01*
X216717Y250771D01*
X216812Y250746D01*
X216912Y250740D01*
X216933Y250737D01*
X216945Y250738D01*
X216973Y250736D01*
X226868Y250736D01*
X227703Y249902D01*
X227796Y249829D01*
X227886Y249750D01*
X227922Y249731D01*
X227954Y249707D01*
X228063Y249659D01*
X228169Y249605D01*
X228209Y249596D01*
X228246Y249580D01*
X228363Y249562D01*
X228479Y249536D01*
X228520Y249537D01*
X228560Y249530D01*
X228679Y249542D01*
X228797Y249545D01*
X228836Y249556D01*
X228876Y249560D01*
X228989Y249601D01*
X229103Y249634D01*
X229138Y249654D01*
X229176Y249668D01*
X229274Y249735D01*
X229377Y249795D01*
X229422Y249835D01*
X229439Y249846D01*
X229452Y249862D01*
X229498Y249902D01*
X229825Y250229D01*
X230404Y250563D01*
X231050Y250736D01*
X234526Y250736D01*
X234526Y242570D01*
X234541Y242452D01*
X234548Y242333D01*
X234561Y242295D01*
X234566Y242255D01*
X234609Y242144D01*
X234646Y242031D01*
X234668Y241996D01*
X234683Y241959D01*
X234753Y241863D01*
X234816Y241762D01*
X234846Y241734D01*
X234870Y241702D01*
X234961Y241626D01*
X235048Y241544D01*
X235083Y241525D01*
X235114Y241499D01*
X235222Y241448D01*
X235326Y241391D01*
X235366Y241380D01*
X235402Y241363D01*
X235519Y241341D01*
X235634Y241311D01*
X235695Y241307D01*
X235715Y241303D01*
X235735Y241305D01*
X235795Y241301D01*
X237066Y241301D01*
X237066Y241299D01*
X235795Y241299D01*
X235677Y241284D01*
X235558Y241277D01*
X235520Y241264D01*
X235480Y241259D01*
X235369Y241215D01*
X235256Y241179D01*
X235221Y241157D01*
X235184Y241142D01*
X235088Y241072D01*
X234987Y241009D01*
X234959Y240979D01*
X234926Y240955D01*
X234851Y240864D01*
X234769Y240777D01*
X234749Y240742D01*
X234724Y240710D01*
X234673Y240603D01*
X234615Y240499D01*
X234605Y240459D01*
X234588Y240423D01*
X234566Y240306D01*
X234536Y240191D01*
X234532Y240130D01*
X234528Y240110D01*
X234530Y240090D01*
X234526Y240030D01*
X234526Y231864D01*
X231050Y231864D01*
X230404Y232037D01*
X229825Y232371D01*
X229498Y232698D01*
X229403Y232771D01*
X229314Y232850D01*
X229278Y232869D01*
X229246Y232893D01*
X229137Y232941D01*
X229031Y232995D01*
X228991Y233004D01*
X228954Y233020D01*
X228837Y233038D01*
X228721Y233064D01*
X228680Y233063D01*
X228640Y233070D01*
X228522Y233058D01*
X228403Y233055D01*
X228364Y233043D01*
X228324Y233040D01*
X228212Y232999D01*
X228097Y232966D01*
X228063Y232946D01*
X228024Y232932D01*
X227926Y232865D01*
X227823Y232805D01*
X227778Y232765D01*
X227761Y232754D01*
X227748Y232738D01*
X227703Y232698D01*
X226868Y231864D01*
X225469Y231864D01*
X225351Y231849D01*
X225232Y231841D01*
X225194Y231829D01*
X225153Y231824D01*
X225043Y231780D01*
X224930Y231743D01*
X224895Y231722D01*
X224858Y231707D01*
X224762Y231637D01*
X224661Y231573D01*
X224633Y231544D01*
X224600Y231520D01*
X224524Y231428D01*
X224443Y231342D01*
X224423Y231306D01*
X224398Y231275D01*
X224347Y231167D01*
X224289Y231063D01*
X224279Y231024D01*
X224262Y230987D01*
X224240Y230871D01*
X224210Y230755D01*
X224206Y230695D01*
X224202Y230675D01*
X224204Y230655D01*
X224200Y230595D01*
X224200Y230384D01*
X224212Y230286D01*
X224215Y230187D01*
X224232Y230129D01*
X224240Y230069D01*
X224276Y229977D01*
X224304Y229882D01*
X224334Y229830D01*
X224357Y229773D01*
X224415Y229693D01*
X224465Y229608D01*
X224531Y229532D01*
X224543Y229516D01*
X224553Y229508D01*
X224571Y229487D01*
X233672Y220387D01*
X233781Y220302D01*
X233888Y220213D01*
X233907Y220204D01*
X233923Y220192D01*
X234051Y220136D01*
X234176Y220077D01*
X234196Y220074D01*
X234215Y220066D01*
X234353Y220044D01*
X234489Y220018D01*
X234509Y220019D01*
X234529Y220016D01*
X234668Y220029D01*
X234806Y220037D01*
X234825Y220044D01*
X234845Y220046D01*
X234977Y220093D01*
X235108Y220135D01*
X235126Y220146D01*
X235145Y220153D01*
X235260Y220231D01*
X235377Y220306D01*
X235391Y220320D01*
X235408Y220332D01*
X235500Y220436D01*
X235595Y220537D01*
X235605Y220555D01*
X235618Y220570D01*
X235682Y220694D01*
X235749Y220816D01*
X235754Y220835D01*
X235763Y220853D01*
X235793Y220989D01*
X235828Y221124D01*
X235830Y221152D01*
X235833Y221164D01*
X235832Y221184D01*
X235838Y221284D01*
X235838Y223336D01*
X236670Y225344D01*
X238206Y226880D01*
X240214Y227712D01*
X242386Y227712D01*
X244394Y226880D01*
X245930Y225344D01*
X246762Y223336D01*
X246762Y221164D01*
X246278Y219996D01*
X246268Y219957D01*
X246258Y219936D01*
X246256Y219929D01*
X246244Y219903D01*
X246223Y219795D01*
X246194Y219689D01*
X246193Y219639D01*
X246184Y219590D01*
X246191Y219481D01*
X246189Y219371D01*
X246201Y219323D01*
X246204Y219273D01*
X246237Y219169D01*
X246263Y219062D01*
X246286Y219018D01*
X246302Y218971D01*
X246360Y218878D01*
X246412Y218781D01*
X246445Y218744D01*
X246472Y218702D01*
X246552Y218627D01*
X246626Y218545D01*
X246667Y218518D01*
X246703Y218484D01*
X246800Y218431D01*
X246891Y218371D01*
X246939Y218354D01*
X246982Y218330D01*
X247088Y218303D01*
X247192Y218267D01*
X247242Y218263D01*
X247290Y218251D01*
X247451Y218241D01*
X248152Y218241D01*
X249641Y216752D01*
X249641Y208534D01*
X249656Y208416D01*
X249663Y208297D01*
X249676Y208259D01*
X249681Y208218D01*
X249724Y208108D01*
X249761Y207995D01*
X249783Y207960D01*
X249798Y207923D01*
X249867Y207827D01*
X249931Y207726D01*
X249961Y207698D01*
X249984Y207665D01*
X250076Y207589D01*
X250163Y207508D01*
X250198Y207488D01*
X250229Y207463D01*
X250337Y207412D01*
X250441Y207354D01*
X250481Y207344D01*
X250517Y207327D01*
X250634Y207305D01*
X250749Y207275D01*
X250809Y207271D01*
X250829Y207267D01*
X250850Y207269D01*
X250910Y207265D01*
X257846Y207265D01*
X257944Y207277D01*
X258043Y207280D01*
X258101Y207297D01*
X258161Y207305D01*
X258253Y207341D01*
X258349Y207369D01*
X258401Y207399D01*
X258457Y207422D01*
X258537Y207480D01*
X258622Y207530D01*
X258698Y207596D01*
X258714Y207608D01*
X258722Y207618D01*
X258743Y207636D01*
X259848Y208741D01*
X275952Y208741D01*
X277441Y207252D01*
X277441Y199148D01*
X275952Y197659D01*
X273234Y197659D01*
X273116Y197644D01*
X272997Y197637D01*
X272959Y197624D01*
X272918Y197619D01*
X272808Y197576D01*
X272695Y197539D01*
X272660Y197517D01*
X272623Y197502D01*
X272527Y197433D01*
X272426Y197369D01*
X272398Y197339D01*
X272365Y197316D01*
X272289Y197224D01*
X272208Y197137D01*
X272188Y197102D01*
X272163Y197071D01*
X272112Y196963D01*
X272054Y196859D01*
X272044Y196819D01*
X272027Y196783D01*
X272005Y196666D01*
X271975Y196551D01*
X271971Y196491D01*
X271967Y196471D01*
X271969Y196450D01*
X271965Y196390D01*
X271965Y175805D01*
X271980Y175687D01*
X271987Y175569D01*
X272000Y175530D01*
X272005Y175490D01*
X272048Y175379D01*
X272085Y175266D01*
X272107Y175232D01*
X272122Y175194D01*
X272192Y175098D01*
X272255Y174997D01*
X272285Y174970D01*
X272308Y174937D01*
X272400Y174861D01*
X272487Y174779D01*
X272522Y174760D01*
X272553Y174734D01*
X272661Y174683D01*
X272765Y174626D01*
X272805Y174616D01*
X272841Y174599D01*
X272958Y174576D01*
X273073Y174546D01*
X273133Y174543D01*
X273153Y174539D01*
X273174Y174540D01*
X273234Y174536D01*
X277668Y174536D01*
X278503Y173702D01*
X278596Y173629D01*
X278686Y173550D01*
X278722Y173531D01*
X278754Y173507D01*
X278863Y173459D01*
X278969Y173405D01*
X279009Y173396D01*
X279046Y173380D01*
X279163Y173362D01*
X279279Y173336D01*
X279320Y173337D01*
X279360Y173330D01*
X279479Y173342D01*
X279597Y173345D01*
X279636Y173356D01*
X279676Y173360D01*
X279789Y173401D01*
X279903Y173434D01*
X279938Y173454D01*
X279976Y173468D01*
X280074Y173535D01*
X280177Y173595D01*
X280222Y173635D01*
X280239Y173646D01*
X280252Y173662D01*
X280298Y173702D01*
X280625Y174029D01*
X281204Y174363D01*
X281850Y174536D01*
X285326Y174536D01*
X285326Y166370D01*
X285341Y166252D01*
X285348Y166133D01*
X285361Y166095D01*
X285366Y166055D01*
X285409Y165944D01*
X285446Y165831D01*
X285468Y165796D01*
X285483Y165759D01*
X285553Y165663D01*
X285616Y165562D01*
X285646Y165534D01*
X285670Y165502D01*
X285761Y165426D01*
X285848Y165344D01*
X285883Y165325D01*
X285914Y165299D01*
X286022Y165248D01*
X286126Y165191D01*
X286166Y165180D01*
X286202Y165163D01*
X286319Y165141D01*
X286434Y165111D01*
X286495Y165107D01*
X286515Y165103D01*
X286535Y165105D01*
X286595Y165101D01*
X287866Y165101D01*
X287866Y165099D01*
X286595Y165099D01*
X286477Y165084D01*
X286358Y165077D01*
X286320Y165064D01*
X286280Y165059D01*
X286169Y165015D01*
X286056Y164979D01*
X286021Y164957D01*
X285984Y164942D01*
X285888Y164872D01*
X285787Y164809D01*
X285759Y164779D01*
X285726Y164755D01*
X285651Y164664D01*
X285569Y164577D01*
X285549Y164542D01*
X285524Y164510D01*
X285473Y164403D01*
X285415Y164299D01*
X285405Y164259D01*
X285388Y164223D01*
X285366Y164106D01*
X285336Y163991D01*
X285332Y163930D01*
X285328Y163910D01*
X285330Y163890D01*
X285326Y163830D01*
X285326Y155664D01*
X281850Y155664D01*
X281204Y155837D01*
X280625Y156171D01*
X280298Y156498D01*
X280203Y156571D01*
X280114Y156650D01*
X280078Y156669D01*
X280046Y156693D01*
X279937Y156741D01*
X279831Y156795D01*
X279791Y156804D01*
X279754Y156820D01*
X279637Y156838D01*
X279521Y156864D01*
X279480Y156863D01*
X279440Y156870D01*
X279322Y156858D01*
X279203Y156855D01*
X279164Y156843D01*
X279124Y156840D01*
X279012Y156799D01*
X278897Y156766D01*
X278863Y156746D01*
X278824Y156732D01*
X278726Y156665D01*
X278623Y156605D01*
X278578Y156565D01*
X278561Y156554D01*
X278548Y156538D01*
X278503Y156498D01*
X277668Y155664D01*
X264202Y155664D01*
X262714Y157152D01*
X262714Y173048D01*
X263464Y173798D01*
X263524Y173876D01*
X263592Y173948D01*
X263621Y174001D01*
X263658Y174049D01*
X263698Y174140D01*
X263746Y174227D01*
X263761Y174285D01*
X263785Y174341D01*
X263800Y174439D01*
X263825Y174534D01*
X263831Y174635D01*
X263835Y174655D01*
X263833Y174667D01*
X263835Y174695D01*
X263835Y196390D01*
X263820Y196508D01*
X263813Y196627D01*
X263800Y196665D01*
X263795Y196706D01*
X263752Y196816D01*
X263715Y196929D01*
X263693Y196964D01*
X263678Y197001D01*
X263609Y197097D01*
X263545Y197198D01*
X263515Y197226D01*
X263492Y197259D01*
X263400Y197335D01*
X263313Y197416D01*
X263278Y197436D01*
X263247Y197461D01*
X263139Y197512D01*
X263035Y197570D01*
X262995Y197580D01*
X262959Y197597D01*
X262842Y197619D01*
X262727Y197649D01*
X262667Y197653D01*
X262647Y197657D01*
X262626Y197655D01*
X262566Y197659D01*
X259848Y197659D01*
X258743Y198764D01*
X258665Y198824D01*
X258593Y198892D01*
X258540Y198921D01*
X258492Y198958D01*
X258401Y198998D01*
X258314Y199046D01*
X258256Y199061D01*
X258200Y199085D01*
X258102Y199100D01*
X258007Y199125D01*
X257906Y199131D01*
X257886Y199135D01*
X257874Y199133D01*
X257846Y199135D01*
X250732Y199135D01*
X250607Y199119D01*
X250482Y199110D01*
X250450Y199100D01*
X250416Y199095D01*
X250300Y199049D01*
X250180Y199009D01*
X250152Y198991D01*
X250121Y198978D01*
X250019Y198905D01*
X249913Y198836D01*
X249891Y198811D01*
X249863Y198792D01*
X249783Y198695D01*
X249698Y198602D01*
X249682Y198573D01*
X249661Y198547D01*
X249607Y198433D01*
X249547Y198322D01*
X249539Y198289D01*
X249525Y198259D01*
X249501Y198136D01*
X249471Y198013D01*
X249472Y197980D01*
X249465Y197947D01*
X249473Y197821D01*
X249474Y197695D01*
X249484Y197647D01*
X249485Y197629D01*
X249492Y197609D01*
X249506Y197537D01*
X249641Y197034D01*
X249641Y195199D01*
X240330Y195199D01*
X240212Y195184D01*
X240093Y195177D01*
X240086Y195175D01*
X240030Y195189D01*
X239970Y195193D01*
X239950Y195197D01*
X239930Y195195D01*
X239870Y195199D01*
X230559Y195199D01*
X230559Y197034D01*
X230694Y197537D01*
X230711Y197662D01*
X230735Y197786D01*
X230733Y197819D01*
X230737Y197853D01*
X230723Y197978D01*
X230715Y198103D01*
X230705Y198135D01*
X230701Y198168D01*
X230656Y198286D01*
X230617Y198405D01*
X230599Y198434D01*
X230587Y198465D01*
X230514Y198568D01*
X230447Y198674D01*
X230422Y198697D01*
X230403Y198725D01*
X230307Y198806D01*
X230215Y198892D01*
X230186Y198908D01*
X230160Y198930D01*
X230047Y198985D01*
X229937Y199046D01*
X229904Y199054D01*
X229874Y199069D01*
X229750Y199094D01*
X229629Y199125D01*
X229580Y199128D01*
X229562Y199132D01*
X229540Y199131D01*
X229468Y199135D01*
X227154Y199135D01*
X227056Y199123D01*
X226957Y199120D01*
X226899Y199103D01*
X226839Y199095D01*
X226747Y199059D01*
X226651Y199031D01*
X226599Y199001D01*
X226543Y198978D01*
X226463Y198920D01*
X226378Y198870D01*
X226302Y198804D01*
X226286Y198792D01*
X226278Y198782D01*
X226257Y198764D01*
X225152Y197659D01*
X222434Y197659D01*
X222316Y197644D01*
X222197Y197637D01*
X222159Y197624D01*
X222118Y197619D01*
X222008Y197576D01*
X221895Y197539D01*
X221860Y197517D01*
X221823Y197502D01*
X221727Y197433D01*
X221626Y197369D01*
X221598Y197339D01*
X221565Y197316D01*
X221489Y197224D01*
X221408Y197137D01*
X221388Y197102D01*
X221363Y197071D01*
X221312Y196963D01*
X221254Y196859D01*
X221244Y196819D01*
X221227Y196783D01*
X221205Y196666D01*
X221175Y196551D01*
X221171Y196491D01*
X221167Y196471D01*
X221169Y196450D01*
X221165Y196390D01*
X221165Y175805D01*
X221180Y175687D01*
X221187Y175569D01*
X221200Y175530D01*
X221205Y175490D01*
X221248Y175379D01*
X221285Y175266D01*
X221307Y175232D01*
X221322Y175194D01*
X221392Y175098D01*
X221455Y174997D01*
X221485Y174970D01*
X221508Y174937D01*
X221600Y174861D01*
X221687Y174779D01*
X221722Y174760D01*
X221753Y174734D01*
X221861Y174683D01*
X221965Y174626D01*
X222005Y174616D01*
X222041Y174599D01*
X222158Y174576D01*
X222273Y174546D01*
X222333Y174543D01*
X222353Y174539D01*
X222374Y174540D01*
X222434Y174536D01*
X226868Y174536D01*
X227703Y173702D01*
X227796Y173629D01*
X227886Y173550D01*
X227922Y173531D01*
X227954Y173507D01*
X228063Y173459D01*
X228169Y173405D01*
X228209Y173396D01*
X228246Y173380D01*
X228363Y173362D01*
X228479Y173336D01*
X228520Y173337D01*
X228560Y173330D01*
X228679Y173342D01*
X228797Y173345D01*
X228836Y173356D01*
X228876Y173360D01*
X228989Y173401D01*
X229103Y173434D01*
X229138Y173454D01*
X229176Y173468D01*
X229274Y173535D01*
X229377Y173595D01*
X229422Y173635D01*
X229439Y173646D01*
X229452Y173662D01*
X229498Y173702D01*
X229825Y174029D01*
X230404Y174363D01*
X231050Y174536D01*
X234526Y174536D01*
X234526Y166370D01*
X234541Y166252D01*
X234548Y166133D01*
X234561Y166095D01*
X234566Y166055D01*
X234609Y165944D01*
X234646Y165831D01*
X234668Y165796D01*
X234683Y165759D01*
X234753Y165663D01*
X234816Y165562D01*
X234846Y165534D01*
X234870Y165502D01*
X234961Y165426D01*
X235048Y165344D01*
X235083Y165325D01*
X235114Y165299D01*
X235222Y165248D01*
X235326Y165191D01*
X235366Y165180D01*
X235402Y165163D01*
X235519Y165141D01*
X235634Y165111D01*
X235695Y165107D01*
X235715Y165103D01*
X235735Y165105D01*
X235795Y165101D01*
X237066Y165101D01*
X237066Y165099D01*
X235795Y165099D01*
X235677Y165084D01*
X235558Y165077D01*
X235520Y165064D01*
X235480Y165059D01*
X235369Y165015D01*
X235256Y164979D01*
X235221Y164957D01*
X235184Y164942D01*
X235088Y164872D01*
X234987Y164809D01*
X234959Y164779D01*
X234926Y164755D01*
X234851Y164664D01*
X234769Y164577D01*
X234749Y164542D01*
X234724Y164510D01*
X234673Y164403D01*
X234615Y164299D01*
X234605Y164259D01*
X234588Y164223D01*
X234566Y164106D01*
X234536Y163991D01*
X234532Y163930D01*
X234528Y163910D01*
X234530Y163890D01*
X234526Y163830D01*
X234526Y155664D01*
X231050Y155664D01*
X230404Y155837D01*
X229825Y156171D01*
X229498Y156498D01*
X229403Y156571D01*
X229314Y156650D01*
X229278Y156669D01*
X229246Y156693D01*
X229137Y156741D01*
X229031Y156795D01*
X228991Y156804D01*
X228954Y156820D01*
X228837Y156838D01*
X228721Y156864D01*
X228680Y156863D01*
X228640Y156870D01*
X228522Y156858D01*
X228403Y156855D01*
X228364Y156843D01*
X228324Y156840D01*
X228212Y156799D01*
X228097Y156766D01*
X228063Y156746D01*
X228024Y156732D01*
X227926Y156665D01*
X227823Y156605D01*
X227778Y156565D01*
X227761Y156554D01*
X227748Y156538D01*
X227703Y156498D01*
X226868Y155664D01*
X213402Y155664D01*
X211914Y157152D01*
X211914Y173048D01*
X212663Y173798D01*
X212724Y173876D01*
X212792Y173948D01*
X212821Y174001D01*
X212858Y174049D01*
X212898Y174140D01*
X212946Y174227D01*
X212961Y174285D01*
X212985Y174341D01*
X213000Y174439D01*
X213025Y174534D01*
X213031Y174634D01*
X213035Y174655D01*
X213033Y174667D01*
X213035Y174695D01*
X213035Y196390D01*
X213020Y196508D01*
X213013Y196627D01*
X213000Y196665D01*
X212995Y196706D01*
X212952Y196816D01*
X212915Y196929D01*
X212893Y196964D01*
X212878Y197001D01*
X212809Y197097D01*
X212745Y197198D01*
X212715Y197226D01*
X212692Y197259D01*
X212600Y197335D01*
X212513Y197416D01*
X212478Y197436D01*
X212447Y197461D01*
X212339Y197512D01*
X212235Y197570D01*
X212195Y197580D01*
X212159Y197597D01*
X212042Y197619D01*
X211927Y197649D01*
X211867Y197653D01*
X211847Y197657D01*
X211826Y197655D01*
X211766Y197659D01*
X209048Y197659D01*
X208542Y198164D01*
X208433Y198249D01*
X208326Y198338D01*
X208307Y198347D01*
X208291Y198359D01*
X208163Y198415D01*
X208038Y198474D01*
X208018Y198478D01*
X207999Y198486D01*
X207861Y198508D01*
X207725Y198534D01*
X207705Y198532D01*
X207685Y198536D01*
X207546Y198522D01*
X207408Y198514D01*
X207389Y198508D01*
X207369Y198506D01*
X207238Y198459D01*
X207106Y198416D01*
X207088Y198405D01*
X207069Y198398D01*
X206955Y198320D01*
X206837Y198246D01*
X206823Y198231D01*
X206806Y198220D01*
X206714Y198115D01*
X206619Y198014D01*
X206609Y197996D01*
X206596Y197981D01*
X206533Y197857D01*
X206465Y197736D01*
X206460Y197716D01*
X206451Y197698D01*
X206421Y197562D01*
X206386Y197428D01*
X206384Y197400D01*
X206381Y197388D01*
X206382Y197367D01*
X206376Y197267D01*
X206376Y178358D01*
X205506Y176257D01*
X203719Y174471D01*
X194858Y165610D01*
X194797Y165531D01*
X194729Y165459D01*
X194700Y165406D01*
X194663Y165358D01*
X194624Y165268D01*
X194576Y165181D01*
X194561Y165122D01*
X194537Y165067D01*
X194521Y164969D01*
X194496Y164873D01*
X194490Y164773D01*
X194487Y164753D01*
X194488Y164740D01*
X194486Y164712D01*
X194486Y157152D01*
X192998Y155664D01*
X179532Y155664D01*
X178697Y156498D01*
X178604Y156571D01*
X178514Y156650D01*
X178478Y156669D01*
X178446Y156693D01*
X178337Y156741D01*
X178231Y156795D01*
X178191Y156804D01*
X178154Y156820D01*
X178037Y156838D01*
X177921Y156864D01*
X177880Y156863D01*
X177840Y156870D01*
X177721Y156858D01*
X177603Y156855D01*
X177564Y156844D01*
X177524Y156840D01*
X177411Y156799D01*
X177297Y156766D01*
X177262Y156746D01*
X177224Y156732D01*
X177126Y156665D01*
X177023Y156605D01*
X176978Y156565D01*
X176961Y156554D01*
X176948Y156538D01*
X176902Y156498D01*
X176575Y156171D01*
X175996Y155837D01*
X175350Y155664D01*
X171874Y155664D01*
G37*
%LPD*%
%LPC*%
G36*
X46118Y447039D02*
X46118Y447039D01*
X37074Y449463D01*
X28965Y454144D01*
X22344Y460765D01*
X17663Y468874D01*
X15239Y477918D01*
X15239Y487282D01*
X17663Y496326D01*
X22344Y504435D01*
X28965Y511056D01*
X37074Y515737D01*
X46118Y518161D01*
X55482Y518161D01*
X64526Y515737D01*
X72635Y511056D01*
X79256Y504435D01*
X83937Y496326D01*
X86361Y487282D01*
X86361Y477918D01*
X83937Y468874D01*
X79256Y460765D01*
X72635Y454144D01*
X64526Y449463D01*
X55482Y447039D01*
X46118Y447039D01*
G37*
%LPD*%
%LPC*%
G36*
X46118Y-60961D02*
X46118Y-60961D01*
X37074Y-58537D01*
X28965Y-53856D01*
X22344Y-47235D01*
X17663Y-39126D01*
X15239Y-30082D01*
X15239Y-20718D01*
X17663Y-11674D01*
X22344Y-3565D01*
X28965Y3056D01*
X37074Y7737D01*
X46118Y10161D01*
X55482Y10161D01*
X64526Y7737D01*
X72635Y3056D01*
X79256Y-3565D01*
X83937Y-11674D01*
X86361Y-20718D01*
X86361Y-30082D01*
X83937Y-39126D01*
X79256Y-47235D01*
X72635Y-53856D01*
X64526Y-58537D01*
X55482Y-60961D01*
X46118Y-60961D01*
G37*
%LPD*%
%LPC*%
G36*
X274718Y-60961D02*
X274718Y-60961D01*
X265674Y-58537D01*
X257565Y-53856D01*
X250944Y-47235D01*
X246263Y-39126D01*
X243839Y-30082D01*
X243839Y-20718D01*
X246263Y-11674D01*
X250944Y-3565D01*
X257565Y3056D01*
X265674Y7737D01*
X274718Y10161D01*
X284082Y10161D01*
X293126Y7737D01*
X301235Y3056D01*
X307856Y-3565D01*
X312537Y-11674D01*
X314961Y-20718D01*
X314961Y-30082D01*
X312537Y-39126D01*
X307856Y-47235D01*
X301235Y-53856D01*
X293126Y-58537D01*
X284082Y-60961D01*
X274718Y-60961D01*
G37*
%LPD*%
%LPC*%
G36*
X282848Y207159D02*
X282848Y207159D01*
X281359Y208648D01*
X281359Y211477D01*
X281347Y211575D01*
X281344Y211674D01*
X281327Y211732D01*
X281319Y211792D01*
X281283Y211884D01*
X281255Y211979D01*
X281225Y212032D01*
X281202Y212088D01*
X281144Y212168D01*
X281094Y212253D01*
X281028Y212329D01*
X281016Y212345D01*
X281006Y212353D01*
X280988Y212374D01*
X269623Y223739D01*
X269198Y224164D01*
X269120Y224224D01*
X269048Y224292D01*
X268995Y224321D01*
X268947Y224358D01*
X268856Y224398D01*
X268769Y224446D01*
X268711Y224461D01*
X268655Y224485D01*
X268557Y224500D01*
X268461Y224525D01*
X268361Y224531D01*
X268341Y224535D01*
X268329Y224533D01*
X268301Y224535D01*
X258185Y224535D01*
X258087Y224523D01*
X257988Y224520D01*
X257930Y224503D01*
X257870Y224495D01*
X257777Y224459D01*
X257682Y224431D01*
X257630Y224401D01*
X257574Y224378D01*
X257494Y224320D01*
X257408Y224270D01*
X257333Y224204D01*
X257317Y224192D01*
X257309Y224182D01*
X257288Y224164D01*
X257094Y223970D01*
X255086Y223138D01*
X252914Y223138D01*
X250906Y223970D01*
X249370Y225506D01*
X248538Y227514D01*
X248538Y229686D01*
X249370Y231694D01*
X250906Y233230D01*
X252914Y234062D01*
X255086Y234062D01*
X257094Y233230D01*
X257288Y233036D01*
X257366Y232976D01*
X257438Y232908D01*
X257491Y232879D01*
X257539Y232842D01*
X257630Y232802D01*
X257716Y232754D01*
X257775Y232739D01*
X257831Y232715D01*
X257929Y232700D01*
X258024Y232675D01*
X258124Y232669D01*
X258145Y232665D01*
X258157Y232667D01*
X258185Y232665D01*
X261445Y232665D01*
X261563Y232680D01*
X261681Y232687D01*
X261720Y232700D01*
X261760Y232705D01*
X261871Y232748D01*
X261984Y232785D01*
X262018Y232807D01*
X262056Y232822D01*
X262152Y232891D01*
X262253Y232955D01*
X262280Y232985D01*
X262313Y233008D01*
X262389Y233100D01*
X262471Y233187D01*
X262490Y233222D01*
X262516Y233253D01*
X262567Y233361D01*
X262624Y233465D01*
X262634Y233505D01*
X262651Y233541D01*
X262674Y233658D01*
X262704Y233773D01*
X262707Y233833D01*
X262711Y233853D01*
X262710Y233874D01*
X262714Y233934D01*
X262714Y249248D01*
X264202Y250736D01*
X265601Y250736D01*
X265719Y250751D01*
X265838Y250759D01*
X265876Y250771D01*
X265917Y250776D01*
X266027Y250820D01*
X266140Y250857D01*
X266175Y250878D01*
X266212Y250893D01*
X266308Y250963D01*
X266409Y251027D01*
X266437Y251056D01*
X266470Y251080D01*
X266546Y251172D01*
X266627Y251258D01*
X266647Y251294D01*
X266672Y251325D01*
X266723Y251433D01*
X266781Y251537D01*
X266791Y251576D01*
X266808Y251613D01*
X266830Y251729D01*
X266860Y251845D01*
X266864Y251905D01*
X266868Y251925D01*
X266866Y251945D01*
X266870Y252005D01*
X266870Y259019D01*
X284788Y276936D01*
X284848Y277014D01*
X284916Y277086D01*
X284945Y277139D01*
X284982Y277187D01*
X285022Y277278D01*
X285070Y277365D01*
X285085Y277423D01*
X285109Y277479D01*
X285124Y277577D01*
X285149Y277673D01*
X285155Y277773D01*
X285159Y277793D01*
X285157Y277805D01*
X285159Y277833D01*
X285159Y288152D01*
X286648Y289641D01*
X296967Y289641D01*
X297065Y289653D01*
X297164Y289656D01*
X297222Y289673D01*
X297282Y289681D01*
X297374Y289717D01*
X297469Y289745D01*
X297521Y289775D01*
X297578Y289798D01*
X297658Y289856D01*
X297743Y289906D01*
X297819Y289972D01*
X297835Y289984D01*
X297843Y289994D01*
X297864Y290012D01*
X300244Y292393D01*
X300329Y292502D01*
X300418Y292609D01*
X300427Y292628D01*
X300439Y292644D01*
X300495Y292772D01*
X300554Y292897D01*
X300557Y292917D01*
X300565Y292936D01*
X300587Y293074D01*
X300613Y293210D01*
X300612Y293230D01*
X300615Y293250D01*
X300602Y293389D01*
X300594Y293527D01*
X300587Y293546D01*
X300585Y293566D01*
X300538Y293698D01*
X300496Y293829D01*
X300485Y293847D01*
X300478Y293866D01*
X300400Y293981D01*
X300325Y294098D01*
X300311Y294112D01*
X300299Y294129D01*
X300195Y294221D01*
X300094Y294316D01*
X300076Y294326D01*
X300061Y294339D01*
X299937Y294403D01*
X299815Y294470D01*
X299796Y294475D01*
X299778Y294484D01*
X299642Y294514D01*
X299507Y294549D01*
X299479Y294551D01*
X299467Y294554D01*
X299447Y294553D01*
X299347Y294559D01*
X296739Y294559D01*
X296739Y302330D01*
X296724Y302448D01*
X296717Y302567D01*
X296704Y302605D01*
X296699Y302645D01*
X296655Y302756D01*
X296619Y302869D01*
X296597Y302904D01*
X296582Y302941D01*
X296512Y303037D01*
X296449Y303138D01*
X296419Y303166D01*
X296395Y303198D01*
X296304Y303274D01*
X296217Y303356D01*
X296182Y303375D01*
X296150Y303401D01*
X296043Y303452D01*
X295939Y303509D01*
X295899Y303520D01*
X295863Y303537D01*
X295746Y303559D01*
X295631Y303589D01*
X295570Y303593D01*
X295550Y303597D01*
X295530Y303595D01*
X295470Y303599D01*
X294199Y303599D01*
X294199Y303601D01*
X295470Y303601D01*
X295588Y303616D01*
X295707Y303623D01*
X295745Y303636D01*
X295785Y303641D01*
X295896Y303685D01*
X296009Y303721D01*
X296044Y303743D01*
X296081Y303758D01*
X296177Y303828D01*
X296278Y303891D01*
X296306Y303921D01*
X296338Y303945D01*
X296414Y304036D01*
X296496Y304123D01*
X296515Y304158D01*
X296541Y304190D01*
X296592Y304297D01*
X296649Y304401D01*
X296660Y304441D01*
X296677Y304477D01*
X296699Y304594D01*
X296729Y304709D01*
X296733Y304770D01*
X296737Y304790D01*
X296735Y304810D01*
X296739Y304870D01*
X296739Y312641D01*
X299466Y312641D01*
X299584Y312656D01*
X299703Y312663D01*
X299741Y312676D01*
X299782Y312681D01*
X299892Y312724D01*
X300005Y312761D01*
X300040Y312783D01*
X300077Y312798D01*
X300173Y312867D01*
X300274Y312931D01*
X300302Y312961D01*
X300335Y312984D01*
X300411Y313076D01*
X300492Y313163D01*
X300512Y313198D01*
X300537Y313229D01*
X300588Y313337D01*
X300646Y313441D01*
X300656Y313481D01*
X300673Y313517D01*
X300695Y313634D01*
X300725Y313749D01*
X300729Y313809D01*
X300733Y313829D01*
X300731Y313850D01*
X300735Y313910D01*
X300735Y331291D01*
X300723Y331389D01*
X300720Y331488D01*
X300703Y331546D01*
X300695Y331606D01*
X300659Y331698D01*
X300631Y331793D01*
X300601Y331845D01*
X300578Y331902D01*
X300520Y331982D01*
X300470Y332067D01*
X300404Y332143D01*
X300392Y332159D01*
X300382Y332167D01*
X300364Y332188D01*
X297864Y334688D01*
X297786Y334748D01*
X297714Y334816D01*
X297661Y334845D01*
X297613Y334882D01*
X297522Y334922D01*
X297435Y334970D01*
X297377Y334985D01*
X297321Y335009D01*
X297223Y335024D01*
X297127Y335049D01*
X297027Y335055D01*
X297007Y335059D01*
X296995Y335057D01*
X296967Y335059D01*
X286648Y335059D01*
X285159Y336548D01*
X285159Y351652D01*
X286648Y353141D01*
X301752Y353141D01*
X303241Y351652D01*
X303241Y341333D01*
X303253Y341235D01*
X303256Y341136D01*
X303273Y341078D01*
X303281Y341018D01*
X303317Y340926D01*
X303345Y340831D01*
X303375Y340779D01*
X303398Y340722D01*
X303456Y340642D01*
X303506Y340557D01*
X303572Y340481D01*
X303584Y340465D01*
X303594Y340457D01*
X303612Y340436D01*
X308865Y335184D01*
X308865Y289516D01*
X303612Y284264D01*
X303552Y284186D01*
X303484Y284114D01*
X303455Y284061D01*
X303418Y284013D01*
X303378Y283922D01*
X303330Y283835D01*
X303315Y283777D01*
X303291Y283721D01*
X303276Y283623D01*
X303251Y283527D01*
X303245Y283427D01*
X303241Y283407D01*
X303243Y283395D01*
X303241Y283367D01*
X303241Y273048D01*
X301752Y271559D01*
X291433Y271559D01*
X291335Y271547D01*
X291236Y271544D01*
X291178Y271527D01*
X291118Y271519D01*
X291026Y271483D01*
X290931Y271455D01*
X290879Y271425D01*
X290822Y271402D01*
X290742Y271344D01*
X290657Y271294D01*
X290581Y271228D01*
X290565Y271216D01*
X290557Y271206D01*
X290536Y271188D01*
X275371Y256023D01*
X275311Y255945D01*
X275243Y255873D01*
X275214Y255820D01*
X275177Y255772D01*
X275137Y255681D01*
X275089Y255594D01*
X275074Y255536D01*
X275050Y255480D01*
X275035Y255382D01*
X275010Y255286D01*
X275004Y255186D01*
X275000Y255166D01*
X275002Y255154D01*
X275000Y255126D01*
X275000Y252005D01*
X275015Y251887D01*
X275022Y251769D01*
X275035Y251730D01*
X275040Y251690D01*
X275083Y251579D01*
X275120Y251466D01*
X275142Y251432D01*
X275157Y251394D01*
X275227Y251298D01*
X275290Y251197D01*
X275320Y251170D01*
X275343Y251137D01*
X275435Y251061D01*
X275522Y250979D01*
X275557Y250960D01*
X275588Y250934D01*
X275696Y250883D01*
X275800Y250826D01*
X275840Y250816D01*
X275876Y250799D01*
X275993Y250776D01*
X276108Y250746D01*
X276168Y250743D01*
X276188Y250739D01*
X276209Y250740D01*
X276269Y250736D01*
X277668Y250736D01*
X278503Y249902D01*
X278596Y249829D01*
X278686Y249750D01*
X278722Y249731D01*
X278754Y249707D01*
X278863Y249659D01*
X278969Y249605D01*
X279009Y249596D01*
X279046Y249580D01*
X279163Y249562D01*
X279279Y249536D01*
X279320Y249537D01*
X279360Y249530D01*
X279479Y249542D01*
X279597Y249545D01*
X279636Y249556D01*
X279676Y249560D01*
X279789Y249601D01*
X279903Y249634D01*
X279938Y249654D01*
X279976Y249668D01*
X280074Y249735D01*
X280177Y249795D01*
X280222Y249835D01*
X280239Y249846D01*
X280252Y249862D01*
X280298Y249902D01*
X280625Y250229D01*
X281204Y250563D01*
X281850Y250736D01*
X285326Y250736D01*
X285326Y242570D01*
X285341Y242452D01*
X285348Y242333D01*
X285361Y242295D01*
X285366Y242255D01*
X285409Y242144D01*
X285446Y242031D01*
X285468Y241996D01*
X285483Y241959D01*
X285553Y241863D01*
X285616Y241762D01*
X285646Y241734D01*
X285670Y241702D01*
X285761Y241626D01*
X285848Y241544D01*
X285883Y241525D01*
X285914Y241499D01*
X286022Y241448D01*
X286126Y241391D01*
X286166Y241380D01*
X286202Y241363D01*
X286319Y241341D01*
X286434Y241311D01*
X286495Y241307D01*
X286515Y241303D01*
X286535Y241305D01*
X286595Y241301D01*
X287866Y241301D01*
X287866Y241299D01*
X286595Y241299D01*
X286477Y241284D01*
X286358Y241277D01*
X286320Y241264D01*
X286280Y241259D01*
X286169Y241215D01*
X286056Y241179D01*
X286021Y241157D01*
X285984Y241142D01*
X285888Y241072D01*
X285787Y241009D01*
X285759Y240979D01*
X285726Y240955D01*
X285651Y240864D01*
X285569Y240777D01*
X285549Y240742D01*
X285524Y240710D01*
X285473Y240603D01*
X285415Y240499D01*
X285405Y240459D01*
X285388Y240423D01*
X285366Y240306D01*
X285336Y240191D01*
X285332Y240130D01*
X285328Y240110D01*
X285330Y240090D01*
X285326Y240030D01*
X285326Y231864D01*
X281850Y231864D01*
X281204Y232037D01*
X280625Y232371D01*
X280298Y232698D01*
X280203Y232771D01*
X280114Y232850D01*
X280078Y232869D01*
X280046Y232893D01*
X279937Y232941D01*
X279831Y232995D01*
X279791Y233004D01*
X279754Y233020D01*
X279637Y233038D01*
X279521Y233064D01*
X279480Y233063D01*
X279440Y233070D01*
X279322Y233058D01*
X279203Y233055D01*
X279164Y233043D01*
X279124Y233040D01*
X279012Y232999D01*
X278897Y232966D01*
X278863Y232946D01*
X278824Y232932D01*
X278726Y232865D01*
X278623Y232805D01*
X278578Y232765D01*
X278561Y232754D01*
X278548Y232738D01*
X278503Y232698D01*
X277668Y231864D01*
X276269Y231864D01*
X276151Y231849D01*
X276032Y231841D01*
X275994Y231829D01*
X275953Y231824D01*
X275843Y231780D01*
X275730Y231743D01*
X275695Y231722D01*
X275658Y231707D01*
X275562Y231637D01*
X275461Y231573D01*
X275433Y231544D01*
X275400Y231520D01*
X275324Y231428D01*
X275243Y231342D01*
X275223Y231306D01*
X275198Y231275D01*
X275147Y231167D01*
X275089Y231063D01*
X275079Y231024D01*
X275062Y230987D01*
X275040Y230871D01*
X275010Y230755D01*
X275006Y230695D01*
X275002Y230675D01*
X275004Y230655D01*
X275000Y230595D01*
X275000Y230384D01*
X275012Y230286D01*
X275015Y230187D01*
X275032Y230129D01*
X275040Y230069D01*
X275076Y229977D01*
X275104Y229882D01*
X275134Y229829D01*
X275157Y229773D01*
X275215Y229693D01*
X275265Y229608D01*
X275331Y229532D01*
X275343Y229516D01*
X275353Y229508D01*
X275371Y229487D01*
X286246Y218612D01*
X286324Y218552D01*
X286396Y218484D01*
X286449Y218455D01*
X286497Y218418D01*
X286588Y218378D01*
X286675Y218330D01*
X286733Y218315D01*
X286789Y218291D01*
X286887Y218276D01*
X286983Y218251D01*
X287083Y218245D01*
X287103Y218241D01*
X287115Y218243D01*
X287143Y218241D01*
X298952Y218241D01*
X300441Y216752D01*
X300441Y208648D01*
X298952Y207159D01*
X282848Y207159D01*
G37*
%LPD*%
%LPC*%
G36*
X108026Y78469D02*
X108026Y78469D01*
X103825Y80209D01*
X100609Y83425D01*
X100357Y84036D01*
X100342Y84061D01*
X100333Y84089D01*
X100263Y84199D01*
X100199Y84312D01*
X100178Y84333D01*
X100163Y84358D01*
X100068Y84447D01*
X99978Y84540D01*
X99952Y84556D01*
X99931Y84576D01*
X99817Y84639D01*
X99707Y84707D01*
X99678Y84715D01*
X99653Y84730D01*
X99527Y84762D01*
X99403Y84800D01*
X99373Y84802D01*
X99345Y84809D01*
X99184Y84819D01*
X86889Y84819D01*
X85022Y85593D01*
X33793Y136822D01*
X33019Y138689D01*
X33019Y189419D01*
X33793Y191286D01*
X44237Y201730D01*
X44298Y201809D01*
X44366Y201881D01*
X44395Y201934D01*
X44432Y201982D01*
X44471Y202073D01*
X44519Y202159D01*
X44534Y202218D01*
X44558Y202273D01*
X44574Y202371D01*
X44599Y202467D01*
X44605Y202567D01*
X44608Y202587D01*
X44607Y202600D01*
X44609Y202628D01*
X44609Y207238D01*
X46097Y208726D01*
X59687Y208726D01*
X61175Y207238D01*
X61175Y199162D01*
X59687Y197674D01*
X55077Y197674D01*
X54979Y197661D01*
X54880Y197658D01*
X54821Y197642D01*
X54761Y197634D01*
X54669Y197597D01*
X54574Y197570D01*
X54522Y197539D01*
X54466Y197517D01*
X54386Y197459D01*
X54300Y197408D01*
X54225Y197342D01*
X54208Y197330D01*
X54200Y197321D01*
X54179Y197302D01*
X43552Y186675D01*
X43492Y186597D01*
X43424Y186525D01*
X43395Y186472D01*
X43358Y186424D01*
X43318Y186333D01*
X43270Y186246D01*
X43255Y186188D01*
X43231Y186132D01*
X43216Y186034D01*
X43191Y185938D01*
X43185Y185838D01*
X43181Y185818D01*
X43183Y185806D01*
X43181Y185778D01*
X43181Y142330D01*
X43193Y142232D01*
X43196Y142133D01*
X43213Y142075D01*
X43221Y142015D01*
X43257Y141923D01*
X43285Y141828D01*
X43315Y141775D01*
X43338Y141719D01*
X43396Y141639D01*
X43446Y141554D01*
X43512Y141478D01*
X43524Y141462D01*
X43534Y141454D01*
X43552Y141433D01*
X89633Y95352D01*
X89711Y95292D01*
X89783Y95224D01*
X89836Y95195D01*
X89884Y95158D01*
X89975Y95118D01*
X90062Y95070D01*
X90120Y95055D01*
X90176Y95031D01*
X90274Y95016D01*
X90370Y94991D01*
X90470Y94985D01*
X90490Y94981D01*
X90502Y94983D01*
X90530Y94981D01*
X99184Y94981D01*
X99213Y94984D01*
X99243Y94982D01*
X99371Y95004D01*
X99499Y95021D01*
X99527Y95031D01*
X99556Y95036D01*
X99674Y95090D01*
X99795Y95138D01*
X99819Y95155D01*
X99846Y95167D01*
X99947Y95248D01*
X100052Y95324D01*
X100071Y95347D01*
X100094Y95366D01*
X100172Y95469D01*
X100255Y95569D01*
X100268Y95596D01*
X100286Y95620D01*
X100357Y95764D01*
X100609Y96375D01*
X103825Y99591D01*
X108026Y101331D01*
X112574Y101331D01*
X116775Y99591D01*
X119991Y96375D01*
X121731Y92174D01*
X121731Y87626D01*
X119991Y83425D01*
X116775Y80209D01*
X112574Y78469D01*
X108026Y78469D01*
G37*
%LPD*%
%LPC*%
G36*
X30523Y53079D02*
X30523Y53079D01*
X16979Y66623D01*
X16979Y85777D01*
X30523Y99321D01*
X49677Y99321D01*
X63221Y85777D01*
X63221Y66623D01*
X49677Y53079D01*
X30523Y53079D01*
G37*
%LPD*%
%LPC*%
G36*
X280523Y53079D02*
X280523Y53079D01*
X266979Y66623D01*
X266979Y85777D01*
X280523Y99321D01*
X299677Y99321D01*
X313221Y85777D01*
X313221Y66623D01*
X299677Y53079D01*
X280523Y53079D01*
G37*
%LPD*%
%LPC*%
G36*
X162826Y78469D02*
X162826Y78469D01*
X158625Y80209D01*
X155409Y83425D01*
X153669Y87626D01*
X153669Y92174D01*
X155409Y96375D01*
X158625Y99591D01*
X162826Y101331D01*
X167374Y101331D01*
X169000Y100657D01*
X169029Y100649D01*
X169055Y100636D01*
X169182Y100607D01*
X169307Y100573D01*
X169337Y100573D01*
X169366Y100566D01*
X169495Y100570D01*
X169625Y100568D01*
X169654Y100575D01*
X169683Y100576D01*
X169808Y100612D01*
X169934Y100642D01*
X169961Y100656D01*
X169989Y100664D01*
X170101Y100730D01*
X170216Y100791D01*
X170237Y100811D01*
X170263Y100826D01*
X170384Y100932D01*
X185064Y115612D01*
X187816Y118365D01*
X237115Y118365D01*
X237213Y118377D01*
X237312Y118380D01*
X237370Y118397D01*
X237430Y118405D01*
X237523Y118441D01*
X237618Y118469D01*
X237670Y118499D01*
X237726Y118522D01*
X237806Y118580D01*
X237892Y118630D01*
X237967Y118696D01*
X237983Y118708D01*
X237991Y118718D01*
X238012Y118736D01*
X238206Y118930D01*
X240214Y119762D01*
X242386Y119762D01*
X244394Y118930D01*
X245930Y117394D01*
X246762Y115386D01*
X246762Y113214D01*
X245930Y111206D01*
X244394Y109670D01*
X242386Y108838D01*
X240214Y108838D01*
X238206Y109670D01*
X238012Y109864D01*
X237934Y109924D01*
X237862Y109992D01*
X237809Y110021D01*
X237761Y110058D01*
X237670Y110098D01*
X237584Y110146D01*
X237525Y110161D01*
X237469Y110185D01*
X237371Y110200D01*
X237276Y110225D01*
X237176Y110231D01*
X237155Y110235D01*
X237143Y110233D01*
X237115Y110235D01*
X191709Y110235D01*
X191611Y110223D01*
X191512Y110220D01*
X191454Y110203D01*
X191394Y110195D01*
X191302Y110159D01*
X191207Y110131D01*
X191155Y110101D01*
X191098Y110078D01*
X191018Y110020D01*
X190933Y109970D01*
X190857Y109904D01*
X190841Y109892D01*
X190833Y109882D01*
X190812Y109864D01*
X176132Y95184D01*
X176114Y95160D01*
X176091Y95141D01*
X176017Y95035D01*
X175937Y94932D01*
X175925Y94905D01*
X175908Y94881D01*
X175862Y94760D01*
X175811Y94641D01*
X175806Y94611D01*
X175796Y94584D01*
X175781Y94455D01*
X175761Y94326D01*
X175764Y94297D01*
X175760Y94268D01*
X175779Y94139D01*
X175791Y94010D01*
X175801Y93982D01*
X175805Y93953D01*
X175857Y93800D01*
X176531Y92174D01*
X176531Y87626D01*
X174791Y83425D01*
X171575Y80209D01*
X167374Y78469D01*
X162826Y78469D01*
G37*
%LPD*%
%LPC*%
G36*
X57681Y157664D02*
X57681Y157664D01*
X57681Y164193D01*
X57666Y164311D01*
X57658Y164429D01*
X57646Y164468D01*
X57641Y164508D01*
X57597Y164619D01*
X57560Y164732D01*
X57539Y164766D01*
X57524Y164804D01*
X57454Y164900D01*
X57390Y165001D01*
X57361Y165028D01*
X57337Y165061D01*
X57293Y165098D01*
X57356Y165174D01*
X57437Y165260D01*
X57457Y165296D01*
X57483Y165327D01*
X57533Y165435D01*
X57591Y165539D01*
X57601Y165578D01*
X57618Y165615D01*
X57641Y165731D01*
X57670Y165847D01*
X57674Y165907D01*
X57678Y165927D01*
X57677Y165947D01*
X57681Y166007D01*
X57681Y172536D01*
X60193Y172536D01*
X60839Y172363D01*
X61418Y172029D01*
X61892Y171555D01*
X62242Y170949D01*
X62318Y170849D01*
X62389Y170745D01*
X62414Y170722D01*
X62434Y170695D01*
X62533Y170617D01*
X62627Y170534D01*
X62657Y170519D01*
X62683Y170498D01*
X62798Y170447D01*
X62910Y170389D01*
X62943Y170382D01*
X62974Y170368D01*
X63098Y170347D01*
X63221Y170320D01*
X63254Y170321D01*
X63287Y170315D01*
X63413Y170326D01*
X63538Y170329D01*
X63571Y170339D01*
X63604Y170342D01*
X63723Y170383D01*
X63844Y170418D01*
X63873Y170435D01*
X63905Y170446D01*
X64010Y170516D01*
X64118Y170579D01*
X64154Y170612D01*
X64170Y170622D01*
X64184Y170638D01*
X64239Y170686D01*
X66089Y172536D01*
X71221Y172536D01*
X71319Y172549D01*
X71418Y172552D01*
X71477Y172568D01*
X71537Y172576D01*
X71629Y172613D01*
X71724Y172640D01*
X71776Y172671D01*
X71832Y172693D01*
X71912Y172751D01*
X71998Y172802D01*
X72073Y172868D01*
X72090Y172880D01*
X72098Y172889D01*
X72119Y172908D01*
X73809Y174598D01*
X73882Y174693D01*
X73961Y174782D01*
X73979Y174818D01*
X74004Y174850D01*
X74052Y174959D01*
X74106Y175065D01*
X74114Y175104D01*
X74131Y175142D01*
X74149Y175259D01*
X74175Y175375D01*
X74174Y175416D01*
X74180Y175456D01*
X74169Y175574D01*
X74166Y175693D01*
X74154Y175732D01*
X74151Y175772D01*
X74110Y175885D01*
X74077Y175999D01*
X74057Y176033D01*
X74043Y176072D01*
X73976Y176170D01*
X73916Y176273D01*
X73876Y176318D01*
X73864Y176335D01*
X73849Y176348D01*
X73809Y176393D01*
X69801Y180402D01*
X69027Y182269D01*
X69027Y186905D01*
X69012Y187023D01*
X69005Y187141D01*
X68992Y187180D01*
X68987Y187220D01*
X68944Y187331D01*
X68907Y187444D01*
X68885Y187478D01*
X68870Y187516D01*
X68801Y187612D01*
X68737Y187713D01*
X68707Y187740D01*
X68684Y187773D01*
X68592Y187849D01*
X68505Y187931D01*
X68470Y187950D01*
X68439Y187976D01*
X68331Y188027D01*
X68227Y188084D01*
X68187Y188094D01*
X68151Y188111D01*
X68034Y188134D01*
X67919Y188164D01*
X67859Y188167D01*
X67839Y188171D01*
X67818Y188170D01*
X67758Y188174D01*
X67313Y188174D01*
X65825Y189662D01*
X65825Y197738D01*
X67313Y199226D01*
X80903Y199226D01*
X82391Y197738D01*
X82391Y189662D01*
X80903Y188174D01*
X80458Y188174D01*
X80340Y188159D01*
X80221Y188151D01*
X80183Y188139D01*
X80142Y188134D01*
X80032Y188090D01*
X79919Y188053D01*
X79884Y188032D01*
X79847Y188017D01*
X79751Y187947D01*
X79650Y187883D01*
X79622Y187854D01*
X79589Y187830D01*
X79513Y187738D01*
X79432Y187652D01*
X79412Y187616D01*
X79387Y187585D01*
X79336Y187477D01*
X79278Y187373D01*
X79268Y187334D01*
X79251Y187297D01*
X79229Y187181D01*
X79199Y187065D01*
X79195Y187005D01*
X79191Y186985D01*
X79193Y186965D01*
X79189Y186905D01*
X79189Y185910D01*
X79201Y185812D01*
X79204Y185713D01*
X79221Y185655D01*
X79229Y185595D01*
X79265Y185503D01*
X79293Y185408D01*
X79323Y185355D01*
X79346Y185299D01*
X79404Y185219D01*
X79454Y185134D01*
X79520Y185058D01*
X79532Y185042D01*
X79542Y185034D01*
X79560Y185013D01*
X83625Y180948D01*
X83703Y180888D01*
X83775Y180820D01*
X83828Y180791D01*
X83876Y180754D01*
X83967Y180714D01*
X84054Y180666D01*
X84112Y180651D01*
X84168Y180627D01*
X84266Y180612D01*
X84362Y180587D01*
X84462Y180581D01*
X84482Y180577D01*
X84494Y180579D01*
X84522Y180577D01*
X90984Y180577D01*
X91102Y180592D01*
X91221Y180599D01*
X91259Y180612D01*
X91300Y180617D01*
X91410Y180660D01*
X91523Y180697D01*
X91558Y180719D01*
X91595Y180734D01*
X91691Y180803D01*
X91792Y180867D01*
X91820Y180897D01*
X91853Y180920D01*
X91929Y181012D01*
X92010Y181099D01*
X92030Y181134D01*
X92055Y181165D01*
X92106Y181273D01*
X92164Y181377D01*
X92174Y181417D01*
X92191Y181453D01*
X92213Y181570D01*
X92243Y181685D01*
X92247Y181745D01*
X92251Y181765D01*
X92249Y181786D01*
X92253Y181846D01*
X92253Y182121D01*
X93742Y183610D01*
X109458Y183610D01*
X110947Y182121D01*
X110947Y168871D01*
X109458Y167382D01*
X93742Y167382D01*
X92253Y168871D01*
X92253Y169146D01*
X92238Y169264D01*
X92231Y169383D01*
X92218Y169421D01*
X92213Y169462D01*
X92170Y169572D01*
X92133Y169685D01*
X92111Y169720D01*
X92096Y169757D01*
X92027Y169853D01*
X91963Y169954D01*
X91933Y169982D01*
X91910Y170015D01*
X91818Y170091D01*
X91731Y170172D01*
X91696Y170192D01*
X91665Y170217D01*
X91557Y170268D01*
X91453Y170326D01*
X91413Y170336D01*
X91377Y170353D01*
X91260Y170375D01*
X91145Y170405D01*
X91085Y170409D01*
X91065Y170413D01*
X91044Y170411D01*
X90984Y170415D01*
X84522Y170415D01*
X84424Y170403D01*
X84325Y170400D01*
X84267Y170383D01*
X84207Y170375D01*
X84115Y170339D01*
X84020Y170311D01*
X83967Y170281D01*
X83911Y170258D01*
X83831Y170200D01*
X83746Y170150D01*
X83670Y170084D01*
X83654Y170072D01*
X83646Y170062D01*
X83625Y170044D01*
X78763Y165182D01*
X78702Y165103D01*
X78634Y165031D01*
X78605Y164978D01*
X78568Y164930D01*
X78529Y164839D01*
X78481Y164753D01*
X78466Y164694D01*
X78442Y164639D01*
X78426Y164541D01*
X78401Y164445D01*
X78395Y164345D01*
X78392Y164325D01*
X78393Y164312D01*
X78391Y164284D01*
X78391Y159152D01*
X76903Y157664D01*
X66089Y157664D01*
X64239Y159514D01*
X64139Y159591D01*
X64044Y159673D01*
X64014Y159688D01*
X63987Y159709D01*
X63872Y159759D01*
X63759Y159815D01*
X63726Y159822D01*
X63696Y159835D01*
X63571Y159855D01*
X63448Y159881D01*
X63415Y159880D01*
X63381Y159885D01*
X63256Y159874D01*
X63131Y159868D01*
X63098Y159859D01*
X63065Y159856D01*
X62946Y159813D01*
X62826Y159777D01*
X62797Y159759D01*
X62766Y159748D01*
X62661Y159677D01*
X62554Y159612D01*
X62530Y159588D01*
X62502Y159569D01*
X62419Y159475D01*
X62331Y159385D01*
X62304Y159345D01*
X62292Y159331D01*
X62282Y159312D01*
X62242Y159251D01*
X61892Y158645D01*
X61418Y158171D01*
X60839Y157837D01*
X60193Y157664D01*
X57681Y157664D01*
G37*
%LPD*%
%LPC*%
G36*
X31102Y282000D02*
X31102Y282000D01*
X29613Y283489D01*
X29613Y300711D01*
X31102Y302200D01*
X31620Y302200D01*
X31738Y302215D01*
X31857Y302222D01*
X31895Y302235D01*
X31936Y302240D01*
X32046Y302283D01*
X32159Y302320D01*
X32194Y302342D01*
X32231Y302357D01*
X32327Y302426D01*
X32428Y302490D01*
X32456Y302520D01*
X32489Y302543D01*
X32565Y302635D01*
X32646Y302722D01*
X32666Y302757D01*
X32691Y302788D01*
X32742Y302896D01*
X32800Y303000D01*
X32810Y303040D01*
X32827Y303076D01*
X32849Y303193D01*
X32879Y303308D01*
X32883Y303368D01*
X32887Y303388D01*
X32885Y303409D01*
X32889Y303469D01*
X32889Y306484D01*
X40014Y313608D01*
X40074Y313686D01*
X40142Y313758D01*
X40171Y313811D01*
X40208Y313859D01*
X40248Y313950D01*
X40296Y314037D01*
X40311Y314095D01*
X40335Y314151D01*
X40350Y314249D01*
X40375Y314345D01*
X40381Y314445D01*
X40385Y314465D01*
X40383Y314477D01*
X40385Y314505D01*
X40385Y332400D01*
X40373Y332498D01*
X40370Y332597D01*
X40353Y332655D01*
X40345Y332715D01*
X40309Y332807D01*
X40281Y332903D01*
X40251Y332955D01*
X40228Y333011D01*
X40170Y333091D01*
X40120Y333176D01*
X40054Y333252D01*
X40042Y333268D01*
X40032Y333276D01*
X40014Y333297D01*
X38924Y334387D01*
X38924Y347977D01*
X40412Y349465D01*
X48488Y349465D01*
X49976Y347977D01*
X49976Y334387D01*
X48886Y333297D01*
X48826Y333219D01*
X48758Y333147D01*
X48729Y333094D01*
X48692Y333046D01*
X48652Y332955D01*
X48604Y332868D01*
X48589Y332810D01*
X48565Y332754D01*
X48550Y332656D01*
X48525Y332561D01*
X48519Y332460D01*
X48515Y332440D01*
X48517Y332428D01*
X48515Y332400D01*
X48515Y310612D01*
X42269Y304366D01*
X42184Y304257D01*
X42095Y304150D01*
X42086Y304131D01*
X42074Y304115D01*
X42018Y303987D01*
X41959Y303862D01*
X41956Y303842D01*
X41948Y303823D01*
X41926Y303685D01*
X41900Y303549D01*
X41901Y303529D01*
X41898Y303509D01*
X41911Y303370D01*
X41919Y303232D01*
X41926Y303213D01*
X41928Y303193D01*
X41975Y303061D01*
X42017Y302930D01*
X42028Y302912D01*
X42035Y302893D01*
X42113Y302778D01*
X42188Y302661D01*
X42202Y302647D01*
X42214Y302630D01*
X42318Y302538D01*
X42419Y302443D01*
X42437Y302433D01*
X42452Y302420D01*
X42576Y302356D01*
X42698Y302289D01*
X42717Y302284D01*
X42726Y302280D01*
X44295Y300711D01*
X44295Y283489D01*
X42806Y282000D01*
X31102Y282000D01*
G37*
%LPD*%
%LPC*%
G36*
X176714Y140588D02*
X176714Y140588D01*
X174706Y141420D01*
X173170Y142956D01*
X172338Y144964D01*
X172338Y147136D01*
X173170Y149144D01*
X174706Y150680D01*
X176714Y151512D01*
X178886Y151512D01*
X180894Y150680D01*
X181088Y150486D01*
X181166Y150426D01*
X181238Y150358D01*
X181291Y150329D01*
X181339Y150292D01*
X181430Y150252D01*
X181516Y150204D01*
X181575Y150189D01*
X181631Y150165D01*
X181729Y150150D01*
X181824Y150125D01*
X181924Y150119D01*
X181945Y150115D01*
X181957Y150117D01*
X181985Y150115D01*
X249815Y150115D01*
X249913Y150127D01*
X250012Y150130D01*
X250070Y150147D01*
X250130Y150155D01*
X250223Y150191D01*
X250318Y150219D01*
X250370Y150249D01*
X250426Y150272D01*
X250506Y150330D01*
X250592Y150380D01*
X250667Y150446D01*
X250683Y150458D01*
X250691Y150468D01*
X250712Y150486D01*
X250906Y150680D01*
X252914Y151512D01*
X255086Y151512D01*
X257094Y150680D01*
X258630Y149144D01*
X259462Y147136D01*
X259462Y144964D01*
X258630Y142956D01*
X257094Y141420D01*
X255086Y140588D01*
X252914Y140588D01*
X250906Y141420D01*
X250712Y141614D01*
X250634Y141674D01*
X250562Y141742D01*
X250509Y141771D01*
X250461Y141808D01*
X250370Y141848D01*
X250284Y141896D01*
X250225Y141911D01*
X250169Y141935D01*
X250071Y141950D01*
X249976Y141975D01*
X249876Y141981D01*
X249855Y141985D01*
X249843Y141983D01*
X249815Y141985D01*
X181985Y141985D01*
X181887Y141973D01*
X181788Y141970D01*
X181730Y141953D01*
X181670Y141945D01*
X181577Y141909D01*
X181482Y141881D01*
X181430Y141851D01*
X181374Y141828D01*
X181294Y141770D01*
X181208Y141720D01*
X181133Y141654D01*
X181117Y141642D01*
X181109Y141632D01*
X181088Y141614D01*
X180894Y141420D01*
X178886Y140588D01*
X176714Y140588D01*
G37*
%LPD*%
%LPC*%
G36*
X137679Y401319D02*
X137679Y401319D01*
X133944Y402866D01*
X131086Y405724D01*
X129539Y409459D01*
X129539Y428741D01*
X131086Y432476D01*
X133944Y435334D01*
X137679Y436881D01*
X141721Y436881D01*
X145456Y435334D01*
X148314Y432476D01*
X149861Y428741D01*
X149861Y409459D01*
X148314Y405724D01*
X145456Y402866D01*
X141721Y401319D01*
X137679Y401319D01*
G37*
%LPD*%
%LPC*%
G36*
X251979Y401319D02*
X251979Y401319D01*
X248244Y402866D01*
X245386Y405724D01*
X243839Y409459D01*
X243839Y428741D01*
X245386Y432476D01*
X248244Y435334D01*
X251979Y436881D01*
X256021Y436881D01*
X259756Y435334D01*
X262614Y432476D01*
X264161Y428741D01*
X264161Y409459D01*
X262614Y405724D01*
X259756Y402866D01*
X256021Y401319D01*
X251979Y401319D01*
G37*
%LPD*%
%LPC*%
G36*
X36079Y401319D02*
X36079Y401319D01*
X32344Y402866D01*
X29486Y405724D01*
X27939Y409459D01*
X27939Y428741D01*
X29486Y432476D01*
X32344Y435334D01*
X36079Y436881D01*
X40121Y436881D01*
X43856Y435334D01*
X46714Y432476D01*
X48261Y428741D01*
X48261Y409459D01*
X46714Y405724D01*
X43856Y402866D01*
X40121Y401319D01*
X36079Y401319D01*
G37*
%LPD*%
%LPC*%
G36*
X112279Y401319D02*
X112279Y401319D01*
X108544Y402866D01*
X105686Y405724D01*
X104139Y409459D01*
X104139Y428741D01*
X105686Y432476D01*
X108544Y435334D01*
X112279Y436881D01*
X116321Y436881D01*
X120056Y435334D01*
X122914Y432476D01*
X124461Y428741D01*
X124461Y409459D01*
X122914Y405724D01*
X120056Y402866D01*
X116321Y401319D01*
X112279Y401319D01*
G37*
%LPD*%
%LPC*%
G36*
X176526Y51069D02*
X176526Y51069D01*
X172325Y52809D01*
X169109Y56025D01*
X167369Y60226D01*
X167369Y64774D01*
X169109Y68975D01*
X172325Y72191D01*
X176526Y73931D01*
X181074Y73931D01*
X185275Y72191D01*
X188491Y68975D01*
X190231Y64774D01*
X190231Y60226D01*
X188491Y56025D01*
X185275Y52809D01*
X181074Y51069D01*
X176526Y51069D01*
G37*
%LPD*%
%LPC*%
G36*
X190226Y78469D02*
X190226Y78469D01*
X186025Y80209D01*
X182809Y83425D01*
X181069Y87626D01*
X181069Y92174D01*
X182809Y96375D01*
X186025Y99591D01*
X190226Y101331D01*
X194774Y101331D01*
X198975Y99591D01*
X202191Y96375D01*
X203931Y92174D01*
X203931Y87626D01*
X202191Y83425D01*
X198975Y80209D01*
X194774Y78469D01*
X190226Y78469D01*
G37*
%LPD*%
%LPC*%
G36*
X203926Y51069D02*
X203926Y51069D01*
X199725Y52809D01*
X196509Y56025D01*
X194769Y60226D01*
X194769Y64774D01*
X196509Y68975D01*
X199725Y72191D01*
X203926Y73931D01*
X208474Y73931D01*
X212675Y72191D01*
X215891Y68975D01*
X217631Y64774D01*
X217631Y60226D01*
X215891Y56025D01*
X212675Y52809D01*
X208474Y51069D01*
X203926Y51069D01*
G37*
%LPD*%
%LPC*%
G36*
X217626Y78469D02*
X217626Y78469D01*
X213425Y80209D01*
X210209Y83425D01*
X208469Y87626D01*
X208469Y92174D01*
X210209Y96375D01*
X213425Y99591D01*
X217626Y101331D01*
X222174Y101331D01*
X226375Y99591D01*
X229591Y96375D01*
X231331Y92174D01*
X231331Y87626D01*
X229591Y83425D01*
X226375Y80209D01*
X222174Y78469D01*
X217626Y78469D01*
G37*
%LPD*%
%LPC*%
G36*
X135426Y78469D02*
X135426Y78469D01*
X131225Y80209D01*
X128009Y83425D01*
X126269Y87626D01*
X126269Y92174D01*
X128009Y96375D01*
X131225Y99591D01*
X135426Y101331D01*
X139974Y101331D01*
X144175Y99591D01*
X147391Y96375D01*
X149131Y92174D01*
X149131Y87626D01*
X147391Y83425D01*
X144175Y80209D01*
X139974Y78469D01*
X135426Y78469D01*
G37*
%LPD*%
%LPC*%
G36*
X149126Y51069D02*
X149126Y51069D01*
X144925Y52809D01*
X141709Y56025D01*
X139969Y60226D01*
X139969Y64774D01*
X141709Y68975D01*
X144925Y72191D01*
X149126Y73931D01*
X153674Y73931D01*
X157875Y72191D01*
X161091Y68975D01*
X162831Y64774D01*
X162831Y60226D01*
X161091Y56025D01*
X157875Y52809D01*
X153674Y51069D01*
X149126Y51069D01*
G37*
%LPD*%
G36*
X193793Y197161D02*
X193793Y197161D01*
X193912Y197168D01*
X193950Y197181D01*
X193991Y197186D01*
X194101Y197229D01*
X194214Y197266D01*
X194249Y197288D01*
X194286Y197303D01*
X194382Y197372D01*
X194483Y197436D01*
X194511Y197466D01*
X194544Y197489D01*
X194620Y197581D01*
X194701Y197668D01*
X194721Y197703D01*
X194746Y197734D01*
X194797Y197842D01*
X194855Y197946D01*
X194865Y197986D01*
X194882Y198022D01*
X194904Y198139D01*
X194934Y198254D01*
X194938Y198314D01*
X194942Y198334D01*
X194940Y198355D01*
X194944Y198415D01*
X194944Y207985D01*
X194929Y208103D01*
X194922Y208222D01*
X194909Y208260D01*
X194904Y208301D01*
X194861Y208411D01*
X194824Y208524D01*
X194802Y208559D01*
X194787Y208596D01*
X194718Y208692D01*
X194654Y208793D01*
X194624Y208821D01*
X194601Y208854D01*
X194509Y208930D01*
X194422Y209011D01*
X194387Y209031D01*
X194356Y209056D01*
X194248Y209107D01*
X194144Y209165D01*
X194104Y209175D01*
X194068Y209192D01*
X193951Y209214D01*
X193836Y209244D01*
X193776Y209248D01*
X193756Y209252D01*
X193735Y209250D01*
X193675Y209254D01*
X191723Y209254D01*
X191625Y209242D01*
X191526Y209239D01*
X191468Y209222D01*
X191408Y209214D01*
X191316Y209178D01*
X191220Y209150D01*
X191168Y209120D01*
X191112Y209097D01*
X191032Y209039D01*
X190947Y208989D01*
X190871Y208923D01*
X190855Y208911D01*
X190847Y208901D01*
X190826Y208883D01*
X190329Y208386D01*
X190302Y208369D01*
X190274Y208339D01*
X190241Y208316D01*
X190165Y208224D01*
X190084Y208137D01*
X190064Y208102D01*
X190039Y208071D01*
X189988Y207963D01*
X189930Y207859D01*
X189920Y207819D01*
X189903Y207783D01*
X189881Y207666D01*
X189851Y207551D01*
X189847Y207491D01*
X189843Y207471D01*
X189845Y207450D01*
X189841Y207390D01*
X189841Y205739D01*
X179070Y205739D01*
X178952Y205724D01*
X178833Y205717D01*
X178795Y205704D01*
X178755Y205699D01*
X178644Y205655D01*
X178531Y205619D01*
X178496Y205597D01*
X178459Y205582D01*
X178363Y205512D01*
X178262Y205449D01*
X178234Y205419D01*
X178202Y205395D01*
X178126Y205304D01*
X178044Y205217D01*
X178025Y205182D01*
X177999Y205150D01*
X177948Y205043D01*
X177891Y204939D01*
X177880Y204899D01*
X177863Y204863D01*
X177841Y204746D01*
X177811Y204631D01*
X177807Y204570D01*
X177803Y204550D01*
X177805Y204530D01*
X177801Y204470D01*
X177801Y201930D01*
X177816Y201812D01*
X177823Y201693D01*
X177836Y201655D01*
X177841Y201615D01*
X177885Y201504D01*
X177921Y201391D01*
X177943Y201356D01*
X177958Y201319D01*
X178028Y201223D01*
X178091Y201122D01*
X178121Y201094D01*
X178145Y201061D01*
X178236Y200986D01*
X178323Y200904D01*
X178358Y200884D01*
X178390Y200859D01*
X178497Y200808D01*
X178601Y200750D01*
X178641Y200740D01*
X178677Y200723D01*
X178794Y200701D01*
X178909Y200671D01*
X178970Y200667D01*
X178990Y200663D01*
X179010Y200665D01*
X179070Y200661D01*
X189841Y200661D01*
X189841Y199010D01*
X189856Y198892D01*
X189863Y198773D01*
X189875Y198735D01*
X189881Y198694D01*
X189924Y198584D01*
X189961Y198471D01*
X189983Y198436D01*
X189998Y198399D01*
X190067Y198303D01*
X190131Y198202D01*
X190161Y198174D01*
X190184Y198141D01*
X190276Y198065D01*
X190302Y198041D01*
X190826Y197517D01*
X190904Y197457D01*
X190976Y197389D01*
X191029Y197360D01*
X191077Y197323D01*
X191168Y197283D01*
X191255Y197235D01*
X191313Y197220D01*
X191369Y197196D01*
X191467Y197181D01*
X191562Y197156D01*
X191663Y197150D01*
X191683Y197146D01*
X191695Y197148D01*
X191723Y197146D01*
X193675Y197146D01*
X193793Y197161D01*
G37*
%LPC*%
G36*
X231139Y421639D02*
X231139Y421639D01*
X231139Y436579D01*
X232500Y436136D01*
X233925Y435410D01*
X235219Y434470D01*
X236350Y433339D01*
X237290Y432045D01*
X238016Y430620D01*
X238511Y429099D01*
X238761Y427520D01*
X238761Y421639D01*
X231139Y421639D01*
G37*
%LPD*%
%LPC*%
G36*
X167639Y421639D02*
X167639Y421639D01*
X167639Y436579D01*
X169000Y436136D01*
X170425Y435410D01*
X171719Y434470D01*
X172850Y433339D01*
X173790Y432045D01*
X174516Y430620D01*
X175011Y429099D01*
X175261Y427520D01*
X175261Y421639D01*
X167639Y421639D01*
G37*
%LPD*%
%LPC*%
G36*
X167639Y416561D02*
X167639Y416561D01*
X175261Y416561D01*
X175261Y410680D01*
X175011Y409101D01*
X174516Y407580D01*
X173790Y406155D01*
X172850Y404861D01*
X171719Y403730D01*
X170425Y402790D01*
X169000Y402064D01*
X167639Y401621D01*
X167639Y416561D01*
G37*
%LPD*%
%LPC*%
G36*
X231139Y416561D02*
X231139Y416561D01*
X238761Y416561D01*
X238761Y410680D01*
X238511Y409101D01*
X238016Y407580D01*
X237290Y406155D01*
X236350Y404861D01*
X235219Y403730D01*
X233925Y402790D01*
X232500Y402064D01*
X231139Y401621D01*
X231139Y416561D01*
G37*
%LPD*%
%LPC*%
G36*
X218439Y421639D02*
X218439Y421639D01*
X218439Y427520D01*
X218689Y429099D01*
X219184Y430620D01*
X219910Y432045D01*
X220850Y433339D01*
X221981Y434470D01*
X223275Y435410D01*
X224700Y436136D01*
X226061Y436579D01*
X226061Y421639D01*
X218439Y421639D01*
G37*
%LPD*%
%LPC*%
G36*
X154939Y421639D02*
X154939Y421639D01*
X154939Y427520D01*
X155189Y429099D01*
X155684Y430620D01*
X156410Y432045D01*
X157350Y433339D01*
X158481Y434470D01*
X159775Y435410D01*
X161200Y436136D01*
X162561Y436579D01*
X162561Y421639D01*
X154939Y421639D01*
G37*
%LPD*%
%LPC*%
G36*
X224700Y402064D02*
X224700Y402064D01*
X223275Y402790D01*
X222515Y403342D01*
X221981Y403730D01*
X220850Y404861D01*
X219910Y406155D01*
X219184Y407580D01*
X218689Y409101D01*
X218439Y410680D01*
X218439Y416561D01*
X226061Y416561D01*
X226061Y401621D01*
X224700Y402064D01*
G37*
%LPD*%
%LPC*%
G36*
X161200Y402064D02*
X161200Y402064D01*
X159775Y402790D01*
X159015Y403342D01*
X158481Y403730D01*
X157350Y404861D01*
X156410Y406155D01*
X155684Y407580D01*
X155189Y409101D01*
X154939Y410680D01*
X154939Y416561D01*
X162561Y416561D01*
X162561Y401621D01*
X161200Y402064D01*
G37*
%LPD*%
%LPC*%
G36*
X126249Y64749D02*
X126249Y64749D01*
X126249Y73717D01*
X126677Y73649D01*
X128388Y73093D01*
X129991Y72277D01*
X131447Y71219D01*
X132719Y69947D01*
X133777Y68491D01*
X134593Y66888D01*
X135149Y65177D01*
X135217Y64749D01*
X126249Y64749D01*
G37*
%LPD*%
%LPC*%
G36*
X112783Y64749D02*
X112783Y64749D01*
X112851Y65177D01*
X113407Y66888D01*
X114223Y68491D01*
X115281Y69947D01*
X116553Y71219D01*
X118009Y72277D01*
X119612Y73093D01*
X121323Y73649D01*
X121751Y73717D01*
X121751Y64749D01*
X112783Y64749D01*
G37*
%LPD*%
%LPC*%
G36*
X126249Y60251D02*
X126249Y60251D01*
X135217Y60251D01*
X135149Y59823D01*
X134593Y58112D01*
X133777Y56509D01*
X132719Y55053D01*
X131447Y53781D01*
X129991Y52723D01*
X128388Y51907D01*
X126677Y51351D01*
X126249Y51283D01*
X126249Y60251D01*
G37*
%LPD*%
%LPC*%
G36*
X121323Y51351D02*
X121323Y51351D01*
X119612Y51907D01*
X118009Y52723D01*
X116553Y53781D01*
X115281Y55053D01*
X114223Y56509D01*
X113407Y58112D01*
X112851Y59823D01*
X112783Y60251D01*
X121751Y60251D01*
X121751Y51283D01*
X121323Y51351D01*
G37*
%LPD*%
%LPC*%
G36*
X142239Y165740D02*
X142239Y165740D01*
X142239Y171719D01*
X149111Y171719D01*
X149757Y171546D01*
X150336Y171212D01*
X150810Y170738D01*
X151144Y170159D01*
X151317Y169513D01*
X151317Y165740D01*
X142239Y165740D01*
G37*
%LPD*%
%LPC*%
G36*
X128083Y165740D02*
X128083Y165740D01*
X128083Y169513D01*
X128256Y170159D01*
X128590Y170738D01*
X129064Y171212D01*
X129643Y171546D01*
X130289Y171719D01*
X137161Y171719D01*
X137161Y165740D01*
X128083Y165740D01*
G37*
%LPD*%
%LPC*%
G36*
X142239Y154683D02*
X142239Y154683D01*
X142239Y160662D01*
X151317Y160662D01*
X151317Y156889D01*
X151144Y156243D01*
X150810Y155664D01*
X150336Y155190D01*
X149757Y154856D01*
X149111Y154683D01*
X142239Y154683D01*
G37*
%LPD*%
%LPC*%
G36*
X130289Y154683D02*
X130289Y154683D01*
X129643Y154856D01*
X129064Y155190D01*
X128590Y155664D01*
X128256Y156243D01*
X128083Y156889D01*
X128083Y160662D01*
X137161Y160662D01*
X137161Y154683D01*
X130289Y154683D01*
G37*
%LPD*%
%LPC*%
G36*
X127814Y343714D02*
X127814Y343714D01*
X127814Y352409D01*
X127987Y353056D01*
X128321Y353635D01*
X128795Y354108D01*
X129374Y354443D01*
X130020Y354616D01*
X131853Y354616D01*
X131853Y343714D01*
X127814Y343714D01*
G37*
%LPD*%
%LPC*%
G36*
X130020Y329818D02*
X130020Y329818D01*
X129374Y329991D01*
X128795Y330326D01*
X128321Y330799D01*
X127987Y331378D01*
X127814Y332025D01*
X127814Y340720D01*
X131853Y340720D01*
X131853Y329818D01*
X130020Y329818D01*
G37*
%LPD*%
%LPC*%
G36*
X296739Y369639D02*
X296739Y369639D01*
X296739Y376141D01*
X301034Y376141D01*
X301681Y375968D01*
X302260Y375633D01*
X302733Y375160D01*
X303068Y374581D01*
X303241Y373934D01*
X303241Y369639D01*
X296739Y369639D01*
G37*
%LPD*%
%LPC*%
G36*
X285159Y369639D02*
X285159Y369639D01*
X285159Y373934D01*
X285332Y374581D01*
X285667Y375160D01*
X286140Y375633D01*
X286719Y375968D01*
X287366Y376141D01*
X291661Y376141D01*
X291661Y369639D01*
X285159Y369639D01*
G37*
%LPD*%
%LPC*%
G36*
X296739Y358059D02*
X296739Y358059D01*
X296739Y364561D01*
X303241Y364561D01*
X303241Y360266D01*
X303068Y359619D01*
X302733Y359040D01*
X302260Y358567D01*
X301681Y358232D01*
X301034Y358059D01*
X296739Y358059D01*
G37*
%LPD*%
%LPC*%
G36*
X285159Y306139D02*
X285159Y306139D01*
X285159Y310434D01*
X285332Y311081D01*
X285667Y311660D01*
X286140Y312133D01*
X286719Y312468D01*
X287366Y312641D01*
X291661Y312641D01*
X291661Y306139D01*
X285159Y306139D01*
G37*
%LPD*%
%LPC*%
G36*
X287366Y294559D02*
X287366Y294559D01*
X286719Y294732D01*
X286140Y295067D01*
X285667Y295540D01*
X285332Y296119D01*
X285159Y296766D01*
X285159Y301061D01*
X291661Y301061D01*
X291661Y294559D01*
X287366Y294559D01*
G37*
%LPD*%
%LPC*%
G36*
X287366Y358059D02*
X287366Y358059D01*
X286719Y358232D01*
X286140Y358567D01*
X285667Y359040D01*
X285332Y359619D01*
X285159Y360266D01*
X285159Y364561D01*
X291661Y364561D01*
X291661Y358059D01*
X287366Y358059D01*
G37*
%LPD*%
%LPC*%
G36*
X290404Y243839D02*
X290404Y243839D01*
X290404Y250736D01*
X293880Y250736D01*
X294526Y250563D01*
X295105Y250229D01*
X295579Y249755D01*
X295913Y249176D01*
X296086Y248530D01*
X296086Y243839D01*
X290404Y243839D01*
G37*
%LPD*%
%LPC*%
G36*
X239604Y243839D02*
X239604Y243839D01*
X239604Y250736D01*
X243080Y250736D01*
X243726Y250563D01*
X244305Y250229D01*
X244779Y249755D01*
X245113Y249176D01*
X245286Y248530D01*
X245286Y243839D01*
X239604Y243839D01*
G37*
%LPD*%
%LPC*%
G36*
X239604Y167639D02*
X239604Y167639D01*
X239604Y174536D01*
X243080Y174536D01*
X243726Y174363D01*
X244305Y174029D01*
X244779Y173555D01*
X245113Y172976D01*
X245286Y172330D01*
X245286Y167639D01*
X239604Y167639D01*
G37*
%LPD*%
%LPC*%
G36*
X290404Y167639D02*
X290404Y167639D01*
X290404Y174536D01*
X293880Y174536D01*
X294526Y174363D01*
X295105Y174029D01*
X295579Y173555D01*
X295913Y172976D01*
X296086Y172330D01*
X296086Y167639D01*
X290404Y167639D01*
G37*
%LPD*%
%LPC*%
G36*
X161114Y167639D02*
X161114Y167639D01*
X161114Y172330D01*
X161287Y172976D01*
X161621Y173555D01*
X162095Y174029D01*
X162674Y174363D01*
X163320Y174536D01*
X166796Y174536D01*
X166796Y167639D01*
X161114Y167639D01*
G37*
%LPD*%
%LPC*%
G36*
X290404Y231864D02*
X290404Y231864D01*
X290404Y238761D01*
X296086Y238761D01*
X296086Y234070D01*
X295913Y233424D01*
X295579Y232845D01*
X295105Y232371D01*
X294526Y232037D01*
X293880Y231864D01*
X290404Y231864D01*
G37*
%LPD*%
%LPC*%
G36*
X239604Y231864D02*
X239604Y231864D01*
X239604Y238761D01*
X245286Y238761D01*
X245286Y234070D01*
X245113Y233424D01*
X244779Y232845D01*
X244305Y232371D01*
X243726Y232037D01*
X243080Y231864D01*
X239604Y231864D01*
G37*
%LPD*%
%LPC*%
G36*
X239604Y155664D02*
X239604Y155664D01*
X239604Y162561D01*
X245286Y162561D01*
X245286Y157870D01*
X245113Y157224D01*
X244779Y156645D01*
X244305Y156171D01*
X243726Y155837D01*
X243080Y155664D01*
X239604Y155664D01*
G37*
%LPD*%
%LPC*%
G36*
X290404Y155664D02*
X290404Y155664D01*
X290404Y162561D01*
X296086Y162561D01*
X296086Y157870D01*
X295913Y157224D01*
X295579Y156645D01*
X295105Y156171D01*
X294526Y155837D01*
X293880Y155664D01*
X290404Y155664D01*
G37*
%LPD*%
%LPC*%
G36*
X163320Y155664D02*
X163320Y155664D01*
X162674Y155837D01*
X162095Y156171D01*
X161621Y156645D01*
X161287Y157224D01*
X161114Y157870D01*
X161114Y162561D01*
X166796Y162561D01*
X166796Y155664D01*
X163320Y155664D01*
G37*
%LPD*%
%LPC*%
G36*
X39353Y256399D02*
X39353Y256399D01*
X39353Y264100D01*
X42088Y264100D01*
X42735Y263927D01*
X43314Y263592D01*
X43787Y263119D01*
X44122Y262540D01*
X44295Y261893D01*
X44295Y256399D01*
X39353Y256399D01*
G37*
%LPD*%
%LPC*%
G36*
X39353Y243900D02*
X39353Y243900D01*
X39353Y251601D01*
X44295Y251601D01*
X44295Y246107D01*
X44122Y245460D01*
X43787Y244881D01*
X43314Y244408D01*
X42735Y244073D01*
X42088Y243900D01*
X39353Y243900D01*
G37*
%LPD*%
%LPC*%
G36*
X29613Y256399D02*
X29613Y256399D01*
X29613Y261893D01*
X29786Y262540D01*
X30121Y263119D01*
X30594Y263592D01*
X31173Y263927D01*
X31820Y264100D01*
X34555Y264100D01*
X34555Y256399D01*
X29613Y256399D01*
G37*
%LPD*%
%LPC*%
G36*
X31820Y243900D02*
X31820Y243900D01*
X31173Y244073D01*
X30594Y244408D01*
X30121Y244881D01*
X29786Y245460D01*
X29613Y246107D01*
X29613Y251601D01*
X34555Y251601D01*
X34555Y243900D01*
X31820Y243900D01*
G37*
%LPD*%
%LPC*%
G36*
X292399Y195199D02*
X292399Y195199D01*
X292399Y199241D01*
X298234Y199241D01*
X298881Y199068D01*
X299460Y198733D01*
X299933Y198260D01*
X300268Y197681D01*
X300441Y197034D01*
X300441Y195199D01*
X292399Y195199D01*
G37*
%LPD*%
%LPC*%
G36*
X281359Y195199D02*
X281359Y195199D01*
X281359Y197034D01*
X281532Y197681D01*
X281867Y198260D01*
X282340Y198733D01*
X282919Y199068D01*
X283566Y199241D01*
X289401Y199241D01*
X289401Y195199D01*
X281359Y195199D01*
G37*
%LPD*%
%LPC*%
G36*
X292399Y188159D02*
X292399Y188159D01*
X292399Y192201D01*
X300441Y192201D01*
X300441Y190366D01*
X300268Y189719D01*
X299933Y189140D01*
X299460Y188667D01*
X298881Y188332D01*
X298234Y188159D01*
X292399Y188159D01*
G37*
%LPD*%
%LPC*%
G36*
X241599Y188159D02*
X241599Y188159D01*
X241599Y192201D01*
X249641Y192201D01*
X249641Y190366D01*
X249468Y189719D01*
X249133Y189140D01*
X248660Y188667D01*
X248081Y188332D01*
X247434Y188159D01*
X241599Y188159D01*
G37*
%LPD*%
%LPC*%
G36*
X283566Y188159D02*
X283566Y188159D01*
X282919Y188332D01*
X282340Y188667D01*
X281867Y189140D01*
X281532Y189719D01*
X281359Y190366D01*
X281359Y192201D01*
X289401Y192201D01*
X289401Y188159D01*
X283566Y188159D01*
G37*
%LPD*%
%LPC*%
G36*
X232766Y188159D02*
X232766Y188159D01*
X232119Y188332D01*
X231540Y188667D01*
X231067Y189140D01*
X230732Y189719D01*
X230559Y190366D01*
X230559Y192201D01*
X238601Y192201D01*
X238601Y188159D01*
X232766Y188159D01*
G37*
%LPD*%
%LPC*%
G36*
X36442Y363890D02*
X36442Y363890D01*
X36442Y370681D01*
X38270Y370681D01*
X38916Y370508D01*
X39495Y370174D01*
X39969Y369700D01*
X40303Y369121D01*
X40476Y368475D01*
X40476Y363890D01*
X36442Y363890D01*
G37*
%LPD*%
%LPC*%
G36*
X36442Y354115D02*
X36442Y354115D01*
X36442Y360906D01*
X40476Y360906D01*
X40476Y356321D01*
X40303Y355675D01*
X39969Y355096D01*
X39495Y354622D01*
X38916Y354288D01*
X38270Y354115D01*
X36442Y354115D01*
G37*
%LPD*%
%LPC*%
G36*
X29424Y363890D02*
X29424Y363890D01*
X29424Y368475D01*
X29597Y369121D01*
X29931Y369700D01*
X30405Y370174D01*
X30984Y370508D01*
X31630Y370681D01*
X33458Y370681D01*
X33458Y363890D01*
X29424Y363890D01*
G37*
%LPD*%
%LPC*%
G36*
X31630Y354115D02*
X31630Y354115D01*
X30984Y354288D01*
X30405Y354622D01*
X29931Y355096D01*
X29597Y355675D01*
X29424Y356321D01*
X29424Y360906D01*
X33458Y360906D01*
X33458Y354115D01*
X31630Y354115D01*
G37*
%LPD*%
%LPC*%
G36*
X110252Y340248D02*
X110252Y340248D01*
X110252Y345091D01*
X113185Y345091D01*
X113832Y344918D01*
X114411Y344584D01*
X114884Y344110D01*
X115219Y343531D01*
X115392Y342885D01*
X115392Y340248D01*
X110252Y340248D01*
G37*
%LPD*%
%LPC*%
G36*
X100508Y340248D02*
X100508Y340248D01*
X100508Y342885D01*
X100681Y343531D01*
X101016Y344110D01*
X101489Y344584D01*
X102068Y344918D01*
X102715Y345091D01*
X105648Y345091D01*
X105648Y340248D01*
X100508Y340248D01*
G37*
%LPD*%
%LPC*%
G36*
X124809Y218202D02*
X124809Y218202D01*
X124809Y221135D01*
X124982Y221782D01*
X125316Y222361D01*
X125790Y222834D01*
X126369Y223169D01*
X127015Y223342D01*
X129652Y223342D01*
X129652Y218202D01*
X124809Y218202D01*
G37*
%LPD*%
%LPC*%
G36*
X127015Y208458D02*
X127015Y208458D01*
X126369Y208631D01*
X125790Y208966D01*
X125316Y209439D01*
X124982Y210018D01*
X124809Y210665D01*
X124809Y213598D01*
X129652Y213598D01*
X129652Y208458D01*
X127015Y208458D01*
G37*
%LPD*%
%LPC*%
G36*
X48609Y167277D02*
X48609Y167277D01*
X48609Y170330D01*
X48782Y170976D01*
X49116Y171555D01*
X49590Y172029D01*
X50169Y172363D01*
X50815Y172536D01*
X53327Y172536D01*
X53327Y167277D01*
X48609Y167277D01*
G37*
%LPD*%
%LPC*%
G36*
X50815Y157664D02*
X50815Y157664D01*
X50169Y157837D01*
X49590Y158171D01*
X49116Y158645D01*
X48782Y159224D01*
X48609Y159870D01*
X48609Y162923D01*
X53327Y162923D01*
X53327Y157664D01*
X50815Y157664D01*
G37*
%LPD*%
%LPC*%
G36*
X127015Y233864D02*
X127015Y233864D01*
X126369Y234037D01*
X125790Y234371D01*
X125316Y234845D01*
X124982Y235424D01*
X124809Y236070D01*
X124809Y239123D01*
X129527Y239123D01*
X129527Y233864D01*
X127015Y233864D01*
G37*
%LPD*%
%LPC*%
G36*
X165099Y419099D02*
X165099Y419099D01*
X165099Y419101D01*
X165101Y419101D01*
X165101Y419099D01*
X165099Y419099D01*
G37*
%LPD*%
%LPC*%
G36*
X228599Y419099D02*
X228599Y419099D01*
X228599Y419101D01*
X228601Y419101D01*
X228601Y419099D01*
X228599Y419099D01*
G37*
%LPD*%
%LPC*%
G36*
X294199Y367099D02*
X294199Y367099D01*
X294199Y367101D01*
X294201Y367101D01*
X294201Y367099D01*
X294199Y367099D01*
G37*
%LPD*%
%LPC*%
G36*
X139699Y163200D02*
X139699Y163200D01*
X139699Y163202D01*
X139701Y163202D01*
X139701Y163200D01*
X139699Y163200D01*
G37*
%LPD*%
D10*
X107950Y337946D03*
X107950Y322454D03*
D11*
X237065Y165100D03*
X220135Y165100D03*
X237065Y241300D03*
X220135Y241300D03*
X287865Y165100D03*
X270935Y165100D03*
X287865Y241300D03*
X270935Y241300D03*
D12*
X139700Y163201D03*
X139700Y192399D03*
D11*
X169335Y165100D03*
X186265Y165100D03*
D13*
X147446Y215900D03*
X131954Y215900D03*
D14*
X36954Y292100D03*
X64646Y292100D03*
X36954Y254000D03*
X64646Y254000D03*
D15*
X228600Y411480D02*
X228600Y426720D01*
X254000Y426720D02*
X254000Y411480D01*
X279400Y411480D02*
X279400Y426720D01*
X38100Y426720D02*
X38100Y411480D01*
X63500Y411480D02*
X63500Y426720D01*
X88900Y426720D02*
X88900Y411480D01*
X114300Y411480D02*
X114300Y426720D01*
X139700Y426720D02*
X139700Y411480D01*
X165100Y411480D02*
X165100Y426720D01*
D16*
X53950Y362398D03*
X34950Y362398D03*
X44450Y341182D03*
D17*
X239200Y355600D03*
D18*
X294200Y367100D03*
X294200Y344100D03*
D19*
X169804Y241300D03*
X185796Y241300D03*
X131704Y241300D03*
X147696Y241300D03*
D17*
X239200Y292100D03*
D18*
X294200Y303600D03*
X294200Y280600D03*
D19*
X217546Y387350D03*
X201554Y387350D03*
X84196Y381000D03*
X68204Y381000D03*
X99954Y292100D03*
X115946Y292100D03*
X99954Y260350D03*
X115946Y260350D03*
D20*
X133350Y292783D03*
X146050Y292783D03*
X158750Y292783D03*
X171450Y292783D03*
X171450Y342217D03*
X158750Y342217D03*
X146050Y342217D03*
X133350Y342217D03*
D21*
X168050Y192700D03*
X174550Y192700D03*
X181050Y192700D03*
X187550Y192700D03*
X187550Y213700D03*
X181050Y213700D03*
X174550Y213700D03*
X168050Y213700D03*
D22*
X177800Y203200D03*
D23*
X240100Y193700D03*
X240100Y212700D03*
X217100Y203200D03*
X290900Y193700D03*
X290900Y212700D03*
X267900Y203200D03*
D24*
X110300Y89900D03*
X124000Y62500D03*
X137700Y89900D03*
X151400Y62500D03*
X165100Y89900D03*
X178800Y62500D03*
X192500Y89900D03*
X206200Y62500D03*
X219900Y89900D03*
D25*
X40100Y76200D03*
X290100Y76200D03*
D26*
X74108Y193700D03*
X74108Y212700D03*
X52892Y203200D03*
D27*
X101600Y205504D03*
X101600Y175496D03*
D19*
X71496Y165100D03*
X55504Y165100D03*
D28*
X203200Y312796D03*
X203200Y296804D03*
D29*
X163830Y203200D03*
X154940Y203200D03*
X191770Y203200D03*
X127000Y177800D03*
X50800Y177800D03*
X50800Y152400D03*
X50800Y139700D03*
X25400Y139700D03*
X25400Y241300D03*
X25400Y266700D03*
X25400Y279400D03*
X25400Y304800D03*
X25400Y368300D03*
X25400Y355600D03*
X92710Y337820D03*
X226060Y193040D03*
X276860Y193040D03*
X279400Y139700D03*
X304800Y139700D03*
X215900Y215900D03*
X190500Y254000D03*
X127000Y266700D03*
X190500Y279400D03*
X171450Y309880D03*
X232410Y227330D03*
X139700Y177800D03*
X172720Y203200D03*
X182880Y203200D03*
X228600Y260350D03*
X250190Y248920D03*
X184150Y342900D03*
X123190Y337820D03*
X165100Y363220D03*
X76200Y393700D03*
X147320Y276860D03*
X127000Y228600D03*
X127000Y203200D03*
X127000Y152400D03*
X139700Y152400D03*
X184150Y182880D03*
X171450Y182880D03*
X166370Y223520D03*
X209550Y194310D03*
D30*
X63500Y385704D02*
X63500Y419100D01*
X63500Y385704D02*
X68204Y381000D01*
X68204Y372486D01*
X72390Y368300D01*
X146050Y368300D01*
X158750Y355600D01*
X158750Y342217D01*
X158750Y311150D02*
X158750Y292783D01*
X158750Y311150D02*
X165100Y317500D01*
X181610Y317500D01*
X239200Y313250D02*
X239200Y292100D01*
X187960Y323850D02*
X181610Y317500D01*
X187960Y323850D02*
X228600Y323850D01*
X239200Y313250D01*
X146050Y311150D02*
X146050Y292783D01*
X158750Y323850D02*
X177800Y323850D01*
X184150Y330200D01*
X239200Y340800D02*
X239200Y355600D01*
X239200Y340800D02*
X228600Y330200D01*
X184150Y330200D01*
X158750Y323850D02*
X146050Y311150D01*
X199179Y292783D02*
X203200Y296804D01*
X199179Y292783D02*
X171450Y292783D01*
D29*
X177800Y279400D03*
D30*
X171450Y285750D01*
X171450Y292783D01*
X171450Y342217D02*
X171450Y357246D01*
X201554Y387350D01*
X88900Y385704D02*
X84196Y381000D01*
X88900Y385704D02*
X88900Y419100D01*
D31*
X147446Y215900D02*
X149646Y213700D01*
X168050Y213700D01*
D30*
X99954Y292100D02*
X64646Y292100D01*
X83696Y260350D02*
X99954Y260350D01*
X83696Y260350D02*
X77346Y254000D01*
X64646Y254000D01*
X44450Y312296D02*
X44450Y341182D01*
X44450Y312296D02*
X36954Y304800D01*
X36954Y292100D01*
X54398Y361950D02*
X139700Y361950D01*
X54398Y361950D02*
X53950Y362398D01*
X139700Y361950D02*
X146050Y355600D01*
X146050Y342217D01*
X146050Y323850D01*
X139700Y317500D01*
D29*
X139700Y317500D03*
D30*
X217546Y387350D02*
X256540Y387350D01*
X279400Y410210D01*
X279400Y419100D01*
X169804Y241300D02*
X147696Y241300D01*
X169804Y232410D02*
X181050Y221164D01*
X169804Y232410D02*
X169804Y241300D01*
X181050Y221164D02*
X181050Y213700D01*
D32*
X81892Y175496D02*
X71496Y165100D01*
X74108Y183280D02*
X74108Y193700D01*
X74108Y183280D02*
X77894Y179494D01*
X81892Y175496D01*
X77894Y179494D01*
X81892Y175496D02*
X101600Y175496D01*
D30*
X294200Y344100D02*
X304800Y333500D01*
X304800Y291200D02*
X294200Y280600D01*
X304800Y291200D02*
X304800Y333500D01*
X270935Y257335D02*
X270935Y241300D01*
X270935Y257335D02*
X294200Y280600D01*
X270935Y241300D02*
X270935Y228175D01*
X285750Y213360D01*
X290240Y213360D01*
X290900Y212700D01*
D29*
X177800Y146050D03*
D30*
X254000Y146050D01*
D29*
X254000Y146050D03*
X254000Y228600D03*
D30*
X270510Y228600D01*
X270935Y228175D01*
X220135Y228175D02*
X220135Y241300D01*
X220135Y228175D02*
X234950Y213360D01*
X239440Y213360D01*
X240100Y212700D01*
X189500Y114300D02*
X165100Y89900D01*
X189500Y114300D02*
X241300Y114300D01*
D29*
X241300Y114300D03*
X241300Y222250D03*
D30*
X241300Y213900D01*
X240100Y212700D01*
X122046Y322454D02*
X107950Y322454D01*
X122046Y322454D02*
X133350Y311150D01*
X133350Y292783D01*
X133350Y279400D01*
X146050Y266700D01*
X194735Y266700D01*
X220135Y241300D01*
D29*
X122046Y322454D03*
D32*
X52892Y203200D02*
X38100Y188408D01*
X87900Y89900D02*
X110300Y89900D01*
X38100Y139700D02*
X38100Y188408D01*
X38100Y139700D02*
X87900Y89900D01*
D30*
X267900Y168135D02*
X267900Y203200D01*
X267900Y168135D02*
X270935Y165100D01*
X217100Y168135D02*
X217100Y203200D01*
X217100Y168135D02*
X220135Y165100D01*
X115946Y260350D02*
X115946Y292100D01*
X217100Y203200D02*
X267900Y203200D01*
D33*
X200660Y215900D03*
D34*
X200660Y226436D02*
X185796Y241300D01*
X200660Y226436D02*
X200660Y215900D01*
X200660Y179495D02*
X186265Y165100D01*
X200660Y179495D02*
X200660Y192700D01*
X200660Y203200D01*
X200660Y215900D01*
D31*
X200660Y192700D02*
X187550Y192700D01*
X187550Y213700D02*
X200660Y213700D01*
D34*
X200660Y215900D01*
D30*
X200660Y203200D02*
X217100Y203200D01*
X176530Y251460D02*
X124836Y251460D01*
X115946Y260350D01*
X185796Y242194D02*
X185796Y241300D01*
X185796Y242194D02*
X176530Y251460D01*
D31*
X140001Y192700D02*
X139700Y192399D01*
X140001Y192700D02*
X168050Y192700D01*
X174550Y192700D01*
D32*
X140001Y192700D02*
X114404Y192700D01*
X101600Y205504D01*
X94404Y212700D01*
X74108Y212700D01*
D35*
X50800Y-25400D03*
X279400Y-25400D03*
X50800Y482600D03*
M02*
