G04 EAGLE Gerber RS-274X export*
G75*
%MOMM*%
%FSLAX34Y34*%
%LPD*%
%INBottom Copper*%
%IPPOS*%
%AMOC8*
5,1,8,0,0,1.08239X$1,22.5*%
G01*
%ADD10C,1.524000*%
%ADD11R,0.979100X0.870900*%
%ADD12C,1.778000*%
%ADD13P,4.455117X8X22.500000*%
%ADD14C,0.584200*%
%ADD15C,0.304800*%
%ADD16C,0.635000*%
%ADD17C,0.711200*%
%ADD18C,6.604000*%

G36*
X316348Y-63484D02*
X316348Y-63484D01*
X316467Y-63477D01*
X316505Y-63464D01*
X316546Y-63459D01*
X316656Y-63416D01*
X316769Y-63379D01*
X316804Y-63357D01*
X316841Y-63342D01*
X316937Y-63273D01*
X317038Y-63209D01*
X317066Y-63179D01*
X317099Y-63156D01*
X317175Y-63064D01*
X317256Y-62977D01*
X317276Y-62942D01*
X317301Y-62911D01*
X317352Y-62803D01*
X317410Y-62699D01*
X317420Y-62659D01*
X317437Y-62623D01*
X317459Y-62506D01*
X317489Y-62391D01*
X317493Y-62331D01*
X317497Y-62311D01*
X317495Y-62290D01*
X317499Y-62230D01*
X317499Y519430D01*
X317484Y519548D01*
X317477Y519667D01*
X317464Y519705D01*
X317459Y519746D01*
X317416Y519856D01*
X317379Y519969D01*
X317357Y520004D01*
X317342Y520041D01*
X317273Y520137D01*
X317209Y520238D01*
X317179Y520266D01*
X317156Y520299D01*
X317064Y520375D01*
X316977Y520456D01*
X316942Y520476D01*
X316911Y520501D01*
X316803Y520552D01*
X316699Y520610D01*
X316659Y520620D01*
X316623Y520637D01*
X316506Y520659D01*
X316391Y520689D01*
X316331Y520693D01*
X316311Y520697D01*
X316290Y520695D01*
X316230Y520699D01*
X13970Y520699D01*
X13852Y520684D01*
X13733Y520677D01*
X13695Y520664D01*
X13654Y520659D01*
X13544Y520616D01*
X13431Y520579D01*
X13396Y520557D01*
X13359Y520542D01*
X13263Y520473D01*
X13162Y520409D01*
X13134Y520379D01*
X13101Y520356D01*
X13025Y520264D01*
X12944Y520177D01*
X12924Y520142D01*
X12899Y520111D01*
X12848Y520003D01*
X12790Y519899D01*
X12780Y519859D01*
X12763Y519823D01*
X12741Y519706D01*
X12711Y519591D01*
X12707Y519531D01*
X12703Y519511D01*
X12705Y519490D01*
X12701Y519430D01*
X12701Y-62230D01*
X12716Y-62348D01*
X12723Y-62467D01*
X12736Y-62505D01*
X12741Y-62546D01*
X12784Y-62656D01*
X12821Y-62769D01*
X12843Y-62804D01*
X12858Y-62841D01*
X12927Y-62937D01*
X12991Y-63038D01*
X13021Y-63066D01*
X13044Y-63099D01*
X13136Y-63175D01*
X13223Y-63256D01*
X13258Y-63276D01*
X13289Y-63301D01*
X13397Y-63352D01*
X13501Y-63410D01*
X13541Y-63420D01*
X13577Y-63437D01*
X13694Y-63459D01*
X13809Y-63489D01*
X13869Y-63493D01*
X13889Y-63497D01*
X13910Y-63495D01*
X13970Y-63499D01*
X316230Y-63499D01*
X316348Y-63484D01*
G37*
%LPC*%
G36*
X176526Y51069D02*
X176526Y51069D01*
X172325Y52809D01*
X169109Y56025D01*
X167369Y60226D01*
X167369Y64774D01*
X169109Y68975D01*
X172325Y72191D01*
X173952Y72864D01*
X173977Y72879D01*
X174005Y72888D01*
X174115Y72958D01*
X174228Y73022D01*
X174249Y73042D01*
X174274Y73058D01*
X174363Y73153D01*
X174456Y73243D01*
X174472Y73268D01*
X174492Y73290D01*
X174555Y73403D01*
X174623Y73514D01*
X174631Y73542D01*
X174646Y73568D01*
X174678Y73694D01*
X174716Y73818D01*
X174718Y73848D01*
X174725Y73876D01*
X174735Y74037D01*
X174735Y80306D01*
X174718Y80444D01*
X174705Y80582D01*
X174698Y80601D01*
X174695Y80621D01*
X174644Y80750D01*
X174597Y80881D01*
X174586Y80898D01*
X174578Y80917D01*
X174497Y81029D01*
X174419Y81144D01*
X174403Y81158D01*
X174392Y81174D01*
X174284Y81263D01*
X174180Y81355D01*
X174162Y81364D01*
X174147Y81377D01*
X174021Y81436D01*
X173897Y81499D01*
X173877Y81504D01*
X173859Y81512D01*
X173722Y81539D01*
X173587Y81569D01*
X173566Y81568D01*
X173547Y81572D01*
X173408Y81564D01*
X173269Y81559D01*
X173249Y81554D01*
X173229Y81552D01*
X173097Y81510D01*
X172963Y81471D01*
X172946Y81461D01*
X172927Y81454D01*
X172809Y81380D01*
X172689Y81309D01*
X172668Y81291D01*
X172658Y81284D01*
X172644Y81269D01*
X172569Y81203D01*
X171575Y80209D01*
X167374Y78469D01*
X162826Y78469D01*
X158625Y80209D01*
X155409Y83425D01*
X153669Y87626D01*
X153669Y92174D01*
X155409Y96375D01*
X158625Y99591D01*
X162826Y101331D01*
X167374Y101331D01*
X169924Y100274D01*
X169991Y100256D01*
X170055Y100228D01*
X170144Y100214D01*
X170231Y100190D01*
X170300Y100189D01*
X170369Y100178D01*
X170459Y100187D01*
X170549Y100185D01*
X170616Y100202D01*
X170686Y100208D01*
X170770Y100239D01*
X170858Y100260D01*
X170920Y100292D01*
X170985Y100316D01*
X171060Y100366D01*
X171139Y100408D01*
X171191Y100455D01*
X171248Y100494D01*
X171308Y100562D01*
X171374Y100622D01*
X171413Y100681D01*
X171459Y100733D01*
X171500Y100813D01*
X171549Y100888D01*
X171572Y100954D01*
X171603Y101016D01*
X171623Y101104D01*
X171652Y101189D01*
X171658Y101258D01*
X171673Y101326D01*
X171670Y101416D01*
X171677Y101506D01*
X171666Y101575D01*
X171663Y101644D01*
X171638Y101731D01*
X171623Y101819D01*
X171594Y101883D01*
X171575Y101950D01*
X171529Y102027D01*
X171492Y102109D01*
X171449Y102164D01*
X171413Y102224D01*
X171307Y102345D01*
X160843Y112809D01*
X160749Y112882D01*
X160660Y112960D01*
X160624Y112979D01*
X160592Y113004D01*
X160482Y113051D01*
X160376Y113105D01*
X160337Y113114D01*
X160300Y113130D01*
X160182Y113149D01*
X160066Y113175D01*
X160026Y113174D01*
X159986Y113180D01*
X159867Y113169D01*
X159748Y113165D01*
X159709Y113154D01*
X159669Y113150D01*
X159557Y113110D01*
X159443Y113077D01*
X159408Y113056D01*
X159370Y113042D01*
X159271Y112976D01*
X159169Y112915D01*
X159124Y112875D01*
X159107Y112864D01*
X159093Y112848D01*
X159048Y112809D01*
X158348Y112109D01*
X146452Y112109D01*
X144964Y113597D01*
X144964Y124411D01*
X146655Y126102D01*
X146728Y126197D01*
X146807Y126286D01*
X146825Y126322D01*
X146850Y126354D01*
X146898Y126463D01*
X146952Y126569D01*
X146961Y126608D01*
X146977Y126646D01*
X146995Y126763D01*
X147021Y126879D01*
X147020Y126920D01*
X147026Y126960D01*
X147015Y127078D01*
X147012Y127197D01*
X147000Y127236D01*
X146997Y127276D01*
X146956Y127389D01*
X146923Y127503D01*
X146903Y127537D01*
X146889Y127576D01*
X146822Y127674D01*
X146762Y127777D01*
X146722Y127822D01*
X146710Y127839D01*
X146695Y127852D01*
X146655Y127897D01*
X144964Y129589D01*
X144964Y140403D01*
X146452Y141891D01*
X147066Y141891D01*
X147184Y141906D01*
X147303Y141914D01*
X147341Y141926D01*
X147382Y141931D01*
X147492Y141975D01*
X147605Y142012D01*
X147640Y142033D01*
X147677Y142048D01*
X147773Y142118D01*
X147874Y142182D01*
X147902Y142211D01*
X147935Y142235D01*
X148011Y142327D01*
X148092Y142413D01*
X148112Y142449D01*
X148137Y142480D01*
X148188Y142588D01*
X148246Y142692D01*
X148256Y142731D01*
X148273Y142768D01*
X148295Y142884D01*
X148325Y143000D01*
X148329Y143060D01*
X148333Y143080D01*
X148331Y143100D01*
X148335Y143160D01*
X148335Y174697D01*
X148323Y174795D01*
X148320Y174894D01*
X148303Y174952D01*
X148295Y175012D01*
X148259Y175104D01*
X148231Y175199D01*
X148201Y175251D01*
X148178Y175308D01*
X148120Y175388D01*
X148070Y175473D01*
X148004Y175549D01*
X147992Y175565D01*
X147982Y175573D01*
X147964Y175594D01*
X135635Y187922D01*
X135635Y313315D01*
X135623Y313413D01*
X135620Y313512D01*
X135603Y313570D01*
X135595Y313630D01*
X135559Y313723D01*
X135531Y313818D01*
X135501Y313870D01*
X135478Y313926D01*
X135420Y314006D01*
X135370Y314092D01*
X135304Y314167D01*
X135292Y314183D01*
X135282Y314191D01*
X135264Y314212D01*
X135070Y314406D01*
X134238Y316414D01*
X134238Y318586D01*
X135070Y320594D01*
X136606Y322130D01*
X138614Y322962D01*
X140786Y322962D01*
X142794Y322130D01*
X144330Y320594D01*
X145162Y318586D01*
X145162Y316414D01*
X144330Y314406D01*
X144136Y314212D01*
X144076Y314134D01*
X144008Y314062D01*
X143979Y314009D01*
X143942Y313961D01*
X143902Y313870D01*
X143854Y313784D01*
X143839Y313725D01*
X143815Y313669D01*
X143800Y313571D01*
X143775Y313476D01*
X143769Y313376D01*
X143765Y313355D01*
X143767Y313343D01*
X143765Y313315D01*
X143765Y254177D01*
X143782Y254040D01*
X143795Y253901D01*
X143802Y253882D01*
X143805Y253862D01*
X143856Y253733D01*
X143903Y253602D01*
X143914Y253585D01*
X143922Y253566D01*
X144003Y253454D01*
X144081Y253339D01*
X144097Y253325D01*
X144108Y253309D01*
X144216Y253220D01*
X144320Y253128D01*
X144338Y253119D01*
X144353Y253106D01*
X144479Y253047D01*
X144603Y252984D01*
X144623Y252979D01*
X144641Y252970D01*
X144777Y252944D01*
X144913Y252914D01*
X144934Y252914D01*
X144953Y252911D01*
X145092Y252919D01*
X145231Y252924D01*
X145251Y252929D01*
X145271Y252930D01*
X145403Y252973D01*
X145537Y253012D01*
X145554Y253022D01*
X145573Y253028D01*
X145691Y253103D01*
X145811Y253173D01*
X145832Y253192D01*
X145842Y253199D01*
X145856Y253213D01*
X145931Y253280D01*
X171967Y279315D01*
X172027Y279393D01*
X172095Y279465D01*
X172124Y279518D01*
X172161Y279566D01*
X172201Y279657D01*
X172249Y279744D01*
X172264Y279802D01*
X172288Y279858D01*
X172303Y279956D01*
X172328Y280052D01*
X172334Y280152D01*
X172338Y280172D01*
X172336Y280184D01*
X172338Y280212D01*
X172338Y280486D01*
X173170Y282494D01*
X174706Y284030D01*
X176714Y284862D01*
X178886Y284862D01*
X180894Y284030D01*
X182430Y282494D01*
X183262Y280486D01*
X183262Y278314D01*
X182430Y276306D01*
X180894Y274770D01*
X178886Y273938D01*
X178612Y273938D01*
X178514Y273926D01*
X178415Y273923D01*
X178357Y273906D01*
X178297Y273898D01*
X178205Y273862D01*
X178110Y273834D01*
X178058Y273804D01*
X178001Y273781D01*
X177921Y273723D01*
X177836Y273673D01*
X177760Y273607D01*
X177744Y273595D01*
X177736Y273585D01*
X177715Y273567D01*
X150486Y246338D01*
X150426Y246260D01*
X150358Y246188D01*
X150329Y246135D01*
X150292Y246087D01*
X150252Y245996D01*
X150204Y245909D01*
X150189Y245851D01*
X150165Y245795D01*
X150150Y245697D01*
X150125Y245601D01*
X150119Y245501D01*
X150115Y245481D01*
X150117Y245469D01*
X150115Y245441D01*
X150115Y194355D01*
X150127Y194257D01*
X150130Y194158D01*
X150147Y194100D01*
X150155Y194040D01*
X150191Y193948D01*
X150219Y193853D01*
X150249Y193801D01*
X150272Y193744D01*
X150330Y193664D01*
X150380Y193579D01*
X150446Y193503D01*
X150458Y193487D01*
X150468Y193479D01*
X150486Y193458D01*
X201681Y142263D01*
X201760Y142202D01*
X201832Y142134D01*
X201885Y142105D01*
X201933Y142068D01*
X202024Y142029D01*
X202110Y141981D01*
X202169Y141966D01*
X202225Y141942D01*
X202322Y141926D01*
X202418Y141901D01*
X202518Y141895D01*
X202539Y141892D01*
X202551Y141893D01*
X202579Y141891D01*
X209148Y141891D01*
X210636Y140403D01*
X210636Y129589D01*
X208945Y127897D01*
X208872Y127803D01*
X208793Y127714D01*
X208775Y127678D01*
X208750Y127646D01*
X208702Y127537D01*
X208648Y127431D01*
X208639Y127392D01*
X208623Y127354D01*
X208605Y127237D01*
X208579Y127121D01*
X208580Y127080D01*
X208574Y127040D01*
X208585Y126922D01*
X208588Y126803D01*
X208600Y126764D01*
X208603Y126724D01*
X208644Y126612D01*
X208677Y126497D01*
X208697Y126462D01*
X208711Y126424D01*
X208778Y126326D01*
X208838Y126223D01*
X208878Y126178D01*
X208890Y126161D01*
X208905Y126148D01*
X208945Y126102D01*
X210636Y124411D01*
X210636Y113597D01*
X209148Y112109D01*
X208534Y112109D01*
X208416Y112094D01*
X208297Y112086D01*
X208259Y112074D01*
X208218Y112069D01*
X208108Y112025D01*
X207995Y111988D01*
X207960Y111967D01*
X207923Y111952D01*
X207827Y111882D01*
X207726Y111818D01*
X207698Y111789D01*
X207665Y111765D01*
X207589Y111673D01*
X207508Y111587D01*
X207488Y111551D01*
X207463Y111520D01*
X207412Y111412D01*
X207354Y111308D01*
X207344Y111269D01*
X207327Y111232D01*
X207305Y111116D01*
X207275Y111000D01*
X207271Y110940D01*
X207267Y110920D01*
X207269Y110900D01*
X207265Y110840D01*
X207265Y103809D01*
X207277Y103711D01*
X207280Y103612D01*
X207297Y103554D01*
X207305Y103494D01*
X207341Y103402D01*
X207369Y103307D01*
X207399Y103255D01*
X207422Y103198D01*
X207480Y103118D01*
X207530Y103033D01*
X207596Y102957D01*
X207608Y102941D01*
X207618Y102933D01*
X207636Y102912D01*
X210265Y100284D01*
X210265Y99494D01*
X210282Y99356D01*
X210295Y99218D01*
X210302Y99199D01*
X210305Y99179D01*
X210356Y99050D01*
X210403Y98919D01*
X210414Y98902D01*
X210422Y98883D01*
X210503Y98771D01*
X210581Y98656D01*
X210597Y98642D01*
X210608Y98626D01*
X210716Y98537D01*
X210820Y98445D01*
X210838Y98436D01*
X210853Y98423D01*
X210979Y98364D01*
X211103Y98301D01*
X211123Y98296D01*
X211141Y98288D01*
X211278Y98261D01*
X211413Y98231D01*
X211434Y98232D01*
X211453Y98228D01*
X211592Y98236D01*
X211731Y98241D01*
X211751Y98246D01*
X211771Y98248D01*
X211903Y98290D01*
X212037Y98329D01*
X212054Y98339D01*
X212073Y98346D01*
X212191Y98420D01*
X212311Y98491D01*
X212332Y98509D01*
X212342Y98516D01*
X212356Y98531D01*
X212431Y98597D01*
X213425Y99591D01*
X215052Y100264D01*
X215077Y100279D01*
X215105Y100288D01*
X215215Y100358D01*
X215328Y100422D01*
X215349Y100442D01*
X215374Y100458D01*
X215463Y100553D01*
X215556Y100643D01*
X215572Y100668D01*
X215592Y100690D01*
X215655Y100803D01*
X215723Y100914D01*
X215731Y100942D01*
X215746Y100968D01*
X215778Y101094D01*
X215816Y101218D01*
X215818Y101248D01*
X215825Y101276D01*
X215835Y101437D01*
X215835Y111988D01*
X218588Y114740D01*
X220792Y116944D01*
X220853Y117023D01*
X220921Y117095D01*
X220950Y117148D01*
X220987Y117196D01*
X221026Y117287D01*
X221074Y117373D01*
X221089Y117432D01*
X221113Y117488D01*
X221129Y117585D01*
X221154Y117681D01*
X221160Y117781D01*
X221163Y117802D01*
X221162Y117814D01*
X221164Y117842D01*
X221164Y124411D01*
X223014Y126261D01*
X223091Y126361D01*
X223173Y126456D01*
X223188Y126486D01*
X223209Y126513D01*
X223259Y126628D01*
X223315Y126741D01*
X223322Y126774D01*
X223335Y126804D01*
X223355Y126929D01*
X223381Y127052D01*
X223380Y127085D01*
X223385Y127119D01*
X223374Y127244D01*
X223368Y127369D01*
X223359Y127402D01*
X223356Y127435D01*
X223313Y127554D01*
X223277Y127674D01*
X223259Y127703D01*
X223248Y127734D01*
X223177Y127839D01*
X223112Y127946D01*
X223088Y127970D01*
X223069Y127998D01*
X222975Y128081D01*
X222885Y128169D01*
X222845Y128196D01*
X222831Y128208D01*
X222812Y128218D01*
X222751Y128258D01*
X222145Y128608D01*
X221671Y129082D01*
X221337Y129661D01*
X221164Y130307D01*
X221164Y132819D01*
X227693Y132819D01*
X227811Y132834D01*
X227929Y132842D01*
X227968Y132854D01*
X228008Y132859D01*
X228119Y132903D01*
X228232Y132940D01*
X228266Y132961D01*
X228304Y132976D01*
X228400Y133046D01*
X228501Y133110D01*
X228528Y133139D01*
X228561Y133163D01*
X228637Y133255D01*
X228719Y133342D01*
X228738Y133377D01*
X228764Y133408D01*
X228815Y133516D01*
X228872Y133620D01*
X228882Y133659D01*
X228899Y133696D01*
X228922Y133813D01*
X228952Y133928D01*
X228955Y133988D01*
X228959Y134008D01*
X228958Y134029D01*
X228962Y134089D01*
X228962Y134634D01*
X229507Y134634D01*
X229625Y134649D01*
X229744Y134657D01*
X229783Y134669D01*
X229823Y134674D01*
X229934Y134718D01*
X230047Y134755D01*
X230081Y134776D01*
X230118Y134791D01*
X230215Y134861D01*
X230315Y134925D01*
X230343Y134954D01*
X230376Y134978D01*
X230452Y135070D01*
X230533Y135156D01*
X230553Y135192D01*
X230579Y135223D01*
X230629Y135331D01*
X230687Y135435D01*
X230697Y135474D01*
X230714Y135511D01*
X230737Y135627D01*
X230766Y135743D01*
X230770Y135803D01*
X230774Y135823D01*
X230773Y135843D01*
X230777Y135903D01*
X230777Y141891D01*
X233830Y141891D01*
X234476Y141718D01*
X235056Y141384D01*
X235068Y141371D01*
X235178Y141286D01*
X235285Y141197D01*
X235304Y141188D01*
X235320Y141176D01*
X235448Y141120D01*
X235573Y141061D01*
X235593Y141057D01*
X235612Y141049D01*
X235749Y141027D01*
X235886Y141001D01*
X235906Y141003D01*
X235926Y140999D01*
X236064Y141013D01*
X236203Y141021D01*
X236222Y141027D01*
X236242Y141029D01*
X236374Y141076D01*
X236505Y141119D01*
X236522Y141130D01*
X236542Y141137D01*
X236657Y141215D01*
X236774Y141289D01*
X236788Y141304D01*
X236805Y141315D01*
X236897Y141420D01*
X236992Y141521D01*
X237002Y141539D01*
X237015Y141554D01*
X237078Y141678D01*
X237146Y141799D01*
X237151Y141819D01*
X237160Y141837D01*
X237190Y141973D01*
X237225Y142107D01*
X237227Y142135D01*
X237230Y142147D01*
X237229Y142168D01*
X237235Y142268D01*
X237235Y147734D01*
X243214Y153712D01*
X243274Y153790D01*
X243342Y153862D01*
X243371Y153915D01*
X243408Y153963D01*
X243448Y154054D01*
X243496Y154141D01*
X243511Y154199D01*
X243535Y154255D01*
X243550Y154353D01*
X243575Y154449D01*
X243581Y154549D01*
X243585Y154569D01*
X243583Y154581D01*
X243585Y154609D01*
X243585Y213691D01*
X243573Y213789D01*
X243570Y213888D01*
X243553Y213946D01*
X243545Y214006D01*
X243509Y214098D01*
X243481Y214193D01*
X243451Y214245D01*
X243428Y214302D01*
X243370Y214382D01*
X243320Y214467D01*
X243254Y214543D01*
X243242Y214559D01*
X243232Y214567D01*
X243214Y214588D01*
X241385Y216417D01*
X241307Y216477D01*
X241235Y216545D01*
X241182Y216574D01*
X241134Y216611D01*
X241043Y216651D01*
X240956Y216699D01*
X240898Y216714D01*
X240842Y216738D01*
X240744Y216753D01*
X240648Y216778D01*
X240548Y216784D01*
X240528Y216788D01*
X240516Y216786D01*
X240488Y216788D01*
X240214Y216788D01*
X238206Y217620D01*
X236670Y219156D01*
X235838Y221164D01*
X235838Y223336D01*
X236670Y225344D01*
X238206Y226880D01*
X240214Y227712D01*
X242386Y227712D01*
X244394Y226880D01*
X245930Y225344D01*
X246762Y223336D01*
X246762Y223062D01*
X246774Y222964D01*
X246777Y222865D01*
X246794Y222807D01*
X246802Y222747D01*
X246838Y222655D01*
X246866Y222560D01*
X246896Y222507D01*
X246919Y222451D01*
X246977Y222371D01*
X247027Y222286D01*
X247093Y222210D01*
X247105Y222194D01*
X247115Y222186D01*
X247133Y222165D01*
X247768Y221530D01*
X247878Y221445D01*
X247985Y221356D01*
X248004Y221347D01*
X248020Y221335D01*
X248148Y221280D01*
X248273Y221220D01*
X248293Y221217D01*
X248312Y221209D01*
X248450Y221187D01*
X248586Y221161D01*
X248606Y221162D01*
X248626Y221159D01*
X248765Y221172D01*
X248903Y221180D01*
X248922Y221187D01*
X248942Y221189D01*
X249073Y221236D01*
X249205Y221278D01*
X249223Y221289D01*
X249242Y221296D01*
X249356Y221374D01*
X249474Y221449D01*
X249488Y221463D01*
X249505Y221475D01*
X249597Y221579D01*
X249692Y221680D01*
X249702Y221698D01*
X249715Y221713D01*
X249778Y221837D01*
X249846Y221959D01*
X249851Y221978D01*
X249860Y221996D01*
X249890Y222132D01*
X249925Y222267D01*
X249927Y222295D01*
X249930Y222307D01*
X249929Y222327D01*
X249935Y222427D01*
X249935Y224415D01*
X249923Y224513D01*
X249920Y224612D01*
X249903Y224670D01*
X249895Y224730D01*
X249859Y224823D01*
X249831Y224918D01*
X249801Y224970D01*
X249778Y225026D01*
X249720Y225106D01*
X249670Y225192D01*
X249604Y225267D01*
X249592Y225283D01*
X249582Y225291D01*
X249564Y225312D01*
X249370Y225506D01*
X248538Y227514D01*
X248538Y229686D01*
X249370Y231694D01*
X250906Y233230D01*
X252914Y234062D01*
X255086Y234062D01*
X257094Y233230D01*
X258630Y231694D01*
X259462Y229686D01*
X259462Y227514D01*
X258630Y225506D01*
X258436Y225312D01*
X258376Y225234D01*
X258308Y225162D01*
X258279Y225109D01*
X258242Y225061D01*
X258202Y224970D01*
X258154Y224884D01*
X258139Y224825D01*
X258115Y224769D01*
X258100Y224671D01*
X258075Y224576D01*
X258069Y224476D01*
X258065Y224455D01*
X258067Y224443D01*
X258065Y224415D01*
X258065Y150235D01*
X258077Y150137D01*
X258080Y150038D01*
X258097Y149980D01*
X258105Y149920D01*
X258141Y149827D01*
X258169Y149732D01*
X258199Y149680D01*
X258222Y149624D01*
X258280Y149544D01*
X258330Y149458D01*
X258396Y149383D01*
X258408Y149367D01*
X258418Y149359D01*
X258436Y149338D01*
X258630Y149144D01*
X259462Y147136D01*
X259462Y144964D01*
X258630Y142956D01*
X257094Y141420D01*
X255086Y140588D01*
X252914Y140588D01*
X250906Y141420D01*
X249370Y142956D01*
X248511Y145030D01*
X248486Y145074D01*
X248469Y145120D01*
X248408Y145211D01*
X248353Y145307D01*
X248318Y145342D01*
X248291Y145383D01*
X248208Y145456D01*
X248132Y145535D01*
X248089Y145561D01*
X248052Y145594D01*
X247954Y145644D01*
X247861Y145701D01*
X247813Y145716D01*
X247769Y145738D01*
X247662Y145763D01*
X247557Y145795D01*
X247507Y145797D01*
X247459Y145808D01*
X247349Y145805D01*
X247239Y145810D01*
X247191Y145800D01*
X247141Y145798D01*
X247035Y145768D01*
X246928Y145746D01*
X246883Y145724D01*
X246835Y145710D01*
X246741Y145654D01*
X246642Y145606D01*
X246604Y145574D01*
X246561Y145548D01*
X246440Y145442D01*
X245736Y144738D01*
X245676Y144660D01*
X245608Y144588D01*
X245579Y144535D01*
X245542Y144487D01*
X245502Y144396D01*
X245454Y144309D01*
X245439Y144251D01*
X245415Y144195D01*
X245400Y144097D01*
X245375Y144001D01*
X245369Y143901D01*
X245365Y143881D01*
X245367Y143869D01*
X245365Y143841D01*
X245365Y118485D01*
X245377Y118387D01*
X245380Y118288D01*
X245397Y118230D01*
X245405Y118170D01*
X245441Y118077D01*
X245469Y117982D01*
X245499Y117930D01*
X245522Y117874D01*
X245580Y117794D01*
X245630Y117708D01*
X245696Y117633D01*
X245708Y117617D01*
X245718Y117609D01*
X245736Y117588D01*
X245930Y117394D01*
X246762Y115386D01*
X246762Y113214D01*
X245930Y111206D01*
X244394Y109670D01*
X242386Y108838D01*
X240214Y108838D01*
X238206Y109670D01*
X236670Y111206D01*
X236511Y111590D01*
X236486Y111633D01*
X236469Y111680D01*
X236408Y111771D01*
X236353Y111866D01*
X236319Y111902D01*
X236291Y111943D01*
X236208Y112016D01*
X236132Y112094D01*
X236090Y112120D01*
X236052Y112153D01*
X235955Y112203D01*
X235861Y112261D01*
X235813Y112275D01*
X235769Y112298D01*
X235662Y112322D01*
X235557Y112354D01*
X235507Y112357D01*
X235459Y112368D01*
X235349Y112364D01*
X235239Y112369D01*
X235191Y112359D01*
X235141Y112358D01*
X235036Y112327D01*
X234928Y112305D01*
X234883Y112283D01*
X234836Y112270D01*
X234741Y112214D01*
X234642Y112165D01*
X234604Y112133D01*
X234563Y112109D01*
X227979Y112109D01*
X227881Y112096D01*
X227782Y112093D01*
X227723Y112077D01*
X227663Y112069D01*
X227571Y112032D01*
X227476Y112005D01*
X227424Y111974D01*
X227368Y111952D01*
X227287Y111894D01*
X227202Y111843D01*
X227127Y111777D01*
X227110Y111765D01*
X227103Y111756D01*
X227081Y111737D01*
X224336Y108992D01*
X224276Y108914D01*
X224208Y108842D01*
X224179Y108789D01*
X224142Y108741D01*
X224102Y108650D01*
X224054Y108563D01*
X224039Y108505D01*
X224015Y108449D01*
X224000Y108351D01*
X223975Y108255D01*
X223969Y108155D01*
X223965Y108135D01*
X223967Y108123D01*
X223965Y108095D01*
X223965Y101437D01*
X223968Y101408D01*
X223966Y101378D01*
X223988Y101250D01*
X224005Y101121D01*
X224015Y101094D01*
X224020Y101065D01*
X224074Y100946D01*
X224122Y100826D01*
X224139Y100802D01*
X224151Y100775D01*
X224232Y100674D01*
X224308Y100568D01*
X224331Y100550D01*
X224350Y100527D01*
X224453Y100449D01*
X224553Y100366D01*
X224580Y100353D01*
X224604Y100335D01*
X224748Y100264D01*
X226375Y99591D01*
X229591Y96375D01*
X231331Y92174D01*
X231331Y87626D01*
X229591Y83425D01*
X226375Y80209D01*
X222174Y78469D01*
X217626Y78469D01*
X213425Y80209D01*
X212431Y81203D01*
X212322Y81288D01*
X212215Y81377D01*
X212196Y81386D01*
X212180Y81398D01*
X212053Y81453D01*
X211927Y81512D01*
X211907Y81516D01*
X211888Y81524D01*
X211750Y81546D01*
X211614Y81572D01*
X211594Y81571D01*
X211574Y81574D01*
X211435Y81561D01*
X211297Y81552D01*
X211278Y81546D01*
X211258Y81544D01*
X211126Y81497D01*
X210995Y81454D01*
X210977Y81444D01*
X210958Y81437D01*
X210843Y81359D01*
X210726Y81284D01*
X210712Y81270D01*
X210695Y81258D01*
X210603Y81154D01*
X210508Y81053D01*
X210498Y81035D01*
X210485Y81020D01*
X210422Y80896D01*
X210354Y80774D01*
X210349Y80755D01*
X210340Y80737D01*
X210310Y80601D01*
X210275Y80466D01*
X210273Y80438D01*
X210270Y80426D01*
X210271Y80406D01*
X210265Y80306D01*
X210265Y74037D01*
X210268Y74008D01*
X210266Y73978D01*
X210288Y73850D01*
X210305Y73721D01*
X210315Y73694D01*
X210320Y73665D01*
X210374Y73546D01*
X210422Y73426D01*
X210439Y73402D01*
X210451Y73375D01*
X210532Y73274D01*
X210608Y73168D01*
X210631Y73150D01*
X210650Y73127D01*
X210753Y73049D01*
X210853Y72966D01*
X210880Y72953D01*
X210904Y72935D01*
X211048Y72864D01*
X212675Y72191D01*
X215891Y68975D01*
X217631Y64774D01*
X217631Y60226D01*
X215891Y56025D01*
X212675Y52809D01*
X208474Y51069D01*
X203926Y51069D01*
X199725Y52809D01*
X196509Y56025D01*
X194769Y60226D01*
X194769Y64774D01*
X196509Y68975D01*
X199725Y72191D01*
X201352Y72864D01*
X201377Y72879D01*
X201405Y72888D01*
X201515Y72958D01*
X201628Y73022D01*
X201649Y73042D01*
X201674Y73058D01*
X201763Y73153D01*
X201856Y73243D01*
X201872Y73268D01*
X201892Y73290D01*
X201955Y73403D01*
X202023Y73514D01*
X202031Y73542D01*
X202046Y73568D01*
X202078Y73694D01*
X202116Y73818D01*
X202118Y73848D01*
X202125Y73876D01*
X202135Y74037D01*
X202135Y80306D01*
X202118Y80444D01*
X202105Y80582D01*
X202098Y80601D01*
X202095Y80621D01*
X202044Y80750D01*
X201997Y80881D01*
X201986Y80898D01*
X201978Y80917D01*
X201897Y81029D01*
X201819Y81144D01*
X201803Y81158D01*
X201792Y81174D01*
X201684Y81263D01*
X201580Y81355D01*
X201562Y81364D01*
X201547Y81377D01*
X201421Y81436D01*
X201297Y81499D01*
X201277Y81504D01*
X201259Y81512D01*
X201122Y81539D01*
X200987Y81569D01*
X200966Y81568D01*
X200947Y81572D01*
X200808Y81564D01*
X200669Y81559D01*
X200649Y81554D01*
X200629Y81552D01*
X200497Y81510D01*
X200363Y81471D01*
X200346Y81461D01*
X200327Y81454D01*
X200209Y81380D01*
X200089Y81309D01*
X200068Y81291D01*
X200058Y81284D01*
X200044Y81269D01*
X199969Y81203D01*
X198975Y80209D01*
X194774Y78469D01*
X190226Y78469D01*
X186025Y80209D01*
X185031Y81203D01*
X184922Y81288D01*
X184815Y81377D01*
X184796Y81386D01*
X184780Y81398D01*
X184653Y81453D01*
X184527Y81512D01*
X184507Y81516D01*
X184488Y81524D01*
X184350Y81546D01*
X184214Y81572D01*
X184194Y81571D01*
X184174Y81574D01*
X184035Y81561D01*
X183897Y81552D01*
X183878Y81546D01*
X183858Y81544D01*
X183726Y81497D01*
X183595Y81454D01*
X183577Y81444D01*
X183558Y81437D01*
X183443Y81359D01*
X183326Y81284D01*
X183312Y81270D01*
X183295Y81258D01*
X183203Y81154D01*
X183108Y81053D01*
X183098Y81035D01*
X183085Y81020D01*
X183022Y80896D01*
X182954Y80774D01*
X182949Y80755D01*
X182940Y80737D01*
X182910Y80601D01*
X182875Y80466D01*
X182873Y80438D01*
X182870Y80426D01*
X182871Y80406D01*
X182865Y80306D01*
X182865Y74037D01*
X182868Y74008D01*
X182866Y73978D01*
X182888Y73850D01*
X182905Y73721D01*
X182915Y73694D01*
X182920Y73665D01*
X182974Y73546D01*
X183022Y73426D01*
X183039Y73402D01*
X183051Y73375D01*
X183132Y73274D01*
X183208Y73168D01*
X183231Y73150D01*
X183250Y73127D01*
X183353Y73049D01*
X183453Y72966D01*
X183480Y72953D01*
X183504Y72935D01*
X183648Y72864D01*
X185275Y72191D01*
X188491Y68975D01*
X190231Y64774D01*
X190231Y60226D01*
X188491Y56025D01*
X185275Y52809D01*
X181074Y51069D01*
X176526Y51069D01*
G37*
%LPD*%
%LPC*%
G36*
X46118Y447039D02*
X46118Y447039D01*
X37074Y449463D01*
X28965Y454144D01*
X22344Y460765D01*
X17663Y468874D01*
X15239Y477918D01*
X15239Y487282D01*
X17663Y496326D01*
X22344Y504435D01*
X28965Y511056D01*
X37074Y515737D01*
X46118Y518161D01*
X55482Y518161D01*
X64526Y515737D01*
X72635Y511056D01*
X79256Y504435D01*
X83937Y496326D01*
X86361Y487282D01*
X86361Y477918D01*
X83937Y468874D01*
X79256Y460765D01*
X72635Y454144D01*
X64526Y449463D01*
X55482Y447039D01*
X46118Y447039D01*
G37*
%LPD*%
%LPC*%
G36*
X46118Y-60961D02*
X46118Y-60961D01*
X37074Y-58537D01*
X28965Y-53856D01*
X22344Y-47235D01*
X17663Y-39126D01*
X15239Y-30082D01*
X15239Y-20718D01*
X17663Y-11674D01*
X22344Y-3565D01*
X28965Y3056D01*
X37074Y7737D01*
X46118Y10161D01*
X55482Y10161D01*
X64526Y7737D01*
X72635Y3056D01*
X79256Y-3565D01*
X83937Y-11674D01*
X86361Y-20718D01*
X86361Y-30082D01*
X83937Y-39126D01*
X79256Y-47235D01*
X72635Y-53856D01*
X64526Y-58537D01*
X55482Y-60961D01*
X46118Y-60961D01*
G37*
%LPD*%
%LPC*%
G36*
X274718Y-60961D02*
X274718Y-60961D01*
X265674Y-58537D01*
X257565Y-53856D01*
X250944Y-47235D01*
X246263Y-39126D01*
X243839Y-30082D01*
X243839Y-20718D01*
X246263Y-11674D01*
X250944Y-3565D01*
X257565Y3056D01*
X265674Y7737D01*
X274718Y10161D01*
X284082Y10161D01*
X293126Y7737D01*
X301235Y3056D01*
X307856Y-3565D01*
X312537Y-11674D01*
X314961Y-20718D01*
X314961Y-30082D01*
X312537Y-39126D01*
X307856Y-47235D01*
X301235Y-53856D01*
X293126Y-58537D01*
X284082Y-60961D01*
X274718Y-60961D01*
G37*
%LPD*%
%LPC*%
G36*
X199447Y209803D02*
X199447Y209803D01*
X197206Y210731D01*
X195491Y212446D01*
X194563Y214687D01*
X194563Y217113D01*
X195491Y219354D01*
X197206Y221069D01*
X197893Y221353D01*
X197901Y221358D01*
X197910Y221360D01*
X198039Y221436D01*
X198169Y221510D01*
X198176Y221517D01*
X198184Y221522D01*
X198305Y221628D01*
X247913Y271236D01*
X247973Y271314D01*
X248041Y271386D01*
X248070Y271439D01*
X248107Y271487D01*
X248147Y271578D01*
X248195Y271665D01*
X248210Y271723D01*
X248234Y271779D01*
X248249Y271877D01*
X248274Y271973D01*
X248280Y272073D01*
X248284Y272093D01*
X248282Y272105D01*
X248284Y272133D01*
X248284Y402301D01*
X248272Y402399D01*
X248269Y402498D01*
X248252Y402556D01*
X248244Y402616D01*
X248208Y402708D01*
X248180Y402803D01*
X248150Y402855D01*
X248127Y402912D01*
X248069Y402992D01*
X248019Y403077D01*
X247981Y403121D01*
X247979Y403124D01*
X247974Y403128D01*
X247953Y403153D01*
X247941Y403169D01*
X247931Y403177D01*
X247913Y403198D01*
X245386Y405724D01*
X243839Y409459D01*
X243839Y428741D01*
X245386Y432476D01*
X248244Y435334D01*
X251979Y436881D01*
X256021Y436881D01*
X259756Y435334D01*
X262614Y432476D01*
X264161Y428741D01*
X264161Y409459D01*
X262614Y405724D01*
X260087Y403198D01*
X260027Y403120D01*
X259959Y403048D01*
X259934Y403003D01*
X259929Y402996D01*
X259925Y402989D01*
X259893Y402947D01*
X259853Y402856D01*
X259805Y402769D01*
X259790Y402711D01*
X259766Y402655D01*
X259751Y402557D01*
X259726Y402461D01*
X259720Y402361D01*
X259716Y402341D01*
X259718Y402329D01*
X259716Y402301D01*
X259716Y268103D01*
X258846Y266002D01*
X206388Y213545D01*
X206382Y213537D01*
X206375Y213532D01*
X206286Y213413D01*
X206193Y213294D01*
X206189Y213285D01*
X206184Y213278D01*
X206113Y213133D01*
X205829Y212446D01*
X204114Y210731D01*
X201873Y209803D01*
X199447Y209803D01*
G37*
%LPD*%
%LPC*%
G36*
X30523Y53079D02*
X30523Y53079D01*
X16979Y66623D01*
X16979Y85777D01*
X30523Y99321D01*
X32766Y99321D01*
X32884Y99336D01*
X33003Y99343D01*
X33041Y99356D01*
X33082Y99361D01*
X33192Y99404D01*
X33305Y99441D01*
X33340Y99463D01*
X33377Y99478D01*
X33473Y99547D01*
X33574Y99611D01*
X33602Y99641D01*
X33635Y99664D01*
X33711Y99756D01*
X33792Y99843D01*
X33812Y99878D01*
X33837Y99909D01*
X33888Y100017D01*
X33946Y100121D01*
X33956Y100161D01*
X33973Y100197D01*
X33995Y100314D01*
X34025Y100429D01*
X34029Y100489D01*
X34033Y100509D01*
X34031Y100530D01*
X34035Y100590D01*
X34035Y110840D01*
X34020Y110958D01*
X34013Y111076D01*
X34000Y111115D01*
X33995Y111155D01*
X33952Y111266D01*
X33915Y111379D01*
X33893Y111413D01*
X33878Y111451D01*
X33809Y111547D01*
X33745Y111648D01*
X33715Y111675D01*
X33692Y111708D01*
X33600Y111784D01*
X33513Y111866D01*
X33478Y111885D01*
X33447Y111911D01*
X33339Y111962D01*
X33235Y112019D01*
X33195Y112029D01*
X33159Y112046D01*
X33042Y112069D01*
X32927Y112099D01*
X32867Y112102D01*
X32847Y112106D01*
X32826Y112105D01*
X32766Y112109D01*
X32152Y112109D01*
X30664Y113597D01*
X30664Y124411D01*
X32514Y126261D01*
X32591Y126361D01*
X32673Y126456D01*
X32688Y126486D01*
X32709Y126513D01*
X32759Y126628D01*
X32815Y126741D01*
X32822Y126774D01*
X32835Y126804D01*
X32855Y126929D01*
X32881Y127052D01*
X32880Y127085D01*
X32885Y127119D01*
X32874Y127244D01*
X32868Y127369D01*
X32859Y127402D01*
X32856Y127435D01*
X32813Y127554D01*
X32777Y127674D01*
X32759Y127703D01*
X32748Y127734D01*
X32677Y127839D01*
X32612Y127946D01*
X32588Y127970D01*
X32569Y127998D01*
X32475Y128081D01*
X32385Y128169D01*
X32345Y128196D01*
X32331Y128208D01*
X32312Y128218D01*
X32251Y128258D01*
X31645Y128608D01*
X31171Y129082D01*
X30837Y129661D01*
X30664Y130307D01*
X30664Y132819D01*
X37193Y132819D01*
X37311Y132834D01*
X37429Y132842D01*
X37468Y132854D01*
X37508Y132859D01*
X37619Y132903D01*
X37732Y132940D01*
X37766Y132961D01*
X37804Y132976D01*
X37900Y133046D01*
X38001Y133110D01*
X38028Y133139D01*
X38061Y133163D01*
X38098Y133207D01*
X38174Y133144D01*
X38260Y133063D01*
X38296Y133043D01*
X38327Y133017D01*
X38435Y132967D01*
X38539Y132909D01*
X38578Y132899D01*
X38615Y132882D01*
X38731Y132859D01*
X38847Y132830D01*
X38907Y132826D01*
X38927Y132822D01*
X38947Y132823D01*
X39007Y132819D01*
X45536Y132819D01*
X45536Y130307D01*
X45363Y129661D01*
X45029Y129082D01*
X44555Y128608D01*
X43949Y128258D01*
X43849Y128182D01*
X43745Y128111D01*
X43722Y128086D01*
X43695Y128066D01*
X43617Y127967D01*
X43534Y127873D01*
X43519Y127843D01*
X43498Y127817D01*
X43447Y127702D01*
X43389Y127590D01*
X43382Y127557D01*
X43368Y127526D01*
X43347Y127402D01*
X43320Y127279D01*
X43321Y127246D01*
X43315Y127213D01*
X43326Y127087D01*
X43329Y126962D01*
X43339Y126929D01*
X43342Y126896D01*
X43383Y126777D01*
X43418Y126656D01*
X43435Y126627D01*
X43446Y126595D01*
X43516Y126490D01*
X43579Y126382D01*
X43612Y126346D01*
X43622Y126330D01*
X43638Y126316D01*
X43686Y126261D01*
X45536Y124411D01*
X45536Y113597D01*
X44048Y112109D01*
X43434Y112109D01*
X43316Y112094D01*
X43197Y112086D01*
X43159Y112074D01*
X43118Y112069D01*
X43008Y112025D01*
X42895Y111988D01*
X42860Y111967D01*
X42823Y111952D01*
X42727Y111882D01*
X42626Y111818D01*
X42598Y111789D01*
X42565Y111765D01*
X42489Y111673D01*
X42408Y111587D01*
X42388Y111551D01*
X42363Y111520D01*
X42312Y111412D01*
X42254Y111308D01*
X42244Y111269D01*
X42227Y111232D01*
X42205Y111116D01*
X42175Y111000D01*
X42171Y110940D01*
X42167Y110920D01*
X42169Y110900D01*
X42165Y110840D01*
X42165Y100590D01*
X42180Y100472D01*
X42187Y100353D01*
X42200Y100315D01*
X42205Y100274D01*
X42248Y100164D01*
X42285Y100051D01*
X42307Y100016D01*
X42322Y99979D01*
X42391Y99883D01*
X42455Y99782D01*
X42485Y99754D01*
X42508Y99721D01*
X42600Y99645D01*
X42687Y99564D01*
X42722Y99544D01*
X42753Y99519D01*
X42861Y99468D01*
X42965Y99410D01*
X43005Y99400D01*
X43041Y99383D01*
X43158Y99361D01*
X43273Y99331D01*
X43333Y99327D01*
X43353Y99323D01*
X43374Y99325D01*
X43434Y99321D01*
X49677Y99321D01*
X63221Y85777D01*
X63221Y66623D01*
X49677Y53079D01*
X30523Y53079D01*
G37*
%LPD*%
%LPC*%
G36*
X280523Y53079D02*
X280523Y53079D01*
X266979Y66623D01*
X266979Y85777D01*
X280523Y99321D01*
X286766Y99321D01*
X286884Y99336D01*
X287003Y99343D01*
X287041Y99356D01*
X287082Y99361D01*
X287192Y99404D01*
X287305Y99441D01*
X287340Y99463D01*
X287377Y99478D01*
X287473Y99547D01*
X287574Y99611D01*
X287602Y99641D01*
X287635Y99664D01*
X287711Y99756D01*
X287792Y99843D01*
X287812Y99878D01*
X287837Y99909D01*
X287888Y100017D01*
X287946Y100121D01*
X287956Y100161D01*
X287973Y100197D01*
X287995Y100314D01*
X288025Y100429D01*
X288029Y100489D01*
X288033Y100509D01*
X288031Y100530D01*
X288035Y100590D01*
X288035Y110840D01*
X288020Y110958D01*
X288013Y111076D01*
X288000Y111115D01*
X287995Y111155D01*
X287952Y111266D01*
X287915Y111379D01*
X287893Y111413D01*
X287878Y111451D01*
X287809Y111547D01*
X287745Y111648D01*
X287715Y111675D01*
X287692Y111708D01*
X287600Y111784D01*
X287513Y111866D01*
X287478Y111885D01*
X287447Y111911D01*
X287339Y111962D01*
X287235Y112019D01*
X287195Y112029D01*
X287159Y112046D01*
X287042Y112069D01*
X286927Y112099D01*
X286867Y112102D01*
X286847Y112106D01*
X286826Y112105D01*
X286766Y112109D01*
X286152Y112109D01*
X284664Y113597D01*
X284664Y124411D01*
X286514Y126261D01*
X286591Y126361D01*
X286673Y126456D01*
X286688Y126486D01*
X286709Y126513D01*
X286759Y126628D01*
X286815Y126741D01*
X286822Y126774D01*
X286835Y126804D01*
X286855Y126929D01*
X286881Y127052D01*
X286880Y127085D01*
X286885Y127119D01*
X286874Y127244D01*
X286868Y127369D01*
X286859Y127402D01*
X286856Y127435D01*
X286813Y127554D01*
X286777Y127674D01*
X286759Y127703D01*
X286748Y127734D01*
X286677Y127839D01*
X286612Y127946D01*
X286588Y127970D01*
X286569Y127998D01*
X286475Y128081D01*
X286385Y128169D01*
X286345Y128196D01*
X286331Y128208D01*
X286312Y128218D01*
X286251Y128258D01*
X285645Y128608D01*
X285171Y129082D01*
X284837Y129661D01*
X284664Y130307D01*
X284664Y132819D01*
X291193Y132819D01*
X291311Y132834D01*
X291429Y132842D01*
X291468Y132854D01*
X291508Y132859D01*
X291619Y132903D01*
X291732Y132940D01*
X291766Y132961D01*
X291804Y132976D01*
X291900Y133046D01*
X292001Y133110D01*
X292028Y133139D01*
X292061Y133163D01*
X292098Y133207D01*
X292174Y133144D01*
X292260Y133063D01*
X292296Y133043D01*
X292327Y133017D01*
X292435Y132967D01*
X292539Y132909D01*
X292578Y132899D01*
X292615Y132882D01*
X292731Y132859D01*
X292847Y132830D01*
X292907Y132826D01*
X292927Y132822D01*
X292947Y132823D01*
X293007Y132819D01*
X299536Y132819D01*
X299536Y130307D01*
X299363Y129661D01*
X299029Y129082D01*
X298555Y128608D01*
X297949Y128258D01*
X297849Y128182D01*
X297745Y128111D01*
X297722Y128086D01*
X297695Y128066D01*
X297617Y127967D01*
X297534Y127873D01*
X297519Y127843D01*
X297498Y127817D01*
X297447Y127702D01*
X297389Y127590D01*
X297382Y127557D01*
X297368Y127526D01*
X297347Y127402D01*
X297320Y127279D01*
X297321Y127246D01*
X297315Y127213D01*
X297326Y127087D01*
X297329Y126962D01*
X297339Y126929D01*
X297342Y126896D01*
X297383Y126777D01*
X297418Y126656D01*
X297435Y126627D01*
X297446Y126595D01*
X297516Y126490D01*
X297579Y126382D01*
X297612Y126346D01*
X297622Y126330D01*
X297638Y126316D01*
X297686Y126261D01*
X299536Y124411D01*
X299536Y113597D01*
X298048Y112109D01*
X297434Y112109D01*
X297316Y112094D01*
X297197Y112086D01*
X297159Y112074D01*
X297118Y112069D01*
X297008Y112025D01*
X296895Y111988D01*
X296860Y111967D01*
X296823Y111952D01*
X296727Y111882D01*
X296626Y111818D01*
X296598Y111789D01*
X296565Y111765D01*
X296489Y111673D01*
X296408Y111587D01*
X296388Y111551D01*
X296363Y111520D01*
X296312Y111412D01*
X296254Y111308D01*
X296244Y111269D01*
X296227Y111232D01*
X296205Y111116D01*
X296175Y111000D01*
X296171Y110940D01*
X296167Y110920D01*
X296169Y110900D01*
X296165Y110840D01*
X296165Y100590D01*
X296180Y100472D01*
X296187Y100353D01*
X296200Y100315D01*
X296205Y100274D01*
X296248Y100164D01*
X296285Y100051D01*
X296307Y100016D01*
X296322Y99979D01*
X296391Y99883D01*
X296455Y99782D01*
X296485Y99754D01*
X296508Y99721D01*
X296600Y99645D01*
X296687Y99564D01*
X296722Y99544D01*
X296753Y99519D01*
X296861Y99468D01*
X296965Y99410D01*
X297005Y99400D01*
X297041Y99383D01*
X297158Y99361D01*
X297273Y99331D01*
X297333Y99327D01*
X297353Y99323D01*
X297374Y99325D01*
X297434Y99321D01*
X299677Y99321D01*
X313221Y85777D01*
X313221Y66623D01*
X299677Y53079D01*
X280523Y53079D01*
G37*
%LPD*%
%LPC*%
G36*
X120960Y316992D02*
X120960Y316992D01*
X118952Y317824D01*
X117416Y319360D01*
X116584Y321368D01*
X116584Y321642D01*
X116572Y321740D01*
X116569Y321839D01*
X116552Y321897D01*
X116544Y321957D01*
X116508Y322049D01*
X116480Y322144D01*
X116450Y322196D01*
X116427Y322253D01*
X116369Y322333D01*
X116319Y322418D01*
X116253Y322494D01*
X116241Y322510D01*
X116231Y322518D01*
X116213Y322539D01*
X110235Y328516D01*
X110235Y401318D01*
X110232Y401347D01*
X110234Y401376D01*
X110212Y401504D01*
X110195Y401633D01*
X110185Y401661D01*
X110180Y401690D01*
X110126Y401808D01*
X110078Y401929D01*
X110061Y401953D01*
X110049Y401980D01*
X109968Y402081D01*
X109892Y402186D01*
X109869Y402205D01*
X109850Y402228D01*
X109747Y402306D01*
X109647Y402389D01*
X109620Y402402D01*
X109596Y402419D01*
X109452Y402490D01*
X108544Y402866D01*
X105686Y405724D01*
X104139Y409459D01*
X104139Y428741D01*
X105686Y432476D01*
X108544Y435334D01*
X112279Y436881D01*
X116321Y436881D01*
X120056Y435334D01*
X122914Y432476D01*
X124461Y428741D01*
X124461Y409459D01*
X122914Y405724D01*
X120056Y402866D01*
X119148Y402490D01*
X119123Y402476D01*
X119095Y402467D01*
X118985Y402397D01*
X118872Y402333D01*
X118851Y402312D01*
X118826Y402296D01*
X118737Y402202D01*
X118644Y402111D01*
X118628Y402086D01*
X118608Y402065D01*
X118545Y401951D01*
X118477Y401840D01*
X118469Y401812D01*
X118454Y401786D01*
X118422Y401661D01*
X118384Y401536D01*
X118382Y401507D01*
X118375Y401478D01*
X118365Y401318D01*
X118365Y332409D01*
X118377Y332311D01*
X118380Y332212D01*
X118397Y332154D01*
X118405Y332094D01*
X118441Y332002D01*
X118469Y331907D01*
X118499Y331855D01*
X118522Y331798D01*
X118580Y331718D01*
X118630Y331633D01*
X118696Y331557D01*
X118708Y331541D01*
X118718Y331533D01*
X118736Y331512D01*
X121961Y328287D01*
X122039Y328227D01*
X122111Y328159D01*
X122164Y328130D01*
X122212Y328093D01*
X122303Y328053D01*
X122390Y328005D01*
X122448Y327990D01*
X122504Y327966D01*
X122602Y327951D01*
X122698Y327926D01*
X122798Y327920D01*
X122818Y327916D01*
X122830Y327918D01*
X122858Y327916D01*
X123132Y327916D01*
X125140Y327084D01*
X126676Y325548D01*
X127508Y323540D01*
X127508Y321368D01*
X126676Y319360D01*
X125140Y317824D01*
X123132Y316992D01*
X120960Y316992D01*
G37*
%LPD*%
%LPC*%
G36*
X137679Y401319D02*
X137679Y401319D01*
X133944Y402866D01*
X131086Y405724D01*
X129539Y409459D01*
X129539Y428741D01*
X131086Y432476D01*
X133944Y435334D01*
X137679Y436881D01*
X141721Y436881D01*
X145456Y435334D01*
X148314Y432476D01*
X149861Y428741D01*
X149861Y409459D01*
X148314Y405724D01*
X145456Y402866D01*
X141721Y401319D01*
X137679Y401319D01*
G37*
%LPD*%
%LPC*%
G36*
X86879Y401319D02*
X86879Y401319D01*
X83144Y402866D01*
X80286Y405724D01*
X78739Y409459D01*
X78739Y428741D01*
X80286Y432476D01*
X83144Y435334D01*
X86879Y436881D01*
X90921Y436881D01*
X94656Y435334D01*
X97514Y432476D01*
X99061Y428741D01*
X99061Y409459D01*
X97514Y405724D01*
X94656Y402866D01*
X90921Y401319D01*
X86879Y401319D01*
G37*
%LPD*%
%LPC*%
G36*
X61479Y401319D02*
X61479Y401319D01*
X57744Y402866D01*
X54886Y405724D01*
X53339Y409459D01*
X53339Y428741D01*
X54886Y432476D01*
X57744Y435334D01*
X61479Y436881D01*
X65521Y436881D01*
X69256Y435334D01*
X72114Y432476D01*
X73661Y428741D01*
X73661Y409459D01*
X72114Y405724D01*
X69256Y402866D01*
X65521Y401319D01*
X61479Y401319D01*
G37*
%LPD*%
%LPC*%
G36*
X277379Y401319D02*
X277379Y401319D01*
X273644Y402866D01*
X270786Y405724D01*
X269239Y409459D01*
X269239Y428741D01*
X270786Y432476D01*
X273644Y435334D01*
X277379Y436881D01*
X281421Y436881D01*
X285156Y435334D01*
X288014Y432476D01*
X289561Y428741D01*
X289561Y409459D01*
X288014Y405724D01*
X285156Y402866D01*
X281421Y401319D01*
X277379Y401319D01*
G37*
%LPD*%
%LPC*%
G36*
X36079Y401319D02*
X36079Y401319D01*
X32344Y402866D01*
X29486Y405724D01*
X27939Y409459D01*
X27939Y428741D01*
X29486Y432476D01*
X32344Y435334D01*
X36079Y436881D01*
X40121Y436881D01*
X43856Y435334D01*
X46714Y432476D01*
X48261Y428741D01*
X48261Y409459D01*
X46714Y405724D01*
X43856Y402866D01*
X40121Y401319D01*
X36079Y401319D01*
G37*
%LPD*%
%LPC*%
G36*
X149126Y51069D02*
X149126Y51069D01*
X144925Y52809D01*
X141709Y56025D01*
X139969Y60226D01*
X139969Y64774D01*
X141709Y68975D01*
X144925Y72191D01*
X149126Y73931D01*
X153674Y73931D01*
X157875Y72191D01*
X161091Y68975D01*
X162831Y64774D01*
X162831Y60226D01*
X161091Y56025D01*
X157875Y52809D01*
X153674Y51069D01*
X149126Y51069D01*
G37*
%LPD*%
%LPC*%
G36*
X135426Y78469D02*
X135426Y78469D01*
X131225Y80209D01*
X128009Y83425D01*
X126269Y87626D01*
X126269Y92174D01*
X128009Y96375D01*
X131225Y99591D01*
X135426Y101331D01*
X139974Y101331D01*
X144175Y99591D01*
X147391Y96375D01*
X149131Y92174D01*
X149131Y87626D01*
X147391Y83425D01*
X144175Y80209D01*
X139974Y78469D01*
X135426Y78469D01*
G37*
%LPD*%
%LPC*%
G36*
X108026Y78469D02*
X108026Y78469D01*
X103825Y80209D01*
X100609Y83425D01*
X98869Y87626D01*
X98869Y92174D01*
X100609Y96375D01*
X103825Y99591D01*
X108026Y101331D01*
X112574Y101331D01*
X116775Y99591D01*
X119991Y96375D01*
X121731Y92174D01*
X121731Y87626D01*
X119991Y83425D01*
X116775Y80209D01*
X112574Y78469D01*
X108026Y78469D01*
G37*
%LPD*%
%LPC*%
G36*
X231139Y421639D02*
X231139Y421639D01*
X231139Y436579D01*
X232500Y436136D01*
X233925Y435410D01*
X235219Y434470D01*
X236350Y433339D01*
X237290Y432045D01*
X238016Y430620D01*
X238511Y429099D01*
X238761Y427520D01*
X238761Y421639D01*
X231139Y421639D01*
G37*
%LPD*%
%LPC*%
G36*
X167639Y421639D02*
X167639Y421639D01*
X167639Y436579D01*
X169000Y436136D01*
X170425Y435410D01*
X171719Y434470D01*
X172850Y433339D01*
X173790Y432045D01*
X174516Y430620D01*
X175011Y429099D01*
X175261Y427520D01*
X175261Y421639D01*
X167639Y421639D01*
G37*
%LPD*%
%LPC*%
G36*
X167639Y416561D02*
X167639Y416561D01*
X175261Y416561D01*
X175261Y410680D01*
X175011Y409101D01*
X174516Y407580D01*
X173790Y406155D01*
X172850Y404861D01*
X171719Y403730D01*
X170425Y402790D01*
X169000Y402064D01*
X167639Y401621D01*
X167639Y416561D01*
G37*
%LPD*%
%LPC*%
G36*
X231139Y416561D02*
X231139Y416561D01*
X238761Y416561D01*
X238761Y410680D01*
X238511Y409101D01*
X238016Y407580D01*
X237290Y406155D01*
X236350Y404861D01*
X235219Y403730D01*
X233925Y402790D01*
X232500Y402064D01*
X231139Y401621D01*
X231139Y416561D01*
G37*
%LPD*%
%LPC*%
G36*
X218439Y421639D02*
X218439Y421639D01*
X218439Y427520D01*
X218689Y429099D01*
X219184Y430620D01*
X219910Y432045D01*
X220850Y433339D01*
X221981Y434470D01*
X223275Y435410D01*
X224700Y436136D01*
X226061Y436579D01*
X226061Y421639D01*
X218439Y421639D01*
G37*
%LPD*%
%LPC*%
G36*
X154939Y421639D02*
X154939Y421639D01*
X154939Y427520D01*
X155189Y429099D01*
X155684Y430620D01*
X156410Y432045D01*
X157350Y433339D01*
X158481Y434470D01*
X159775Y435410D01*
X161200Y436136D01*
X162561Y436579D01*
X162561Y421639D01*
X154939Y421639D01*
G37*
%LPD*%
%LPC*%
G36*
X161200Y402064D02*
X161200Y402064D01*
X159775Y402790D01*
X159015Y403342D01*
X158481Y403730D01*
X157350Y404861D01*
X156410Y406155D01*
X155684Y407580D01*
X155189Y409101D01*
X154939Y410680D01*
X154939Y416561D01*
X162561Y416561D01*
X162561Y401621D01*
X161200Y402064D01*
G37*
%LPD*%
%LPC*%
G36*
X224700Y402064D02*
X224700Y402064D01*
X223275Y402790D01*
X222515Y403342D01*
X221981Y403730D01*
X220850Y404861D01*
X219910Y406155D01*
X219184Y407580D01*
X218689Y409101D01*
X218439Y410680D01*
X218439Y416561D01*
X226061Y416561D01*
X226061Y401621D01*
X224700Y402064D01*
G37*
%LPD*%
%LPC*%
G36*
X126249Y64749D02*
X126249Y64749D01*
X126249Y73717D01*
X126677Y73649D01*
X128388Y73093D01*
X129991Y72277D01*
X131447Y71219D01*
X132719Y69947D01*
X133777Y68491D01*
X134593Y66888D01*
X135149Y65177D01*
X135217Y64749D01*
X126249Y64749D01*
G37*
%LPD*%
%LPC*%
G36*
X126249Y60251D02*
X126249Y60251D01*
X135217Y60251D01*
X135149Y59823D01*
X134593Y58112D01*
X133777Y56509D01*
X132719Y55053D01*
X131447Y53781D01*
X129991Y52723D01*
X128388Y51907D01*
X126677Y51351D01*
X126249Y51283D01*
X126249Y60251D01*
G37*
%LPD*%
%LPC*%
G36*
X112783Y64749D02*
X112783Y64749D01*
X112851Y65177D01*
X113407Y66888D01*
X114223Y68491D01*
X115281Y69947D01*
X116553Y71219D01*
X118009Y72277D01*
X119612Y73093D01*
X121323Y73649D01*
X121751Y73717D01*
X121751Y64749D01*
X112783Y64749D01*
G37*
%LPD*%
%LPC*%
G36*
X121323Y51351D02*
X121323Y51351D01*
X119612Y51907D01*
X118009Y52723D01*
X116553Y53781D01*
X115281Y55053D01*
X114223Y56509D01*
X113407Y58112D01*
X112851Y59823D01*
X112783Y60251D01*
X121751Y60251D01*
X121751Y51283D01*
X121323Y51351D01*
G37*
%LPD*%
%LPC*%
G36*
X294277Y137173D02*
X294277Y137173D01*
X294277Y141891D01*
X297330Y141891D01*
X297976Y141718D01*
X298555Y141384D01*
X299029Y140910D01*
X299363Y140331D01*
X299536Y139685D01*
X299536Y137173D01*
X294277Y137173D01*
G37*
%LPD*%
%LPC*%
G36*
X40277Y137173D02*
X40277Y137173D01*
X40277Y141891D01*
X43330Y141891D01*
X43976Y141718D01*
X44555Y141384D01*
X45029Y140910D01*
X45363Y140331D01*
X45536Y139685D01*
X45536Y137173D01*
X40277Y137173D01*
G37*
%LPD*%
%LPC*%
G36*
X221164Y137173D02*
X221164Y137173D01*
X221164Y139685D01*
X221337Y140331D01*
X221671Y140910D01*
X222145Y141384D01*
X222724Y141718D01*
X223370Y141891D01*
X226423Y141891D01*
X226423Y137173D01*
X221164Y137173D01*
G37*
%LPD*%
%LPC*%
G36*
X30664Y137173D02*
X30664Y137173D01*
X30664Y139685D01*
X30837Y140331D01*
X31171Y140910D01*
X31645Y141384D01*
X32224Y141718D01*
X32870Y141891D01*
X35923Y141891D01*
X35923Y137173D01*
X30664Y137173D01*
G37*
%LPD*%
%LPC*%
G36*
X284664Y137173D02*
X284664Y137173D01*
X284664Y139685D01*
X284837Y140331D01*
X285171Y140910D01*
X285645Y141384D01*
X286224Y141718D01*
X286870Y141891D01*
X289923Y141891D01*
X289923Y137173D01*
X284664Y137173D01*
G37*
%LPD*%
%LPC*%
G36*
X165099Y419099D02*
X165099Y419099D01*
X165099Y419101D01*
X165101Y419101D01*
X165101Y419099D01*
X165099Y419099D01*
G37*
%LPD*%
%LPC*%
G36*
X228599Y419099D02*
X228599Y419099D01*
X228599Y419101D01*
X228601Y419101D01*
X228601Y419099D01*
X228599Y419099D01*
G37*
%LPD*%
D10*
X228600Y411480D02*
X228600Y426720D01*
X254000Y426720D02*
X254000Y411480D01*
X279400Y411480D02*
X279400Y426720D01*
X38100Y426720D02*
X38100Y411480D01*
X63500Y411480D02*
X63500Y426720D01*
X88900Y426720D02*
X88900Y411480D01*
X114300Y411480D02*
X114300Y426720D01*
X139700Y426720D02*
X139700Y411480D01*
X165100Y411480D02*
X165100Y426720D01*
D11*
X228600Y119004D03*
X228600Y134996D03*
X38100Y119004D03*
X38100Y134996D03*
X177800Y119004D03*
X177800Y134996D03*
X203200Y119004D03*
X203200Y134996D03*
X152400Y119004D03*
X152400Y134996D03*
D12*
X110300Y89900D03*
X124000Y62500D03*
X137700Y89900D03*
X151400Y62500D03*
X165100Y89900D03*
X178800Y62500D03*
X192500Y89900D03*
X206200Y62500D03*
X219900Y89900D03*
D13*
X40100Y76200D03*
X290100Y76200D03*
D11*
X292100Y119004D03*
X292100Y134996D03*
D14*
X163830Y203200D03*
X154940Y203200D03*
X191770Y203200D03*
X127000Y177800D03*
X50800Y177800D03*
X50800Y152400D03*
X50800Y139700D03*
X25400Y139700D03*
X25400Y241300D03*
X25400Y266700D03*
X25400Y279400D03*
X25400Y304800D03*
X25400Y368300D03*
X25400Y355600D03*
X92710Y337820D03*
X226060Y193040D03*
X276860Y193040D03*
X279400Y139700D03*
X304800Y139700D03*
X215900Y215900D03*
X190500Y254000D03*
X127000Y266700D03*
X190500Y279400D03*
X171450Y309880D03*
X232410Y227330D03*
X139700Y177800D03*
X172720Y203200D03*
X182880Y203200D03*
X228600Y260350D03*
X250190Y248920D03*
X184150Y342900D03*
X123190Y337820D03*
X165100Y363220D03*
X76200Y393700D03*
X147320Y276860D03*
X127000Y228600D03*
X127000Y203200D03*
X127000Y152400D03*
X139700Y152400D03*
X184150Y182880D03*
X171450Y182880D03*
X166370Y223520D03*
X209550Y194310D03*
D15*
X203200Y134996D02*
X146050Y192146D01*
X146050Y247650D02*
X177800Y279400D01*
X146050Y247650D02*
X146050Y192146D01*
D14*
X177800Y279400D03*
X139700Y317500D03*
D15*
X139700Y189606D01*
X152400Y176906D02*
X152400Y134996D01*
X152400Y176906D02*
X139700Y189606D01*
X38100Y119004D02*
X38100Y78200D01*
X40100Y76200D01*
X292100Y78200D02*
X292100Y119004D01*
X292100Y78200D02*
X290100Y76200D01*
X203200Y101600D02*
X203200Y119004D01*
X203200Y101600D02*
X206200Y98600D01*
X206200Y62500D01*
X219900Y110304D02*
X228600Y119004D01*
X219900Y110304D02*
X219900Y89900D01*
X192500Y104304D02*
X177800Y119004D01*
X192500Y104304D02*
X192500Y89900D01*
X160396Y119004D02*
X152400Y119004D01*
X178800Y100600D02*
X178800Y62500D01*
X178800Y100600D02*
X160396Y119004D01*
X177800Y134996D02*
X177800Y146050D01*
D14*
X177800Y146050D03*
X254000Y146050D03*
D15*
X254000Y228600D01*
D14*
X254000Y228600D03*
X241300Y114300D03*
D15*
X241300Y146050D02*
X247650Y152400D01*
X247650Y215900D01*
X241300Y222250D01*
D14*
X241300Y222250D03*
D15*
X241300Y146050D02*
X241300Y114300D01*
X114300Y330200D02*
X114300Y419100D01*
X114300Y330200D02*
X122046Y322454D01*
D14*
X122046Y322454D03*
D16*
X254000Y269240D02*
X254000Y419100D01*
X254000Y269240D02*
X200660Y215900D01*
D17*
X200660Y215900D03*
D18*
X50800Y-25400D03*
X279400Y-25400D03*
X50800Y482600D03*
M02*
