G04 EAGLE Gerber RS-274X export*
G75*
%MOMM*%
%FSLAX34Y34*%
%LPD*%
%INTop Paste*%
%IPPOS*%
%AMOC8*
5,1,8,0,0,1.08239X$1,22.5*%
G01*
%ADD10R,0.980200X0.920900*%
%ADD11R,1.136100X1.379100*%
%ADD12R,1.815300X1.195500*%
%ADD13R,0.920900X0.980200*%
%ADD14R,0.960000X1.511800*%
%ADD15R,0.597100X1.148500*%
%ADD16R,1.300000X2.000000*%
%ADD17R,1.300000X1.300000*%
%ADD18R,0.870900X0.979100*%
%ADD19R,0.599100X1.971600*%
%ADD20R,0.400000X0.500000*%
%ADD21R,1.900000X1.100000*%
%ADD22R,1.400000X0.600000*%
%ADD23R,1.148500X0.597100*%
%ADD24R,1.361200X1.114600*%
%ADD25R,0.979100X0.870900*%


D10*
X107950Y337946D03*
X107950Y322454D03*
D11*
X237065Y165100D03*
X220135Y165100D03*
X237065Y241300D03*
X220135Y241300D03*
X287865Y165100D03*
X270935Y165100D03*
X287865Y241300D03*
X270935Y241300D03*
D12*
X139700Y163201D03*
X139700Y192399D03*
D11*
X169335Y165100D03*
X186265Y165100D03*
D13*
X147446Y215900D03*
X131954Y215900D03*
D14*
X36954Y292100D03*
X64646Y292100D03*
X36954Y254000D03*
X64646Y254000D03*
D15*
X53950Y362398D03*
X34950Y362398D03*
X44450Y341182D03*
D16*
X239200Y355600D03*
D17*
X294200Y367100D03*
X294200Y344100D03*
D18*
X169804Y241300D03*
X185796Y241300D03*
X131704Y241300D03*
X147696Y241300D03*
D16*
X239200Y292100D03*
D17*
X294200Y303600D03*
X294200Y280600D03*
D18*
X217546Y387350D03*
X201554Y387350D03*
X84196Y381000D03*
X68204Y381000D03*
X99954Y292100D03*
X115946Y292100D03*
X99954Y260350D03*
X115946Y260350D03*
D19*
X133350Y292783D03*
X146050Y292783D03*
X158750Y292783D03*
X171450Y292783D03*
X171450Y342217D03*
X158750Y342217D03*
X146050Y342217D03*
X133350Y342217D03*
D20*
X168050Y192700D03*
X174550Y192700D03*
X181050Y192700D03*
X187550Y192700D03*
X187550Y213700D03*
X181050Y213700D03*
X174550Y213700D03*
X168050Y213700D03*
D21*
X177800Y203200D03*
D22*
X240100Y193700D03*
X240100Y212700D03*
X217100Y203200D03*
X290900Y193700D03*
X290900Y212700D03*
X267900Y203200D03*
D23*
X74108Y193700D03*
X74108Y212700D03*
X52892Y203200D03*
D24*
X101600Y205504D03*
X101600Y175496D03*
D18*
X71496Y165100D03*
X55504Y165100D03*
D25*
X203200Y312796D03*
X203200Y296804D03*
M02*
