M48
;GenerationSoftware,Autodesk,EAGLE,9.3.0*%
;CreationDate,2019-03-06T18:35:23Z*%
FMAT,2
ICI,OFF
METRIC,TZ,000.000
T6C0.330
T5C0.457
T4C0.900
T3C1.016
T2C3.100
T1C3.500
%
G90
M71
T1
X5080Y48260
X27940Y-2540
X5080Y-2540
T2
X29010Y7620
X4010Y7620
T3
X16510Y41910
X13970Y41910
X11430Y41910
X8890Y41910
X6350Y41910
X3810Y41910
X27940Y41910
X25400Y41910
X22860Y41910
T4
X21990Y8990
X20620Y6250
X19250Y8990
X17880Y6250
X16510Y8990
X15140Y6250
X13770Y8990
X12400Y6250
X11030Y8990
T5
X20066Y21590
T6
X23241Y22733
X13970Y17780
X17272Y20320
X18288Y20320
X22860Y26035
X25019Y24892
X18415Y34290
X12319Y33782
X16510Y36322
X7620Y39370
X14732Y27686
X12700Y22860
X12700Y20320
X16383Y20320
X13970Y15240
X18415Y18288
X17145Y18288
X16637Y22352
X20955Y19431
X17780Y27940
X13970Y31750
X17780Y14605
X25400Y14605
X25400Y22860
X24130Y11430
X24130Y22225
X12205Y32245
X17145Y30988
X19050Y27940
X12700Y26670
X19050Y25400
X21590Y21590
X30480Y13970
X27940Y13970
X27686Y19304
X22606Y19304
X9271Y33782
X2540Y35560
X2540Y36830
X2540Y30480
X2540Y27940
X2540Y26670
X2540Y24130
X2540Y13970
X5080Y13970
X5080Y15240
X5080Y17780
X12700Y17780
X19177Y20320
X15494Y20320
X12700Y15240
M30